G04 #@! TF.GenerationSoftware,KiCad,Pcbnew,(5.1.5)-3*
G04 #@! TF.CreationDate,2020-05-20T20:16:18+02:00*
G04 #@! TF.ProjectId,SAR-APRS,5341522d-4150-4525-932e-6b696361645f,rev?*
G04 #@! TF.SameCoordinates,Original*
G04 #@! TF.FileFunction,Soldermask,Bot*
G04 #@! TF.FilePolarity,Negative*
%FSLAX46Y46*%
G04 Gerber Fmt 4.6, Leading zero omitted, Abs format (unit mm)*
G04 Created by KiCad (PCBNEW (5.1.5)-3) date 2020-05-20 20:16:18*
%MOMM*%
%LPD*%
G04 APERTURE LIST*
%ADD10R,2.000000X1.000000*%
%ADD11R,1.000000X2.000000*%
%ADD12C,0.900000*%
%ADD13R,1.524000X1.524000*%
%ADD14C,2.300000*%
%ADD15C,2.500000*%
%ADD16C,0.025400*%
G04 APERTURE END LIST*
D10*
X115500000Y-113500000D03*
X115500000Y-115000000D03*
X115500000Y-116500000D03*
X115500000Y-118000000D03*
X115500000Y-119500000D03*
X115500000Y-121000000D03*
X115500000Y-122500000D03*
X115500000Y-124000000D03*
X115500000Y-125500000D03*
X115500000Y-127000000D03*
X115500000Y-128500000D03*
X115500000Y-130000000D03*
X115500000Y-131500000D03*
D11*
X114250000Y-133500000D03*
X112750000Y-133500000D03*
X111250000Y-133500000D03*
X109750000Y-133500000D03*
X108250000Y-133500000D03*
X106750000Y-133500000D03*
X105250000Y-133500000D03*
X103750000Y-133500000D03*
D10*
X102500000Y-131500000D03*
X102500000Y-130000000D03*
X102500000Y-128500000D03*
X102500000Y-127000000D03*
X102500000Y-125500000D03*
X102500000Y-124000000D03*
X102500000Y-122500000D03*
X102500000Y-121000000D03*
X102500000Y-119500000D03*
X102500000Y-118000000D03*
X102500000Y-116500000D03*
X102500000Y-115000000D03*
X102500000Y-113500000D03*
D12*
X112700000Y-144300000D03*
X108300000Y-144300000D03*
D13*
X109290000Y-84300000D03*
X111830000Y-84300000D03*
X114370000Y-84300000D03*
X116910000Y-84300000D03*
X140330000Y-117460000D03*
X142870000Y-117460000D03*
X140330000Y-120000000D03*
X142870000Y-120000000D03*
X140330000Y-122540000D03*
X142870000Y-122540000D03*
X142900000Y-114310000D03*
X142900000Y-111770000D03*
X142900000Y-109230000D03*
X142900000Y-106690000D03*
X118800000Y-143570000D03*
X118800000Y-141030000D03*
D14*
X125000000Y-54500000D03*
D15*
X122460000Y-57040000D03*
X127540000Y-57040000D03*
X127540000Y-51960000D03*
X122460000Y-51960000D03*
D16*
G36*
X149987300Y-149987300D02*
G01*
X100012700Y-149987300D01*
X100012700Y-51500000D01*
X101487300Y-51500000D01*
X101487300Y-148500000D01*
X101487544Y-148502478D01*
X101488267Y-148504860D01*
X101489440Y-148507056D01*
X101491020Y-148508980D01*
X101492944Y-148510560D01*
X101495140Y-148511733D01*
X101497522Y-148512456D01*
X101500000Y-148512700D01*
X148500000Y-148512700D01*
X148502478Y-148512456D01*
X148504860Y-148511733D01*
X148507056Y-148510560D01*
X148508980Y-148508980D01*
X148510560Y-148507056D01*
X148511733Y-148504860D01*
X148512456Y-148502478D01*
X148512700Y-148500000D01*
X148512700Y-51500000D01*
X148512456Y-51497522D01*
X148511733Y-51495140D01*
X148510560Y-51492944D01*
X148508980Y-51491020D01*
X148507056Y-51489440D01*
X148504860Y-51488267D01*
X148502478Y-51487544D01*
X148500000Y-51487300D01*
X101500000Y-51487300D01*
X101497522Y-51487544D01*
X101495140Y-51488267D01*
X101492944Y-51489440D01*
X101491020Y-51491020D01*
X101489440Y-51492944D01*
X101488267Y-51495140D01*
X101487544Y-51497522D01*
X101487300Y-51500000D01*
X100012700Y-51500000D01*
X100012700Y-50012700D01*
X149987300Y-50012700D01*
X149987300Y-149987300D01*
G37*
X149987300Y-149987300D02*
X100012700Y-149987300D01*
X100012700Y-51500000D01*
X101487300Y-51500000D01*
X101487300Y-148500000D01*
X101487544Y-148502478D01*
X101488267Y-148504860D01*
X101489440Y-148507056D01*
X101491020Y-148508980D01*
X101492944Y-148510560D01*
X101495140Y-148511733D01*
X101497522Y-148512456D01*
X101500000Y-148512700D01*
X148500000Y-148512700D01*
X148502478Y-148512456D01*
X148504860Y-148511733D01*
X148507056Y-148510560D01*
X148508980Y-148508980D01*
X148510560Y-148507056D01*
X148511733Y-148504860D01*
X148512456Y-148502478D01*
X148512700Y-148500000D01*
X148512700Y-51500000D01*
X148512456Y-51497522D01*
X148511733Y-51495140D01*
X148510560Y-51492944D01*
X148508980Y-51491020D01*
X148507056Y-51489440D01*
X148504860Y-51488267D01*
X148502478Y-51487544D01*
X148500000Y-51487300D01*
X101500000Y-51487300D01*
X101497522Y-51487544D01*
X101495140Y-51488267D01*
X101492944Y-51489440D01*
X101491020Y-51491020D01*
X101489440Y-51492944D01*
X101488267Y-51495140D01*
X101487544Y-51497522D01*
X101487300Y-51500000D01*
X100012700Y-51500000D01*
X100012700Y-50012700D01*
X149987300Y-50012700D01*
X149987300Y-149987300D01*
M02*
