G04 #@! TF.GenerationSoftware,KiCad,Pcbnew,(5.1.5)-3*
G04 #@! TF.CreationDate,2020-05-20T20:16:18+02:00*
G04 #@! TF.ProjectId,SAR-APRS,5341522d-4150-4525-932e-6b696361645f,rev?*
G04 #@! TF.SameCoordinates,Original*
G04 #@! TF.FileFunction,Legend,Bot*
G04 #@! TF.FilePolarity,Positive*
%FSLAX46Y46*%
G04 Gerber Fmt 4.6, Leading zero omitted, Abs format (unit mm)*
G04 Created by KiCad (PCBNEW (5.1.5)-3) date 2020-05-20 20:16:18*
%MOMM*%
%LPD*%
G04 APERTURE LIST*
%ADD10C,0.100000*%
%ADD11C,0.150000*%
G04 APERTURE END LIST*
D10*
X117000000Y-112000000D02*
G75*
G03X117000000Y-112000000I-500000J0D01*
G01*
X102500000Y-133000000D02*
X102500000Y-132500000D01*
X103000000Y-133000000D02*
X102500000Y-133000000D01*
X115500000Y-133000000D02*
X115000000Y-133000000D01*
X115500000Y-132500000D02*
X115500000Y-133000000D01*
X115500000Y-112500000D02*
X115500000Y-106000000D01*
X102500000Y-112500000D02*
X115500000Y-112500000D01*
X102500000Y-106000000D02*
X102500000Y-112500000D01*
X115500000Y-106000000D02*
X102500000Y-106000000D01*
D11*
X113261904Y-103952380D02*
X113261904Y-104761904D01*
X113214285Y-104857142D01*
X113166666Y-104904761D01*
X113071428Y-104952380D01*
X112880952Y-104952380D01*
X112785714Y-104904761D01*
X112738095Y-104857142D01*
X112690476Y-104761904D01*
X112690476Y-103952380D01*
X112071428Y-104380952D02*
X112166666Y-104333333D01*
X112214285Y-104285714D01*
X112261904Y-104190476D01*
X112261904Y-104142857D01*
X112214285Y-104047619D01*
X112166666Y-104000000D01*
X112071428Y-103952380D01*
X111880952Y-103952380D01*
X111785714Y-104000000D01*
X111738095Y-104047619D01*
X111690476Y-104142857D01*
X111690476Y-104190476D01*
X111738095Y-104285714D01*
X111785714Y-104333333D01*
X111880952Y-104380952D01*
X112071428Y-104380952D01*
X112166666Y-104428571D01*
X112214285Y-104476190D01*
X112261904Y-104571428D01*
X112261904Y-104761904D01*
X112214285Y-104857142D01*
X112166666Y-104904761D01*
X112071428Y-104952380D01*
X111880952Y-104952380D01*
X111785714Y-104904761D01*
X111738095Y-104857142D01*
X111690476Y-104761904D01*
X111690476Y-104571428D01*
X111738095Y-104476190D01*
X111785714Y-104428571D01*
X111880952Y-104380952D01*
M02*
