G04 #@! TF.GenerationSoftware,KiCad,Pcbnew,(5.99.0-807-g128ec782d)*
G04 #@! TF.CreationDate,2020-02-24T10:18:47+01:00*
G04 #@! TF.ProjectId,SAR-APRS,5341522d-4150-4525-932e-6b696361645f,rev?*
G04 #@! TF.SameCoordinates,Original*
G04 #@! TF.FileFunction,Legend,Top*
G04 #@! TF.FilePolarity,Positive*
%FSLAX46Y46*%
G04 Gerber Fmt 4.6, Leading zero omitted, Abs format (unit mm)*
G04 Created by KiCad (PCBNEW (5.99.0-807-g128ec782d)) date 2020-02-24 10:18:47*
%MOMM*%
%LPD*%
G04 APERTURE LIST*
%ADD10C,0.300000*%
%ADD11C,0.120000*%
%ADD12C,0.381000*%
%ADD13C,0.150000*%
%ADD14C,0.100000*%
%ADD15C,0.050000*%
G04 APERTURE END LIST*
D10*
X104178571Y-93607142D02*
X104392857Y-93678571D01*
X104749999Y-93678571D01*
X104892857Y-93607142D01*
X104964285Y-93535714D01*
X105035714Y-93392857D01*
X105035714Y-93250000D01*
X104964285Y-93107142D01*
X104892857Y-93035714D01*
X104749999Y-92964285D01*
X104464285Y-92892857D01*
X104321428Y-92821428D01*
X104249999Y-92750000D01*
X104178571Y-92607142D01*
X104178571Y-92464285D01*
X104249999Y-92321428D01*
X104321428Y-92250000D01*
X104464285Y-92178571D01*
X104821428Y-92178571D01*
X105035714Y-92250000D01*
X105607142Y-93250000D02*
X106321428Y-93250000D01*
X105464285Y-93678571D02*
X105964285Y-92178571D01*
X106464285Y-93678571D01*
X107821428Y-93678571D02*
X107321428Y-92964285D01*
X106964285Y-93678571D02*
X106964285Y-92178571D01*
X107535714Y-92178571D01*
X107678571Y-92250000D01*
X107749999Y-92321428D01*
X107821428Y-92464285D01*
X107821428Y-92678571D01*
X107749999Y-92821428D01*
X107678571Y-92892857D01*
X107535714Y-92964285D01*
X106964285Y-92964285D01*
X108107142Y-93821428D02*
X109249999Y-93821428D01*
X109535714Y-93250000D02*
X110249999Y-93250000D01*
X109392857Y-93678571D02*
X109892857Y-92178571D01*
X110392857Y-93678571D01*
X110892857Y-93678571D02*
X110892857Y-92178571D01*
X111464285Y-92178571D01*
X111607142Y-92250000D01*
X111678571Y-92321428D01*
X111749999Y-92464285D01*
X111749999Y-92678571D01*
X111678571Y-92821428D01*
X111607142Y-92892857D01*
X111464285Y-92964285D01*
X110892857Y-92964285D01*
X113249999Y-93678571D02*
X112749999Y-92964285D01*
X112392857Y-93678571D02*
X112392857Y-92178571D01*
X112964285Y-92178571D01*
X113107142Y-92250000D01*
X113178571Y-92321428D01*
X113249999Y-92464285D01*
X113249999Y-92678571D01*
X113178571Y-92821428D01*
X113107142Y-92892857D01*
X112964285Y-92964285D01*
X112392857Y-92964285D01*
X113821428Y-93607142D02*
X114035714Y-93678571D01*
X114392857Y-93678571D01*
X114535714Y-93607142D01*
X114607142Y-93535714D01*
X114678571Y-93392857D01*
X114678571Y-93250000D01*
X114607142Y-93107142D01*
X114535714Y-93035714D01*
X114392857Y-92964285D01*
X114107142Y-92892857D01*
X113964285Y-92821428D01*
X113892857Y-92750000D01*
X113821428Y-92607142D01*
X113821428Y-92464285D01*
X113892857Y-92321428D01*
X113964285Y-92250000D01*
X114107142Y-92178571D01*
X114464285Y-92178571D01*
X114678571Y-92250000D01*
X116249999Y-92178571D02*
X116749999Y-93678571D01*
X117249999Y-92178571D01*
X119678571Y-93678571D02*
X118821428Y-93678571D01*
X119249999Y-93678571D02*
X119249999Y-92178571D01*
X119107142Y-92392857D01*
X118964285Y-92535714D01*
X118821428Y-92607142D01*
X120321428Y-93535714D02*
X120392857Y-93607142D01*
X120321428Y-93678571D01*
X120249999Y-93607142D01*
X120321428Y-93535714D01*
X120321428Y-93678571D01*
X121321428Y-92178571D02*
X121464285Y-92178571D01*
X121607142Y-92250000D01*
X121678571Y-92321428D01*
X121749999Y-92464285D01*
X121821428Y-92750000D01*
X121821428Y-93107142D01*
X121749999Y-93392857D01*
X121678571Y-93535714D01*
X121607142Y-93607142D01*
X121464285Y-93678571D01*
X121321428Y-93678571D01*
X121178571Y-93607142D01*
X121107142Y-93535714D01*
X121035714Y-93392857D01*
X120964285Y-93107142D01*
X120964285Y-92750000D01*
X121035714Y-92464285D01*
X121107142Y-92321428D01*
X121178571Y-92250000D01*
X121321428Y-92178571D01*
D11*
X124200000Y-130800000D02*
X120600000Y-131600000D01*
X113719047Y-86435714D02*
X114100000Y-86435714D01*
X113909523Y-86626190D02*
X113909523Y-86245238D01*
X114290476Y-86126190D02*
X114600000Y-86126190D01*
X114433333Y-86316666D01*
X114504761Y-86316666D01*
X114552380Y-86340476D01*
X114576190Y-86364285D01*
X114600000Y-86411904D01*
X114600000Y-86530952D01*
X114576190Y-86578571D01*
X114552380Y-86602380D01*
X114504761Y-86626190D01*
X114361904Y-86626190D01*
X114314285Y-86602380D01*
X114290476Y-86578571D01*
X114742857Y-86126190D02*
X114909523Y-86626190D01*
X115076190Y-86126190D01*
X115195238Y-86126190D02*
X115504761Y-86126190D01*
X115338095Y-86316666D01*
X115409523Y-86316666D01*
X115457142Y-86340476D01*
X115480952Y-86364285D01*
X115504761Y-86411904D01*
X115504761Y-86530952D01*
X115480952Y-86578571D01*
X115457142Y-86602380D01*
X115409523Y-86626190D01*
X115266666Y-86626190D01*
X115219047Y-86602380D01*
X115195238Y-86578571D01*
X111969047Y-86126190D02*
X112254761Y-86126190D01*
X112111904Y-86626190D02*
X112111904Y-86126190D01*
X112373809Y-86126190D02*
X112707142Y-86626190D01*
X112707142Y-86126190D02*
X112373809Y-86626190D01*
X112897619Y-86626190D02*
X112897619Y-86126190D01*
X113016666Y-86126190D01*
X113088095Y-86150000D01*
X113135714Y-86197619D01*
X113159523Y-86245238D01*
X113183333Y-86340476D01*
X113183333Y-86411904D01*
X113159523Y-86507142D01*
X113135714Y-86554761D01*
X113088095Y-86602380D01*
X113016666Y-86626190D01*
X112897619Y-86626190D01*
X110666666Y-86626190D02*
X110500000Y-86388095D01*
X110380952Y-86626190D02*
X110380952Y-86126190D01*
X110571428Y-86126190D01*
X110619047Y-86150000D01*
X110642857Y-86173809D01*
X110666666Y-86221428D01*
X110666666Y-86292857D01*
X110642857Y-86340476D01*
X110619047Y-86364285D01*
X110571428Y-86388095D01*
X110380952Y-86388095D01*
X110833333Y-86126190D02*
X111166666Y-86626190D01*
X111166666Y-86126190D02*
X110833333Y-86626190D01*
X111357142Y-86626190D02*
X111357142Y-86126190D01*
X111476190Y-86126190D01*
X111547619Y-86150000D01*
X111595238Y-86197619D01*
X111619047Y-86245238D01*
X111642857Y-86340476D01*
X111642857Y-86411904D01*
X111619047Y-86507142D01*
X111595238Y-86554761D01*
X111547619Y-86602380D01*
X111476190Y-86626190D01*
X111357142Y-86626190D01*
X108819047Y-86150000D02*
X108771428Y-86126190D01*
X108700000Y-86126190D01*
X108628571Y-86150000D01*
X108580952Y-86197619D01*
X108557142Y-86245238D01*
X108533333Y-86340476D01*
X108533333Y-86411904D01*
X108557142Y-86507142D01*
X108580952Y-86554761D01*
X108628571Y-86602380D01*
X108700000Y-86626190D01*
X108747619Y-86626190D01*
X108819047Y-86602380D01*
X108842857Y-86578571D01*
X108842857Y-86411904D01*
X108747619Y-86411904D01*
X109057142Y-86626190D02*
X109057142Y-86126190D01*
X109342857Y-86626190D01*
X109342857Y-86126190D01*
X109580952Y-86626190D02*
X109580952Y-86126190D01*
X109700000Y-86126190D01*
X109771428Y-86150000D01*
X109819047Y-86197619D01*
X109842857Y-86245238D01*
X109866666Y-86340476D01*
X109866666Y-86411904D01*
X109842857Y-86507142D01*
X109819047Y-86554761D01*
X109771428Y-86602380D01*
X109700000Y-86626190D01*
X109580952Y-86626190D01*
X146819047Y-115750000D02*
X146771428Y-115726190D01*
X146700000Y-115726190D01*
X146628571Y-115750000D01*
X146580952Y-115797619D01*
X146557142Y-115845238D01*
X146533333Y-115940476D01*
X146533333Y-116011904D01*
X146557142Y-116107142D01*
X146580952Y-116154761D01*
X146628571Y-116202380D01*
X146700000Y-116226190D01*
X146747619Y-116226190D01*
X146819047Y-116202380D01*
X146842857Y-116178571D01*
X146842857Y-116011904D01*
X146747619Y-116011904D01*
X147057142Y-116226190D02*
X147057142Y-115726190D01*
X147342857Y-116226190D01*
X147342857Y-115726190D01*
X147580952Y-116226190D02*
X147580952Y-115726190D01*
X147700000Y-115726190D01*
X147771428Y-115750000D01*
X147819047Y-115797619D01*
X147842857Y-115845238D01*
X147866666Y-115940476D01*
X147866666Y-116011904D01*
X147842857Y-116107142D01*
X147819047Y-116154761D01*
X147771428Y-116202380D01*
X147700000Y-116226190D01*
X147580952Y-116226190D01*
X146319047Y-115235714D02*
X146700000Y-115235714D01*
X146509523Y-115426190D02*
X146509523Y-115045238D01*
X146890476Y-114926190D02*
X147200000Y-114926190D01*
X147033333Y-115116666D01*
X147104761Y-115116666D01*
X147152380Y-115140476D01*
X147176190Y-115164285D01*
X147200000Y-115211904D01*
X147200000Y-115330952D01*
X147176190Y-115378571D01*
X147152380Y-115402380D01*
X147104761Y-115426190D01*
X146961904Y-115426190D01*
X146914285Y-115402380D01*
X146890476Y-115378571D01*
X147342857Y-114926190D02*
X147509523Y-115426190D01*
X147676190Y-114926190D01*
X147795238Y-114926190D02*
X148104761Y-114926190D01*
X147938095Y-115116666D01*
X148009523Y-115116666D01*
X148057142Y-115140476D01*
X148080952Y-115164285D01*
X148104761Y-115211904D01*
X148104761Y-115330952D01*
X148080952Y-115378571D01*
X148057142Y-115402380D01*
X148009523Y-115426190D01*
X147866666Y-115426190D01*
X147819047Y-115402380D01*
X147795238Y-115378571D01*
X146404761Y-114602380D02*
X146476190Y-114626190D01*
X146595238Y-114626190D01*
X146642857Y-114602380D01*
X146666666Y-114578571D01*
X146690476Y-114530952D01*
X146690476Y-114483333D01*
X146666666Y-114435714D01*
X146642857Y-114411904D01*
X146595238Y-114388095D01*
X146500000Y-114364285D01*
X146452380Y-114340476D01*
X146428571Y-114316666D01*
X146404761Y-114269047D01*
X146404761Y-114221428D01*
X146428571Y-114173809D01*
X146452380Y-114150000D01*
X146500000Y-114126190D01*
X146619047Y-114126190D01*
X146690476Y-114150000D01*
X147190476Y-114578571D02*
X147166666Y-114602380D01*
X147095238Y-114626190D01*
X147047619Y-114626190D01*
X146976190Y-114602380D01*
X146928571Y-114554761D01*
X146904761Y-114507142D01*
X146880952Y-114411904D01*
X146880952Y-114340476D01*
X146904761Y-114245238D01*
X146928571Y-114197619D01*
X146976190Y-114150000D01*
X147047619Y-114126190D01*
X147095238Y-114126190D01*
X147166666Y-114150000D01*
X147190476Y-114173809D01*
X147642857Y-114626190D02*
X147404761Y-114626190D01*
X147404761Y-114126190D01*
X146392857Y-113802380D02*
X146464285Y-113826190D01*
X146583333Y-113826190D01*
X146630952Y-113802380D01*
X146654761Y-113778571D01*
X146678571Y-113730952D01*
X146678571Y-113683333D01*
X146654761Y-113635714D01*
X146630952Y-113611904D01*
X146583333Y-113588095D01*
X146488095Y-113564285D01*
X146440476Y-113540476D01*
X146416666Y-113516666D01*
X146392857Y-113469047D01*
X146392857Y-113421428D01*
X146416666Y-113373809D01*
X146440476Y-113350000D01*
X146488095Y-113326190D01*
X146607142Y-113326190D01*
X146678571Y-113350000D01*
X146892857Y-113826190D02*
X146892857Y-113326190D01*
X147011904Y-113326190D01*
X147083333Y-113350000D01*
X147130952Y-113397619D01*
X147154761Y-113445238D01*
X147178571Y-113540476D01*
X147178571Y-113611904D01*
X147154761Y-113707142D01*
X147130952Y-113754761D01*
X147083333Y-113802380D01*
X147011904Y-113826190D01*
X146892857Y-113826190D01*
X147369047Y-113683333D02*
X147607142Y-113683333D01*
X147321428Y-113826190D02*
X147488095Y-113326190D01*
X147654761Y-113826190D01*
X147419047Y-123150000D02*
X147371428Y-123126190D01*
X147300000Y-123126190D01*
X147228571Y-123150000D01*
X147180952Y-123197619D01*
X147157142Y-123245238D01*
X147133333Y-123340476D01*
X147133333Y-123411904D01*
X147157142Y-123507142D01*
X147180952Y-123554761D01*
X147228571Y-123602380D01*
X147300000Y-123626190D01*
X147347619Y-123626190D01*
X147419047Y-123602380D01*
X147442857Y-123578571D01*
X147442857Y-123411904D01*
X147347619Y-123411904D01*
X147657142Y-123626190D02*
X147657142Y-123126190D01*
X147942857Y-123626190D01*
X147942857Y-123126190D01*
X148180952Y-123626190D02*
X148180952Y-123126190D01*
X148300000Y-123126190D01*
X148371428Y-123150000D01*
X148419047Y-123197619D01*
X148442857Y-123245238D01*
X148466666Y-123340476D01*
X148466666Y-123411904D01*
X148442857Y-123507142D01*
X148419047Y-123554761D01*
X148371428Y-123602380D01*
X148300000Y-123626190D01*
X148180952Y-123626190D01*
X145126190Y-123626190D02*
X144959523Y-123388095D01*
X144840476Y-123626190D02*
X144840476Y-123126190D01*
X145030952Y-123126190D01*
X145078571Y-123150000D01*
X145102380Y-123173809D01*
X145126190Y-123221428D01*
X145126190Y-123292857D01*
X145102380Y-123340476D01*
X145078571Y-123364285D01*
X145030952Y-123388095D01*
X144840476Y-123388095D01*
X145316666Y-123602380D02*
X145388095Y-123626190D01*
X145507142Y-123626190D01*
X145554761Y-123602380D01*
X145578571Y-123578571D01*
X145602380Y-123530952D01*
X145602380Y-123483333D01*
X145578571Y-123435714D01*
X145554761Y-123411904D01*
X145507142Y-123388095D01*
X145411904Y-123364285D01*
X145364285Y-123340476D01*
X145340476Y-123316666D01*
X145316666Y-123269047D01*
X145316666Y-123221428D01*
X145340476Y-123173809D01*
X145364285Y-123150000D01*
X145411904Y-123126190D01*
X145530952Y-123126190D01*
X145602380Y-123150000D01*
X145745238Y-123126190D02*
X146030952Y-123126190D01*
X145888095Y-123626190D02*
X145888095Y-123126190D01*
X146814285Y-122826190D02*
X146814285Y-122326190D01*
X146980952Y-122683333D01*
X147147619Y-122326190D01*
X147147619Y-122826190D01*
X147480952Y-122326190D02*
X147576190Y-122326190D01*
X147623809Y-122350000D01*
X147671428Y-122397619D01*
X147695238Y-122492857D01*
X147695238Y-122659523D01*
X147671428Y-122754761D01*
X147623809Y-122802380D01*
X147576190Y-122826190D01*
X147480952Y-122826190D01*
X147433333Y-122802380D01*
X147385714Y-122754761D01*
X147361904Y-122659523D01*
X147361904Y-122492857D01*
X147385714Y-122397619D01*
X147433333Y-122350000D01*
X147480952Y-122326190D01*
X147885714Y-122802380D02*
X147957142Y-122826190D01*
X148076190Y-122826190D01*
X148123809Y-122802380D01*
X148147619Y-122778571D01*
X148171428Y-122730952D01*
X148171428Y-122683333D01*
X148147619Y-122635714D01*
X148123809Y-122611904D01*
X148076190Y-122588095D01*
X147980952Y-122564285D01*
X147933333Y-122540476D01*
X147909523Y-122516666D01*
X147885714Y-122469047D01*
X147885714Y-122421428D01*
X147909523Y-122373809D01*
X147933333Y-122350000D01*
X147980952Y-122326190D01*
X148100000Y-122326190D01*
X148171428Y-122350000D01*
X148385714Y-122826190D02*
X148385714Y-122326190D01*
X144757142Y-122802380D02*
X144828571Y-122826190D01*
X144947619Y-122826190D01*
X144995238Y-122802380D01*
X145019047Y-122778571D01*
X145042857Y-122730952D01*
X145042857Y-122683333D01*
X145019047Y-122635714D01*
X144995238Y-122611904D01*
X144947619Y-122588095D01*
X144852380Y-122564285D01*
X144804761Y-122540476D01*
X144780952Y-122516666D01*
X144757142Y-122469047D01*
X144757142Y-122421428D01*
X144780952Y-122373809D01*
X144804761Y-122350000D01*
X144852380Y-122326190D01*
X144971428Y-122326190D01*
X145042857Y-122350000D01*
X145542857Y-122778571D02*
X145519047Y-122802380D01*
X145447619Y-122826190D01*
X145400000Y-122826190D01*
X145328571Y-122802380D01*
X145280952Y-122754761D01*
X145257142Y-122707142D01*
X145233333Y-122611904D01*
X145233333Y-122540476D01*
X145257142Y-122445238D01*
X145280952Y-122397619D01*
X145328571Y-122350000D01*
X145400000Y-122326190D01*
X145447619Y-122326190D01*
X145519047Y-122350000D01*
X145542857Y-122373809D01*
X145757142Y-122826190D02*
X145757142Y-122326190D01*
X146042857Y-122826190D02*
X145828571Y-122540476D01*
X146042857Y-122326190D02*
X145757142Y-122611904D01*
X146719047Y-121835714D02*
X147100000Y-121835714D01*
X146909523Y-122026190D02*
X146909523Y-121645238D01*
X147290476Y-121526190D02*
X147600000Y-121526190D01*
X147433333Y-121716666D01*
X147504761Y-121716666D01*
X147552380Y-121740476D01*
X147576190Y-121764285D01*
X147600000Y-121811904D01*
X147600000Y-121930952D01*
X147576190Y-121978571D01*
X147552380Y-122002380D01*
X147504761Y-122026190D01*
X147361904Y-122026190D01*
X147314285Y-122002380D01*
X147290476Y-121978571D01*
X147742857Y-121526190D02*
X147909523Y-122026190D01*
X148076190Y-121526190D01*
X148195238Y-121526190D02*
X148504761Y-121526190D01*
X148338095Y-121716666D01*
X148409523Y-121716666D01*
X148457142Y-121740476D01*
X148480952Y-121764285D01*
X148504761Y-121811904D01*
X148504761Y-121930952D01*
X148480952Y-121978571D01*
X148457142Y-122002380D01*
X148409523Y-122026190D01*
X148266666Y-122026190D01*
X148219047Y-122002380D01*
X148195238Y-121978571D01*
X144814285Y-122026190D02*
X144814285Y-121526190D01*
X144980952Y-121883333D01*
X145147619Y-121526190D01*
X145147619Y-122026190D01*
X145385714Y-122026190D02*
X145385714Y-121526190D01*
X145600000Y-122002380D02*
X145671428Y-122026190D01*
X145790476Y-122026190D01*
X145838095Y-122002380D01*
X145861904Y-121978571D01*
X145885714Y-121930952D01*
X145885714Y-121883333D01*
X145861904Y-121835714D01*
X145838095Y-121811904D01*
X145790476Y-121788095D01*
X145695238Y-121764285D01*
X145647619Y-121740476D01*
X145623809Y-121716666D01*
X145600000Y-121669047D01*
X145600000Y-121621428D01*
X145623809Y-121573809D01*
X145647619Y-121550000D01*
X145695238Y-121526190D01*
X145814285Y-121526190D01*
X145885714Y-121550000D01*
X146195238Y-121526190D02*
X146290476Y-121526190D01*
X146338095Y-121550000D01*
X146385714Y-121597619D01*
X146409523Y-121692857D01*
X146409523Y-121859523D01*
X146385714Y-121954761D01*
X146338095Y-122002380D01*
X146290476Y-122026190D01*
X146195238Y-122026190D01*
X146147619Y-122002380D01*
X146100000Y-121954761D01*
X146076190Y-121859523D01*
X146076190Y-121692857D01*
X146100000Y-121597619D01*
X146147619Y-121550000D01*
X146195238Y-121526190D01*
D12*
X125700000Y-54500000D02*
G75*
G03*
X125700000Y-54500000I-700000J0D01*
G01*
X127600000Y-54500000D02*
G75*
G03*
X127600000Y-54500000I-2600000J0D01*
G01*
X128100000Y-54500000D02*
G75*
G03*
X128100000Y-54500000I-3100000J0D01*
G01*
X128200000Y-57700000D02*
X128200000Y-51300000D01*
X128200000Y-57700000D02*
X121800000Y-57700000D01*
X121800000Y-57700000D02*
X121800000Y-51300000D01*
X121800000Y-51300000D02*
X128200000Y-51300000D01*
D13*
X122400000Y-116500000D02*
X122400000Y-123500000D01*
X122400000Y-123500000D02*
X117400000Y-123500000D01*
X117400000Y-123500000D02*
X117400000Y-116500000D01*
X117400000Y-116500000D02*
X122400000Y-116500000D01*
D11*
X110300000Y-58700000D02*
X113100000Y-58700000D01*
X110300000Y-60100000D02*
X113100000Y-60100000D01*
X110300000Y-58700000D02*
X110300000Y-60100000D01*
X104800000Y-119800000D02*
X107600000Y-119800000D01*
X104800000Y-121200000D02*
X107600000Y-121200000D01*
X104800000Y-119800000D02*
X104800000Y-121200000D01*
X120700000Y-104800000D02*
X123500000Y-104800000D01*
X120700000Y-106200000D02*
X123500000Y-106200000D01*
X120700000Y-104800000D02*
X120700000Y-106200000D01*
X132449999Y-132650000D02*
X135249999Y-132650000D01*
X132449999Y-134050000D02*
X135249999Y-134050000D01*
X132449999Y-132650000D02*
X132449999Y-134050000D01*
X132450000Y-134900000D02*
X135250000Y-134900000D01*
X132450000Y-136300000D02*
X135250000Y-136300000D01*
X132450000Y-134900000D02*
X132450000Y-136300000D01*
X116280000Y-59700000D02*
X116280000Y-60900000D01*
X114520000Y-60900000D02*
X114520000Y-59700000D01*
X107780000Y-59899999D02*
X107780000Y-61099999D01*
X106020000Y-61099999D02*
X106020000Y-59899999D01*
X106200000Y-117420000D02*
X107400000Y-117420000D01*
X107400000Y-119180000D02*
X106200000Y-119180000D01*
X107400000Y-116780000D02*
X106200000Y-116780000D01*
X106200000Y-115020000D02*
X107400000Y-115020000D01*
X107400000Y-114380000D02*
X106200000Y-114380000D01*
X106200000Y-112620000D02*
X107400000Y-112620000D01*
X118600000Y-103880000D02*
X117400000Y-103880000D01*
X117400000Y-102120000D02*
X118600000Y-102120000D01*
X144520000Y-119000000D02*
X144520000Y-117800000D01*
X146280000Y-117800000D02*
X146280000Y-119000000D01*
X132600000Y-103880000D02*
X131400000Y-103880000D01*
X131400000Y-102120000D02*
X132600000Y-102120000D01*
X137700000Y-106280000D02*
X136500000Y-106280000D01*
X136500000Y-104520000D02*
X137700000Y-104520000D01*
X135950000Y-110320000D02*
X137150000Y-110320000D01*
X137150000Y-112080000D02*
X135950000Y-112080000D01*
X137200000Y-109980000D02*
X136000000Y-109980000D01*
X136000000Y-108220000D02*
X137200000Y-108220000D01*
X125900000Y-104620000D02*
X127100000Y-104620000D01*
X127100000Y-106380000D02*
X125900000Y-106380000D01*
X141700000Y-130680000D02*
X140500000Y-130680000D01*
X140500000Y-128920000D02*
X141700000Y-128920000D01*
X140500000Y-131220000D02*
X141700000Y-131220000D01*
X141700000Y-132980000D02*
X140500000Y-132980000D01*
X135950000Y-140880000D02*
X134750000Y-140880000D01*
X134750000Y-139120000D02*
X135950000Y-139120000D01*
X130180000Y-141450000D02*
X130180000Y-142650000D01*
X128420000Y-142650000D02*
X128420000Y-141450000D01*
X121370000Y-141200000D02*
X121370000Y-140000000D01*
X123130000Y-140000000D02*
X123130000Y-141200000D01*
X129650000Y-132470000D02*
X130850000Y-132470000D01*
X130850000Y-134230000D02*
X129650000Y-134230000D01*
X129650000Y-134720000D02*
X130850000Y-134720000D01*
X130850000Y-136480000D02*
X129650000Y-136480000D01*
X118370000Y-133400001D02*
X118370000Y-132200001D01*
X120130000Y-132200001D02*
X120130000Y-133400001D01*
X123600000Y-70620000D02*
X124800000Y-70620000D01*
X124800000Y-72380000D02*
X123600000Y-72380000D01*
X123500000Y-83820000D02*
X124700000Y-83820000D01*
X124700000Y-85580000D02*
X123500000Y-85580000D01*
X121900000Y-76820000D02*
X123100000Y-76820000D01*
X123100000Y-78580000D02*
X121900000Y-78580000D01*
X124700000Y-69980000D02*
X123500000Y-69980000D01*
X123500000Y-68220000D02*
X124700000Y-68220000D01*
X146800000Y-107420000D02*
X148000000Y-107420000D01*
X148000000Y-109180000D02*
X146800000Y-109180000D01*
X104450000Y-131600000D02*
X104450000Y-130600000D01*
X102750000Y-130600000D02*
X102750000Y-131600000D01*
X118400000Y-85950000D02*
X117400000Y-85950000D01*
X117400000Y-87650000D02*
X118400000Y-87650000D01*
X104700000Y-83950000D02*
X105700000Y-83950000D01*
X105700000Y-82250000D02*
X104700000Y-82250000D01*
X118000000Y-77050000D02*
X117000000Y-77050000D01*
X117000000Y-78750000D02*
X118000000Y-78750000D01*
X111750000Y-122500000D02*
X111750000Y-123500000D01*
X113450000Y-123500000D02*
X113450000Y-122500000D01*
X108850000Y-116900000D02*
X108850000Y-117900000D01*
X110550000Y-117900000D02*
X110550000Y-116900000D01*
X123050000Y-121100000D02*
X123050000Y-122100000D01*
X124750000Y-122100000D02*
X124750000Y-121100000D01*
X115750000Y-127800000D02*
X115750000Y-126800000D01*
X114050000Y-126800000D02*
X114050000Y-127800000D01*
X136100000Y-114250000D02*
X137100000Y-114250000D01*
X137100000Y-112550000D02*
X136100000Y-112550000D01*
X116750000Y-118900000D02*
X116750000Y-117900000D01*
X115050000Y-117900000D02*
X115050000Y-118900000D01*
X137100000Y-114550000D02*
X136100000Y-114550000D01*
X136100000Y-116250000D02*
X137100000Y-116250000D01*
X120900000Y-113150000D02*
X121900000Y-113150000D01*
X121900000Y-111450000D02*
X120900000Y-111450000D01*
X121900000Y-113450000D02*
X120900000Y-113450000D01*
X120900000Y-115150000D02*
X121900000Y-115150000D01*
X136350000Y-126000000D02*
X136350000Y-127000000D01*
X138050000Y-127000000D02*
X138050000Y-126000000D01*
X121400000Y-143600000D02*
X121400000Y-144600000D01*
X123100000Y-144600000D02*
X123100000Y-143600000D01*
X120100000Y-136850000D02*
X120100000Y-135850000D01*
X118400000Y-135850000D02*
X118400000Y-136850000D01*
X123700000Y-83350000D02*
X124700000Y-83350000D01*
X124700000Y-81650000D02*
X123700000Y-81650000D01*
X147700000Y-109650000D02*
X146700000Y-109650000D01*
X146700000Y-111350000D02*
X147700000Y-111350000D01*
X146800000Y-107050000D02*
X147800000Y-107050000D01*
X147800000Y-105350000D02*
X146800000Y-105350000D01*
X107650000Y-98350000D02*
X107650000Y-97900000D01*
X114350000Y-97900000D02*
X114350000Y-98350000D01*
X107650000Y-97900000D02*
X114350000Y-97900000D01*
X114350000Y-99650000D02*
X114350000Y-102350000D01*
X107650000Y-102350000D02*
X107650000Y-99650000D01*
X114350000Y-104100000D02*
X114350000Y-103700000D01*
X107650000Y-104100000D02*
X114350000Y-104100000D01*
X107650000Y-103650000D02*
X107650000Y-104100000D01*
X121650000Y-98350000D02*
X121650000Y-97900000D01*
X128350000Y-97900000D02*
X128350000Y-98350000D01*
X121650000Y-97900000D02*
X128350000Y-97900000D01*
X128350000Y-99650000D02*
X128350000Y-102350000D01*
X121650000Y-102350000D02*
X121650000Y-99650000D01*
X128350000Y-104100000D02*
X128350000Y-103700000D01*
X121650000Y-104100000D02*
X128350000Y-104100000D01*
X121650000Y-103650000D02*
X121650000Y-104100000D01*
X135650000Y-98350000D02*
X135650000Y-97900000D01*
X142350000Y-97900000D02*
X142350000Y-98350000D01*
X135650000Y-97900000D02*
X142350000Y-97900000D01*
X142350000Y-99650000D02*
X142350000Y-102350000D01*
X135650000Y-102350000D02*
X135650000Y-99650000D01*
X142350000Y-104100000D02*
X142350000Y-103700000D01*
X135650000Y-104100000D02*
X142350000Y-104100000D01*
X135650000Y-103650000D02*
X135650000Y-104100000D01*
X147650000Y-133750000D02*
X147650000Y-139450000D01*
X143350000Y-133750000D02*
X143350000Y-139450000D01*
X147650000Y-133750000D02*
X143350000Y-133750000D01*
D13*
X117530000Y-139760000D02*
X120070000Y-139760000D01*
X120070000Y-139760000D02*
X120070000Y-144840000D01*
X120070000Y-144840000D02*
X117530000Y-144840000D01*
X117530000Y-144840000D02*
X117530000Y-139760000D01*
X109725000Y-81625000D02*
X109725000Y-81525000D01*
X105075000Y-81625000D02*
X105075000Y-81425000D01*
X105075000Y-78375000D02*
X105075000Y-78575000D01*
X109725000Y-78375000D02*
X109725000Y-78575000D01*
X109725000Y-81625000D02*
X105075000Y-81625000D01*
X109725000Y-78375000D02*
X105075000Y-78375000D01*
X109725000Y-81525000D02*
X111075000Y-81525000D01*
X141630000Y-105420000D02*
X144170000Y-105420000D01*
X144170000Y-105420000D02*
X144170000Y-115580000D01*
X144170000Y-115580000D02*
X141630000Y-115580000D01*
X141630000Y-115580000D02*
X141630000Y-105420000D01*
X139060000Y-116190000D02*
X144140000Y-116190000D01*
X144140000Y-116190000D02*
X144140000Y-123810000D01*
X144140000Y-123810000D02*
X139060000Y-123810000D01*
X139060000Y-123810000D02*
X139060000Y-116190000D01*
D11*
X117000000Y-82280000D02*
X119000000Y-82280000D01*
X119000000Y-79320000D02*
X117000000Y-79320000D01*
X141000000Y-141800000D02*
X141000000Y-143500000D01*
X134400000Y-141800000D02*
X141000000Y-141800000D01*
X134400000Y-143500000D02*
X134400000Y-141800000D01*
X134400000Y-148200000D02*
X134400000Y-146500000D01*
X141000000Y-148200000D02*
X134400000Y-148200000D01*
X141000000Y-146500000D02*
X141000000Y-148200000D01*
X146980000Y-131650000D02*
X146980000Y-129650000D01*
X144020000Y-129650000D02*
X144020000Y-131650000D01*
X124900000Y-141080000D02*
X126900000Y-141080000D01*
X126900000Y-138120000D02*
X124900000Y-138120000D01*
X119800000Y-130780000D02*
X121800000Y-130780000D01*
X121800000Y-127820000D02*
X119800000Y-127820000D01*
X110500000Y-63189999D02*
X108500000Y-63189999D01*
X110500000Y-75609999D02*
X108500000Y-75609999D01*
X102490000Y-63189999D02*
X102490000Y-75609999D01*
X118710000Y-63299999D02*
X118710000Y-75609999D01*
X103100000Y-63189999D02*
X102490000Y-63189999D01*
X118710000Y-75609999D02*
X118100000Y-75609999D01*
X103100000Y-75609999D02*
X102500000Y-75609999D01*
X148680000Y-98640000D02*
X147780000Y-98640000D01*
X148680000Y-98640000D02*
X147780000Y-98640000D01*
X148680000Y-98640000D02*
X148680000Y-98640000D01*
X144620000Y-103360000D02*
X144140000Y-103360000D01*
X146920000Y-103360000D02*
X146280000Y-103360000D01*
X149060000Y-103360000D02*
X148580000Y-103360000D01*
X145420000Y-98640000D02*
X144140000Y-98640000D01*
X149060000Y-98640000D02*
X147780000Y-98640000D01*
X144140000Y-98640000D02*
X144140000Y-103360000D01*
X149060000Y-98640000D02*
X149060000Y-103360000D01*
D13*
X118180000Y-83030000D02*
X118180000Y-85570000D01*
X118180000Y-85570000D02*
X108020000Y-85570000D01*
X108020000Y-85570000D02*
X108020000Y-83030000D01*
X108020000Y-83030000D02*
X118180000Y-83030000D01*
D11*
X106650000Y-140550000D02*
X106650000Y-149750000D01*
X114350000Y-140550000D02*
X106650000Y-140550000D01*
X114350000Y-149750000D02*
X114350000Y-140550000D01*
X106650000Y-149750000D02*
X114350000Y-149750000D01*
X106650000Y-148750000D02*
X114350000Y-148750000D01*
X114280000Y-136900000D02*
X114280000Y-131700000D01*
X117920000Y-131700000D02*
X117920000Y-136900000D01*
X105100000Y-56920000D02*
X106300000Y-56920000D01*
X106300000Y-58680000D02*
X105100000Y-58680000D01*
D13*
X126662000Y-143508000D02*
X126154000Y-144270000D01*
X126662000Y-141730000D02*
X126662000Y-144333500D01*
X126662000Y-144333500D02*
X125138000Y-144333500D01*
X125138000Y-144333500D02*
X125138000Y-141730000D01*
X125138000Y-141730000D02*
X126662000Y-141730000D01*
D11*
X124400000Y-137060000D02*
X126350000Y-137060000D01*
X124400000Y-137060000D02*
X122450000Y-137060000D01*
X124400000Y-131940000D02*
X126350000Y-131940000D01*
X124400000Y-131940000D02*
X120950000Y-131940000D01*
X109300000Y-138060000D02*
X111685000Y-138060000D01*
X111685000Y-138060000D02*
X111685000Y-137805000D01*
X109300000Y-138060000D02*
X106915000Y-138060000D01*
X106915000Y-138060000D02*
X106915000Y-137805000D01*
X109300000Y-127540000D02*
X111685000Y-127540000D01*
X111685000Y-127540000D02*
X111685000Y-127795000D01*
X109300000Y-127540000D02*
X106915000Y-127540000D01*
X106915000Y-127540000D02*
X106915000Y-127795000D01*
X106915000Y-127795000D02*
X105250000Y-127795000D01*
X144997990Y-52653482D02*
X145846518Y-53502010D01*
X144602010Y-54746518D02*
X143753482Y-53897990D01*
X137953482Y-53602010D02*
X138802010Y-52753482D01*
X140046518Y-53997990D02*
X139197990Y-54846518D01*
X132600000Y-53620000D02*
X133800000Y-53620000D01*
X133800000Y-55380000D02*
X132600000Y-55380000D01*
X145652513Y-55445406D02*
X144945406Y-56152513D01*
X146147487Y-57354594D02*
X146854594Y-56647487D01*
X141050000Y-53600000D02*
X141050000Y-54600000D01*
X142750000Y-54600000D02*
X142750000Y-53600000D01*
X135250000Y-55100000D02*
X135250000Y-56100000D01*
X136950000Y-56100000D02*
X136950000Y-55100000D01*
X129350000Y-55100000D02*
X129350000Y-56100000D01*
X131050000Y-56100000D02*
X131050000Y-55100000D01*
D13*
X137375000Y-139375000D02*
X137375000Y-140775000D01*
X142475000Y-139375000D02*
X142475000Y-135225000D01*
X137325000Y-139375000D02*
X137325000Y-135225000D01*
X142475000Y-139375000D02*
X142330000Y-139375000D01*
X142475000Y-135225000D02*
X142330000Y-135225000D01*
X137325000Y-135225000D02*
X137470000Y-135225000D01*
X137325000Y-139375000D02*
X137375000Y-139375000D01*
X125475000Y-109900000D02*
X124050000Y-109900000D01*
X132725000Y-109675000D02*
X132400000Y-109675000D01*
X132725000Y-116925000D02*
X132400000Y-116925000D01*
X125475000Y-116925000D02*
X125800000Y-116925000D01*
X125475000Y-109675000D02*
X125800000Y-109675000D01*
X125475000Y-116925000D02*
X125475000Y-116600000D01*
X132725000Y-116925000D02*
X132725000Y-116600000D01*
X132725000Y-109675000D02*
X132725000Y-110000000D01*
X125475000Y-109675000D02*
X125475000Y-109900000D01*
X130125000Y-122325000D02*
X130125000Y-122470000D01*
X134275000Y-122325000D02*
X134275000Y-122470000D01*
X134275000Y-127475000D02*
X134275000Y-127330000D01*
X130125000Y-127475000D02*
X130125000Y-127330000D01*
X130125000Y-122325000D02*
X134275000Y-122325000D01*
X130125000Y-127475000D02*
X134275000Y-127475000D01*
X130125000Y-122470000D02*
X128725000Y-122470000D01*
D14*
X128500000Y-97000000D02*
X126500000Y-95000000D01*
X126500000Y-95000000D02*
X126500000Y-59000000D01*
X126500000Y-59000000D02*
X148500000Y-59000000D01*
X148500000Y-59000000D02*
X148500000Y-97000000D01*
X148500000Y-97000000D02*
X128500000Y-97000000D01*
D11*
X124620000Y-147360000D02*
X124620000Y-145900000D01*
X127780000Y-147360000D02*
X127780000Y-145200000D01*
X127780000Y-147360000D02*
X126850000Y-147360000D01*
X124620000Y-147360000D02*
X125550000Y-147360000D01*
X128520000Y-147360000D02*
X128520000Y-145900000D01*
X131680000Y-147360000D02*
X131680000Y-145200000D01*
X131680000Y-147360000D02*
X130750000Y-147360000D01*
X128520000Y-147360000D02*
X129450000Y-147360000D01*
X125680000Y-73740000D02*
X125680000Y-75200000D01*
X122520000Y-73740000D02*
X122520000Y-75900000D01*
X122520000Y-73740000D02*
X123450000Y-73740000D01*
X125680000Y-73740000D02*
X124750000Y-73740000D01*
D13*
X104800000Y-54100000D02*
G75*
G03*
X104800000Y-54100000I-100000J0D01*
G01*
X105700000Y-54100000D02*
G75*
G03*
X105700000Y-54100000I-1000000J0D01*
G01*
X103400000Y-55100000D02*
X103400000Y-53100000D01*
X105700000Y-55400000D02*
X103700000Y-55400000D01*
X106000000Y-53100000D02*
X106000000Y-55100000D01*
X103700000Y-52800000D02*
X105700000Y-52800000D01*
X103400000Y-55100000D02*
G75*
G03*
X103700000Y-55400000I300000J0D01*
G01*
X105700000Y-55400000D02*
G75*
G03*
X106000000Y-55100000I0J300000D01*
G01*
X106000000Y-53100000D02*
G75*
G03*
X105700000Y-52800000I-300000J0D01*
G01*
X103700000Y-52800000D02*
G75*
G03*
X103400000Y-53100000I0J-300000D01*
G01*
X119733333Y-51561904D02*
X119733333Y-52133333D01*
X119695238Y-52247619D01*
X119619047Y-52323809D01*
X119504761Y-52361904D01*
X119428571Y-52361904D01*
X120533333Y-52361904D02*
X120076190Y-52361904D01*
X120304761Y-52361904D02*
X120304761Y-51561904D01*
X120228571Y-51676190D01*
X120152380Y-51752380D01*
X120076190Y-51790476D01*
X119619047Y-124380952D02*
X119619047Y-124761904D01*
X119352380Y-123961904D02*
X119619047Y-124380952D01*
X119885714Y-123961904D01*
X120571428Y-124761904D02*
X120114285Y-124761904D01*
X120342857Y-124761904D02*
X120342857Y-123961904D01*
X120266666Y-124076190D01*
X120190476Y-124152380D01*
X120114285Y-124190476D01*
X120147619Y-118709523D02*
X120147619Y-118138095D01*
X120147619Y-118423809D02*
X121147619Y-118423809D01*
X121004761Y-118328571D01*
X120909523Y-118233333D01*
X120861904Y-118138095D01*
X121147619Y-119566666D02*
X121147619Y-119376190D01*
X121100000Y-119280952D01*
X121052380Y-119233333D01*
X120909523Y-119138095D01*
X120719047Y-119090476D01*
X120338095Y-119090476D01*
X120242857Y-119138095D01*
X120195238Y-119185714D01*
X120147619Y-119280952D01*
X120147619Y-119471428D01*
X120195238Y-119566666D01*
X120242857Y-119614285D01*
X120338095Y-119661904D01*
X120576190Y-119661904D01*
X120671428Y-119614285D01*
X120719047Y-119566666D01*
X120766666Y-119471428D01*
X120766666Y-119280952D01*
X120719047Y-119185714D01*
X120671428Y-119138095D01*
X120576190Y-119090476D01*
X120147619Y-120090476D02*
X121147619Y-120090476D01*
X120433333Y-120423809D01*
X121147619Y-120757142D01*
X120147619Y-120757142D01*
X120147619Y-121233333D02*
X121147619Y-121233333D01*
X120671428Y-121233333D02*
X120671428Y-121804761D01*
X120147619Y-121804761D02*
X121147619Y-121804761D01*
X120814285Y-122185714D02*
X120814285Y-122709523D01*
X120147619Y-122185714D01*
X120147619Y-122709523D01*
X118466419Y-117421900D02*
X118228323Y-117421900D01*
X118323561Y-117183804D02*
X118228323Y-117421900D01*
X118323561Y-117659995D01*
X118037847Y-117279042D02*
X118228323Y-117421900D01*
X118037847Y-117564757D01*
X111509523Y-58161904D02*
X111509523Y-57361904D01*
X111700000Y-57361904D01*
X111814285Y-57400000D01*
X111890476Y-57476190D01*
X111928571Y-57552380D01*
X111966666Y-57704761D01*
X111966666Y-57819047D01*
X111928571Y-57971428D01*
X111890476Y-58047619D01*
X111814285Y-58123809D01*
X111700000Y-58161904D01*
X111509523Y-58161904D01*
X112233333Y-57361904D02*
X112766666Y-57361904D01*
X112423809Y-58161904D01*
X103009523Y-120961904D02*
X103009523Y-120161904D01*
X103200000Y-120161904D01*
X103314285Y-120200000D01*
X103390476Y-120276190D01*
X103428571Y-120352380D01*
X103466666Y-120504761D01*
X103466666Y-120619047D01*
X103428571Y-120771428D01*
X103390476Y-120847619D01*
X103314285Y-120923809D01*
X103200000Y-120961904D01*
X103009523Y-120961904D01*
X104152380Y-120161904D02*
X104000000Y-120161904D01*
X103923809Y-120200000D01*
X103885714Y-120238095D01*
X103809523Y-120352380D01*
X103771428Y-120504761D01*
X103771428Y-120809523D01*
X103809523Y-120885714D01*
X103847619Y-120923809D01*
X103923809Y-120961904D01*
X104076190Y-120961904D01*
X104152380Y-120923809D01*
X104190476Y-120885714D01*
X104228571Y-120809523D01*
X104228571Y-120619047D01*
X104190476Y-120542857D01*
X104152380Y-120504761D01*
X104076190Y-120466666D01*
X103923809Y-120466666D01*
X103847619Y-120504761D01*
X103809523Y-120542857D01*
X103771428Y-120619047D01*
X119209523Y-107561904D02*
X119209523Y-106761904D01*
X119400000Y-106761904D01*
X119514285Y-106800000D01*
X119590476Y-106876190D01*
X119628571Y-106952380D01*
X119666666Y-107104761D01*
X119666666Y-107219047D01*
X119628571Y-107371428D01*
X119590476Y-107447619D01*
X119514285Y-107523809D01*
X119400000Y-107561904D01*
X119209523Y-107561904D01*
X120352380Y-107028571D02*
X120352380Y-107561904D01*
X120161904Y-106723809D02*
X119971428Y-107295238D01*
X120466666Y-107295238D01*
X133659522Y-132161904D02*
X133659522Y-131361904D01*
X133849999Y-131361904D01*
X133964284Y-131400000D01*
X134040475Y-131476190D01*
X134078570Y-131552380D01*
X134116665Y-131704761D01*
X134116665Y-131819047D01*
X134078570Y-131971428D01*
X134040475Y-132047619D01*
X133964284Y-132123809D01*
X133849999Y-132161904D01*
X133659522Y-132161904D01*
X134421427Y-131438095D02*
X134459522Y-131400000D01*
X134535713Y-131361904D01*
X134726189Y-131361904D01*
X134802379Y-131400000D01*
X134840475Y-131438095D01*
X134878570Y-131514285D01*
X134878570Y-131590476D01*
X134840475Y-131704761D01*
X134383332Y-132161904D01*
X134878570Y-132161904D01*
X132409523Y-137561904D02*
X132409523Y-136761904D01*
X132600000Y-136761904D01*
X132714285Y-136800000D01*
X132790476Y-136876190D01*
X132828571Y-136952380D01*
X132866666Y-137104761D01*
X132866666Y-137219047D01*
X132828571Y-137371428D01*
X132790476Y-137447619D01*
X132714285Y-137523809D01*
X132600000Y-137561904D01*
X132409523Y-137561904D01*
X133628571Y-137561904D02*
X133171428Y-137561904D01*
X133400000Y-137561904D02*
X133400000Y-136761904D01*
X133323809Y-136876190D01*
X133247619Y-136952380D01*
X133171428Y-136990476D01*
X116688095Y-59785714D02*
X117069047Y-59519047D01*
X116688095Y-59328571D02*
X117488095Y-59328571D01*
X117488095Y-59633333D01*
X117450000Y-59709523D01*
X117411904Y-59747619D01*
X117335714Y-59785714D01*
X117221428Y-59785714D01*
X117145238Y-59747619D01*
X117107142Y-59709523D01*
X117069047Y-59633333D01*
X117069047Y-59328571D01*
X117411904Y-60090476D02*
X117450000Y-60128571D01*
X117488095Y-60204761D01*
X117488095Y-60395238D01*
X117450000Y-60471428D01*
X117411904Y-60509523D01*
X117335714Y-60547619D01*
X117259523Y-60547619D01*
X117145238Y-60509523D01*
X116688095Y-60052380D01*
X116688095Y-60547619D01*
X117488095Y-60814285D02*
X117488095Y-61347619D01*
X116688095Y-61004761D01*
X108188095Y-59985713D02*
X108569047Y-59719046D01*
X108188095Y-59528570D02*
X108988095Y-59528570D01*
X108988095Y-59833332D01*
X108950000Y-59909522D01*
X108911904Y-59947618D01*
X108835714Y-59985713D01*
X108721428Y-59985713D01*
X108645238Y-59947618D01*
X108607142Y-59909522D01*
X108569047Y-59833332D01*
X108569047Y-59528570D01*
X108911904Y-60290475D02*
X108950000Y-60328570D01*
X108988095Y-60404760D01*
X108988095Y-60595237D01*
X108950000Y-60671427D01*
X108911904Y-60709522D01*
X108835714Y-60747618D01*
X108759523Y-60747618D01*
X108645238Y-60709522D01*
X108188095Y-60252379D01*
X108188095Y-60747618D01*
X108988095Y-61433332D02*
X108988095Y-61280951D01*
X108950000Y-61204760D01*
X108911904Y-61166665D01*
X108797619Y-61090475D01*
X108645238Y-61052379D01*
X108340476Y-61052379D01*
X108264285Y-61090475D01*
X108226190Y-61128570D01*
X108188095Y-61204760D01*
X108188095Y-61357141D01*
X108226190Y-61433332D01*
X108264285Y-61471427D01*
X108340476Y-61509522D01*
X108530952Y-61509522D01*
X108607142Y-61471427D01*
X108645238Y-61433332D01*
X108683333Y-61357141D01*
X108683333Y-61204760D01*
X108645238Y-61128570D01*
X108607142Y-61090475D01*
X108530952Y-61052379D01*
X102085714Y-118761904D02*
X101819047Y-118380952D01*
X101628571Y-118761904D02*
X101628571Y-117961904D01*
X101933333Y-117961904D01*
X102009523Y-118000000D01*
X102047619Y-118038095D01*
X102085714Y-118114285D01*
X102085714Y-118228571D01*
X102047619Y-118304761D01*
X102009523Y-118342857D01*
X101933333Y-118380952D01*
X101628571Y-118380952D01*
X102390476Y-118038095D02*
X102428571Y-118000000D01*
X102504761Y-117961904D01*
X102695238Y-117961904D01*
X102771428Y-118000000D01*
X102809523Y-118038095D01*
X102847619Y-118114285D01*
X102847619Y-118190476D01*
X102809523Y-118304761D01*
X102352380Y-118761904D01*
X102847619Y-118761904D01*
X103571428Y-117961904D02*
X103190476Y-117961904D01*
X103152380Y-118342857D01*
X103190476Y-118304761D01*
X103266666Y-118266666D01*
X103457142Y-118266666D01*
X103533333Y-118304761D01*
X103571428Y-118342857D01*
X103609523Y-118419047D01*
X103609523Y-118609523D01*
X103571428Y-118685714D01*
X103533333Y-118723809D01*
X103457142Y-118761904D01*
X103266666Y-118761904D01*
X103190476Y-118723809D01*
X103152380Y-118685714D01*
X102085714Y-116361904D02*
X101819047Y-115980952D01*
X101628571Y-116361904D02*
X101628571Y-115561904D01*
X101933333Y-115561904D01*
X102009523Y-115600000D01*
X102047619Y-115638095D01*
X102085714Y-115714285D01*
X102085714Y-115828571D01*
X102047619Y-115904761D01*
X102009523Y-115942857D01*
X101933333Y-115980952D01*
X101628571Y-115980952D01*
X102390476Y-115638095D02*
X102428571Y-115600000D01*
X102504761Y-115561904D01*
X102695238Y-115561904D01*
X102771428Y-115600000D01*
X102809523Y-115638095D01*
X102847619Y-115714285D01*
X102847619Y-115790476D01*
X102809523Y-115904761D01*
X102352380Y-116361904D01*
X102847619Y-116361904D01*
X103533333Y-115828571D02*
X103533333Y-116361904D01*
X103342857Y-115523809D02*
X103152380Y-116095238D01*
X103647619Y-116095238D01*
X101885714Y-113961904D02*
X101619047Y-113580952D01*
X101428571Y-113961904D02*
X101428571Y-113161904D01*
X101733333Y-113161904D01*
X101809523Y-113200000D01*
X101847619Y-113238095D01*
X101885714Y-113314285D01*
X101885714Y-113428571D01*
X101847619Y-113504761D01*
X101809523Y-113542857D01*
X101733333Y-113580952D01*
X101428571Y-113580952D01*
X102190476Y-113238095D02*
X102228571Y-113200000D01*
X102304761Y-113161904D01*
X102495238Y-113161904D01*
X102571428Y-113200000D01*
X102609523Y-113238095D01*
X102647619Y-113314285D01*
X102647619Y-113390476D01*
X102609523Y-113504761D01*
X102152380Y-113961904D01*
X102647619Y-113961904D01*
X102914285Y-113161904D02*
X103409523Y-113161904D01*
X103142857Y-113466666D01*
X103257142Y-113466666D01*
X103333333Y-113504761D01*
X103371428Y-113542857D01*
X103409523Y-113619047D01*
X103409523Y-113809523D01*
X103371428Y-113885714D01*
X103333333Y-113923809D01*
X103257142Y-113961904D01*
X103028571Y-113961904D01*
X102952380Y-113923809D01*
X102914285Y-113885714D01*
X117485714Y-101761904D02*
X117219047Y-101380952D01*
X117028571Y-101761904D02*
X117028571Y-100961904D01*
X117333333Y-100961904D01*
X117409523Y-101000000D01*
X117447619Y-101038095D01*
X117485714Y-101114285D01*
X117485714Y-101228571D01*
X117447619Y-101304761D01*
X117409523Y-101342857D01*
X117333333Y-101380952D01*
X117028571Y-101380952D01*
X117790476Y-101038095D02*
X117828571Y-101000000D01*
X117904761Y-100961904D01*
X118095238Y-100961904D01*
X118171428Y-101000000D01*
X118209523Y-101038095D01*
X118247619Y-101114285D01*
X118247619Y-101190476D01*
X118209523Y-101304761D01*
X117752380Y-101761904D01*
X118247619Y-101761904D01*
X119009523Y-101761904D02*
X118552380Y-101761904D01*
X118780952Y-101761904D02*
X118780952Y-100961904D01*
X118704761Y-101076190D01*
X118628571Y-101152380D01*
X118552380Y-101190476D01*
X147761904Y-118914285D02*
X147380952Y-119180952D01*
X147761904Y-119371428D02*
X146961904Y-119371428D01*
X146961904Y-119066666D01*
X147000000Y-118990476D01*
X147038095Y-118952380D01*
X147114285Y-118914285D01*
X147228571Y-118914285D01*
X147304761Y-118952380D01*
X147342857Y-118990476D01*
X147380952Y-119066666D01*
X147380952Y-119371428D01*
X147038095Y-118609523D02*
X147000000Y-118571428D01*
X146961904Y-118495238D01*
X146961904Y-118304761D01*
X147000000Y-118228571D01*
X147038095Y-118190476D01*
X147114285Y-118152380D01*
X147190476Y-118152380D01*
X147304761Y-118190476D01*
X147761904Y-118647619D01*
X147761904Y-118152380D01*
X146961904Y-117657142D02*
X146961904Y-117580952D01*
X147000000Y-117504761D01*
X147038095Y-117466666D01*
X147114285Y-117428571D01*
X147266666Y-117390476D01*
X147457142Y-117390476D01*
X147609523Y-117428571D01*
X147685714Y-117466666D01*
X147723809Y-117504761D01*
X147761904Y-117580952D01*
X147761904Y-117657142D01*
X147723809Y-117733333D01*
X147685714Y-117771428D01*
X147609523Y-117809523D01*
X147457142Y-117847619D01*
X147266666Y-117847619D01*
X147114285Y-117809523D01*
X147038095Y-117771428D01*
X147000000Y-117733333D01*
X146961904Y-117657142D01*
X131485714Y-101761904D02*
X131219047Y-101380952D01*
X131028571Y-101761904D02*
X131028571Y-100961904D01*
X131333333Y-100961904D01*
X131409523Y-101000000D01*
X131447619Y-101038095D01*
X131485714Y-101114285D01*
X131485714Y-101228571D01*
X131447619Y-101304761D01*
X131409523Y-101342857D01*
X131333333Y-101380952D01*
X131028571Y-101380952D01*
X132247619Y-101761904D02*
X131790476Y-101761904D01*
X132019047Y-101761904D02*
X132019047Y-100961904D01*
X131942857Y-101076190D01*
X131866666Y-101152380D01*
X131790476Y-101190476D01*
X132628571Y-101761904D02*
X132780952Y-101761904D01*
X132857142Y-101723809D01*
X132895238Y-101685714D01*
X132971428Y-101571428D01*
X133009523Y-101419047D01*
X133009523Y-101114285D01*
X132971428Y-101038095D01*
X132933333Y-101000000D01*
X132857142Y-100961904D01*
X132704761Y-100961904D01*
X132628571Y-101000000D01*
X132590476Y-101038095D01*
X132552380Y-101114285D01*
X132552380Y-101304761D01*
X132590476Y-101380952D01*
X132628571Y-101419047D01*
X132704761Y-101457142D01*
X132857142Y-101457142D01*
X132933333Y-101419047D01*
X132971428Y-101380952D01*
X133009523Y-101304761D01*
X136585714Y-107411904D02*
X136319047Y-107030952D01*
X136128571Y-107411904D02*
X136128571Y-106611904D01*
X136433333Y-106611904D01*
X136509523Y-106650000D01*
X136547619Y-106688095D01*
X136585714Y-106764285D01*
X136585714Y-106878571D01*
X136547619Y-106954761D01*
X136509523Y-106992857D01*
X136433333Y-107030952D01*
X136128571Y-107030952D01*
X137347619Y-107411904D02*
X136890476Y-107411904D01*
X137119047Y-107411904D02*
X137119047Y-106611904D01*
X137042857Y-106726190D01*
X136966666Y-106802380D01*
X136890476Y-106840476D01*
X137804761Y-106954761D02*
X137728571Y-106916666D01*
X137690476Y-106878571D01*
X137652380Y-106802380D01*
X137652380Y-106764285D01*
X137690476Y-106688095D01*
X137728571Y-106650000D01*
X137804761Y-106611904D01*
X137957142Y-106611904D01*
X138033333Y-106650000D01*
X138071428Y-106688095D01*
X138109523Y-106764285D01*
X138109523Y-106802380D01*
X138071428Y-106878571D01*
X138033333Y-106916666D01*
X137957142Y-106954761D01*
X137804761Y-106954761D01*
X137728571Y-106992857D01*
X137690476Y-107030952D01*
X137652380Y-107107142D01*
X137652380Y-107259523D01*
X137690476Y-107335714D01*
X137728571Y-107373809D01*
X137804761Y-107411904D01*
X137957142Y-107411904D01*
X138033333Y-107373809D01*
X138071428Y-107335714D01*
X138109523Y-107259523D01*
X138109523Y-107107142D01*
X138071428Y-107030952D01*
X138033333Y-106992857D01*
X137957142Y-106954761D01*
X138885714Y-111961904D02*
X138619047Y-111580952D01*
X138428571Y-111961904D02*
X138428571Y-111161904D01*
X138733333Y-111161904D01*
X138809523Y-111200000D01*
X138847619Y-111238095D01*
X138885714Y-111314285D01*
X138885714Y-111428571D01*
X138847619Y-111504761D01*
X138809523Y-111542857D01*
X138733333Y-111580952D01*
X138428571Y-111580952D01*
X139647619Y-111961904D02*
X139190476Y-111961904D01*
X139419047Y-111961904D02*
X139419047Y-111161904D01*
X139342857Y-111276190D01*
X139266666Y-111352380D01*
X139190476Y-111390476D01*
X139914285Y-111161904D02*
X140447619Y-111161904D01*
X140104761Y-111961904D01*
X138885714Y-110161904D02*
X138619047Y-109780952D01*
X138428571Y-110161904D02*
X138428571Y-109361904D01*
X138733333Y-109361904D01*
X138809523Y-109400000D01*
X138847619Y-109438095D01*
X138885714Y-109514285D01*
X138885714Y-109628571D01*
X138847619Y-109704761D01*
X138809523Y-109742857D01*
X138733333Y-109780952D01*
X138428571Y-109780952D01*
X139647619Y-110161904D02*
X139190476Y-110161904D01*
X139419047Y-110161904D02*
X139419047Y-109361904D01*
X139342857Y-109476190D01*
X139266666Y-109552380D01*
X139190476Y-109590476D01*
X140333333Y-109361904D02*
X140180952Y-109361904D01*
X140104761Y-109400000D01*
X140066666Y-109438095D01*
X139990476Y-109552380D01*
X139952380Y-109704761D01*
X139952380Y-110009523D01*
X139990476Y-110085714D01*
X140028571Y-110123809D01*
X140104761Y-110161904D01*
X140257142Y-110161904D01*
X140333333Y-110123809D01*
X140371428Y-110085714D01*
X140409523Y-110009523D01*
X140409523Y-109819047D01*
X140371428Y-109742857D01*
X140333333Y-109704761D01*
X140257142Y-109666666D01*
X140104761Y-109666666D01*
X140028571Y-109704761D01*
X139990476Y-109742857D01*
X139952380Y-109819047D01*
X130085714Y-106961904D02*
X129819047Y-106580952D01*
X129628571Y-106961904D02*
X129628571Y-106161904D01*
X129933333Y-106161904D01*
X130009523Y-106200000D01*
X130047619Y-106238095D01*
X130085714Y-106314285D01*
X130085714Y-106428571D01*
X130047619Y-106504761D01*
X130009523Y-106542857D01*
X129933333Y-106580952D01*
X129628571Y-106580952D01*
X130847619Y-106961904D02*
X130390476Y-106961904D01*
X130619047Y-106961904D02*
X130619047Y-106161904D01*
X130542857Y-106276190D01*
X130466666Y-106352380D01*
X130390476Y-106390476D01*
X131571428Y-106161904D02*
X131190476Y-106161904D01*
X131152380Y-106542857D01*
X131190476Y-106504761D01*
X131266666Y-106466666D01*
X131457142Y-106466666D01*
X131533333Y-106504761D01*
X131571428Y-106542857D01*
X131609523Y-106619047D01*
X131609523Y-106809523D01*
X131571428Y-106885714D01*
X131533333Y-106923809D01*
X131457142Y-106961904D01*
X131266666Y-106961904D01*
X131190476Y-106923809D01*
X131152380Y-106885714D01*
X137485714Y-130161904D02*
X137219047Y-129780952D01*
X137028571Y-130161904D02*
X137028571Y-129361904D01*
X137333333Y-129361904D01*
X137409523Y-129400000D01*
X137447619Y-129438095D01*
X137485714Y-129514285D01*
X137485714Y-129628571D01*
X137447619Y-129704761D01*
X137409523Y-129742857D01*
X137333333Y-129780952D01*
X137028571Y-129780952D01*
X138247619Y-130161904D02*
X137790476Y-130161904D01*
X138019047Y-130161904D02*
X138019047Y-129361904D01*
X137942857Y-129476190D01*
X137866666Y-129552380D01*
X137790476Y-129590476D01*
X138933333Y-129628571D02*
X138933333Y-130161904D01*
X138742857Y-129323809D02*
X138552380Y-129895238D01*
X139047619Y-129895238D01*
X137485714Y-131761904D02*
X137219047Y-131380952D01*
X137028571Y-131761904D02*
X137028571Y-130961904D01*
X137333333Y-130961904D01*
X137409523Y-131000000D01*
X137447619Y-131038095D01*
X137485714Y-131114285D01*
X137485714Y-131228571D01*
X137447619Y-131304761D01*
X137409523Y-131342857D01*
X137333333Y-131380952D01*
X137028571Y-131380952D01*
X138247619Y-131761904D02*
X137790476Y-131761904D01*
X138019047Y-131761904D02*
X138019047Y-130961904D01*
X137942857Y-131076190D01*
X137866666Y-131152380D01*
X137790476Y-131190476D01*
X138514285Y-130961904D02*
X139009523Y-130961904D01*
X138742857Y-131266666D01*
X138857142Y-131266666D01*
X138933333Y-131304761D01*
X138971428Y-131342857D01*
X139009523Y-131419047D01*
X139009523Y-131609523D01*
X138971428Y-131685714D01*
X138933333Y-131723809D01*
X138857142Y-131761904D01*
X138628571Y-131761904D01*
X138552380Y-131723809D01*
X138514285Y-131685714D01*
X134885714Y-138761904D02*
X134619047Y-138380952D01*
X134428571Y-138761904D02*
X134428571Y-137961904D01*
X134733333Y-137961904D01*
X134809523Y-138000000D01*
X134847619Y-138038095D01*
X134885714Y-138114285D01*
X134885714Y-138228571D01*
X134847619Y-138304761D01*
X134809523Y-138342857D01*
X134733333Y-138380952D01*
X134428571Y-138380952D01*
X135647619Y-138761904D02*
X135190476Y-138761904D01*
X135419047Y-138761904D02*
X135419047Y-137961904D01*
X135342857Y-138076190D01*
X135266666Y-138152380D01*
X135190476Y-138190476D01*
X135952380Y-138038095D02*
X135990476Y-138000000D01*
X136066666Y-137961904D01*
X136257142Y-137961904D01*
X136333333Y-138000000D01*
X136371428Y-138038095D01*
X136409523Y-138114285D01*
X136409523Y-138190476D01*
X136371428Y-138304761D01*
X135914285Y-138761904D01*
X136409523Y-138761904D01*
X130638095Y-141485714D02*
X131019047Y-141219047D01*
X130638095Y-141028571D02*
X131438095Y-141028571D01*
X131438095Y-141333333D01*
X131400000Y-141409523D01*
X131361904Y-141447619D01*
X131285714Y-141485714D01*
X131171428Y-141485714D01*
X131095238Y-141447619D01*
X131057142Y-141409523D01*
X131019047Y-141333333D01*
X131019047Y-141028571D01*
X130638095Y-142247619D02*
X130638095Y-141790476D01*
X130638095Y-142019047D02*
X131438095Y-142019047D01*
X131323809Y-141942857D01*
X131247619Y-141866666D01*
X131209523Y-141790476D01*
X130638095Y-143009523D02*
X130638095Y-142552380D01*
X130638095Y-142780952D02*
X131438095Y-142780952D01*
X131323809Y-142704761D01*
X131247619Y-142628571D01*
X131209523Y-142552380D01*
X121161904Y-141114285D02*
X120780952Y-141380952D01*
X121161904Y-141571428D02*
X120361904Y-141571428D01*
X120361904Y-141266666D01*
X120400000Y-141190476D01*
X120438095Y-141152380D01*
X120514285Y-141114285D01*
X120628571Y-141114285D01*
X120704761Y-141152380D01*
X120742857Y-141190476D01*
X120780952Y-141266666D01*
X120780952Y-141571428D01*
X121161904Y-140352380D02*
X121161904Y-140809523D01*
X121161904Y-140580952D02*
X120361904Y-140580952D01*
X120476190Y-140657142D01*
X120552380Y-140733333D01*
X120590476Y-140809523D01*
X120361904Y-139857142D02*
X120361904Y-139780952D01*
X120400000Y-139704761D01*
X120438095Y-139666666D01*
X120514285Y-139628571D01*
X120666666Y-139590476D01*
X120857142Y-139590476D01*
X121009523Y-139628571D01*
X121085714Y-139666666D01*
X121123809Y-139704761D01*
X121161904Y-139780952D01*
X121161904Y-139857142D01*
X121123809Y-139933333D01*
X121085714Y-139971428D01*
X121009523Y-140009523D01*
X120857142Y-140047619D01*
X120666666Y-140047619D01*
X120514285Y-140009523D01*
X120438095Y-139971428D01*
X120400000Y-139933333D01*
X120361904Y-139857142D01*
X130116666Y-132061904D02*
X129850000Y-131680952D01*
X129659523Y-132061904D02*
X129659523Y-131261904D01*
X129964285Y-131261904D01*
X130040476Y-131300000D01*
X130078571Y-131338095D01*
X130116666Y-131414285D01*
X130116666Y-131528571D01*
X130078571Y-131604761D01*
X130040476Y-131642857D01*
X129964285Y-131680952D01*
X129659523Y-131680952D01*
X130497619Y-132061904D02*
X130650000Y-132061904D01*
X130726190Y-132023809D01*
X130764285Y-131985714D01*
X130840476Y-131871428D01*
X130878571Y-131719047D01*
X130878571Y-131414285D01*
X130840476Y-131338095D01*
X130802380Y-131300000D01*
X130726190Y-131261904D01*
X130573809Y-131261904D01*
X130497619Y-131300000D01*
X130459523Y-131338095D01*
X130421428Y-131414285D01*
X130421428Y-131604761D01*
X130459523Y-131680952D01*
X130497619Y-131719047D01*
X130573809Y-131757142D01*
X130726190Y-131757142D01*
X130802380Y-131719047D01*
X130840476Y-131680952D01*
X130878571Y-131604761D01*
X130066666Y-137761904D02*
X129800000Y-137380952D01*
X129609523Y-137761904D02*
X129609523Y-136961904D01*
X129914285Y-136961904D01*
X129990476Y-137000000D01*
X130028571Y-137038095D01*
X130066666Y-137114285D01*
X130066666Y-137228571D01*
X130028571Y-137304761D01*
X129990476Y-137342857D01*
X129914285Y-137380952D01*
X129609523Y-137380952D01*
X130523809Y-137304761D02*
X130447619Y-137266666D01*
X130409523Y-137228571D01*
X130371428Y-137152380D01*
X130371428Y-137114285D01*
X130409523Y-137038095D01*
X130447619Y-137000000D01*
X130523809Y-136961904D01*
X130676190Y-136961904D01*
X130752380Y-137000000D01*
X130790476Y-137038095D01*
X130828571Y-137114285D01*
X130828571Y-137152380D01*
X130790476Y-137228571D01*
X130752380Y-137266666D01*
X130676190Y-137304761D01*
X130523809Y-137304761D01*
X130447619Y-137342857D01*
X130409523Y-137380952D01*
X130371428Y-137457142D01*
X130371428Y-137609523D01*
X130409523Y-137685714D01*
X130447619Y-137723809D01*
X130523809Y-137761904D01*
X130676190Y-137761904D01*
X130752380Y-137723809D01*
X130790476Y-137685714D01*
X130828571Y-137609523D01*
X130828571Y-137457142D01*
X130790476Y-137380952D01*
X130752380Y-137342857D01*
X130676190Y-137304761D01*
X125066666Y-130361904D02*
X124800000Y-129980952D01*
X124609523Y-130361904D02*
X124609523Y-129561904D01*
X124914285Y-129561904D01*
X124990476Y-129600000D01*
X125028571Y-129638095D01*
X125066666Y-129714285D01*
X125066666Y-129828571D01*
X125028571Y-129904761D01*
X124990476Y-129942857D01*
X124914285Y-129980952D01*
X124609523Y-129980952D01*
X125333333Y-129561904D02*
X125866666Y-129561904D01*
X125523809Y-130361904D01*
X121266666Y-71761904D02*
X121000000Y-71380952D01*
X120809523Y-71761904D02*
X120809523Y-70961904D01*
X121114285Y-70961904D01*
X121190476Y-71000000D01*
X121228571Y-71038095D01*
X121266666Y-71114285D01*
X121266666Y-71228571D01*
X121228571Y-71304761D01*
X121190476Y-71342857D01*
X121114285Y-71380952D01*
X120809523Y-71380952D01*
X121990476Y-70961904D02*
X121609523Y-70961904D01*
X121571428Y-71342857D01*
X121609523Y-71304761D01*
X121685714Y-71266666D01*
X121876190Y-71266666D01*
X121952380Y-71304761D01*
X121990476Y-71342857D01*
X122028571Y-71419047D01*
X122028571Y-71609523D01*
X121990476Y-71685714D01*
X121952380Y-71723809D01*
X121876190Y-71761904D01*
X121685714Y-71761904D01*
X121609523Y-71723809D01*
X121571428Y-71685714D01*
X124466666Y-86761904D02*
X124200000Y-86380952D01*
X124009523Y-86761904D02*
X124009523Y-85961904D01*
X124314285Y-85961904D01*
X124390476Y-86000000D01*
X124428571Y-86038095D01*
X124466666Y-86114285D01*
X124466666Y-86228571D01*
X124428571Y-86304761D01*
X124390476Y-86342857D01*
X124314285Y-86380952D01*
X124009523Y-86380952D01*
X125152380Y-86228571D02*
X125152380Y-86761904D01*
X124961904Y-85923809D02*
X124771428Y-86495238D01*
X125266666Y-86495238D01*
X122366666Y-79761904D02*
X122100000Y-79380952D01*
X121909523Y-79761904D02*
X121909523Y-78961904D01*
X122214285Y-78961904D01*
X122290476Y-79000000D01*
X122328571Y-79038095D01*
X122366666Y-79114285D01*
X122366666Y-79228571D01*
X122328571Y-79304761D01*
X122290476Y-79342857D01*
X122214285Y-79380952D01*
X121909523Y-79380952D01*
X122633333Y-78961904D02*
X123128571Y-78961904D01*
X122861904Y-79266666D01*
X122976190Y-79266666D01*
X123052380Y-79304761D01*
X123090476Y-79342857D01*
X123128571Y-79419047D01*
X123128571Y-79609523D01*
X123090476Y-79685714D01*
X123052380Y-79723809D01*
X122976190Y-79761904D01*
X122747619Y-79761904D01*
X122671428Y-79723809D01*
X122633333Y-79685714D01*
X121266666Y-69361904D02*
X121000000Y-68980952D01*
X120809523Y-69361904D02*
X120809523Y-68561904D01*
X121114285Y-68561904D01*
X121190476Y-68600000D01*
X121228571Y-68638095D01*
X121266666Y-68714285D01*
X121266666Y-68828571D01*
X121228571Y-68904761D01*
X121190476Y-68942857D01*
X121114285Y-68980952D01*
X120809523Y-68980952D01*
X121571428Y-68638095D02*
X121609523Y-68600000D01*
X121685714Y-68561904D01*
X121876190Y-68561904D01*
X121952380Y-68600000D01*
X121990476Y-68638095D01*
X122028571Y-68714285D01*
X122028571Y-68790476D01*
X121990476Y-68904761D01*
X121533333Y-69361904D01*
X122028571Y-69361904D01*
X145561904Y-108133333D02*
X145180952Y-108400000D01*
X145561904Y-108590476D02*
X144761904Y-108590476D01*
X144761904Y-108285714D01*
X144800000Y-108209523D01*
X144838095Y-108171428D01*
X144914285Y-108133333D01*
X145028571Y-108133333D01*
X145104761Y-108171428D01*
X145142857Y-108209523D01*
X145180952Y-108285714D01*
X145180952Y-108590476D01*
X145561904Y-107371428D02*
X145561904Y-107828571D01*
X145561904Y-107600000D02*
X144761904Y-107600000D01*
X144876190Y-107676190D01*
X144952380Y-107752380D01*
X144990476Y-107828571D01*
X104085714Y-128514285D02*
X104123809Y-128552380D01*
X104161904Y-128666666D01*
X104161904Y-128742857D01*
X104123809Y-128857142D01*
X104047619Y-128933333D01*
X103971428Y-128971428D01*
X103819047Y-129009523D01*
X103704761Y-129009523D01*
X103552380Y-128971428D01*
X103476190Y-128933333D01*
X103400000Y-128857142D01*
X103361904Y-128742857D01*
X103361904Y-128666666D01*
X103400000Y-128552380D01*
X103438095Y-128514285D01*
X103438095Y-128209523D02*
X103400000Y-128171428D01*
X103361904Y-128095238D01*
X103361904Y-127904761D01*
X103400000Y-127828571D01*
X103438095Y-127790476D01*
X103514285Y-127752380D01*
X103590476Y-127752380D01*
X103704761Y-127790476D01*
X104161904Y-128247619D01*
X104161904Y-127752380D01*
X103361904Y-127485714D02*
X103361904Y-126952380D01*
X104161904Y-127295238D01*
X117385714Y-88585714D02*
X117347619Y-88623809D01*
X117233333Y-88661904D01*
X117157142Y-88661904D01*
X117042857Y-88623809D01*
X116966666Y-88547619D01*
X116928571Y-88471428D01*
X116890476Y-88319047D01*
X116890476Y-88204761D01*
X116928571Y-88052380D01*
X116966666Y-87976190D01*
X117042857Y-87900000D01*
X117157142Y-87861904D01*
X117233333Y-87861904D01*
X117347619Y-87900000D01*
X117385714Y-87938095D01*
X117690476Y-87938095D02*
X117728571Y-87900000D01*
X117804761Y-87861904D01*
X117995238Y-87861904D01*
X118071428Y-87900000D01*
X118109523Y-87938095D01*
X118147619Y-88014285D01*
X118147619Y-88090476D01*
X118109523Y-88204761D01*
X117652380Y-88661904D01*
X118147619Y-88661904D01*
X118871428Y-87861904D02*
X118490476Y-87861904D01*
X118452380Y-88242857D01*
X118490476Y-88204761D01*
X118566666Y-88166666D01*
X118757142Y-88166666D01*
X118833333Y-88204761D01*
X118871428Y-88242857D01*
X118909523Y-88319047D01*
X118909523Y-88509523D01*
X118871428Y-88585714D01*
X118833333Y-88623809D01*
X118757142Y-88661904D01*
X118566666Y-88661904D01*
X118490476Y-88623809D01*
X118452380Y-88585714D01*
X103885714Y-85085714D02*
X103847619Y-85123809D01*
X103733333Y-85161904D01*
X103657142Y-85161904D01*
X103542857Y-85123809D01*
X103466666Y-85047619D01*
X103428571Y-84971428D01*
X103390476Y-84819047D01*
X103390476Y-84704761D01*
X103428571Y-84552380D01*
X103466666Y-84476190D01*
X103542857Y-84400000D01*
X103657142Y-84361904D01*
X103733333Y-84361904D01*
X103847619Y-84400000D01*
X103885714Y-84438095D01*
X104190476Y-84438095D02*
X104228571Y-84400000D01*
X104304761Y-84361904D01*
X104495238Y-84361904D01*
X104571428Y-84400000D01*
X104609523Y-84438095D01*
X104647619Y-84514285D01*
X104647619Y-84590476D01*
X104609523Y-84704761D01*
X104152380Y-85161904D01*
X104647619Y-85161904D01*
X105333333Y-84628571D02*
X105333333Y-85161904D01*
X105142857Y-84323809D02*
X104952380Y-84895238D01*
X105447619Y-84895238D01*
X113885714Y-78285714D02*
X113847619Y-78323809D01*
X113733333Y-78361904D01*
X113657142Y-78361904D01*
X113542857Y-78323809D01*
X113466666Y-78247619D01*
X113428571Y-78171428D01*
X113390476Y-78019047D01*
X113390476Y-77904761D01*
X113428571Y-77752380D01*
X113466666Y-77676190D01*
X113542857Y-77600000D01*
X113657142Y-77561904D01*
X113733333Y-77561904D01*
X113847619Y-77600000D01*
X113885714Y-77638095D01*
X114190476Y-77638095D02*
X114228571Y-77600000D01*
X114304761Y-77561904D01*
X114495238Y-77561904D01*
X114571428Y-77600000D01*
X114609523Y-77638095D01*
X114647619Y-77714285D01*
X114647619Y-77790476D01*
X114609523Y-77904761D01*
X114152380Y-78361904D01*
X114647619Y-78361904D01*
X114914285Y-77561904D02*
X115409523Y-77561904D01*
X115142857Y-77866666D01*
X115257142Y-77866666D01*
X115333333Y-77904761D01*
X115371428Y-77942857D01*
X115409523Y-78019047D01*
X115409523Y-78209523D01*
X115371428Y-78285714D01*
X115333333Y-78323809D01*
X115257142Y-78361904D01*
X115028571Y-78361904D01*
X114952380Y-78323809D01*
X114914285Y-78285714D01*
X113814285Y-122485714D02*
X113776190Y-122447619D01*
X113738095Y-122333333D01*
X113738095Y-122257142D01*
X113776190Y-122142857D01*
X113852380Y-122066666D01*
X113928571Y-122028571D01*
X114080952Y-121990476D01*
X114195238Y-121990476D01*
X114347619Y-122028571D01*
X114423809Y-122066666D01*
X114500000Y-122142857D01*
X114538095Y-122257142D01*
X114538095Y-122333333D01*
X114500000Y-122447619D01*
X114461904Y-122485714D01*
X114461904Y-122790476D02*
X114500000Y-122828571D01*
X114538095Y-122904761D01*
X114538095Y-123095238D01*
X114500000Y-123171428D01*
X114461904Y-123209523D01*
X114385714Y-123247619D01*
X114309523Y-123247619D01*
X114195238Y-123209523D01*
X113738095Y-122752380D01*
X113738095Y-123247619D01*
X114461904Y-123552380D02*
X114500000Y-123590476D01*
X114538095Y-123666666D01*
X114538095Y-123857142D01*
X114500000Y-123933333D01*
X114461904Y-123971428D01*
X114385714Y-124009523D01*
X114309523Y-124009523D01*
X114195238Y-123971428D01*
X113738095Y-123514285D01*
X113738095Y-124009523D01*
X111114285Y-116285714D02*
X111076190Y-116247619D01*
X111038095Y-116133333D01*
X111038095Y-116057142D01*
X111076190Y-115942857D01*
X111152380Y-115866666D01*
X111228571Y-115828571D01*
X111380952Y-115790476D01*
X111495238Y-115790476D01*
X111647619Y-115828571D01*
X111723809Y-115866666D01*
X111800000Y-115942857D01*
X111838095Y-116057142D01*
X111838095Y-116133333D01*
X111800000Y-116247619D01*
X111761904Y-116285714D01*
X111761904Y-116590476D02*
X111800000Y-116628571D01*
X111838095Y-116704761D01*
X111838095Y-116895238D01*
X111800000Y-116971428D01*
X111761904Y-117009523D01*
X111685714Y-117047619D01*
X111609523Y-117047619D01*
X111495238Y-117009523D01*
X111038095Y-116552380D01*
X111038095Y-117047619D01*
X111038095Y-117809523D02*
X111038095Y-117352380D01*
X111038095Y-117580952D02*
X111838095Y-117580952D01*
X111723809Y-117504761D01*
X111647619Y-117428571D01*
X111609523Y-117352380D01*
X125314285Y-121085714D02*
X125276190Y-121047619D01*
X125238095Y-120933333D01*
X125238095Y-120857142D01*
X125276190Y-120742857D01*
X125352380Y-120666666D01*
X125428571Y-120628571D01*
X125580952Y-120590476D01*
X125695238Y-120590476D01*
X125847619Y-120628571D01*
X125923809Y-120666666D01*
X126000000Y-120742857D01*
X126038095Y-120857142D01*
X126038095Y-120933333D01*
X126000000Y-121047619D01*
X125961904Y-121085714D01*
X125961904Y-121390476D02*
X126000000Y-121428571D01*
X126038095Y-121504761D01*
X126038095Y-121695238D01*
X126000000Y-121771428D01*
X125961904Y-121809523D01*
X125885714Y-121847619D01*
X125809523Y-121847619D01*
X125695238Y-121809523D01*
X125238095Y-121352380D01*
X125238095Y-121847619D01*
X126038095Y-122342857D02*
X126038095Y-122419047D01*
X126000000Y-122495238D01*
X125961904Y-122533333D01*
X125885714Y-122571428D01*
X125733333Y-122609523D01*
X125542857Y-122609523D01*
X125390476Y-122571428D01*
X125314285Y-122533333D01*
X125276190Y-122495238D01*
X125238095Y-122419047D01*
X125238095Y-122342857D01*
X125276190Y-122266666D01*
X125314285Y-122228571D01*
X125390476Y-122190476D01*
X125542857Y-122152380D01*
X125733333Y-122152380D01*
X125885714Y-122190476D01*
X125961904Y-122228571D01*
X126000000Y-122266666D01*
X126038095Y-122342857D01*
X116885714Y-127814285D02*
X116923809Y-127852380D01*
X116961904Y-127966666D01*
X116961904Y-128042857D01*
X116923809Y-128157142D01*
X116847619Y-128233333D01*
X116771428Y-128271428D01*
X116619047Y-128309523D01*
X116504761Y-128309523D01*
X116352380Y-128271428D01*
X116276190Y-128233333D01*
X116200000Y-128157142D01*
X116161904Y-128042857D01*
X116161904Y-127966666D01*
X116200000Y-127852380D01*
X116238095Y-127814285D01*
X116961904Y-127052380D02*
X116961904Y-127509523D01*
X116961904Y-127280952D02*
X116161904Y-127280952D01*
X116276190Y-127357142D01*
X116352380Y-127433333D01*
X116390476Y-127509523D01*
X116961904Y-126671428D02*
X116961904Y-126519047D01*
X116923809Y-126442857D01*
X116885714Y-126404761D01*
X116771428Y-126328571D01*
X116619047Y-126290476D01*
X116314285Y-126290476D01*
X116238095Y-126328571D01*
X116200000Y-126366666D01*
X116161904Y-126442857D01*
X116161904Y-126595238D01*
X116200000Y-126671428D01*
X116238095Y-126709523D01*
X116314285Y-126747619D01*
X116504761Y-126747619D01*
X116580952Y-126709523D01*
X116619047Y-126671428D01*
X116657142Y-126595238D01*
X116657142Y-126442857D01*
X116619047Y-126366666D01*
X116580952Y-126328571D01*
X116504761Y-126290476D01*
X139085714Y-113285714D02*
X139047619Y-113323809D01*
X138933333Y-113361904D01*
X138857142Y-113361904D01*
X138742857Y-113323809D01*
X138666666Y-113247619D01*
X138628571Y-113171428D01*
X138590476Y-113019047D01*
X138590476Y-112904761D01*
X138628571Y-112752380D01*
X138666666Y-112676190D01*
X138742857Y-112600000D01*
X138857142Y-112561904D01*
X138933333Y-112561904D01*
X139047619Y-112600000D01*
X139085714Y-112638095D01*
X139847619Y-113361904D02*
X139390476Y-113361904D01*
X139619047Y-113361904D02*
X139619047Y-112561904D01*
X139542857Y-112676190D01*
X139466666Y-112752380D01*
X139390476Y-112790476D01*
X140304761Y-112904761D02*
X140228571Y-112866666D01*
X140190476Y-112828571D01*
X140152380Y-112752380D01*
X140152380Y-112714285D01*
X140190476Y-112638095D01*
X140228571Y-112600000D01*
X140304761Y-112561904D01*
X140457142Y-112561904D01*
X140533333Y-112600000D01*
X140571428Y-112638095D01*
X140609523Y-112714285D01*
X140609523Y-112752380D01*
X140571428Y-112828571D01*
X140533333Y-112866666D01*
X140457142Y-112904761D01*
X140304761Y-112904761D01*
X140228571Y-112942857D01*
X140190476Y-112980952D01*
X140152380Y-113057142D01*
X140152380Y-113209523D01*
X140190476Y-113285714D01*
X140228571Y-113323809D01*
X140304761Y-113361904D01*
X140457142Y-113361904D01*
X140533333Y-113323809D01*
X140571428Y-113285714D01*
X140609523Y-113209523D01*
X140609523Y-113057142D01*
X140571428Y-112980952D01*
X140533333Y-112942857D01*
X140457142Y-112904761D01*
X114685714Y-118914285D02*
X114723809Y-118952380D01*
X114761904Y-119066666D01*
X114761904Y-119142857D01*
X114723809Y-119257142D01*
X114647619Y-119333333D01*
X114571428Y-119371428D01*
X114419047Y-119409523D01*
X114304761Y-119409523D01*
X114152380Y-119371428D01*
X114076190Y-119333333D01*
X114000000Y-119257142D01*
X113961904Y-119142857D01*
X113961904Y-119066666D01*
X114000000Y-118952380D01*
X114038095Y-118914285D01*
X114761904Y-118152380D02*
X114761904Y-118609523D01*
X114761904Y-118380952D02*
X113961904Y-118380952D01*
X114076190Y-118457142D01*
X114152380Y-118533333D01*
X114190476Y-118609523D01*
X113961904Y-117885714D02*
X113961904Y-117352380D01*
X114761904Y-117695238D01*
X135085714Y-117285714D02*
X135047619Y-117323809D01*
X134933333Y-117361904D01*
X134857142Y-117361904D01*
X134742857Y-117323809D01*
X134666666Y-117247619D01*
X134628571Y-117171428D01*
X134590476Y-117019047D01*
X134590476Y-116904761D01*
X134628571Y-116752380D01*
X134666666Y-116676190D01*
X134742857Y-116600000D01*
X134857142Y-116561904D01*
X134933333Y-116561904D01*
X135047619Y-116600000D01*
X135085714Y-116638095D01*
X135847619Y-117361904D02*
X135390476Y-117361904D01*
X135619047Y-117361904D02*
X135619047Y-116561904D01*
X135542857Y-116676190D01*
X135466666Y-116752380D01*
X135390476Y-116790476D01*
X136533333Y-116561904D02*
X136380952Y-116561904D01*
X136304761Y-116600000D01*
X136266666Y-116638095D01*
X136190476Y-116752380D01*
X136152380Y-116904761D01*
X136152380Y-117209523D01*
X136190476Y-117285714D01*
X136228571Y-117323809D01*
X136304761Y-117361904D01*
X136457142Y-117361904D01*
X136533333Y-117323809D01*
X136571428Y-117285714D01*
X136609523Y-117209523D01*
X136609523Y-117019047D01*
X136571428Y-116942857D01*
X136533333Y-116904761D01*
X136457142Y-116866666D01*
X136304761Y-116866666D01*
X136228571Y-116904761D01*
X136190476Y-116942857D01*
X136152380Y-117019047D01*
X117885714Y-112685714D02*
X117847619Y-112723809D01*
X117733333Y-112761904D01*
X117657142Y-112761904D01*
X117542857Y-112723809D01*
X117466666Y-112647619D01*
X117428571Y-112571428D01*
X117390476Y-112419047D01*
X117390476Y-112304761D01*
X117428571Y-112152380D01*
X117466666Y-112076190D01*
X117542857Y-112000000D01*
X117657142Y-111961904D01*
X117733333Y-111961904D01*
X117847619Y-112000000D01*
X117885714Y-112038095D01*
X118647619Y-112761904D02*
X118190476Y-112761904D01*
X118419047Y-112761904D02*
X118419047Y-111961904D01*
X118342857Y-112076190D01*
X118266666Y-112152380D01*
X118190476Y-112190476D01*
X119371428Y-111961904D02*
X118990476Y-111961904D01*
X118952380Y-112342857D01*
X118990476Y-112304761D01*
X119066666Y-112266666D01*
X119257142Y-112266666D01*
X119333333Y-112304761D01*
X119371428Y-112342857D01*
X119409523Y-112419047D01*
X119409523Y-112609523D01*
X119371428Y-112685714D01*
X119333333Y-112723809D01*
X119257142Y-112761904D01*
X119066666Y-112761904D01*
X118990476Y-112723809D01*
X118952380Y-112685714D01*
X117885714Y-114685714D02*
X117847619Y-114723809D01*
X117733333Y-114761904D01*
X117657142Y-114761904D01*
X117542857Y-114723809D01*
X117466666Y-114647619D01*
X117428571Y-114571428D01*
X117390476Y-114419047D01*
X117390476Y-114304761D01*
X117428571Y-114152380D01*
X117466666Y-114076190D01*
X117542857Y-114000000D01*
X117657142Y-113961904D01*
X117733333Y-113961904D01*
X117847619Y-114000000D01*
X117885714Y-114038095D01*
X118647619Y-114761904D02*
X118190476Y-114761904D01*
X118419047Y-114761904D02*
X118419047Y-113961904D01*
X118342857Y-114076190D01*
X118266666Y-114152380D01*
X118190476Y-114190476D01*
X119333333Y-114228571D02*
X119333333Y-114761904D01*
X119142857Y-113923809D02*
X118952380Y-114495238D01*
X119447619Y-114495238D01*
X138714285Y-125985714D02*
X138676190Y-125947619D01*
X138638095Y-125833333D01*
X138638095Y-125757142D01*
X138676190Y-125642857D01*
X138752380Y-125566666D01*
X138828571Y-125528571D01*
X138980952Y-125490476D01*
X139095238Y-125490476D01*
X139247619Y-125528571D01*
X139323809Y-125566666D01*
X139400000Y-125642857D01*
X139438095Y-125757142D01*
X139438095Y-125833333D01*
X139400000Y-125947619D01*
X139361904Y-125985714D01*
X138638095Y-126747619D02*
X138638095Y-126290476D01*
X138638095Y-126519047D02*
X139438095Y-126519047D01*
X139323809Y-126442857D01*
X139247619Y-126366666D01*
X139209523Y-126290476D01*
X139438095Y-127014285D02*
X139438095Y-127509523D01*
X139133333Y-127242857D01*
X139133333Y-127357142D01*
X139095238Y-127433333D01*
X139057142Y-127471428D01*
X138980952Y-127509523D01*
X138790476Y-127509523D01*
X138714285Y-127471428D01*
X138676190Y-127433333D01*
X138638095Y-127357142D01*
X138638095Y-127128571D01*
X138676190Y-127052380D01*
X138714285Y-127014285D01*
X120514285Y-143585714D02*
X120476190Y-143547619D01*
X120438095Y-143433333D01*
X120438095Y-143357142D01*
X120476190Y-143242857D01*
X120552380Y-143166666D01*
X120628571Y-143128571D01*
X120780952Y-143090476D01*
X120895238Y-143090476D01*
X121047619Y-143128571D01*
X121123809Y-143166666D01*
X121200000Y-143242857D01*
X121238095Y-143357142D01*
X121238095Y-143433333D01*
X121200000Y-143547619D01*
X121161904Y-143585714D01*
X120438095Y-144347619D02*
X120438095Y-143890476D01*
X120438095Y-144119047D02*
X121238095Y-144119047D01*
X121123809Y-144042857D01*
X121047619Y-143966666D01*
X121009523Y-143890476D01*
X121238095Y-144842857D02*
X121238095Y-144919047D01*
X121200000Y-144995238D01*
X121161904Y-145033333D01*
X121085714Y-145071428D01*
X120933333Y-145109523D01*
X120742857Y-145109523D01*
X120590476Y-145071428D01*
X120514285Y-145033333D01*
X120476190Y-144995238D01*
X120438095Y-144919047D01*
X120438095Y-144842857D01*
X120476190Y-144766666D01*
X120514285Y-144728571D01*
X120590476Y-144690476D01*
X120742857Y-144652380D01*
X120933333Y-144652380D01*
X121085714Y-144690476D01*
X121161904Y-144728571D01*
X121200000Y-144766666D01*
X121238095Y-144842857D01*
X125066666Y-131485714D02*
X125028571Y-131523809D01*
X124914285Y-131561904D01*
X124838095Y-131561904D01*
X124723809Y-131523809D01*
X124647619Y-131447619D01*
X124609523Y-131371428D01*
X124571428Y-131219047D01*
X124571428Y-131104761D01*
X124609523Y-130952380D01*
X124647619Y-130876190D01*
X124723809Y-130800000D01*
X124838095Y-130761904D01*
X124914285Y-130761904D01*
X125028571Y-130800000D01*
X125066666Y-130838095D01*
X125447619Y-131561904D02*
X125600000Y-131561904D01*
X125676190Y-131523809D01*
X125714285Y-131485714D01*
X125790476Y-131371428D01*
X125828571Y-131219047D01*
X125828571Y-130914285D01*
X125790476Y-130838095D01*
X125752380Y-130800000D01*
X125676190Y-130761904D01*
X125523809Y-130761904D01*
X125447619Y-130800000D01*
X125409523Y-130838095D01*
X125371428Y-130914285D01*
X125371428Y-131104761D01*
X125409523Y-131180952D01*
X125447619Y-131219047D01*
X125523809Y-131257142D01*
X125676190Y-131257142D01*
X125752380Y-131219047D01*
X125790476Y-131180952D01*
X125828571Y-131104761D01*
X124266666Y-81285714D02*
X124228571Y-81323809D01*
X124114285Y-81361904D01*
X124038095Y-81361904D01*
X123923809Y-81323809D01*
X123847619Y-81247619D01*
X123809523Y-81171428D01*
X123771428Y-81019047D01*
X123771428Y-80904761D01*
X123809523Y-80752380D01*
X123847619Y-80676190D01*
X123923809Y-80600000D01*
X124038095Y-80561904D01*
X124114285Y-80561904D01*
X124228571Y-80600000D01*
X124266666Y-80638095D01*
X124533333Y-80561904D02*
X125066666Y-80561904D01*
X124723809Y-81361904D01*
X147266666Y-112685714D02*
X147228571Y-112723809D01*
X147114285Y-112761904D01*
X147038095Y-112761904D01*
X146923809Y-112723809D01*
X146847619Y-112647619D01*
X146809523Y-112571428D01*
X146771428Y-112419047D01*
X146771428Y-112304761D01*
X146809523Y-112152380D01*
X146847619Y-112076190D01*
X146923809Y-112000000D01*
X147038095Y-111961904D01*
X147114285Y-111961904D01*
X147228571Y-112000000D01*
X147266666Y-112038095D01*
X147571428Y-112038095D02*
X147609523Y-112000000D01*
X147685714Y-111961904D01*
X147876190Y-111961904D01*
X147952380Y-112000000D01*
X147990476Y-112038095D01*
X148028571Y-112114285D01*
X148028571Y-112190476D01*
X147990476Y-112304761D01*
X147533333Y-112761904D01*
X148028571Y-112761904D01*
X145285714Y-106133333D02*
X145323809Y-106171428D01*
X145361904Y-106285714D01*
X145361904Y-106361904D01*
X145323809Y-106476190D01*
X145247619Y-106552380D01*
X145171428Y-106590476D01*
X145019047Y-106628571D01*
X144904761Y-106628571D01*
X144752380Y-106590476D01*
X144676190Y-106552380D01*
X144600000Y-106476190D01*
X144561904Y-106361904D01*
X144561904Y-106285714D01*
X144600000Y-106171428D01*
X144638095Y-106133333D01*
X145361904Y-105371428D02*
X145361904Y-105828571D01*
X145361904Y-105600000D02*
X144561904Y-105600000D01*
X144676190Y-105676190D01*
X144752380Y-105752380D01*
X144790476Y-105828571D01*
X106123809Y-100266666D02*
X106161904Y-100152380D01*
X106161904Y-99961904D01*
X106123809Y-99885714D01*
X106085714Y-99847619D01*
X106009523Y-99809523D01*
X105933333Y-99809523D01*
X105857142Y-99847619D01*
X105819047Y-99885714D01*
X105780952Y-99961904D01*
X105742857Y-100114285D01*
X105704761Y-100190476D01*
X105666666Y-100228571D01*
X105590476Y-100266666D01*
X105514285Y-100266666D01*
X105438095Y-100228571D01*
X105400000Y-100190476D01*
X105361904Y-100114285D01*
X105361904Y-99923809D01*
X105400000Y-99809523D01*
X105361904Y-99542857D02*
X106161904Y-99352380D01*
X105590476Y-99200000D01*
X106161904Y-99047619D01*
X105361904Y-98857142D01*
X106161904Y-98133333D02*
X106161904Y-98590476D01*
X106161904Y-98361904D02*
X105361904Y-98361904D01*
X105476190Y-98438095D01*
X105552380Y-98514285D01*
X105590476Y-98590476D01*
X120123809Y-100266666D02*
X120161904Y-100152380D01*
X120161904Y-99961904D01*
X120123809Y-99885714D01*
X120085714Y-99847619D01*
X120009523Y-99809523D01*
X119933333Y-99809523D01*
X119857142Y-99847619D01*
X119819047Y-99885714D01*
X119780952Y-99961904D01*
X119742857Y-100114285D01*
X119704761Y-100190476D01*
X119666666Y-100228571D01*
X119590476Y-100266666D01*
X119514285Y-100266666D01*
X119438095Y-100228571D01*
X119400000Y-100190476D01*
X119361904Y-100114285D01*
X119361904Y-99923809D01*
X119400000Y-99809523D01*
X119361904Y-99542857D02*
X120161904Y-99352380D01*
X119590476Y-99200000D01*
X120161904Y-99047619D01*
X119361904Y-98857142D01*
X119438095Y-98590476D02*
X119400000Y-98552380D01*
X119361904Y-98476190D01*
X119361904Y-98285714D01*
X119400000Y-98209523D01*
X119438095Y-98171428D01*
X119514285Y-98133333D01*
X119590476Y-98133333D01*
X119704761Y-98171428D01*
X120161904Y-98628571D01*
X120161904Y-98133333D01*
X134123809Y-100266666D02*
X134161904Y-100152380D01*
X134161904Y-99961904D01*
X134123809Y-99885714D01*
X134085714Y-99847619D01*
X134009523Y-99809523D01*
X133933333Y-99809523D01*
X133857142Y-99847619D01*
X133819047Y-99885714D01*
X133780952Y-99961904D01*
X133742857Y-100114285D01*
X133704761Y-100190476D01*
X133666666Y-100228571D01*
X133590476Y-100266666D01*
X133514285Y-100266666D01*
X133438095Y-100228571D01*
X133400000Y-100190476D01*
X133361904Y-100114285D01*
X133361904Y-99923809D01*
X133400000Y-99809523D01*
X133361904Y-99542857D02*
X134161904Y-99352380D01*
X133590476Y-99200000D01*
X134161904Y-99047619D01*
X133361904Y-98857142D01*
X133361904Y-98628571D02*
X133361904Y-98133333D01*
X133666666Y-98400000D01*
X133666666Y-98285714D01*
X133704761Y-98209523D01*
X133742857Y-98171428D01*
X133819047Y-98133333D01*
X134009523Y-98133333D01*
X134085714Y-98171428D01*
X134123809Y-98209523D01*
X134161904Y-98285714D01*
X134161904Y-98514285D01*
X134123809Y-98590476D01*
X134085714Y-98628571D01*
X145009523Y-142361904D02*
X145009523Y-141561904D01*
X145200000Y-141561904D01*
X145314285Y-141600000D01*
X145390476Y-141676190D01*
X145428571Y-141752380D01*
X145466666Y-141904761D01*
X145466666Y-142019047D01*
X145428571Y-142171428D01*
X145390476Y-142247619D01*
X145314285Y-142323809D01*
X145200000Y-142361904D01*
X145009523Y-142361904D01*
X145733333Y-141561904D02*
X146228571Y-141561904D01*
X145961904Y-141866666D01*
X146076190Y-141866666D01*
X146152380Y-141904761D01*
X146190476Y-141942857D01*
X146228571Y-142019047D01*
X146228571Y-142209523D01*
X146190476Y-142285714D01*
X146152380Y-142323809D01*
X146076190Y-142361904D01*
X145847619Y-142361904D01*
X145771428Y-142323809D01*
X145733333Y-142285714D01*
X117933333Y-138561904D02*
X117933333Y-139133333D01*
X117895238Y-139247619D01*
X117819047Y-139323809D01*
X117704761Y-139361904D01*
X117628571Y-139361904D01*
X118657142Y-138561904D02*
X118504761Y-138561904D01*
X118428571Y-138600000D01*
X118390476Y-138638095D01*
X118314285Y-138752380D01*
X118276190Y-138904761D01*
X118276190Y-139209523D01*
X118314285Y-139285714D01*
X118352380Y-139323809D01*
X118428571Y-139361904D01*
X118580952Y-139361904D01*
X118657142Y-139323809D01*
X118695238Y-139285714D01*
X118733333Y-139209523D01*
X118733333Y-139019047D01*
X118695238Y-138942857D01*
X118657142Y-138904761D01*
X118580952Y-138866666D01*
X118428571Y-138866666D01*
X118352380Y-138904761D01*
X118314285Y-138942857D01*
X118276190Y-139019047D01*
X103609523Y-76961904D02*
X103609523Y-77609523D01*
X103647619Y-77685714D01*
X103685714Y-77723809D01*
X103761904Y-77761904D01*
X103914285Y-77761904D01*
X103990476Y-77723809D01*
X104028571Y-77685714D01*
X104066666Y-77609523D01*
X104066666Y-76961904D01*
X104866666Y-77761904D02*
X104409523Y-77761904D01*
X104638095Y-77761904D02*
X104638095Y-76961904D01*
X104561904Y-77076190D01*
X104485714Y-77152380D01*
X104409523Y-77190476D01*
X105628571Y-77761904D02*
X105171428Y-77761904D01*
X105400000Y-77761904D02*
X105400000Y-76961904D01*
X105323809Y-77076190D01*
X105247619Y-77152380D01*
X105171428Y-77190476D01*
X142633333Y-104361904D02*
X142633333Y-104933333D01*
X142595238Y-105047619D01*
X142519047Y-105123809D01*
X142404761Y-105161904D01*
X142328571Y-105161904D01*
X143395238Y-104361904D02*
X143014285Y-104361904D01*
X142976190Y-104742857D01*
X143014285Y-104704761D01*
X143090476Y-104666666D01*
X143280952Y-104666666D01*
X143357142Y-104704761D01*
X143395238Y-104742857D01*
X143433333Y-104819047D01*
X143433333Y-105009523D01*
X143395238Y-105085714D01*
X143357142Y-105123809D01*
X143280952Y-105161904D01*
X143090476Y-105161904D01*
X143014285Y-105123809D01*
X142976190Y-105085714D01*
X144652380Y-115252380D02*
X144652380Y-115061904D01*
X144700000Y-114966666D01*
X144795238Y-114871428D01*
X144985714Y-114823809D01*
X145319047Y-114823809D01*
X145509523Y-114871428D01*
X145604761Y-114966666D01*
X145652380Y-115061904D01*
X145652380Y-115252380D01*
X145604761Y-115347619D01*
X145509523Y-115442857D01*
X145319047Y-115490476D01*
X144985714Y-115490476D01*
X144795238Y-115442857D01*
X144700000Y-115347619D01*
X144652380Y-115252380D01*
X145652380Y-113919047D02*
X145652380Y-114395238D01*
X144652380Y-114395238D01*
X145128571Y-113585714D02*
X145128571Y-113252380D01*
X145652380Y-113109523D02*
X145652380Y-113585714D01*
X144652380Y-113585714D01*
X144652380Y-113109523D01*
X145652380Y-112680952D02*
X144652380Y-112680952D01*
X144652380Y-112442857D01*
X144700000Y-112300000D01*
X144795238Y-112204761D01*
X144890476Y-112157142D01*
X145080952Y-112109523D01*
X145223809Y-112109523D01*
X145414285Y-112157142D01*
X145509523Y-112204761D01*
X145604761Y-112300000D01*
X145652380Y-112442857D01*
X145652380Y-112680952D01*
D15*
X141391857Y-106916190D02*
X141106142Y-106916190D01*
X141249000Y-106916190D02*
X141249000Y-106416190D01*
X141201380Y-106487619D01*
X141153761Y-106535238D01*
X141106142Y-106559047D01*
D13*
X139933333Y-114861904D02*
X139933333Y-115433333D01*
X139895238Y-115547619D01*
X139819047Y-115623809D01*
X139704761Y-115661904D01*
X139628571Y-115661904D01*
X140238095Y-114861904D02*
X140733333Y-114861904D01*
X140466666Y-115166666D01*
X140580952Y-115166666D01*
X140657142Y-115204761D01*
X140695238Y-115242857D01*
X140733333Y-115319047D01*
X140733333Y-115509523D01*
X140695238Y-115585714D01*
X140657142Y-115623809D01*
X140580952Y-115661904D01*
X140352380Y-115661904D01*
X140276190Y-115623809D01*
X140238095Y-115585714D01*
X140666666Y-124461904D02*
X140666666Y-125033333D01*
X140628571Y-125147619D01*
X140552380Y-125223809D01*
X140438095Y-125261904D01*
X140361904Y-125261904D01*
X140933333Y-124461904D02*
X141390476Y-124461904D01*
X141161904Y-125261904D02*
X141161904Y-124461904D01*
X141619047Y-125033333D02*
X142000000Y-125033333D01*
X141542857Y-125261904D02*
X141809523Y-124461904D01*
X142076190Y-125261904D01*
X142761904Y-124500000D02*
X142685714Y-124461904D01*
X142571428Y-124461904D01*
X142457142Y-124500000D01*
X142380952Y-124576190D01*
X142342857Y-124652380D01*
X142304761Y-124804761D01*
X142304761Y-124919047D01*
X142342857Y-125071428D01*
X142380952Y-125147619D01*
X142457142Y-125223809D01*
X142571428Y-125261904D01*
X142647619Y-125261904D01*
X142761904Y-125223809D01*
X142800000Y-125185714D01*
X142800000Y-124919047D01*
X142647619Y-124919047D01*
D15*
X138821857Y-117686190D02*
X138536142Y-117686190D01*
X138679000Y-117686190D02*
X138679000Y-117186190D01*
X138631380Y-117257619D01*
X138583761Y-117305238D01*
X138536142Y-117329047D01*
D13*
X115285714Y-81314285D02*
X115323809Y-81352380D01*
X115361904Y-81466666D01*
X115361904Y-81542857D01*
X115323809Y-81657142D01*
X115247619Y-81733333D01*
X115171428Y-81771428D01*
X115019047Y-81809523D01*
X114904761Y-81809523D01*
X114752380Y-81771428D01*
X114676190Y-81733333D01*
X114600000Y-81657142D01*
X114561904Y-81542857D01*
X114561904Y-81466666D01*
X114600000Y-81352380D01*
X114638095Y-81314285D01*
X114638095Y-81009523D02*
X114600000Y-80971428D01*
X114561904Y-80895238D01*
X114561904Y-80704761D01*
X114600000Y-80628571D01*
X114638095Y-80590476D01*
X114714285Y-80552380D01*
X114790476Y-80552380D01*
X114904761Y-80590476D01*
X115361904Y-81047619D01*
X115361904Y-80552380D01*
X114561904Y-79866666D02*
X114561904Y-80019047D01*
X114600000Y-80095238D01*
X114638095Y-80133333D01*
X114752380Y-80209523D01*
X114904761Y-80247619D01*
X115209523Y-80247619D01*
X115285714Y-80209523D01*
X115323809Y-80171428D01*
X115361904Y-80095238D01*
X115361904Y-79942857D01*
X115323809Y-79866666D01*
X115285714Y-79828571D01*
X115209523Y-79790476D01*
X115019047Y-79790476D01*
X114942857Y-79828571D01*
X114904761Y-79866666D01*
X114866666Y-79942857D01*
X114866666Y-80095238D01*
X114904761Y-80171428D01*
X114942857Y-80209523D01*
X115019047Y-80247619D01*
X142466666Y-145361904D02*
X142085714Y-145361904D01*
X142085714Y-144561904D01*
X143076190Y-144828571D02*
X143076190Y-145361904D01*
X142885714Y-144523809D02*
X142695238Y-145095238D01*
X143190476Y-145095238D01*
X148085714Y-131114285D02*
X148123809Y-131152380D01*
X148161904Y-131266666D01*
X148161904Y-131342857D01*
X148123809Y-131457142D01*
X148047619Y-131533333D01*
X147971428Y-131571428D01*
X147819047Y-131609523D01*
X147704761Y-131609523D01*
X147552380Y-131571428D01*
X147476190Y-131533333D01*
X147400000Y-131457142D01*
X147361904Y-131342857D01*
X147361904Y-131266666D01*
X147400000Y-131152380D01*
X147438095Y-131114285D01*
X148161904Y-130352380D02*
X148161904Y-130809523D01*
X148161904Y-130580952D02*
X147361904Y-130580952D01*
X147476190Y-130657142D01*
X147552380Y-130733333D01*
X147590476Y-130809523D01*
X147438095Y-130047619D02*
X147400000Y-130009523D01*
X147361904Y-129933333D01*
X147361904Y-129742857D01*
X147400000Y-129666666D01*
X147438095Y-129628571D01*
X147514285Y-129590476D01*
X147590476Y-129590476D01*
X147704761Y-129628571D01*
X148161904Y-130085714D01*
X148161904Y-129590476D01*
X121885714Y-138485714D02*
X121847619Y-138523809D01*
X121733333Y-138561904D01*
X121657142Y-138561904D01*
X121542857Y-138523809D01*
X121466666Y-138447619D01*
X121428571Y-138371428D01*
X121390476Y-138219047D01*
X121390476Y-138104761D01*
X121428571Y-137952380D01*
X121466666Y-137876190D01*
X121542857Y-137800000D01*
X121657142Y-137761904D01*
X121733333Y-137761904D01*
X121847619Y-137800000D01*
X121885714Y-137838095D01*
X122647619Y-138561904D02*
X122190476Y-138561904D01*
X122419047Y-138561904D02*
X122419047Y-137761904D01*
X122342857Y-137876190D01*
X122266666Y-137952380D01*
X122190476Y-137990476D01*
X123409523Y-138561904D02*
X122952380Y-138561904D01*
X123180952Y-138561904D02*
X123180952Y-137761904D01*
X123104761Y-137876190D01*
X123028571Y-137952380D01*
X122952380Y-137990476D01*
X120666666Y-127285714D02*
X120628571Y-127323809D01*
X120514285Y-127361904D01*
X120438095Y-127361904D01*
X120323809Y-127323809D01*
X120247619Y-127247619D01*
X120209523Y-127171428D01*
X120171428Y-127019047D01*
X120171428Y-126904761D01*
X120209523Y-126752380D01*
X120247619Y-126676190D01*
X120323809Y-126600000D01*
X120438095Y-126561904D01*
X120514285Y-126561904D01*
X120628571Y-126600000D01*
X120666666Y-126638095D01*
X121123809Y-126904761D02*
X121047619Y-126866666D01*
X121009523Y-126828571D01*
X120971428Y-126752380D01*
X120971428Y-126714285D01*
X121009523Y-126638095D01*
X121047619Y-126600000D01*
X121123809Y-126561904D01*
X121276190Y-126561904D01*
X121352380Y-126600000D01*
X121390476Y-126638095D01*
X121428571Y-126714285D01*
X121428571Y-126752380D01*
X121390476Y-126828571D01*
X121352380Y-126866666D01*
X121276190Y-126904761D01*
X121123809Y-126904761D01*
X121047619Y-126942857D01*
X121009523Y-126980952D01*
X120971428Y-127057142D01*
X120971428Y-127209523D01*
X121009523Y-127285714D01*
X121047619Y-127323809D01*
X121123809Y-127361904D01*
X121276190Y-127361904D01*
X121352380Y-127323809D01*
X121390476Y-127285714D01*
X121428571Y-127209523D01*
X121428571Y-127057142D01*
X121390476Y-126980952D01*
X121352380Y-126942857D01*
X121276190Y-126904761D01*
X102238095Y-73209523D02*
X101590476Y-73209523D01*
X101514285Y-73247619D01*
X101476190Y-73285714D01*
X101438095Y-73361904D01*
X101438095Y-73514285D01*
X101476190Y-73590476D01*
X101514285Y-73628571D01*
X101590476Y-73666666D01*
X102238095Y-73666666D01*
X101438095Y-74466666D02*
X101438095Y-74009523D01*
X101438095Y-74238095D02*
X102238095Y-74238095D01*
X102123809Y-74161904D01*
X102047619Y-74085714D01*
X102009523Y-74009523D01*
X102238095Y-74961904D02*
X102238095Y-75038095D01*
X102200000Y-75114285D01*
X102161904Y-75152380D01*
X102085714Y-75190476D01*
X101933333Y-75228571D01*
X101742857Y-75228571D01*
X101590476Y-75190476D01*
X101514285Y-75152380D01*
X101476190Y-75114285D01*
X101438095Y-75038095D01*
X101438095Y-74961904D01*
X101476190Y-74885714D01*
X101514285Y-74847619D01*
X101590476Y-74809523D01*
X101742857Y-74771428D01*
X101933333Y-74771428D01*
X102085714Y-74809523D01*
X102161904Y-74847619D01*
X102200000Y-74885714D01*
X102238095Y-74961904D01*
X148838095Y-96723809D02*
X149219047Y-96457142D01*
X148838095Y-96266666D02*
X149638095Y-96266666D01*
X149638095Y-96571428D01*
X149600000Y-96647619D01*
X149561904Y-96685714D01*
X149485714Y-96723809D01*
X149371428Y-96723809D01*
X149295238Y-96685714D01*
X149257142Y-96647619D01*
X149219047Y-96571428D01*
X149219047Y-96266666D01*
X149638095Y-96952380D02*
X148838095Y-97219047D01*
X149638095Y-97485714D01*
X148838095Y-98171428D02*
X148838095Y-97714285D01*
X148838095Y-97942857D02*
X149638095Y-97942857D01*
X149523809Y-97866666D01*
X149447619Y-97790476D01*
X149409523Y-97714285D01*
X106390476Y-84561904D02*
X106390476Y-85209523D01*
X106428571Y-85285714D01*
X106466666Y-85323809D01*
X106542857Y-85361904D01*
X106695238Y-85361904D01*
X106771428Y-85323809D01*
X106809523Y-85285714D01*
X106847619Y-85209523D01*
X106847619Y-84561904D01*
X107266666Y-85361904D02*
X107419047Y-85361904D01*
X107495238Y-85323809D01*
X107533333Y-85285714D01*
X107609523Y-85171428D01*
X107647619Y-85019047D01*
X107647619Y-84714285D01*
X107609523Y-84638095D01*
X107571428Y-84600000D01*
X107495238Y-84561904D01*
X107342857Y-84561904D01*
X107266666Y-84600000D01*
X107228571Y-84638095D01*
X107190476Y-84714285D01*
X107190476Y-84904761D01*
X107228571Y-84980952D01*
X107266666Y-85019047D01*
X107342857Y-85057142D01*
X107495238Y-85057142D01*
X107571428Y-85019047D01*
X107609523Y-84980952D01*
X107647619Y-84904761D01*
D15*
X116683809Y-82791857D02*
X116683809Y-82506142D01*
X116683809Y-82649000D02*
X117183809Y-82649000D01*
X117112380Y-82601380D01*
X117064761Y-82553761D01*
X117040952Y-82506142D01*
D13*
X116761904Y-147866666D02*
X117333333Y-147866666D01*
X117447619Y-147904761D01*
X117523809Y-147980952D01*
X117561904Y-148095238D01*
X117561904Y-148171428D01*
X116838095Y-147523809D02*
X116800000Y-147485714D01*
X116761904Y-147409523D01*
X116761904Y-147219047D01*
X116800000Y-147142857D01*
X116838095Y-147104761D01*
X116914285Y-147066666D01*
X116990476Y-147066666D01*
X117104761Y-147104761D01*
X117561904Y-147561904D01*
X117561904Y-147066666D01*
X114866666Y-130161904D02*
X114600000Y-129780952D01*
X114409523Y-130161904D02*
X114409523Y-129361904D01*
X114714285Y-129361904D01*
X114790476Y-129400000D01*
X114828571Y-129438095D01*
X114866666Y-129514285D01*
X114866666Y-129628571D01*
X114828571Y-129704761D01*
X114790476Y-129742857D01*
X114714285Y-129780952D01*
X114409523Y-129780952D01*
X115552380Y-129361904D02*
X115400000Y-129361904D01*
X115323809Y-129400000D01*
X115285714Y-129438095D01*
X115209523Y-129552380D01*
X115171428Y-129704761D01*
X115171428Y-130009523D01*
X115209523Y-130085714D01*
X115247619Y-130123809D01*
X115323809Y-130161904D01*
X115476190Y-130161904D01*
X115552380Y-130123809D01*
X115590476Y-130085714D01*
X115628571Y-130009523D01*
X115628571Y-129819047D01*
X115590476Y-129742857D01*
X115552380Y-129704761D01*
X115476190Y-129666666D01*
X115323809Y-129666666D01*
X115247619Y-129704761D01*
X115209523Y-129742857D01*
X115171428Y-129819047D01*
X103066666Y-58161904D02*
X102685714Y-58161904D01*
X102685714Y-57361904D01*
X103714285Y-57361904D02*
X103333333Y-57361904D01*
X103295238Y-57742857D01*
X103333333Y-57704761D01*
X103409523Y-57666666D01*
X103600000Y-57666666D01*
X103676190Y-57704761D01*
X103714285Y-57742857D01*
X103752380Y-57819047D01*
X103752380Y-58009523D01*
X103714285Y-58085714D01*
X103676190Y-58123809D01*
X103600000Y-58161904D01*
X103409523Y-58161904D01*
X103333333Y-58123809D01*
X103295238Y-58085714D01*
X131790476Y-139961904D02*
X131790476Y-140609523D01*
X131828571Y-140685714D01*
X131866666Y-140723809D01*
X131942857Y-140761904D01*
X132095238Y-140761904D01*
X132171428Y-140723809D01*
X132209523Y-140685714D01*
X132247619Y-140609523D01*
X132247619Y-139961904D01*
X132552380Y-139961904D02*
X133047619Y-139961904D01*
X132780952Y-140266666D01*
X132895238Y-140266666D01*
X132971428Y-140304761D01*
X133009523Y-140342857D01*
X133047619Y-140419047D01*
X133047619Y-140609523D01*
X133009523Y-140685714D01*
X132971428Y-140723809D01*
X132895238Y-140761904D01*
X132666666Y-140761904D01*
X132590476Y-140723809D01*
X132552380Y-140685714D01*
X126790476Y-130661904D02*
X126790476Y-131309523D01*
X126828571Y-131385714D01*
X126866666Y-131423809D01*
X126942857Y-131461904D01*
X127095238Y-131461904D01*
X127171428Y-131423809D01*
X127209523Y-131385714D01*
X127247619Y-131309523D01*
X127247619Y-130661904D01*
X127590476Y-130738095D02*
X127628571Y-130700000D01*
X127704761Y-130661904D01*
X127895238Y-130661904D01*
X127971428Y-130700000D01*
X128009523Y-130738095D01*
X128047619Y-130814285D01*
X128047619Y-130890476D01*
X128009523Y-131004761D01*
X127552380Y-131461904D01*
X128047619Y-131461904D01*
X105790476Y-126261904D02*
X105790476Y-126909523D01*
X105828571Y-126985714D01*
X105866666Y-127023809D01*
X105942857Y-127061904D01*
X106095238Y-127061904D01*
X106171428Y-127023809D01*
X106209523Y-126985714D01*
X106247619Y-126909523D01*
X106247619Y-126261904D01*
X106552380Y-126261904D02*
X107085714Y-126261904D01*
X106742857Y-127061904D01*
X145649814Y-52761624D02*
X145380440Y-52492250D01*
X145946126Y-51926564D01*
X146350187Y-52330625D02*
X146700373Y-52680812D01*
X146296312Y-52707749D01*
X146377124Y-52788561D01*
X146404062Y-52869374D01*
X146404062Y-52923248D01*
X146377124Y-53004061D01*
X146242437Y-53138748D01*
X146161625Y-53165685D01*
X146107750Y-53165685D01*
X146026938Y-53138748D01*
X145865313Y-52977123D01*
X145838376Y-52896311D01*
X145838376Y-52842436D01*
X137961624Y-52950186D02*
X137692250Y-53219560D01*
X137126564Y-52653874D01*
X137611438Y-52276751D02*
X137611438Y-52222876D01*
X137638375Y-52142064D01*
X137773062Y-52007377D01*
X137853874Y-51980439D01*
X137907749Y-51980439D01*
X137988561Y-52007377D01*
X138042436Y-52061251D01*
X138096311Y-52169001D01*
X138096311Y-52815499D01*
X138446497Y-52465312D01*
X133066666Y-53161904D02*
X132685714Y-53161904D01*
X132685714Y-52361904D01*
X133752380Y-53161904D02*
X133295238Y-53161904D01*
X133523809Y-53161904D02*
X133523809Y-52361904D01*
X133447619Y-52476190D01*
X133371428Y-52552380D01*
X133295238Y-52590476D01*
X146907750Y-58096311D02*
X146907750Y-58150186D01*
X146853875Y-58257935D01*
X146800001Y-58311810D01*
X146692251Y-58365685D01*
X146584501Y-58365685D01*
X146503689Y-58338748D01*
X146369002Y-58257935D01*
X146288190Y-58177123D01*
X146207378Y-58042436D01*
X146180440Y-57961624D01*
X146180440Y-57853874D01*
X146234315Y-57746125D01*
X146288190Y-57692250D01*
X146395939Y-57638375D01*
X146449814Y-57638375D01*
X146880813Y-57099627D02*
X146773063Y-57207377D01*
X146746126Y-57288189D01*
X146746126Y-57342064D01*
X146773063Y-57476751D01*
X146853875Y-57611438D01*
X147069375Y-57826937D01*
X147150187Y-57853874D01*
X147204062Y-57853874D01*
X147284874Y-57826937D01*
X147392623Y-57719187D01*
X147419561Y-57638375D01*
X147419561Y-57584500D01*
X147392623Y-57503688D01*
X147257936Y-57369001D01*
X147177124Y-57342064D01*
X147123249Y-57342064D01*
X147042437Y-57369001D01*
X146934688Y-57476751D01*
X146907750Y-57557563D01*
X146907750Y-57611438D01*
X146934688Y-57692250D01*
X143314285Y-55066666D02*
X143276190Y-55028571D01*
X143238095Y-54914285D01*
X143238095Y-54838095D01*
X143276190Y-54723809D01*
X143352380Y-54647619D01*
X143428571Y-54609523D01*
X143580952Y-54571428D01*
X143695238Y-54571428D01*
X143847619Y-54609523D01*
X143923809Y-54647619D01*
X144000000Y-54723809D01*
X144038095Y-54838095D01*
X144038095Y-54914285D01*
X144000000Y-55028571D01*
X143961904Y-55066666D01*
X144038095Y-55790476D02*
X144038095Y-55409523D01*
X143657142Y-55371428D01*
X143695238Y-55409523D01*
X143733333Y-55485714D01*
X143733333Y-55676190D01*
X143695238Y-55752380D01*
X143657142Y-55790476D01*
X143580952Y-55828571D01*
X143390476Y-55828571D01*
X143314285Y-55790476D01*
X143276190Y-55752380D01*
X143238095Y-55676190D01*
X143238095Y-55485714D01*
X143276190Y-55409523D01*
X143314285Y-55371428D01*
X137514285Y-56266666D02*
X137476190Y-56228571D01*
X137438095Y-56114285D01*
X137438095Y-56038095D01*
X137476190Y-55923809D01*
X137552380Y-55847619D01*
X137628571Y-55809523D01*
X137780952Y-55771428D01*
X137895238Y-55771428D01*
X138047619Y-55809523D01*
X138123809Y-55847619D01*
X138200000Y-55923809D01*
X138238095Y-56038095D01*
X138238095Y-56114285D01*
X138200000Y-56228571D01*
X138161904Y-56266666D01*
X137971428Y-56952380D02*
X137438095Y-56952380D01*
X138276190Y-56761904D02*
X137704761Y-56571428D01*
X137704761Y-57066666D01*
X131914285Y-56666666D02*
X131876190Y-56628571D01*
X131838095Y-56514285D01*
X131838095Y-56438095D01*
X131876190Y-56323809D01*
X131952380Y-56247619D01*
X132028571Y-56209523D01*
X132180952Y-56171428D01*
X132295238Y-56171428D01*
X132447619Y-56209523D01*
X132523809Y-56247619D01*
X132600000Y-56323809D01*
X132638095Y-56438095D01*
X132638095Y-56514285D01*
X132600000Y-56628571D01*
X132561904Y-56666666D01*
X132638095Y-56933333D02*
X132638095Y-57428571D01*
X132333333Y-57161904D01*
X132333333Y-57276190D01*
X132295238Y-57352380D01*
X132257142Y-57390476D01*
X132180952Y-57428571D01*
X131990476Y-57428571D01*
X131914285Y-57390476D01*
X131876190Y-57352380D01*
X131838095Y-57276190D01*
X131838095Y-57047619D01*
X131876190Y-56971428D01*
X131914285Y-56933333D01*
X137390476Y-132361904D02*
X137390476Y-133009523D01*
X137428571Y-133085714D01*
X137466666Y-133123809D01*
X137542857Y-133161904D01*
X137695238Y-133161904D01*
X137771428Y-133123809D01*
X137809523Y-133085714D01*
X137847619Y-133009523D01*
X137847619Y-132361904D01*
X138571428Y-132628571D02*
X138571428Y-133161904D01*
X138380952Y-132323809D02*
X138190476Y-132895238D01*
X138685714Y-132895238D01*
X123190476Y-108761904D02*
X123190476Y-109409523D01*
X123228571Y-109485714D01*
X123266666Y-109523809D01*
X123342857Y-109561904D01*
X123495238Y-109561904D01*
X123571428Y-109523809D01*
X123609523Y-109485714D01*
X123647619Y-109409523D01*
X123647619Y-108761904D01*
X124371428Y-108761904D02*
X124219047Y-108761904D01*
X124142857Y-108800000D01*
X124104761Y-108838095D01*
X124028571Y-108952380D01*
X123990476Y-109104761D01*
X123990476Y-109409523D01*
X124028571Y-109485714D01*
X124066666Y-109523809D01*
X124142857Y-109561904D01*
X124295238Y-109561904D01*
X124371428Y-109523809D01*
X124409523Y-109485714D01*
X124447619Y-109409523D01*
X124447619Y-109219047D01*
X124409523Y-109142857D01*
X124371428Y-109104761D01*
X124295238Y-109066666D01*
X124142857Y-109066666D01*
X124066666Y-109104761D01*
X124028571Y-109142857D01*
X123990476Y-109219047D01*
X127790476Y-120961904D02*
X127790476Y-121609523D01*
X127828571Y-121685714D01*
X127866666Y-121723809D01*
X127942857Y-121761904D01*
X128095238Y-121761904D01*
X128171428Y-121723809D01*
X128209523Y-121685714D01*
X128247619Y-121609523D01*
X128247619Y-120961904D01*
X129009523Y-120961904D02*
X128628571Y-120961904D01*
X128590476Y-121342857D01*
X128628571Y-121304761D01*
X128704761Y-121266666D01*
X128895238Y-121266666D01*
X128971428Y-121304761D01*
X129009523Y-121342857D01*
X129047619Y-121419047D01*
X129047619Y-121609523D01*
X129009523Y-121685714D01*
X128971428Y-121723809D01*
X128895238Y-121761904D01*
X128704761Y-121761904D01*
X128628571Y-121723809D01*
X128590476Y-121685714D01*
X125361904Y-94609523D02*
X126009523Y-94609523D01*
X126085714Y-94571428D01*
X126123809Y-94533333D01*
X126161904Y-94457142D01*
X126161904Y-94304761D01*
X126123809Y-94228571D01*
X126085714Y-94190476D01*
X126009523Y-94152380D01*
X125361904Y-94152380D01*
X126161904Y-93352380D02*
X126161904Y-93809523D01*
X126161904Y-93580952D02*
X125361904Y-93580952D01*
X125476190Y-93657142D01*
X125552380Y-93733333D01*
X125590476Y-93809523D01*
X123261904Y-146523809D02*
X123300000Y-146447619D01*
X123376190Y-146371428D01*
X123490476Y-146257142D01*
X123528571Y-146180952D01*
X123528571Y-146104761D01*
X123338095Y-146142857D02*
X123376190Y-146066666D01*
X123452380Y-145990476D01*
X123604761Y-145952380D01*
X123871428Y-145952380D01*
X124023809Y-145990476D01*
X124100000Y-146066666D01*
X124138095Y-146142857D01*
X124138095Y-146295238D01*
X124100000Y-146371428D01*
X124023809Y-146447619D01*
X123871428Y-146485714D01*
X123604761Y-146485714D01*
X123452380Y-146447619D01*
X123376190Y-146371428D01*
X123338095Y-146295238D01*
X123338095Y-146142857D01*
X124138095Y-146752380D02*
X124138095Y-147247619D01*
X123833333Y-146980952D01*
X123833333Y-147095238D01*
X123795238Y-147171428D01*
X123757142Y-147209523D01*
X123680952Y-147247619D01*
X123490476Y-147247619D01*
X123414285Y-147209523D01*
X123376190Y-147171428D01*
X123338095Y-147095238D01*
X123338095Y-146866666D01*
X123376190Y-146790476D01*
X123414285Y-146752380D01*
X132152380Y-146504761D02*
X132200000Y-146409523D01*
X132295238Y-146314285D01*
X132438095Y-146171428D01*
X132485714Y-146076190D01*
X132485714Y-145980952D01*
X132247619Y-146028571D02*
X132295238Y-145933333D01*
X132390476Y-145838095D01*
X132580952Y-145790476D01*
X132914285Y-145790476D01*
X133104761Y-145838095D01*
X133200000Y-145933333D01*
X133247619Y-146028571D01*
X133247619Y-146219047D01*
X133200000Y-146314285D01*
X133104761Y-146409523D01*
X132914285Y-146457142D01*
X132580952Y-146457142D01*
X132390476Y-146409523D01*
X132295238Y-146314285D01*
X132247619Y-146219047D01*
X132247619Y-146028571D01*
X133152380Y-146838095D02*
X133200000Y-146885714D01*
X133247619Y-146980952D01*
X133247619Y-147219047D01*
X133200000Y-147314285D01*
X133152380Y-147361904D01*
X133057142Y-147409523D01*
X132961904Y-147409523D01*
X132819047Y-147361904D01*
X132247619Y-146790476D01*
X132247619Y-147409523D01*
X122038095Y-73676190D02*
X122000000Y-73752380D01*
X121923809Y-73828571D01*
X121809523Y-73942857D01*
X121771428Y-74019047D01*
X121771428Y-74095238D01*
X121961904Y-74057142D02*
X121923809Y-74133333D01*
X121847619Y-74209523D01*
X121695238Y-74247619D01*
X121428571Y-74247619D01*
X121276190Y-74209523D01*
X121200000Y-74133333D01*
X121161904Y-74057142D01*
X121161904Y-73904761D01*
X121200000Y-73828571D01*
X121276190Y-73752380D01*
X121428571Y-73714285D01*
X121695238Y-73714285D01*
X121847619Y-73752380D01*
X121923809Y-73828571D01*
X121961904Y-73904761D01*
X121961904Y-74057142D01*
X121961904Y-72952380D02*
X121961904Y-73409523D01*
X121961904Y-73180952D02*
X121161904Y-73180952D01*
X121276190Y-73257142D01*
X121352380Y-73333333D01*
X121390476Y-73409523D01*
D14*
X104433333Y-51561904D02*
X104433333Y-52133333D01*
X104395238Y-52247619D01*
X104319047Y-52323809D01*
X104204761Y-52361904D01*
X104128571Y-52361904D01*
X105157142Y-51828571D02*
X105157142Y-52361904D01*
X104966666Y-51523809D02*
X104776190Y-52095238D01*
X105271428Y-52095238D01*
M02*
