G04 #@! TF.GenerationSoftware,KiCad,Pcbnew,(5.1.5)-3*
G04 #@! TF.CreationDate,2020-05-20T20:16:18+02:00*
G04 #@! TF.ProjectId,SAR-APRS,5341522d-4150-4525-932e-6b696361645f,rev?*
G04 #@! TF.SameCoordinates,Original*
G04 #@! TF.FileFunction,Copper,L2,Bot*
G04 #@! TF.FilePolarity,Positive*
%FSLAX46Y46*%
G04 Gerber Fmt 4.6, Leading zero omitted, Abs format (unit mm)*
G04 Created by KiCad (PCBNEW (5.1.5)-3) date 2020-05-20 20:16:18*
%MOMM*%
%LPD*%
G04 APERTURE LIST*
%ADD10R,2.000000X1.000000*%
%ADD11R,1.000000X2.000000*%
%ADD12R,1.524000X1.524000*%
%ADD13C,2.300000*%
%ADD14C,2.500000*%
%ADD15C,0.800000*%
%ADD16C,0.300000*%
%ADD17C,1.000000*%
%ADD18C,0.500000*%
%ADD19C,0.250000*%
G04 APERTURE END LIST*
D10*
X115500000Y-113500000D03*
X115500000Y-115000000D03*
X115500000Y-116500000D03*
X115500000Y-118000000D03*
X115500000Y-119500000D03*
X115500000Y-121000000D03*
X115500000Y-122500000D03*
X115500000Y-124000000D03*
X115500000Y-125500000D03*
X115500000Y-127000000D03*
X115500000Y-128500000D03*
X115500000Y-130000000D03*
X115500000Y-131500000D03*
D11*
X114250000Y-133500000D03*
X112750000Y-133500000D03*
X111250000Y-133500000D03*
X109750000Y-133500000D03*
X108250000Y-133500000D03*
X106750000Y-133500000D03*
X105250000Y-133500000D03*
X103750000Y-133500000D03*
D10*
X102500000Y-131500000D03*
X102500000Y-130000000D03*
X102500000Y-128500000D03*
X102500000Y-127000000D03*
X102500000Y-125500000D03*
X102500000Y-124000000D03*
X102500000Y-122500000D03*
X102500000Y-121000000D03*
X102500000Y-119500000D03*
X102500000Y-118000000D03*
X102500000Y-116500000D03*
X102500000Y-115000000D03*
X102500000Y-113500000D03*
D12*
X109290000Y-84300000D03*
X111830000Y-84300000D03*
X114370000Y-84300000D03*
X116910000Y-84300000D03*
X140330000Y-117460000D03*
X142870000Y-117460000D03*
X140330000Y-120000000D03*
X142870000Y-120000000D03*
X140330000Y-122540000D03*
X142870000Y-122540000D03*
X142900000Y-114310000D03*
X142900000Y-111770000D03*
X142900000Y-109230000D03*
X142900000Y-106690000D03*
X118800000Y-143570000D03*
X118800000Y-141030000D03*
D13*
X125000000Y-54500000D03*
D14*
X122460000Y-57040000D03*
X127540000Y-57040000D03*
X127540000Y-51960000D03*
X122460000Y-51960000D03*
D15*
X131799978Y-112900000D03*
X126500000Y-113549990D03*
X126790792Y-112650010D03*
X122700000Y-110300000D03*
X125200000Y-108600000D03*
X137100000Y-117100000D03*
X137600000Y-121000000D03*
X134800000Y-121300000D03*
X120600000Y-117500000D03*
X118100000Y-120900000D03*
X119200000Y-122500000D03*
X121700000Y-119100000D03*
X118100000Y-124200000D03*
X123700000Y-128500000D03*
X123700000Y-129900000D03*
X128300000Y-126800000D03*
X133500000Y-124300000D03*
X130700000Y-126800000D03*
X136800000Y-128400000D03*
X137600000Y-128400000D03*
X128700000Y-138900000D03*
X129800000Y-140000000D03*
X128700000Y-140000000D03*
X128300000Y-144700000D03*
X118200000Y-135300000D03*
X118100000Y-132500000D03*
X112100000Y-140100000D03*
X101900000Y-132800000D03*
X125000000Y-76400000D03*
X119600000Y-78300000D03*
X119600000Y-77400000D03*
X120400000Y-80800000D03*
X120400000Y-80000000D03*
X117600000Y-73900000D03*
X103200000Y-82700000D03*
X103200000Y-83500000D03*
X103600000Y-73900000D03*
X105800000Y-64900000D03*
X103600000Y-64900000D03*
X111000000Y-64900000D03*
X109700000Y-58900000D03*
X109700000Y-59800000D03*
X134500000Y-59200000D03*
X135800000Y-59200000D03*
X139000000Y-59200000D03*
X140400000Y-59200000D03*
X134100000Y-93100000D03*
X132500000Y-93100000D03*
X130800000Y-93100000D03*
X139500000Y-93100000D03*
X143900000Y-93100000D03*
X141700000Y-93100000D03*
X138200000Y-99000000D03*
X139800000Y-99000000D03*
X124200000Y-99000000D03*
X125800000Y-99000000D03*
X110200000Y-99000000D03*
X111800000Y-99000000D03*
X145000000Y-104400000D03*
X145800000Y-104400000D03*
X129800000Y-57750000D03*
X130600000Y-57750000D03*
X135700000Y-57800000D03*
X136500000Y-57800000D03*
X141500000Y-56200000D03*
X142300000Y-56200000D03*
X144200000Y-57600000D03*
X144700000Y-58200000D03*
X135000000Y-75000000D03*
X140000000Y-75000000D03*
X117650000Y-109250000D03*
X119300000Y-104700000D03*
X130250000Y-105600000D03*
X140700000Y-109000000D03*
X140800000Y-113900000D03*
X140750000Y-111800000D03*
X124300000Y-119700000D03*
X125200000Y-123950000D03*
X127600000Y-123950000D03*
X129800000Y-119400000D03*
X129750000Y-121500000D03*
X104500000Y-120100000D03*
X104500000Y-120900000D03*
X119800000Y-86400000D03*
X119800000Y-87200000D03*
X101000000Y-51000000D03*
X149000000Y-51000000D03*
X101000000Y-149000000D03*
X149000000Y-149000000D03*
X101000000Y-100000000D03*
X101000000Y-110000000D03*
X101000000Y-90000000D03*
X101000000Y-80000000D03*
X101000000Y-70000000D03*
X101000000Y-60000000D03*
X101000000Y-140000000D03*
X110000000Y-90000000D03*
X120000000Y-90000000D03*
X110000000Y-70000000D03*
X130000000Y-51000000D03*
X140000000Y-51000000D03*
X120000000Y-51000000D03*
X110000000Y-51000000D03*
X149000000Y-80000000D03*
X149000000Y-70000000D03*
X149000000Y-90000000D03*
X149000000Y-120000000D03*
X140000000Y-80000000D03*
X140000000Y-90000000D03*
X111000000Y-101000000D03*
X125000000Y-101000000D03*
X139000000Y-101000000D03*
X140000000Y-149000000D03*
X130000000Y-149000000D03*
X120000000Y-149000000D03*
X110000000Y-149000000D03*
X135000000Y-80000000D03*
X140000000Y-85000000D03*
X135000000Y-85000000D03*
X131000000Y-80000000D03*
X131000000Y-75000000D03*
X144000000Y-75000000D03*
X131000000Y-70000000D03*
X144000000Y-70000000D03*
X131000000Y-85000000D03*
X144000000Y-85000000D03*
X144000000Y-80000000D03*
X131000000Y-90000000D03*
X135000000Y-90000000D03*
X144000000Y-90000000D03*
X131000000Y-65000000D03*
X144000000Y-65000000D03*
X147400000Y-129200000D03*
X147400000Y-130000000D03*
X147400000Y-130800000D03*
X147400000Y-132400000D03*
X147400000Y-133200000D03*
X147400000Y-134000000D03*
X144400000Y-136400000D03*
X144400000Y-135600000D03*
X145200000Y-135600000D03*
X145200000Y-136400000D03*
X144400000Y-137200000D03*
X145200000Y-137200000D03*
X143600000Y-137200000D03*
X146000000Y-137200000D03*
X146000000Y-136400000D03*
X146000000Y-135600000D03*
X143600000Y-138000000D03*
X144400000Y-138000000D03*
X145200000Y-138000000D03*
X146000000Y-138000000D03*
X129100000Y-144700000D03*
X129800000Y-139000000D03*
X130800000Y-141000000D03*
X130800000Y-140000000D03*
X136200000Y-137800000D03*
X136200000Y-136800000D03*
X120400000Y-81600000D03*
X119600000Y-66500000D03*
X119600000Y-65700000D03*
X119600000Y-67300000D03*
X121000000Y-64200000D03*
X121000000Y-62800000D03*
X103200004Y-80300000D03*
X126200000Y-84100000D03*
X126200000Y-84900000D03*
X123600000Y-119700000D03*
X140000000Y-131300000D03*
X139200000Y-131300000D03*
X109700000Y-123700000D03*
X109700000Y-124400000D03*
X129900000Y-144700000D03*
X129406373Y-110476932D03*
X145600010Y-111300000D03*
X131900000Y-111300000D03*
X123600000Y-85500000D03*
X116100000Y-133000000D03*
X116100000Y-133800000D03*
X108700000Y-139000000D03*
X108700000Y-139800000D03*
X116100000Y-134600000D03*
X108700000Y-138200000D03*
X112600000Y-125800000D03*
X112600000Y-125000000D03*
X108400000Y-113500000D03*
X109200000Y-113500000D03*
X132114175Y-115329064D03*
X110000000Y-113500000D03*
X112600000Y-126600000D03*
X110700000Y-128900000D03*
X109700000Y-119399984D03*
X128700000Y-107200000D03*
X139196210Y-108794113D03*
X131900000Y-119500000D03*
X133100000Y-121399998D03*
X131599992Y-123400000D03*
X131100000Y-120500000D03*
X121849990Y-75462898D03*
X130199992Y-114900000D03*
X104200000Y-113500000D03*
X129500000Y-115900000D03*
X104500000Y-115900000D03*
X129093857Y-114986177D03*
X117200000Y-111600000D03*
X104500000Y-118300000D03*
X130600000Y-115900000D03*
X115400000Y-64700000D03*
X127401237Y-110449436D03*
X131586177Y-99293856D03*
X128401248Y-110449541D03*
X132700000Y-99499996D03*
X121162106Y-110262140D03*
X121345337Y-108848355D03*
X127949990Y-116130692D03*
X126950069Y-116144194D03*
D16*
X144776942Y-110476932D02*
X145200011Y-110900001D01*
X145200011Y-110900001D02*
X145600010Y-111300000D01*
X129406373Y-110476932D02*
X144776942Y-110476932D01*
X126807122Y-111300000D02*
X123200001Y-107692879D01*
X131900000Y-111300000D02*
X126807122Y-111300000D01*
X123200001Y-85899999D02*
X123600000Y-85500000D01*
X123200001Y-107692879D02*
X123200001Y-85899999D01*
D17*
X108700000Y-139800000D02*
X108700000Y-137900000D01*
X108700000Y-137900000D02*
X110400000Y-136200000D01*
X110400000Y-136200000D02*
X115400000Y-136200000D01*
X116100000Y-135500000D02*
X116100000Y-133000000D01*
X115400000Y-136200000D02*
X116100000Y-135500000D01*
D16*
X142870000Y-117470000D02*
X142870000Y-117500000D01*
D17*
X112600000Y-127065685D02*
X112600000Y-126500000D01*
X112600000Y-129100000D02*
X112600000Y-127065685D01*
X113500000Y-130000000D02*
X112600000Y-129100000D01*
X115500000Y-130000000D02*
X113500000Y-130000000D01*
D18*
X132679860Y-115329064D02*
X132114175Y-115329064D01*
X142870000Y-117460000D02*
X140739064Y-115329064D01*
X140739064Y-115329064D02*
X132679860Y-115329064D01*
D17*
X108400000Y-113500000D02*
X110900000Y-113500000D01*
X112600000Y-115200000D02*
X112600000Y-126600000D01*
X110900000Y-113500000D02*
X112600000Y-115200000D01*
D16*
X110700000Y-120399984D02*
X109700000Y-119399984D01*
X110700000Y-128900000D02*
X110700000Y-120399984D01*
X128700000Y-107200000D02*
X130294113Y-108794113D01*
X138630525Y-108794113D02*
X139196210Y-108794113D01*
X130294113Y-108794113D02*
X138630525Y-108794113D01*
X132900000Y-119500000D02*
X131900000Y-119500000D01*
X138528000Y-118200000D02*
X134200000Y-118200000D01*
X139268000Y-117460000D02*
X138528000Y-118200000D01*
X140330000Y-117460000D02*
X139268000Y-117460000D01*
X134200000Y-118200000D02*
X132900000Y-119500000D01*
X131599992Y-122900006D02*
X131599992Y-123400000D01*
X133100000Y-121399998D02*
X131599992Y-122900006D01*
X133499999Y-120999999D02*
X133100000Y-121399998D01*
X134499998Y-120000000D02*
X133499999Y-120999999D01*
X140330000Y-120000000D02*
X134499998Y-120000000D01*
X131100000Y-120500000D02*
X132900000Y-120500000D01*
X142870000Y-120000000D02*
X142870000Y-119870000D01*
X134512001Y-118887999D02*
X132900000Y-120500000D01*
X141887999Y-118887999D02*
X134512001Y-118887999D01*
X142870000Y-119870000D02*
X141887999Y-118887999D01*
X129799993Y-114500001D02*
X130199992Y-114900000D01*
X129536167Y-114236175D02*
X129799993Y-114500001D01*
X128733855Y-114236175D02*
X129536167Y-114236175D01*
X121849990Y-107857112D02*
X125500000Y-111507122D01*
X121849990Y-75462898D02*
X121849990Y-107857112D01*
X125500000Y-111507122D02*
X125500000Y-113800000D01*
X125500000Y-113800000D02*
X126000000Y-114300000D01*
X126000000Y-114300000D02*
X128670030Y-114300000D01*
X128670030Y-114300000D02*
X128733855Y-114236175D01*
X102500000Y-113500000D02*
X104200000Y-113500000D01*
X105100000Y-112600000D02*
X118900000Y-112600000D01*
X121680690Y-115380690D02*
X128313201Y-115380690D01*
X128934315Y-115900000D02*
X129500000Y-115900000D01*
X118900000Y-112600000D02*
X121680690Y-115380690D01*
X128832511Y-115900000D02*
X128934315Y-115900000D01*
X104200000Y-113500000D02*
X105100000Y-112600000D01*
X128313201Y-115380690D02*
X128832511Y-115900000D01*
X102500000Y-116500000D02*
X103900000Y-116500000D01*
X103900000Y-116500000D02*
X104500000Y-115900000D01*
X118900000Y-111600000D02*
X117765685Y-111600000D01*
X117765685Y-111600000D02*
X117200000Y-111600000D01*
X129093857Y-114986177D02*
X128957691Y-114850011D01*
X122150011Y-114850011D02*
X118900000Y-111600000D01*
X128957691Y-114850011D02*
X122150011Y-114850011D01*
X102500000Y-118000000D02*
X104200000Y-118000000D01*
X104200000Y-118000000D02*
X104500000Y-118300000D01*
X122600000Y-71900000D02*
X115799999Y-65099999D01*
X115799999Y-65099999D02*
X115400000Y-64700000D01*
X131050001Y-115449999D02*
X131050001Y-113050001D01*
X130600000Y-115900000D02*
X131050001Y-115449999D01*
X131050001Y-113050001D02*
X129900000Y-111900000D01*
X129900000Y-111900000D02*
X126600000Y-111900000D01*
X126600000Y-111900000D02*
X122600000Y-107900000D01*
X122600000Y-107900000D02*
X122600000Y-71900000D01*
X127001238Y-103878795D02*
X131186178Y-99693855D01*
X127401237Y-110449436D02*
X127001238Y-110049437D01*
X127001238Y-110049437D02*
X127001238Y-103878795D01*
X131186178Y-99693855D02*
X131586177Y-99293856D01*
X127900000Y-104299996D02*
X132300001Y-99899995D01*
X127900000Y-109244264D02*
X127900000Y-104299996D01*
X132300001Y-99899995D02*
X132700000Y-99499996D01*
X128401248Y-109745512D02*
X127900000Y-109244264D01*
X128401248Y-110449541D02*
X128401248Y-109745512D01*
D19*
X120762107Y-109862141D02*
X121162106Y-110262140D01*
X113700000Y-102800034D02*
X120762107Y-109862141D01*
X111830000Y-84300000D02*
X113700000Y-86170000D01*
X113700000Y-86170000D02*
X113700000Y-102800034D01*
X114370000Y-84300000D02*
X114370000Y-101873018D01*
X120945338Y-108448356D02*
X121345337Y-108848355D01*
X114370000Y-101873018D02*
X120945338Y-108448356D01*
D16*
X119200000Y-115000000D02*
X115500000Y-115000000D01*
X121100025Y-116900025D02*
X119200000Y-115000000D01*
X127746342Y-116900025D02*
X121100025Y-116900025D01*
X127949990Y-116130692D02*
X127949990Y-116696377D01*
X127949990Y-116696377D02*
X127746342Y-116900025D01*
X126950069Y-116144194D02*
X121437072Y-116144194D01*
X121437072Y-116144194D02*
X118792878Y-113500000D01*
X116800000Y-113500000D02*
X115500000Y-113500000D01*
X118792878Y-113500000D02*
X116800000Y-113500000D01*
G36*
X149824001Y-149824000D02*
G01*
X100176000Y-149824000D01*
X100176000Y-51000000D01*
X100850000Y-51000000D01*
X100850000Y-149000000D01*
X100852882Y-149029264D01*
X100861418Y-149057403D01*
X100875280Y-149083336D01*
X100893934Y-149106066D01*
X100916664Y-149124720D01*
X100942597Y-149138582D01*
X100970736Y-149147118D01*
X101000000Y-149150000D01*
X149500000Y-149150000D01*
X149529264Y-149147118D01*
X149557403Y-149138582D01*
X149583336Y-149124720D01*
X149606066Y-149106066D01*
X149624720Y-149083336D01*
X149638582Y-149057403D01*
X149647118Y-149029264D01*
X149650000Y-149000000D01*
X149650000Y-51000000D01*
X149647118Y-50970736D01*
X149638582Y-50942597D01*
X149624720Y-50916664D01*
X149606066Y-50893934D01*
X149583336Y-50875280D01*
X149557403Y-50861418D01*
X149529264Y-50852882D01*
X149500000Y-50850000D01*
X101000000Y-50850000D01*
X100970736Y-50852882D01*
X100942597Y-50861418D01*
X100916664Y-50875280D01*
X100893934Y-50893934D01*
X100875280Y-50916664D01*
X100861418Y-50942597D01*
X100852882Y-50970736D01*
X100850000Y-51000000D01*
X100176000Y-51000000D01*
X100176000Y-50176000D01*
X149824000Y-50176000D01*
X149824001Y-149824000D01*
G37*
X149824001Y-149824000D02*
X100176000Y-149824000D01*
X100176000Y-51000000D01*
X100850000Y-51000000D01*
X100850000Y-149000000D01*
X100852882Y-149029264D01*
X100861418Y-149057403D01*
X100875280Y-149083336D01*
X100893934Y-149106066D01*
X100916664Y-149124720D01*
X100942597Y-149138582D01*
X100970736Y-149147118D01*
X101000000Y-149150000D01*
X149500000Y-149150000D01*
X149529264Y-149147118D01*
X149557403Y-149138582D01*
X149583336Y-149124720D01*
X149606066Y-149106066D01*
X149624720Y-149083336D01*
X149638582Y-149057403D01*
X149647118Y-149029264D01*
X149650000Y-149000000D01*
X149650000Y-51000000D01*
X149647118Y-50970736D01*
X149638582Y-50942597D01*
X149624720Y-50916664D01*
X149606066Y-50893934D01*
X149583336Y-50875280D01*
X149557403Y-50861418D01*
X149529264Y-50852882D01*
X149500000Y-50850000D01*
X101000000Y-50850000D01*
X100970736Y-50852882D01*
X100942597Y-50861418D01*
X100916664Y-50875280D01*
X100893934Y-50893934D01*
X100875280Y-50916664D01*
X100861418Y-50942597D01*
X100852882Y-50970736D01*
X100850000Y-51000000D01*
X100176000Y-51000000D01*
X100176000Y-50176000D01*
X149824000Y-50176000D01*
X149824001Y-149824000D01*
G36*
X149525001Y-149525000D02*
G01*
X100475000Y-149525000D01*
X100475000Y-144211358D01*
X107400000Y-144211358D01*
X107400000Y-144388642D01*
X107434586Y-144562520D01*
X107502430Y-144726310D01*
X107600924Y-144873717D01*
X107726283Y-144999076D01*
X107873690Y-145097570D01*
X108037480Y-145165414D01*
X108211358Y-145200000D01*
X108388642Y-145200000D01*
X108562520Y-145165414D01*
X108726310Y-145097570D01*
X108873717Y-144999076D01*
X108999076Y-144873717D01*
X109097570Y-144726310D01*
X109165414Y-144562520D01*
X109200000Y-144388642D01*
X109200000Y-144211358D01*
X111800000Y-144211358D01*
X111800000Y-144388642D01*
X111834586Y-144562520D01*
X111902430Y-144726310D01*
X112000924Y-144873717D01*
X112126283Y-144999076D01*
X112273690Y-145097570D01*
X112437480Y-145165414D01*
X112611358Y-145200000D01*
X112788642Y-145200000D01*
X112962520Y-145165414D01*
X113126310Y-145097570D01*
X113273717Y-144999076D01*
X113399076Y-144873717D01*
X113497570Y-144726310D01*
X113565414Y-144562520D01*
X113600000Y-144388642D01*
X113600000Y-144211358D01*
X113565414Y-144037480D01*
X113497570Y-143873690D01*
X113399076Y-143726283D01*
X113273717Y-143600924D01*
X113126310Y-143502430D01*
X112962520Y-143434586D01*
X112788642Y-143400000D01*
X112611358Y-143400000D01*
X112437480Y-143434586D01*
X112273690Y-143502430D01*
X112126283Y-143600924D01*
X112000924Y-143726283D01*
X111902430Y-143873690D01*
X111834586Y-144037480D01*
X111800000Y-144211358D01*
X109200000Y-144211358D01*
X109165414Y-144037480D01*
X109097570Y-143873690D01*
X108999076Y-143726283D01*
X108873717Y-143600924D01*
X108726310Y-143502430D01*
X108562520Y-143434586D01*
X108388642Y-143400000D01*
X108211358Y-143400000D01*
X108037480Y-143434586D01*
X107873690Y-143502430D01*
X107726283Y-143600924D01*
X107600924Y-143726283D01*
X107502430Y-143873690D01*
X107434586Y-144037480D01*
X107400000Y-144211358D01*
X100475000Y-144211358D01*
X100475000Y-142808000D01*
X117585823Y-142808000D01*
X117585823Y-144332000D01*
X117594511Y-144420215D01*
X117620243Y-144505041D01*
X117662029Y-144583216D01*
X117718263Y-144651737D01*
X117786784Y-144707971D01*
X117864959Y-144749757D01*
X117949785Y-144775489D01*
X118038000Y-144784177D01*
X119562000Y-144784177D01*
X119650215Y-144775489D01*
X119735041Y-144749757D01*
X119813216Y-144707971D01*
X119881737Y-144651737D01*
X119937971Y-144583216D01*
X119979757Y-144505041D01*
X120005489Y-144420215D01*
X120014177Y-144332000D01*
X120014177Y-142808000D01*
X120005489Y-142719785D01*
X119979757Y-142634959D01*
X119937971Y-142556784D01*
X119881737Y-142488263D01*
X119813216Y-142432029D01*
X119735041Y-142390243D01*
X119650215Y-142364511D01*
X119562000Y-142355823D01*
X118038000Y-142355823D01*
X117949785Y-142364511D01*
X117864959Y-142390243D01*
X117786784Y-142432029D01*
X117718263Y-142488263D01*
X117662029Y-142556784D01*
X117620243Y-142634959D01*
X117594511Y-142719785D01*
X117585823Y-142808000D01*
X100475000Y-142808000D01*
X100475000Y-132500000D01*
X102797823Y-132500000D01*
X102797823Y-134500000D01*
X102806511Y-134588215D01*
X102832243Y-134673041D01*
X102874029Y-134751216D01*
X102930263Y-134819737D01*
X102998784Y-134875971D01*
X103076959Y-134917757D01*
X103161785Y-134943489D01*
X103250000Y-134952177D01*
X104250000Y-134952177D01*
X104338215Y-134943489D01*
X104423041Y-134917757D01*
X104500000Y-134876621D01*
X104576959Y-134917757D01*
X104661785Y-134943489D01*
X104750000Y-134952177D01*
X105750000Y-134952177D01*
X105838215Y-134943489D01*
X105923041Y-134917757D01*
X106000000Y-134876621D01*
X106076959Y-134917757D01*
X106161785Y-134943489D01*
X106250000Y-134952177D01*
X107250000Y-134952177D01*
X107338215Y-134943489D01*
X107423041Y-134917757D01*
X107500000Y-134876621D01*
X107576959Y-134917757D01*
X107661785Y-134943489D01*
X107750000Y-134952177D01*
X108750000Y-134952177D01*
X108838215Y-134943489D01*
X108923041Y-134917757D01*
X109000000Y-134876621D01*
X109076959Y-134917757D01*
X109161785Y-134943489D01*
X109250000Y-134952177D01*
X110250000Y-134952177D01*
X110338215Y-134943489D01*
X110423041Y-134917757D01*
X110500000Y-134876621D01*
X110576959Y-134917757D01*
X110661785Y-134943489D01*
X110750000Y-134952177D01*
X111750000Y-134952177D01*
X111838215Y-134943489D01*
X111923041Y-134917757D01*
X112000000Y-134876621D01*
X112076959Y-134917757D01*
X112161785Y-134943489D01*
X112250000Y-134952177D01*
X113250000Y-134952177D01*
X113338215Y-134943489D01*
X113423041Y-134917757D01*
X113500000Y-134876621D01*
X113576959Y-134917757D01*
X113661785Y-134943489D01*
X113750000Y-134952177D01*
X114750000Y-134952177D01*
X114838215Y-134943489D01*
X114923041Y-134917757D01*
X115001216Y-134875971D01*
X115069737Y-134819737D01*
X115125971Y-134751216D01*
X115150000Y-134706261D01*
X115150000Y-135106497D01*
X115006498Y-135250000D01*
X110446654Y-135250000D01*
X110399999Y-135245405D01*
X110353345Y-135250000D01*
X110353335Y-135250000D01*
X110213768Y-135263746D01*
X110034692Y-135318068D01*
X109869655Y-135406282D01*
X109869653Y-135406283D01*
X109869654Y-135406283D01*
X109761245Y-135495252D01*
X109761242Y-135495255D01*
X109724999Y-135524999D01*
X109695254Y-135561243D01*
X108061243Y-137195255D01*
X108025000Y-137224999D01*
X107995256Y-137261242D01*
X107995252Y-137261246D01*
X107906283Y-137369655D01*
X107818069Y-137534692D01*
X107763747Y-137713768D01*
X107745405Y-137900000D01*
X107750001Y-137946664D01*
X107750000Y-139846664D01*
X107763746Y-139986231D01*
X107818068Y-140165307D01*
X107906282Y-140330345D01*
X108024999Y-140475001D01*
X108169655Y-140593718D01*
X108334692Y-140681932D01*
X108513768Y-140736254D01*
X108700000Y-140754596D01*
X108886231Y-140736254D01*
X109065307Y-140681932D01*
X109230345Y-140593718D01*
X109375001Y-140475001D01*
X109493718Y-140330345D01*
X109527042Y-140268000D01*
X117585823Y-140268000D01*
X117585823Y-141792000D01*
X117594511Y-141880215D01*
X117620243Y-141965041D01*
X117662029Y-142043216D01*
X117718263Y-142111737D01*
X117786784Y-142167971D01*
X117864959Y-142209757D01*
X117949785Y-142235489D01*
X118038000Y-142244177D01*
X119562000Y-142244177D01*
X119650215Y-142235489D01*
X119735041Y-142209757D01*
X119813216Y-142167971D01*
X119881737Y-142111737D01*
X119937971Y-142043216D01*
X119979757Y-141965041D01*
X120005489Y-141880215D01*
X120014177Y-141792000D01*
X120014177Y-140268000D01*
X120005489Y-140179785D01*
X119979757Y-140094959D01*
X119937971Y-140016784D01*
X119881737Y-139948263D01*
X119813216Y-139892029D01*
X119735041Y-139850243D01*
X119650215Y-139824511D01*
X119562000Y-139815823D01*
X118038000Y-139815823D01*
X117949785Y-139824511D01*
X117864959Y-139850243D01*
X117786784Y-139892029D01*
X117718263Y-139948263D01*
X117662029Y-140016784D01*
X117620243Y-140094959D01*
X117594511Y-140179785D01*
X117585823Y-140268000D01*
X109527042Y-140268000D01*
X109581932Y-140165308D01*
X109636254Y-139986232D01*
X109650000Y-139846665D01*
X109650000Y-138293502D01*
X110793503Y-137150000D01*
X115353346Y-137150000D01*
X115400000Y-137154595D01*
X115446654Y-137150000D01*
X115446665Y-137150000D01*
X115586232Y-137136254D01*
X115765308Y-137081932D01*
X115930345Y-136993718D01*
X116075001Y-136875001D01*
X116104750Y-136838752D01*
X116738757Y-136204746D01*
X116775001Y-136175001D01*
X116893718Y-136030345D01*
X116981932Y-135865308D01*
X117036254Y-135686232D01*
X117050000Y-135546665D01*
X117050000Y-135546656D01*
X117054595Y-135500001D01*
X117050000Y-135453346D01*
X117050000Y-132953335D01*
X117036254Y-132813768D01*
X116981932Y-132634692D01*
X116893718Y-132469655D01*
X116775001Y-132324999D01*
X116630345Y-132206282D01*
X116465308Y-132118068D01*
X116286232Y-132063746D01*
X116100000Y-132045404D01*
X115913769Y-132063746D01*
X115734693Y-132118068D01*
X115569656Y-132206282D01*
X115425000Y-132324999D01*
X115306283Y-132469655D01*
X115218069Y-132634692D01*
X115202177Y-132687081D01*
X115202177Y-132500000D01*
X115193489Y-132411785D01*
X115167757Y-132326959D01*
X115125971Y-132248784D01*
X115069737Y-132180263D01*
X115001216Y-132124029D01*
X114923041Y-132082243D01*
X114838215Y-132056511D01*
X114750000Y-132047823D01*
X113750000Y-132047823D01*
X113661785Y-132056511D01*
X113576959Y-132082243D01*
X113500000Y-132123379D01*
X113423041Y-132082243D01*
X113338215Y-132056511D01*
X113250000Y-132047823D01*
X112250000Y-132047823D01*
X112161785Y-132056511D01*
X112076959Y-132082243D01*
X112000000Y-132123379D01*
X111923041Y-132082243D01*
X111838215Y-132056511D01*
X111750000Y-132047823D01*
X110750000Y-132047823D01*
X110661785Y-132056511D01*
X110576959Y-132082243D01*
X110500000Y-132123379D01*
X110423041Y-132082243D01*
X110338215Y-132056511D01*
X110250000Y-132047823D01*
X109250000Y-132047823D01*
X109161785Y-132056511D01*
X109076959Y-132082243D01*
X109000000Y-132123379D01*
X108923041Y-132082243D01*
X108838215Y-132056511D01*
X108750000Y-132047823D01*
X107750000Y-132047823D01*
X107661785Y-132056511D01*
X107576959Y-132082243D01*
X107500000Y-132123379D01*
X107423041Y-132082243D01*
X107338215Y-132056511D01*
X107250000Y-132047823D01*
X106250000Y-132047823D01*
X106161785Y-132056511D01*
X106076959Y-132082243D01*
X106000000Y-132123379D01*
X105923041Y-132082243D01*
X105838215Y-132056511D01*
X105750000Y-132047823D01*
X104750000Y-132047823D01*
X104661785Y-132056511D01*
X104576959Y-132082243D01*
X104500000Y-132123379D01*
X104423041Y-132082243D01*
X104338215Y-132056511D01*
X104250000Y-132047823D01*
X103250000Y-132047823D01*
X103161785Y-132056511D01*
X103076959Y-132082243D01*
X102998784Y-132124029D01*
X102930263Y-132180263D01*
X102874029Y-132248784D01*
X102832243Y-132326959D01*
X102806511Y-132411785D01*
X102797823Y-132500000D01*
X100475000Y-132500000D01*
X100475000Y-113000000D01*
X101047823Y-113000000D01*
X101047823Y-114000000D01*
X101056511Y-114088215D01*
X101082243Y-114173041D01*
X101123379Y-114250000D01*
X101082243Y-114326959D01*
X101056511Y-114411785D01*
X101047823Y-114500000D01*
X101047823Y-115500000D01*
X101056511Y-115588215D01*
X101082243Y-115673041D01*
X101123379Y-115750000D01*
X101082243Y-115826959D01*
X101056511Y-115911785D01*
X101047823Y-116000000D01*
X101047823Y-117000000D01*
X101056511Y-117088215D01*
X101082243Y-117173041D01*
X101123379Y-117250000D01*
X101082243Y-117326959D01*
X101056511Y-117411785D01*
X101047823Y-117500000D01*
X101047823Y-118500000D01*
X101056511Y-118588215D01*
X101082243Y-118673041D01*
X101123379Y-118750000D01*
X101082243Y-118826959D01*
X101056511Y-118911785D01*
X101047823Y-119000000D01*
X101047823Y-120000000D01*
X101056511Y-120088215D01*
X101082243Y-120173041D01*
X101123379Y-120250000D01*
X101082243Y-120326959D01*
X101056511Y-120411785D01*
X101047823Y-120500000D01*
X101047823Y-121500000D01*
X101056511Y-121588215D01*
X101082243Y-121673041D01*
X101123379Y-121750000D01*
X101082243Y-121826959D01*
X101056511Y-121911785D01*
X101047823Y-122000000D01*
X101047823Y-123000000D01*
X101056511Y-123088215D01*
X101082243Y-123173041D01*
X101123379Y-123250000D01*
X101082243Y-123326959D01*
X101056511Y-123411785D01*
X101047823Y-123500000D01*
X101047823Y-124500000D01*
X101056511Y-124588215D01*
X101082243Y-124673041D01*
X101123379Y-124750000D01*
X101082243Y-124826959D01*
X101056511Y-124911785D01*
X101047823Y-125000000D01*
X101047823Y-126000000D01*
X101056511Y-126088215D01*
X101082243Y-126173041D01*
X101123379Y-126250000D01*
X101082243Y-126326959D01*
X101056511Y-126411785D01*
X101047823Y-126500000D01*
X101047823Y-127500000D01*
X101056511Y-127588215D01*
X101082243Y-127673041D01*
X101123379Y-127750000D01*
X101082243Y-127826959D01*
X101056511Y-127911785D01*
X101047823Y-128000000D01*
X101047823Y-129000000D01*
X101056511Y-129088215D01*
X101082243Y-129173041D01*
X101123379Y-129250000D01*
X101082243Y-129326959D01*
X101056511Y-129411785D01*
X101047823Y-129500000D01*
X101047823Y-130500000D01*
X101056511Y-130588215D01*
X101082243Y-130673041D01*
X101124029Y-130751216D01*
X101180263Y-130819737D01*
X101248784Y-130875971D01*
X101326959Y-130917757D01*
X101411785Y-130943489D01*
X101500000Y-130952177D01*
X103500000Y-130952177D01*
X103588215Y-130943489D01*
X103673041Y-130917757D01*
X103751216Y-130875971D01*
X103819737Y-130819737D01*
X103875971Y-130751216D01*
X103917757Y-130673041D01*
X103943489Y-130588215D01*
X103952177Y-130500000D01*
X103952177Y-129500000D01*
X103943489Y-129411785D01*
X103917757Y-129326959D01*
X103876621Y-129250000D01*
X103917757Y-129173041D01*
X103943489Y-129088215D01*
X103952177Y-129000000D01*
X103952177Y-128000000D01*
X103943489Y-127911785D01*
X103917757Y-127826959D01*
X103876621Y-127750000D01*
X103917757Y-127673041D01*
X103943489Y-127588215D01*
X103952177Y-127500000D01*
X103952177Y-126500000D01*
X103943489Y-126411785D01*
X103917757Y-126326959D01*
X103876621Y-126250000D01*
X103917757Y-126173041D01*
X103943489Y-126088215D01*
X103952177Y-126000000D01*
X103952177Y-125000000D01*
X103943489Y-124911785D01*
X103917757Y-124826959D01*
X103876621Y-124750000D01*
X103917757Y-124673041D01*
X103943489Y-124588215D01*
X103952177Y-124500000D01*
X103952177Y-123500000D01*
X103943489Y-123411785D01*
X103917757Y-123326959D01*
X103876621Y-123250000D01*
X103917757Y-123173041D01*
X103943489Y-123088215D01*
X103952177Y-123000000D01*
X103952177Y-122000000D01*
X103943489Y-121911785D01*
X103917757Y-121826959D01*
X103876621Y-121750000D01*
X103917757Y-121673041D01*
X103943489Y-121588215D01*
X103952177Y-121500000D01*
X103952177Y-120500000D01*
X103943489Y-120411785D01*
X103917757Y-120326959D01*
X103876621Y-120250000D01*
X103917757Y-120173041D01*
X103943489Y-120088215D01*
X103952177Y-120000000D01*
X103952177Y-119316266D01*
X108850000Y-119316266D01*
X108850000Y-119483702D01*
X108882665Y-119647920D01*
X108946740Y-119802610D01*
X109039762Y-119941828D01*
X109158156Y-120060222D01*
X109297374Y-120153244D01*
X109452064Y-120217319D01*
X109616282Y-120249984D01*
X109701473Y-120249984D01*
X110100001Y-120648513D01*
X110100000Y-128297918D01*
X110039762Y-128358156D01*
X109946740Y-128497374D01*
X109882665Y-128652064D01*
X109850000Y-128816282D01*
X109850000Y-128983718D01*
X109882665Y-129147936D01*
X109946740Y-129302626D01*
X110039762Y-129441844D01*
X110158156Y-129560238D01*
X110297374Y-129653260D01*
X110452064Y-129717335D01*
X110616282Y-129750000D01*
X110783718Y-129750000D01*
X110947936Y-129717335D01*
X111102626Y-129653260D01*
X111241844Y-129560238D01*
X111360238Y-129441844D01*
X111453260Y-129302626D01*
X111517335Y-129147936D01*
X111550000Y-128983718D01*
X111550000Y-128816282D01*
X111517335Y-128652064D01*
X111453260Y-128497374D01*
X111360238Y-128358156D01*
X111300000Y-128297918D01*
X111300000Y-120429460D01*
X111302903Y-120399984D01*
X111291319Y-120282363D01*
X111257010Y-120169263D01*
X111232832Y-120124029D01*
X111201296Y-120065029D01*
X111126317Y-119973667D01*
X111103419Y-119954875D01*
X110550000Y-119401457D01*
X110550000Y-119316266D01*
X110517335Y-119152048D01*
X110453260Y-118997358D01*
X110360238Y-118858140D01*
X110241844Y-118739746D01*
X110102626Y-118646724D01*
X109947936Y-118582649D01*
X109783718Y-118549984D01*
X109616282Y-118549984D01*
X109452064Y-118582649D01*
X109297374Y-118646724D01*
X109158156Y-118739746D01*
X109039762Y-118858140D01*
X108946740Y-118997358D01*
X108882665Y-119152048D01*
X108850000Y-119316266D01*
X103952177Y-119316266D01*
X103952177Y-119000000D01*
X103947180Y-118949262D01*
X103958156Y-118960238D01*
X104097374Y-119053260D01*
X104252064Y-119117335D01*
X104416282Y-119150000D01*
X104583718Y-119150000D01*
X104747936Y-119117335D01*
X104902626Y-119053260D01*
X105041844Y-118960238D01*
X105160238Y-118841844D01*
X105253260Y-118702626D01*
X105317335Y-118547936D01*
X105350000Y-118383718D01*
X105350000Y-118216282D01*
X105317335Y-118052064D01*
X105253260Y-117897374D01*
X105160238Y-117758156D01*
X105041844Y-117639762D01*
X104902626Y-117546740D01*
X104747936Y-117482665D01*
X104583718Y-117450000D01*
X104443836Y-117450000D01*
X104430721Y-117442990D01*
X104317621Y-117408682D01*
X104229474Y-117400000D01*
X104200000Y-117397097D01*
X104170526Y-117400000D01*
X103939914Y-117400000D01*
X103917757Y-117326959D01*
X103876621Y-117250000D01*
X103917757Y-117173041D01*
X103940236Y-117098940D01*
X104017621Y-117091318D01*
X104130721Y-117057010D01*
X104234955Y-117001296D01*
X104326317Y-116926317D01*
X104345113Y-116903414D01*
X104498527Y-116750000D01*
X104583718Y-116750000D01*
X104747936Y-116717335D01*
X104902626Y-116653260D01*
X105041844Y-116560238D01*
X105160238Y-116441844D01*
X105253260Y-116302626D01*
X105317335Y-116147936D01*
X105350000Y-115983718D01*
X105350000Y-115816282D01*
X105317335Y-115652064D01*
X105253260Y-115497374D01*
X105160238Y-115358156D01*
X105041844Y-115239762D01*
X104902626Y-115146740D01*
X104747936Y-115082665D01*
X104583718Y-115050000D01*
X104416282Y-115050000D01*
X104252064Y-115082665D01*
X104097374Y-115146740D01*
X103958156Y-115239762D01*
X103952177Y-115245741D01*
X103952177Y-114500000D01*
X103943489Y-114411785D01*
X103917757Y-114326959D01*
X103901394Y-114296347D01*
X103952064Y-114317335D01*
X104116282Y-114350000D01*
X104283718Y-114350000D01*
X104447936Y-114317335D01*
X104602626Y-114253260D01*
X104741844Y-114160238D01*
X104860238Y-114041844D01*
X104953260Y-113902626D01*
X105017335Y-113747936D01*
X105050000Y-113583718D01*
X105050000Y-113498527D01*
X105348528Y-113200000D01*
X107498257Y-113200000D01*
X107463746Y-113313768D01*
X107445404Y-113500000D01*
X107463746Y-113686232D01*
X107518068Y-113865308D01*
X107606282Y-114030345D01*
X107724999Y-114175001D01*
X107869655Y-114293718D01*
X108034692Y-114381932D01*
X108213768Y-114436254D01*
X108353335Y-114450000D01*
X110506498Y-114450000D01*
X111650000Y-115593503D01*
X111650001Y-126453325D01*
X111650000Y-126453335D01*
X111650000Y-127112349D01*
X111650001Y-127112359D01*
X111650000Y-129053345D01*
X111645405Y-129100000D01*
X111650000Y-129146654D01*
X111650000Y-129146664D01*
X111663746Y-129286231D01*
X111718068Y-129465307D01*
X111806282Y-129630345D01*
X111924999Y-129775001D01*
X111961248Y-129804750D01*
X112795254Y-130638757D01*
X112824999Y-130675001D01*
X112861242Y-130704745D01*
X112861245Y-130704748D01*
X112938951Y-130768520D01*
X112969655Y-130793718D01*
X113134692Y-130881932D01*
X113313768Y-130936254D01*
X113453335Y-130950000D01*
X113453345Y-130950000D01*
X113499999Y-130954595D01*
X113546654Y-130950000D01*
X114477895Y-130950000D01*
X114500000Y-130952177D01*
X116500000Y-130952177D01*
X116588215Y-130943489D01*
X116673041Y-130917757D01*
X116751216Y-130875971D01*
X116819737Y-130819737D01*
X116875971Y-130751216D01*
X116917757Y-130673041D01*
X116943489Y-130588215D01*
X116952177Y-130500000D01*
X116952177Y-129500000D01*
X116943489Y-129411785D01*
X116917757Y-129326959D01*
X116876621Y-129250000D01*
X116917757Y-129173041D01*
X116943489Y-129088215D01*
X116952177Y-129000000D01*
X116952177Y-128000000D01*
X116943489Y-127911785D01*
X116917757Y-127826959D01*
X116876621Y-127750000D01*
X116917757Y-127673041D01*
X116943489Y-127588215D01*
X116952177Y-127500000D01*
X116952177Y-126500000D01*
X116943489Y-126411785D01*
X116917757Y-126326959D01*
X116876621Y-126250000D01*
X116917757Y-126173041D01*
X116943489Y-126088215D01*
X116952177Y-126000000D01*
X116952177Y-125000000D01*
X116943489Y-124911785D01*
X116917757Y-124826959D01*
X116876621Y-124750000D01*
X116917757Y-124673041D01*
X116943489Y-124588215D01*
X116952177Y-124500000D01*
X116952177Y-123500000D01*
X116943489Y-123411785D01*
X116917757Y-123326959D01*
X116876621Y-123250000D01*
X116917757Y-123173041D01*
X116943489Y-123088215D01*
X116952177Y-123000000D01*
X116952177Y-122000000D01*
X116943489Y-121911785D01*
X116917757Y-121826959D01*
X116876621Y-121750000D01*
X116917757Y-121673041D01*
X116943489Y-121588215D01*
X116952177Y-121500000D01*
X116952177Y-120500000D01*
X116943489Y-120411785D01*
X116917757Y-120326959D01*
X116876621Y-120250000D01*
X116917757Y-120173041D01*
X116943489Y-120088215D01*
X116952177Y-120000000D01*
X116952177Y-119000000D01*
X116943489Y-118911785D01*
X116917757Y-118826959D01*
X116876621Y-118750000D01*
X116917757Y-118673041D01*
X116943489Y-118588215D01*
X116952177Y-118500000D01*
X116952177Y-117500000D01*
X116943489Y-117411785D01*
X116917757Y-117326959D01*
X116876621Y-117250000D01*
X116917757Y-117173041D01*
X116943489Y-117088215D01*
X116952177Y-117000000D01*
X116952177Y-116000000D01*
X116943489Y-115911785D01*
X116917757Y-115826959D01*
X116876621Y-115750000D01*
X116917757Y-115673041D01*
X116939914Y-115600000D01*
X118951473Y-115600000D01*
X120654916Y-117303444D01*
X120673708Y-117326342D01*
X120765070Y-117401321D01*
X120869304Y-117457035D01*
X120982404Y-117491343D01*
X121100024Y-117502928D01*
X121129498Y-117500025D01*
X127716868Y-117500025D01*
X127746342Y-117502928D01*
X127775816Y-117500025D01*
X127863963Y-117491343D01*
X127977063Y-117457035D01*
X128081297Y-117401321D01*
X128172659Y-117326342D01*
X128191455Y-117303439D01*
X128353404Y-117141490D01*
X128376307Y-117122694D01*
X128451286Y-117031332D01*
X128507000Y-116927098D01*
X128541308Y-116813998D01*
X128549234Y-116733530D01*
X128610228Y-116672536D01*
X128703250Y-116533318D01*
X128720421Y-116491863D01*
X128832510Y-116502903D01*
X128861984Y-116500000D01*
X128897918Y-116500000D01*
X128958156Y-116560238D01*
X129097374Y-116653260D01*
X129252064Y-116717335D01*
X129416282Y-116750000D01*
X129583718Y-116750000D01*
X129747936Y-116717335D01*
X129902626Y-116653260D01*
X130041844Y-116560238D01*
X130050000Y-116552082D01*
X130058156Y-116560238D01*
X130197374Y-116653260D01*
X130352064Y-116717335D01*
X130516282Y-116750000D01*
X130683718Y-116750000D01*
X130847936Y-116717335D01*
X131002626Y-116653260D01*
X131141844Y-116560238D01*
X131260238Y-116441844D01*
X131353260Y-116302626D01*
X131417335Y-116147936D01*
X131450000Y-115983718D01*
X131450000Y-115898528D01*
X131453421Y-115895107D01*
X131466996Y-115883967D01*
X131572331Y-115989302D01*
X131711549Y-116082324D01*
X131866239Y-116146399D01*
X132030457Y-116179064D01*
X132197893Y-116179064D01*
X132362111Y-116146399D01*
X132516801Y-116082324D01*
X132596511Y-116029064D01*
X140449115Y-116029064D01*
X140665874Y-116245823D01*
X139568000Y-116245823D01*
X139479785Y-116254511D01*
X139394959Y-116280243D01*
X139316784Y-116322029D01*
X139248263Y-116378263D01*
X139192029Y-116446784D01*
X139150243Y-116524959D01*
X139124511Y-116609785D01*
X139115823Y-116698000D01*
X139115823Y-116879164D01*
X139037279Y-116902990D01*
X138933045Y-116958704D01*
X138841683Y-117033683D01*
X138822891Y-117056581D01*
X138279473Y-117600000D01*
X134229476Y-117600000D01*
X134200000Y-117597097D01*
X134082379Y-117608681D01*
X133979920Y-117639762D01*
X133969279Y-117642990D01*
X133865045Y-117698704D01*
X133773683Y-117773683D01*
X133754894Y-117796578D01*
X132651473Y-118900000D01*
X132502082Y-118900000D01*
X132441844Y-118839762D01*
X132302626Y-118746740D01*
X132147936Y-118682665D01*
X131983718Y-118650000D01*
X131816282Y-118650000D01*
X131652064Y-118682665D01*
X131497374Y-118746740D01*
X131358156Y-118839762D01*
X131239762Y-118958156D01*
X131146740Y-119097374D01*
X131082665Y-119252064D01*
X131050000Y-119416282D01*
X131050000Y-119583718D01*
X131063184Y-119650000D01*
X131016282Y-119650000D01*
X130852064Y-119682665D01*
X130697374Y-119746740D01*
X130558156Y-119839762D01*
X130439762Y-119958156D01*
X130346740Y-120097374D01*
X130282665Y-120252064D01*
X130250000Y-120416282D01*
X130250000Y-120583718D01*
X130282665Y-120747936D01*
X130346740Y-120902626D01*
X130439762Y-121041844D01*
X130558156Y-121160238D01*
X130697374Y-121253260D01*
X130852064Y-121317335D01*
X131016282Y-121350000D01*
X131183718Y-121350000D01*
X131347936Y-121317335D01*
X131502626Y-121253260D01*
X131641844Y-121160238D01*
X131702082Y-121100000D01*
X132304230Y-121100000D01*
X132282665Y-121152062D01*
X132250000Y-121316280D01*
X132250000Y-121401470D01*
X131196578Y-122454893D01*
X131173675Y-122473689D01*
X131098696Y-122565052D01*
X131042982Y-122669286D01*
X131021604Y-122739762D01*
X131008674Y-122782386D01*
X131007926Y-122789984D01*
X130939754Y-122858156D01*
X130846732Y-122997374D01*
X130782657Y-123152064D01*
X130749992Y-123316282D01*
X130749992Y-123483718D01*
X130782657Y-123647936D01*
X130846732Y-123802626D01*
X130939754Y-123941844D01*
X131058148Y-124060238D01*
X131197366Y-124153260D01*
X131352056Y-124217335D01*
X131516274Y-124250000D01*
X131683710Y-124250000D01*
X131847928Y-124217335D01*
X132002618Y-124153260D01*
X132141836Y-124060238D01*
X132260230Y-123941844D01*
X132353252Y-123802626D01*
X132417327Y-123647936D01*
X132449992Y-123483718D01*
X132449992Y-123316282D01*
X132417327Y-123152064D01*
X132353252Y-122997374D01*
X132352411Y-122996115D01*
X133098528Y-122249998D01*
X133183718Y-122249998D01*
X133347936Y-122217333D01*
X133502626Y-122153258D01*
X133641844Y-122060236D01*
X133760238Y-121941842D01*
X133853260Y-121802624D01*
X133863459Y-121778000D01*
X139115823Y-121778000D01*
X139115823Y-123302000D01*
X139124511Y-123390215D01*
X139150243Y-123475041D01*
X139192029Y-123553216D01*
X139248263Y-123621737D01*
X139316784Y-123677971D01*
X139394959Y-123719757D01*
X139479785Y-123745489D01*
X139568000Y-123754177D01*
X141092000Y-123754177D01*
X141180215Y-123745489D01*
X141265041Y-123719757D01*
X141343216Y-123677971D01*
X141411737Y-123621737D01*
X141467971Y-123553216D01*
X141509757Y-123475041D01*
X141535489Y-123390215D01*
X141544177Y-123302000D01*
X141544177Y-121778000D01*
X141535489Y-121689785D01*
X141509757Y-121604959D01*
X141467971Y-121526784D01*
X141411737Y-121458263D01*
X141343216Y-121402029D01*
X141265041Y-121360243D01*
X141180215Y-121334511D01*
X141092000Y-121325823D01*
X139568000Y-121325823D01*
X139479785Y-121334511D01*
X139394959Y-121360243D01*
X139316784Y-121402029D01*
X139248263Y-121458263D01*
X139192029Y-121526784D01*
X139150243Y-121604959D01*
X139124511Y-121689785D01*
X139115823Y-121778000D01*
X133863459Y-121778000D01*
X133917335Y-121647934D01*
X133950000Y-121483716D01*
X133950000Y-121398525D01*
X134748526Y-120600000D01*
X139115823Y-120600000D01*
X139115823Y-120762000D01*
X139124511Y-120850215D01*
X139150243Y-120935041D01*
X139192029Y-121013216D01*
X139248263Y-121081737D01*
X139316784Y-121137971D01*
X139394959Y-121179757D01*
X139479785Y-121205489D01*
X139568000Y-121214177D01*
X141092000Y-121214177D01*
X141180215Y-121205489D01*
X141265041Y-121179757D01*
X141343216Y-121137971D01*
X141411737Y-121081737D01*
X141467971Y-121013216D01*
X141509757Y-120935041D01*
X141535489Y-120850215D01*
X141544177Y-120762000D01*
X141544177Y-119487999D01*
X141639472Y-119487999D01*
X141655823Y-119504350D01*
X141655823Y-120762000D01*
X141664511Y-120850215D01*
X141690243Y-120935041D01*
X141732029Y-121013216D01*
X141788263Y-121081737D01*
X141856784Y-121137971D01*
X141934959Y-121179757D01*
X142019785Y-121205489D01*
X142108000Y-121214177D01*
X143632000Y-121214177D01*
X143720215Y-121205489D01*
X143805041Y-121179757D01*
X143883216Y-121137971D01*
X143951737Y-121081737D01*
X144007971Y-121013216D01*
X144049757Y-120935041D01*
X144075489Y-120850215D01*
X144084177Y-120762000D01*
X144084177Y-119238000D01*
X144075489Y-119149785D01*
X144049757Y-119064959D01*
X144007971Y-118986784D01*
X143951737Y-118918263D01*
X143883216Y-118862029D01*
X143805041Y-118820243D01*
X143720215Y-118794511D01*
X143632000Y-118785823D01*
X142634350Y-118785823D01*
X142522704Y-118674177D01*
X143632000Y-118674177D01*
X143720215Y-118665489D01*
X143805041Y-118639757D01*
X143883216Y-118597971D01*
X143951737Y-118541737D01*
X144007971Y-118473216D01*
X144049757Y-118395041D01*
X144075489Y-118310215D01*
X144084177Y-118222000D01*
X144084177Y-116698000D01*
X144075489Y-116609785D01*
X144049757Y-116524959D01*
X144007971Y-116446784D01*
X143951737Y-116378263D01*
X143883216Y-116322029D01*
X143805041Y-116280243D01*
X143720215Y-116254511D01*
X143632000Y-116245823D01*
X142645773Y-116245823D01*
X141258360Y-114858411D01*
X141236434Y-114831694D01*
X141129845Y-114744219D01*
X141008239Y-114679219D01*
X140876288Y-114639192D01*
X140773454Y-114629064D01*
X140773451Y-114629064D01*
X140739064Y-114625677D01*
X140704677Y-114629064D01*
X132596511Y-114629064D01*
X132516801Y-114575804D01*
X132362111Y-114511729D01*
X132197893Y-114479064D01*
X132030457Y-114479064D01*
X131866239Y-114511729D01*
X131711549Y-114575804D01*
X131650001Y-114616929D01*
X131650001Y-113079474D01*
X131652904Y-113050000D01*
X131641319Y-112932380D01*
X131630616Y-112897097D01*
X131607011Y-112819280D01*
X131551297Y-112715046D01*
X131476318Y-112623684D01*
X131453420Y-112604892D01*
X130748527Y-111900000D01*
X131297918Y-111900000D01*
X131358156Y-111960238D01*
X131497374Y-112053260D01*
X131652064Y-112117335D01*
X131816282Y-112150000D01*
X131983718Y-112150000D01*
X132147936Y-112117335D01*
X132302626Y-112053260D01*
X132441844Y-111960238D01*
X132560238Y-111841844D01*
X132653260Y-111702626D01*
X132717335Y-111547936D01*
X132750000Y-111383718D01*
X132750000Y-111216282D01*
X132722282Y-111076932D01*
X141685823Y-111076932D01*
X141685823Y-112532000D01*
X141694511Y-112620215D01*
X141720243Y-112705041D01*
X141762029Y-112783216D01*
X141818263Y-112851737D01*
X141886784Y-112907971D01*
X141964959Y-112949757D01*
X142049785Y-112975489D01*
X142138000Y-112984177D01*
X143662000Y-112984177D01*
X143750215Y-112975489D01*
X143835041Y-112949757D01*
X143913216Y-112907971D01*
X143981737Y-112851737D01*
X144037971Y-112783216D01*
X144079757Y-112705041D01*
X144105489Y-112620215D01*
X144114177Y-112532000D01*
X144114177Y-111076932D01*
X144528415Y-111076932D01*
X144750010Y-111298528D01*
X144750010Y-111383718D01*
X144782675Y-111547936D01*
X144846750Y-111702626D01*
X144939772Y-111841844D01*
X145058166Y-111960238D01*
X145197384Y-112053260D01*
X145352074Y-112117335D01*
X145516292Y-112150000D01*
X145683728Y-112150000D01*
X145847946Y-112117335D01*
X146002636Y-112053260D01*
X146141854Y-111960238D01*
X146260248Y-111841844D01*
X146353270Y-111702626D01*
X146417345Y-111547936D01*
X146450010Y-111383718D01*
X146450010Y-111216282D01*
X146417345Y-111052064D01*
X146353270Y-110897374D01*
X146260248Y-110758156D01*
X146141854Y-110639762D01*
X146002636Y-110546740D01*
X145847946Y-110482665D01*
X145683728Y-110450000D01*
X145598538Y-110450000D01*
X145222055Y-110073518D01*
X145203259Y-110050615D01*
X145111897Y-109975636D01*
X145007663Y-109919922D01*
X144894563Y-109885614D01*
X144806416Y-109876932D01*
X144776942Y-109874029D01*
X144747468Y-109876932D01*
X144114177Y-109876932D01*
X144114177Y-108468000D01*
X144105489Y-108379785D01*
X144079757Y-108294959D01*
X144037971Y-108216784D01*
X143981737Y-108148263D01*
X143913216Y-108092029D01*
X143835041Y-108050243D01*
X143750215Y-108024511D01*
X143662000Y-108015823D01*
X142138000Y-108015823D01*
X142049785Y-108024511D01*
X141964959Y-108050243D01*
X141886784Y-108092029D01*
X141818263Y-108148263D01*
X141762029Y-108216784D01*
X141720243Y-108294959D01*
X141694511Y-108379785D01*
X141685823Y-108468000D01*
X141685823Y-109876932D01*
X130008455Y-109876932D01*
X129948217Y-109816694D01*
X129808999Y-109723672D01*
X129654309Y-109659597D01*
X129490091Y-109626932D01*
X129322655Y-109626932D01*
X129158437Y-109659597D01*
X129003747Y-109723672D01*
X129002108Y-109724767D01*
X128992566Y-109627891D01*
X128958258Y-109514791D01*
X128902544Y-109410557D01*
X128827565Y-109319195D01*
X128804667Y-109300403D01*
X128500000Y-108995737D01*
X128500000Y-108026870D01*
X128616282Y-108050000D01*
X128701473Y-108050000D01*
X129849004Y-109197532D01*
X129867796Y-109220430D01*
X129959158Y-109295409D01*
X130063392Y-109351123D01*
X130142183Y-109375024D01*
X130176491Y-109385431D01*
X130294112Y-109397016D01*
X130323586Y-109394113D01*
X138594128Y-109394113D01*
X138654366Y-109454351D01*
X138793584Y-109547373D01*
X138948274Y-109611448D01*
X139112492Y-109644113D01*
X139279928Y-109644113D01*
X139444146Y-109611448D01*
X139598836Y-109547373D01*
X139738054Y-109454351D01*
X139856448Y-109335957D01*
X139949470Y-109196739D01*
X140013545Y-109042049D01*
X140046210Y-108877831D01*
X140046210Y-108710395D01*
X140013545Y-108546177D01*
X139949470Y-108391487D01*
X139856448Y-108252269D01*
X139738054Y-108133875D01*
X139598836Y-108040853D01*
X139444146Y-107976778D01*
X139279928Y-107944113D01*
X139112492Y-107944113D01*
X138948274Y-107976778D01*
X138793584Y-108040853D01*
X138654366Y-108133875D01*
X138594128Y-108194113D01*
X130542641Y-108194113D01*
X129550000Y-107201473D01*
X129550000Y-107116282D01*
X129517335Y-106952064D01*
X129453260Y-106797374D01*
X129360238Y-106658156D01*
X129241844Y-106539762D01*
X129102626Y-106446740D01*
X128947936Y-106382665D01*
X128783718Y-106350000D01*
X128616282Y-106350000D01*
X128500000Y-106373130D01*
X128500000Y-105928000D01*
X141685823Y-105928000D01*
X141685823Y-107452000D01*
X141694511Y-107540215D01*
X141720243Y-107625041D01*
X141762029Y-107703216D01*
X141818263Y-107771737D01*
X141886784Y-107827971D01*
X141964959Y-107869757D01*
X142049785Y-107895489D01*
X142138000Y-107904177D01*
X143662000Y-107904177D01*
X143750215Y-107895489D01*
X143835041Y-107869757D01*
X143913216Y-107827971D01*
X143981737Y-107771737D01*
X144037971Y-107703216D01*
X144079757Y-107625041D01*
X144105489Y-107540215D01*
X144114177Y-107452000D01*
X144114177Y-105928000D01*
X144105489Y-105839785D01*
X144079757Y-105754959D01*
X144037971Y-105676784D01*
X143981737Y-105608263D01*
X143913216Y-105552029D01*
X143835041Y-105510243D01*
X143750215Y-105484511D01*
X143662000Y-105475823D01*
X142138000Y-105475823D01*
X142049785Y-105484511D01*
X141964959Y-105510243D01*
X141886784Y-105552029D01*
X141818263Y-105608263D01*
X141762029Y-105676784D01*
X141720243Y-105754959D01*
X141694511Y-105839785D01*
X141685823Y-105928000D01*
X128500000Y-105928000D01*
X128500000Y-104548523D01*
X132698528Y-100349996D01*
X132783718Y-100349996D01*
X132947936Y-100317331D01*
X133102626Y-100253256D01*
X133241844Y-100160234D01*
X133360238Y-100041840D01*
X133453260Y-99902622D01*
X133517335Y-99747932D01*
X133550000Y-99583714D01*
X133550000Y-99416278D01*
X133517335Y-99252060D01*
X133453260Y-99097370D01*
X133360238Y-98958152D01*
X133241844Y-98839758D01*
X133102626Y-98746736D01*
X132947936Y-98682661D01*
X132783718Y-98649996D01*
X132616282Y-98649996D01*
X132452064Y-98682661D01*
X132297374Y-98746736D01*
X132259707Y-98771904D01*
X132246415Y-98752012D01*
X132128021Y-98633618D01*
X131988803Y-98540596D01*
X131834113Y-98476521D01*
X131669895Y-98443856D01*
X131502459Y-98443856D01*
X131338241Y-98476521D01*
X131183551Y-98540596D01*
X131044333Y-98633618D01*
X130925939Y-98752012D01*
X130832917Y-98891230D01*
X130768842Y-99045920D01*
X130736177Y-99210138D01*
X130736177Y-99295328D01*
X126597820Y-103433686D01*
X126574922Y-103452478D01*
X126499943Y-103543840D01*
X126444229Y-103648074D01*
X126409920Y-103761175D01*
X126398335Y-103878795D01*
X126401239Y-103908279D01*
X126401238Y-110019963D01*
X126398940Y-110043290D01*
X123800001Y-107444352D01*
X123800001Y-86326870D01*
X123847936Y-86317335D01*
X124002626Y-86253260D01*
X124141844Y-86160238D01*
X124260238Y-86041844D01*
X124353260Y-85902626D01*
X124417335Y-85747936D01*
X124450000Y-85583718D01*
X124450000Y-85416282D01*
X124417335Y-85252064D01*
X124353260Y-85097374D01*
X124260238Y-84958156D01*
X124141844Y-84839762D01*
X124002626Y-84746740D01*
X123847936Y-84682665D01*
X123683718Y-84650000D01*
X123516282Y-84650000D01*
X123352064Y-84682665D01*
X123200000Y-84745652D01*
X123200000Y-71929476D01*
X123202903Y-71900000D01*
X123191319Y-71782379D01*
X123157010Y-71669279D01*
X123101296Y-71565045D01*
X123026317Y-71473683D01*
X123003419Y-71454891D01*
X116250000Y-64701473D01*
X116250000Y-64616282D01*
X116217335Y-64452064D01*
X116153260Y-64297374D01*
X116060238Y-64158156D01*
X115941844Y-64039762D01*
X115802626Y-63946740D01*
X115647936Y-63882665D01*
X115483718Y-63850000D01*
X115316282Y-63850000D01*
X115152064Y-63882665D01*
X114997374Y-63946740D01*
X114858156Y-64039762D01*
X114739762Y-64158156D01*
X114646740Y-64297374D01*
X114582665Y-64452064D01*
X114550000Y-64616282D01*
X114550000Y-64783718D01*
X114582665Y-64947936D01*
X114646740Y-65102626D01*
X114739762Y-65241844D01*
X114858156Y-65360238D01*
X114997374Y-65453260D01*
X115152064Y-65517335D01*
X115316282Y-65550000D01*
X115401473Y-65550000D01*
X122000001Y-72148529D01*
X122000001Y-74626084D01*
X121933708Y-74612898D01*
X121766272Y-74612898D01*
X121602054Y-74645563D01*
X121447364Y-74709638D01*
X121308146Y-74802660D01*
X121189752Y-74921054D01*
X121096730Y-75060272D01*
X121032655Y-75214962D01*
X120999990Y-75379180D01*
X120999990Y-75546616D01*
X121032655Y-75710834D01*
X121096730Y-75865524D01*
X121189752Y-76004742D01*
X121249990Y-76064980D01*
X121249991Y-107827628D01*
X121247087Y-107857112D01*
X121255808Y-107945653D01*
X114945000Y-101634846D01*
X114945000Y-85514177D01*
X115132000Y-85514177D01*
X115220215Y-85505489D01*
X115305041Y-85479757D01*
X115383216Y-85437971D01*
X115451737Y-85381737D01*
X115507971Y-85313216D01*
X115549757Y-85235041D01*
X115575489Y-85150215D01*
X115584177Y-85062000D01*
X115584177Y-83538000D01*
X115695823Y-83538000D01*
X115695823Y-85062000D01*
X115704511Y-85150215D01*
X115730243Y-85235041D01*
X115772029Y-85313216D01*
X115828263Y-85381737D01*
X115896784Y-85437971D01*
X115974959Y-85479757D01*
X116059785Y-85505489D01*
X116148000Y-85514177D01*
X117672000Y-85514177D01*
X117760215Y-85505489D01*
X117845041Y-85479757D01*
X117923216Y-85437971D01*
X117991737Y-85381737D01*
X118047971Y-85313216D01*
X118089757Y-85235041D01*
X118115489Y-85150215D01*
X118124177Y-85062000D01*
X118124177Y-83538000D01*
X118115489Y-83449785D01*
X118089757Y-83364959D01*
X118047971Y-83286784D01*
X117991737Y-83218263D01*
X117923216Y-83162029D01*
X117845041Y-83120243D01*
X117760215Y-83094511D01*
X117672000Y-83085823D01*
X116148000Y-83085823D01*
X116059785Y-83094511D01*
X115974959Y-83120243D01*
X115896784Y-83162029D01*
X115828263Y-83218263D01*
X115772029Y-83286784D01*
X115730243Y-83364959D01*
X115704511Y-83449785D01*
X115695823Y-83538000D01*
X115584177Y-83538000D01*
X115575489Y-83449785D01*
X115549757Y-83364959D01*
X115507971Y-83286784D01*
X115451737Y-83218263D01*
X115383216Y-83162029D01*
X115305041Y-83120243D01*
X115220215Y-83094511D01*
X115132000Y-83085823D01*
X113608000Y-83085823D01*
X113519785Y-83094511D01*
X113434959Y-83120243D01*
X113356784Y-83162029D01*
X113288263Y-83218263D01*
X113232029Y-83286784D01*
X113190243Y-83364959D01*
X113164511Y-83449785D01*
X113155823Y-83538000D01*
X113155823Y-84812651D01*
X113044177Y-84701005D01*
X113044177Y-83538000D01*
X113035489Y-83449785D01*
X113009757Y-83364959D01*
X112967971Y-83286784D01*
X112911737Y-83218263D01*
X112843216Y-83162029D01*
X112765041Y-83120243D01*
X112680215Y-83094511D01*
X112592000Y-83085823D01*
X111068000Y-83085823D01*
X110979785Y-83094511D01*
X110894959Y-83120243D01*
X110816784Y-83162029D01*
X110748263Y-83218263D01*
X110692029Y-83286784D01*
X110650243Y-83364959D01*
X110624511Y-83449785D01*
X110615823Y-83538000D01*
X110615823Y-85062000D01*
X110624511Y-85150215D01*
X110650243Y-85235041D01*
X110692029Y-85313216D01*
X110748263Y-85381737D01*
X110816784Y-85437971D01*
X110894959Y-85479757D01*
X110979785Y-85505489D01*
X111068000Y-85514177D01*
X112231005Y-85514177D01*
X113125000Y-86408173D01*
X113125001Y-102771781D01*
X113122218Y-102800034D01*
X113133321Y-102912753D01*
X113166199Y-103021141D01*
X113219592Y-103121032D01*
X113265441Y-103176899D01*
X113291447Y-103208588D01*
X113313389Y-103226595D01*
X120312106Y-110225312D01*
X120312106Y-110345858D01*
X120344771Y-110510076D01*
X120408846Y-110664766D01*
X120501868Y-110803984D01*
X120620262Y-110922378D01*
X120759480Y-111015400D01*
X120914170Y-111079475D01*
X121078388Y-111112140D01*
X121245824Y-111112140D01*
X121410042Y-111079475D01*
X121564732Y-111015400D01*
X121703950Y-110922378D01*
X121822344Y-110803984D01*
X121915366Y-110664766D01*
X121979441Y-110510076D01*
X122012106Y-110345858D01*
X122012106Y-110178422D01*
X121979441Y-110014204D01*
X121915366Y-109859514D01*
X121822344Y-109720296D01*
X121716638Y-109614590D01*
X121747963Y-109601615D01*
X121887181Y-109508593D01*
X122005575Y-109390199D01*
X122098597Y-109250981D01*
X122162672Y-109096291D01*
X122175608Y-109031257D01*
X124900000Y-111755650D01*
X124900001Y-113770517D01*
X124897097Y-113800000D01*
X124908682Y-113917620D01*
X124933672Y-114000000D01*
X124942991Y-114030721D01*
X124998705Y-114134955D01*
X125073684Y-114226317D01*
X125096581Y-114245108D01*
X125101484Y-114250011D01*
X122398539Y-114250011D01*
X119345113Y-111196586D01*
X119326317Y-111173683D01*
X119234955Y-111098704D01*
X119130721Y-111042990D01*
X119017621Y-111008682D01*
X118929474Y-111000000D01*
X118900000Y-110997097D01*
X118870526Y-111000000D01*
X117802082Y-111000000D01*
X117741844Y-110939762D01*
X117602626Y-110846740D01*
X117447936Y-110782665D01*
X117283718Y-110750000D01*
X117116282Y-110750000D01*
X116952064Y-110782665D01*
X116797374Y-110846740D01*
X116658156Y-110939762D01*
X116539762Y-111058156D01*
X116446740Y-111197374D01*
X116382665Y-111352064D01*
X116350000Y-111516282D01*
X116350000Y-111683718D01*
X116382665Y-111847936D01*
X116445652Y-112000000D01*
X115650000Y-112000000D01*
X115650000Y-106000000D01*
X115647118Y-105970736D01*
X115638582Y-105942597D01*
X115624720Y-105916664D01*
X115606066Y-105893934D01*
X115583336Y-105875280D01*
X115557403Y-105861418D01*
X115529264Y-105852882D01*
X115500000Y-105850000D01*
X102500000Y-105850000D01*
X102470736Y-105852882D01*
X102442597Y-105861418D01*
X102416664Y-105875280D01*
X102393934Y-105893934D01*
X102375280Y-105916664D01*
X102361418Y-105942597D01*
X102352882Y-105970736D01*
X102350000Y-106000000D01*
X102350000Y-112547823D01*
X101500000Y-112547823D01*
X101411785Y-112556511D01*
X101326959Y-112582243D01*
X101248784Y-112624029D01*
X101180263Y-112680263D01*
X101124029Y-112748784D01*
X101082243Y-112826959D01*
X101056511Y-112911785D01*
X101047823Y-113000000D01*
X100475000Y-113000000D01*
X100475000Y-54342414D01*
X123400000Y-54342414D01*
X123400000Y-54657586D01*
X123461487Y-54966703D01*
X123582098Y-55257884D01*
X123757199Y-55519941D01*
X123980059Y-55742801D01*
X124242116Y-55917902D01*
X124533297Y-56038513D01*
X124842414Y-56100000D01*
X125157586Y-56100000D01*
X125466703Y-56038513D01*
X125757884Y-55917902D01*
X126019941Y-55742801D01*
X126242801Y-55519941D01*
X126417902Y-55257884D01*
X126538513Y-54966703D01*
X126600000Y-54657586D01*
X126600000Y-54342414D01*
X126538513Y-54033297D01*
X126417902Y-53742116D01*
X126242801Y-53480059D01*
X126019941Y-53257199D01*
X125757884Y-53082098D01*
X125466703Y-52961487D01*
X125157586Y-52900000D01*
X124842414Y-52900000D01*
X124533297Y-52961487D01*
X124242116Y-53082098D01*
X123980059Y-53257199D01*
X123757199Y-53480059D01*
X123582098Y-53742116D01*
X123461487Y-54033297D01*
X123400000Y-54342414D01*
X100475000Y-54342414D01*
X100475000Y-50475000D01*
X149525000Y-50475000D01*
X149525001Y-149525000D01*
G37*
X149525001Y-149525000D02*
X100475000Y-149525000D01*
X100475000Y-144211358D01*
X107400000Y-144211358D01*
X107400000Y-144388642D01*
X107434586Y-144562520D01*
X107502430Y-144726310D01*
X107600924Y-144873717D01*
X107726283Y-144999076D01*
X107873690Y-145097570D01*
X108037480Y-145165414D01*
X108211358Y-145200000D01*
X108388642Y-145200000D01*
X108562520Y-145165414D01*
X108726310Y-145097570D01*
X108873717Y-144999076D01*
X108999076Y-144873717D01*
X109097570Y-144726310D01*
X109165414Y-144562520D01*
X109200000Y-144388642D01*
X109200000Y-144211358D01*
X111800000Y-144211358D01*
X111800000Y-144388642D01*
X111834586Y-144562520D01*
X111902430Y-144726310D01*
X112000924Y-144873717D01*
X112126283Y-144999076D01*
X112273690Y-145097570D01*
X112437480Y-145165414D01*
X112611358Y-145200000D01*
X112788642Y-145200000D01*
X112962520Y-145165414D01*
X113126310Y-145097570D01*
X113273717Y-144999076D01*
X113399076Y-144873717D01*
X113497570Y-144726310D01*
X113565414Y-144562520D01*
X113600000Y-144388642D01*
X113600000Y-144211358D01*
X113565414Y-144037480D01*
X113497570Y-143873690D01*
X113399076Y-143726283D01*
X113273717Y-143600924D01*
X113126310Y-143502430D01*
X112962520Y-143434586D01*
X112788642Y-143400000D01*
X112611358Y-143400000D01*
X112437480Y-143434586D01*
X112273690Y-143502430D01*
X112126283Y-143600924D01*
X112000924Y-143726283D01*
X111902430Y-143873690D01*
X111834586Y-144037480D01*
X111800000Y-144211358D01*
X109200000Y-144211358D01*
X109165414Y-144037480D01*
X109097570Y-143873690D01*
X108999076Y-143726283D01*
X108873717Y-143600924D01*
X108726310Y-143502430D01*
X108562520Y-143434586D01*
X108388642Y-143400000D01*
X108211358Y-143400000D01*
X108037480Y-143434586D01*
X107873690Y-143502430D01*
X107726283Y-143600924D01*
X107600924Y-143726283D01*
X107502430Y-143873690D01*
X107434586Y-144037480D01*
X107400000Y-144211358D01*
X100475000Y-144211358D01*
X100475000Y-142808000D01*
X117585823Y-142808000D01*
X117585823Y-144332000D01*
X117594511Y-144420215D01*
X117620243Y-144505041D01*
X117662029Y-144583216D01*
X117718263Y-144651737D01*
X117786784Y-144707971D01*
X117864959Y-144749757D01*
X117949785Y-144775489D01*
X118038000Y-144784177D01*
X119562000Y-144784177D01*
X119650215Y-144775489D01*
X119735041Y-144749757D01*
X119813216Y-144707971D01*
X119881737Y-144651737D01*
X119937971Y-144583216D01*
X119979757Y-144505041D01*
X120005489Y-144420215D01*
X120014177Y-144332000D01*
X120014177Y-142808000D01*
X120005489Y-142719785D01*
X119979757Y-142634959D01*
X119937971Y-142556784D01*
X119881737Y-142488263D01*
X119813216Y-142432029D01*
X119735041Y-142390243D01*
X119650215Y-142364511D01*
X119562000Y-142355823D01*
X118038000Y-142355823D01*
X117949785Y-142364511D01*
X117864959Y-142390243D01*
X117786784Y-142432029D01*
X117718263Y-142488263D01*
X117662029Y-142556784D01*
X117620243Y-142634959D01*
X117594511Y-142719785D01*
X117585823Y-142808000D01*
X100475000Y-142808000D01*
X100475000Y-132500000D01*
X102797823Y-132500000D01*
X102797823Y-134500000D01*
X102806511Y-134588215D01*
X102832243Y-134673041D01*
X102874029Y-134751216D01*
X102930263Y-134819737D01*
X102998784Y-134875971D01*
X103076959Y-134917757D01*
X103161785Y-134943489D01*
X103250000Y-134952177D01*
X104250000Y-134952177D01*
X104338215Y-134943489D01*
X104423041Y-134917757D01*
X104500000Y-134876621D01*
X104576959Y-134917757D01*
X104661785Y-134943489D01*
X104750000Y-134952177D01*
X105750000Y-134952177D01*
X105838215Y-134943489D01*
X105923041Y-134917757D01*
X106000000Y-134876621D01*
X106076959Y-134917757D01*
X106161785Y-134943489D01*
X106250000Y-134952177D01*
X107250000Y-134952177D01*
X107338215Y-134943489D01*
X107423041Y-134917757D01*
X107500000Y-134876621D01*
X107576959Y-134917757D01*
X107661785Y-134943489D01*
X107750000Y-134952177D01*
X108750000Y-134952177D01*
X108838215Y-134943489D01*
X108923041Y-134917757D01*
X109000000Y-134876621D01*
X109076959Y-134917757D01*
X109161785Y-134943489D01*
X109250000Y-134952177D01*
X110250000Y-134952177D01*
X110338215Y-134943489D01*
X110423041Y-134917757D01*
X110500000Y-134876621D01*
X110576959Y-134917757D01*
X110661785Y-134943489D01*
X110750000Y-134952177D01*
X111750000Y-134952177D01*
X111838215Y-134943489D01*
X111923041Y-134917757D01*
X112000000Y-134876621D01*
X112076959Y-134917757D01*
X112161785Y-134943489D01*
X112250000Y-134952177D01*
X113250000Y-134952177D01*
X113338215Y-134943489D01*
X113423041Y-134917757D01*
X113500000Y-134876621D01*
X113576959Y-134917757D01*
X113661785Y-134943489D01*
X113750000Y-134952177D01*
X114750000Y-134952177D01*
X114838215Y-134943489D01*
X114923041Y-134917757D01*
X115001216Y-134875971D01*
X115069737Y-134819737D01*
X115125971Y-134751216D01*
X115150000Y-134706261D01*
X115150000Y-135106497D01*
X115006498Y-135250000D01*
X110446654Y-135250000D01*
X110399999Y-135245405D01*
X110353345Y-135250000D01*
X110353335Y-135250000D01*
X110213768Y-135263746D01*
X110034692Y-135318068D01*
X109869655Y-135406282D01*
X109869653Y-135406283D01*
X109869654Y-135406283D01*
X109761245Y-135495252D01*
X109761242Y-135495255D01*
X109724999Y-135524999D01*
X109695254Y-135561243D01*
X108061243Y-137195255D01*
X108025000Y-137224999D01*
X107995256Y-137261242D01*
X107995252Y-137261246D01*
X107906283Y-137369655D01*
X107818069Y-137534692D01*
X107763747Y-137713768D01*
X107745405Y-137900000D01*
X107750001Y-137946664D01*
X107750000Y-139846664D01*
X107763746Y-139986231D01*
X107818068Y-140165307D01*
X107906282Y-140330345D01*
X108024999Y-140475001D01*
X108169655Y-140593718D01*
X108334692Y-140681932D01*
X108513768Y-140736254D01*
X108700000Y-140754596D01*
X108886231Y-140736254D01*
X109065307Y-140681932D01*
X109230345Y-140593718D01*
X109375001Y-140475001D01*
X109493718Y-140330345D01*
X109527042Y-140268000D01*
X117585823Y-140268000D01*
X117585823Y-141792000D01*
X117594511Y-141880215D01*
X117620243Y-141965041D01*
X117662029Y-142043216D01*
X117718263Y-142111737D01*
X117786784Y-142167971D01*
X117864959Y-142209757D01*
X117949785Y-142235489D01*
X118038000Y-142244177D01*
X119562000Y-142244177D01*
X119650215Y-142235489D01*
X119735041Y-142209757D01*
X119813216Y-142167971D01*
X119881737Y-142111737D01*
X119937971Y-142043216D01*
X119979757Y-141965041D01*
X120005489Y-141880215D01*
X120014177Y-141792000D01*
X120014177Y-140268000D01*
X120005489Y-140179785D01*
X119979757Y-140094959D01*
X119937971Y-140016784D01*
X119881737Y-139948263D01*
X119813216Y-139892029D01*
X119735041Y-139850243D01*
X119650215Y-139824511D01*
X119562000Y-139815823D01*
X118038000Y-139815823D01*
X117949785Y-139824511D01*
X117864959Y-139850243D01*
X117786784Y-139892029D01*
X117718263Y-139948263D01*
X117662029Y-140016784D01*
X117620243Y-140094959D01*
X117594511Y-140179785D01*
X117585823Y-140268000D01*
X109527042Y-140268000D01*
X109581932Y-140165308D01*
X109636254Y-139986232D01*
X109650000Y-139846665D01*
X109650000Y-138293502D01*
X110793503Y-137150000D01*
X115353346Y-137150000D01*
X115400000Y-137154595D01*
X115446654Y-137150000D01*
X115446665Y-137150000D01*
X115586232Y-137136254D01*
X115765308Y-137081932D01*
X115930345Y-136993718D01*
X116075001Y-136875001D01*
X116104750Y-136838752D01*
X116738757Y-136204746D01*
X116775001Y-136175001D01*
X116893718Y-136030345D01*
X116981932Y-135865308D01*
X117036254Y-135686232D01*
X117050000Y-135546665D01*
X117050000Y-135546656D01*
X117054595Y-135500001D01*
X117050000Y-135453346D01*
X117050000Y-132953335D01*
X117036254Y-132813768D01*
X116981932Y-132634692D01*
X116893718Y-132469655D01*
X116775001Y-132324999D01*
X116630345Y-132206282D01*
X116465308Y-132118068D01*
X116286232Y-132063746D01*
X116100000Y-132045404D01*
X115913769Y-132063746D01*
X115734693Y-132118068D01*
X115569656Y-132206282D01*
X115425000Y-132324999D01*
X115306283Y-132469655D01*
X115218069Y-132634692D01*
X115202177Y-132687081D01*
X115202177Y-132500000D01*
X115193489Y-132411785D01*
X115167757Y-132326959D01*
X115125971Y-132248784D01*
X115069737Y-132180263D01*
X115001216Y-132124029D01*
X114923041Y-132082243D01*
X114838215Y-132056511D01*
X114750000Y-132047823D01*
X113750000Y-132047823D01*
X113661785Y-132056511D01*
X113576959Y-132082243D01*
X113500000Y-132123379D01*
X113423041Y-132082243D01*
X113338215Y-132056511D01*
X113250000Y-132047823D01*
X112250000Y-132047823D01*
X112161785Y-132056511D01*
X112076959Y-132082243D01*
X112000000Y-132123379D01*
X111923041Y-132082243D01*
X111838215Y-132056511D01*
X111750000Y-132047823D01*
X110750000Y-132047823D01*
X110661785Y-132056511D01*
X110576959Y-132082243D01*
X110500000Y-132123379D01*
X110423041Y-132082243D01*
X110338215Y-132056511D01*
X110250000Y-132047823D01*
X109250000Y-132047823D01*
X109161785Y-132056511D01*
X109076959Y-132082243D01*
X109000000Y-132123379D01*
X108923041Y-132082243D01*
X108838215Y-132056511D01*
X108750000Y-132047823D01*
X107750000Y-132047823D01*
X107661785Y-132056511D01*
X107576959Y-132082243D01*
X107500000Y-132123379D01*
X107423041Y-132082243D01*
X107338215Y-132056511D01*
X107250000Y-132047823D01*
X106250000Y-132047823D01*
X106161785Y-132056511D01*
X106076959Y-132082243D01*
X106000000Y-132123379D01*
X105923041Y-132082243D01*
X105838215Y-132056511D01*
X105750000Y-132047823D01*
X104750000Y-132047823D01*
X104661785Y-132056511D01*
X104576959Y-132082243D01*
X104500000Y-132123379D01*
X104423041Y-132082243D01*
X104338215Y-132056511D01*
X104250000Y-132047823D01*
X103250000Y-132047823D01*
X103161785Y-132056511D01*
X103076959Y-132082243D01*
X102998784Y-132124029D01*
X102930263Y-132180263D01*
X102874029Y-132248784D01*
X102832243Y-132326959D01*
X102806511Y-132411785D01*
X102797823Y-132500000D01*
X100475000Y-132500000D01*
X100475000Y-113000000D01*
X101047823Y-113000000D01*
X101047823Y-114000000D01*
X101056511Y-114088215D01*
X101082243Y-114173041D01*
X101123379Y-114250000D01*
X101082243Y-114326959D01*
X101056511Y-114411785D01*
X101047823Y-114500000D01*
X101047823Y-115500000D01*
X101056511Y-115588215D01*
X101082243Y-115673041D01*
X101123379Y-115750000D01*
X101082243Y-115826959D01*
X101056511Y-115911785D01*
X101047823Y-116000000D01*
X101047823Y-117000000D01*
X101056511Y-117088215D01*
X101082243Y-117173041D01*
X101123379Y-117250000D01*
X101082243Y-117326959D01*
X101056511Y-117411785D01*
X101047823Y-117500000D01*
X101047823Y-118500000D01*
X101056511Y-118588215D01*
X101082243Y-118673041D01*
X101123379Y-118750000D01*
X101082243Y-118826959D01*
X101056511Y-118911785D01*
X101047823Y-119000000D01*
X101047823Y-120000000D01*
X101056511Y-120088215D01*
X101082243Y-120173041D01*
X101123379Y-120250000D01*
X101082243Y-120326959D01*
X101056511Y-120411785D01*
X101047823Y-120500000D01*
X101047823Y-121500000D01*
X101056511Y-121588215D01*
X101082243Y-121673041D01*
X101123379Y-121750000D01*
X101082243Y-121826959D01*
X101056511Y-121911785D01*
X101047823Y-122000000D01*
X101047823Y-123000000D01*
X101056511Y-123088215D01*
X101082243Y-123173041D01*
X101123379Y-123250000D01*
X101082243Y-123326959D01*
X101056511Y-123411785D01*
X101047823Y-123500000D01*
X101047823Y-124500000D01*
X101056511Y-124588215D01*
X101082243Y-124673041D01*
X101123379Y-124750000D01*
X101082243Y-124826959D01*
X101056511Y-124911785D01*
X101047823Y-125000000D01*
X101047823Y-126000000D01*
X101056511Y-126088215D01*
X101082243Y-126173041D01*
X101123379Y-126250000D01*
X101082243Y-126326959D01*
X101056511Y-126411785D01*
X101047823Y-126500000D01*
X101047823Y-127500000D01*
X101056511Y-127588215D01*
X101082243Y-127673041D01*
X101123379Y-127750000D01*
X101082243Y-127826959D01*
X101056511Y-127911785D01*
X101047823Y-128000000D01*
X101047823Y-129000000D01*
X101056511Y-129088215D01*
X101082243Y-129173041D01*
X101123379Y-129250000D01*
X101082243Y-129326959D01*
X101056511Y-129411785D01*
X101047823Y-129500000D01*
X101047823Y-130500000D01*
X101056511Y-130588215D01*
X101082243Y-130673041D01*
X101124029Y-130751216D01*
X101180263Y-130819737D01*
X101248784Y-130875971D01*
X101326959Y-130917757D01*
X101411785Y-130943489D01*
X101500000Y-130952177D01*
X103500000Y-130952177D01*
X103588215Y-130943489D01*
X103673041Y-130917757D01*
X103751216Y-130875971D01*
X103819737Y-130819737D01*
X103875971Y-130751216D01*
X103917757Y-130673041D01*
X103943489Y-130588215D01*
X103952177Y-130500000D01*
X103952177Y-129500000D01*
X103943489Y-129411785D01*
X103917757Y-129326959D01*
X103876621Y-129250000D01*
X103917757Y-129173041D01*
X103943489Y-129088215D01*
X103952177Y-129000000D01*
X103952177Y-128000000D01*
X103943489Y-127911785D01*
X103917757Y-127826959D01*
X103876621Y-127750000D01*
X103917757Y-127673041D01*
X103943489Y-127588215D01*
X103952177Y-127500000D01*
X103952177Y-126500000D01*
X103943489Y-126411785D01*
X103917757Y-126326959D01*
X103876621Y-126250000D01*
X103917757Y-126173041D01*
X103943489Y-126088215D01*
X103952177Y-126000000D01*
X103952177Y-125000000D01*
X103943489Y-124911785D01*
X103917757Y-124826959D01*
X103876621Y-124750000D01*
X103917757Y-124673041D01*
X103943489Y-124588215D01*
X103952177Y-124500000D01*
X103952177Y-123500000D01*
X103943489Y-123411785D01*
X103917757Y-123326959D01*
X103876621Y-123250000D01*
X103917757Y-123173041D01*
X103943489Y-123088215D01*
X103952177Y-123000000D01*
X103952177Y-122000000D01*
X103943489Y-121911785D01*
X103917757Y-121826959D01*
X103876621Y-121750000D01*
X103917757Y-121673041D01*
X103943489Y-121588215D01*
X103952177Y-121500000D01*
X103952177Y-120500000D01*
X103943489Y-120411785D01*
X103917757Y-120326959D01*
X103876621Y-120250000D01*
X103917757Y-120173041D01*
X103943489Y-120088215D01*
X103952177Y-120000000D01*
X103952177Y-119316266D01*
X108850000Y-119316266D01*
X108850000Y-119483702D01*
X108882665Y-119647920D01*
X108946740Y-119802610D01*
X109039762Y-119941828D01*
X109158156Y-120060222D01*
X109297374Y-120153244D01*
X109452064Y-120217319D01*
X109616282Y-120249984D01*
X109701473Y-120249984D01*
X110100001Y-120648513D01*
X110100000Y-128297918D01*
X110039762Y-128358156D01*
X109946740Y-128497374D01*
X109882665Y-128652064D01*
X109850000Y-128816282D01*
X109850000Y-128983718D01*
X109882665Y-129147936D01*
X109946740Y-129302626D01*
X110039762Y-129441844D01*
X110158156Y-129560238D01*
X110297374Y-129653260D01*
X110452064Y-129717335D01*
X110616282Y-129750000D01*
X110783718Y-129750000D01*
X110947936Y-129717335D01*
X111102626Y-129653260D01*
X111241844Y-129560238D01*
X111360238Y-129441844D01*
X111453260Y-129302626D01*
X111517335Y-129147936D01*
X111550000Y-128983718D01*
X111550000Y-128816282D01*
X111517335Y-128652064D01*
X111453260Y-128497374D01*
X111360238Y-128358156D01*
X111300000Y-128297918D01*
X111300000Y-120429460D01*
X111302903Y-120399984D01*
X111291319Y-120282363D01*
X111257010Y-120169263D01*
X111232832Y-120124029D01*
X111201296Y-120065029D01*
X111126317Y-119973667D01*
X111103419Y-119954875D01*
X110550000Y-119401457D01*
X110550000Y-119316266D01*
X110517335Y-119152048D01*
X110453260Y-118997358D01*
X110360238Y-118858140D01*
X110241844Y-118739746D01*
X110102626Y-118646724D01*
X109947936Y-118582649D01*
X109783718Y-118549984D01*
X109616282Y-118549984D01*
X109452064Y-118582649D01*
X109297374Y-118646724D01*
X109158156Y-118739746D01*
X109039762Y-118858140D01*
X108946740Y-118997358D01*
X108882665Y-119152048D01*
X108850000Y-119316266D01*
X103952177Y-119316266D01*
X103952177Y-119000000D01*
X103947180Y-118949262D01*
X103958156Y-118960238D01*
X104097374Y-119053260D01*
X104252064Y-119117335D01*
X104416282Y-119150000D01*
X104583718Y-119150000D01*
X104747936Y-119117335D01*
X104902626Y-119053260D01*
X105041844Y-118960238D01*
X105160238Y-118841844D01*
X105253260Y-118702626D01*
X105317335Y-118547936D01*
X105350000Y-118383718D01*
X105350000Y-118216282D01*
X105317335Y-118052064D01*
X105253260Y-117897374D01*
X105160238Y-117758156D01*
X105041844Y-117639762D01*
X104902626Y-117546740D01*
X104747936Y-117482665D01*
X104583718Y-117450000D01*
X104443836Y-117450000D01*
X104430721Y-117442990D01*
X104317621Y-117408682D01*
X104229474Y-117400000D01*
X104200000Y-117397097D01*
X104170526Y-117400000D01*
X103939914Y-117400000D01*
X103917757Y-117326959D01*
X103876621Y-117250000D01*
X103917757Y-117173041D01*
X103940236Y-117098940D01*
X104017621Y-117091318D01*
X104130721Y-117057010D01*
X104234955Y-117001296D01*
X104326317Y-116926317D01*
X104345113Y-116903414D01*
X104498527Y-116750000D01*
X104583718Y-116750000D01*
X104747936Y-116717335D01*
X104902626Y-116653260D01*
X105041844Y-116560238D01*
X105160238Y-116441844D01*
X105253260Y-116302626D01*
X105317335Y-116147936D01*
X105350000Y-115983718D01*
X105350000Y-115816282D01*
X105317335Y-115652064D01*
X105253260Y-115497374D01*
X105160238Y-115358156D01*
X105041844Y-115239762D01*
X104902626Y-115146740D01*
X104747936Y-115082665D01*
X104583718Y-115050000D01*
X104416282Y-115050000D01*
X104252064Y-115082665D01*
X104097374Y-115146740D01*
X103958156Y-115239762D01*
X103952177Y-115245741D01*
X103952177Y-114500000D01*
X103943489Y-114411785D01*
X103917757Y-114326959D01*
X103901394Y-114296347D01*
X103952064Y-114317335D01*
X104116282Y-114350000D01*
X104283718Y-114350000D01*
X104447936Y-114317335D01*
X104602626Y-114253260D01*
X104741844Y-114160238D01*
X104860238Y-114041844D01*
X104953260Y-113902626D01*
X105017335Y-113747936D01*
X105050000Y-113583718D01*
X105050000Y-113498527D01*
X105348528Y-113200000D01*
X107498257Y-113200000D01*
X107463746Y-113313768D01*
X107445404Y-113500000D01*
X107463746Y-113686232D01*
X107518068Y-113865308D01*
X107606282Y-114030345D01*
X107724999Y-114175001D01*
X107869655Y-114293718D01*
X108034692Y-114381932D01*
X108213768Y-114436254D01*
X108353335Y-114450000D01*
X110506498Y-114450000D01*
X111650000Y-115593503D01*
X111650001Y-126453325D01*
X111650000Y-126453335D01*
X111650000Y-127112349D01*
X111650001Y-127112359D01*
X111650000Y-129053345D01*
X111645405Y-129100000D01*
X111650000Y-129146654D01*
X111650000Y-129146664D01*
X111663746Y-129286231D01*
X111718068Y-129465307D01*
X111806282Y-129630345D01*
X111924999Y-129775001D01*
X111961248Y-129804750D01*
X112795254Y-130638757D01*
X112824999Y-130675001D01*
X112861242Y-130704745D01*
X112861245Y-130704748D01*
X112938951Y-130768520D01*
X112969655Y-130793718D01*
X113134692Y-130881932D01*
X113313768Y-130936254D01*
X113453335Y-130950000D01*
X113453345Y-130950000D01*
X113499999Y-130954595D01*
X113546654Y-130950000D01*
X114477895Y-130950000D01*
X114500000Y-130952177D01*
X116500000Y-130952177D01*
X116588215Y-130943489D01*
X116673041Y-130917757D01*
X116751216Y-130875971D01*
X116819737Y-130819737D01*
X116875971Y-130751216D01*
X116917757Y-130673041D01*
X116943489Y-130588215D01*
X116952177Y-130500000D01*
X116952177Y-129500000D01*
X116943489Y-129411785D01*
X116917757Y-129326959D01*
X116876621Y-129250000D01*
X116917757Y-129173041D01*
X116943489Y-129088215D01*
X116952177Y-129000000D01*
X116952177Y-128000000D01*
X116943489Y-127911785D01*
X116917757Y-127826959D01*
X116876621Y-127750000D01*
X116917757Y-127673041D01*
X116943489Y-127588215D01*
X116952177Y-127500000D01*
X116952177Y-126500000D01*
X116943489Y-126411785D01*
X116917757Y-126326959D01*
X116876621Y-126250000D01*
X116917757Y-126173041D01*
X116943489Y-126088215D01*
X116952177Y-126000000D01*
X116952177Y-125000000D01*
X116943489Y-124911785D01*
X116917757Y-124826959D01*
X116876621Y-124750000D01*
X116917757Y-124673041D01*
X116943489Y-124588215D01*
X116952177Y-124500000D01*
X116952177Y-123500000D01*
X116943489Y-123411785D01*
X116917757Y-123326959D01*
X116876621Y-123250000D01*
X116917757Y-123173041D01*
X116943489Y-123088215D01*
X116952177Y-123000000D01*
X116952177Y-122000000D01*
X116943489Y-121911785D01*
X116917757Y-121826959D01*
X116876621Y-121750000D01*
X116917757Y-121673041D01*
X116943489Y-121588215D01*
X116952177Y-121500000D01*
X116952177Y-120500000D01*
X116943489Y-120411785D01*
X116917757Y-120326959D01*
X116876621Y-120250000D01*
X116917757Y-120173041D01*
X116943489Y-120088215D01*
X116952177Y-120000000D01*
X116952177Y-119000000D01*
X116943489Y-118911785D01*
X116917757Y-118826959D01*
X116876621Y-118750000D01*
X116917757Y-118673041D01*
X116943489Y-118588215D01*
X116952177Y-118500000D01*
X116952177Y-117500000D01*
X116943489Y-117411785D01*
X116917757Y-117326959D01*
X116876621Y-117250000D01*
X116917757Y-117173041D01*
X116943489Y-117088215D01*
X116952177Y-117000000D01*
X116952177Y-116000000D01*
X116943489Y-115911785D01*
X116917757Y-115826959D01*
X116876621Y-115750000D01*
X116917757Y-115673041D01*
X116939914Y-115600000D01*
X118951473Y-115600000D01*
X120654916Y-117303444D01*
X120673708Y-117326342D01*
X120765070Y-117401321D01*
X120869304Y-117457035D01*
X120982404Y-117491343D01*
X121100024Y-117502928D01*
X121129498Y-117500025D01*
X127716868Y-117500025D01*
X127746342Y-117502928D01*
X127775816Y-117500025D01*
X127863963Y-117491343D01*
X127977063Y-117457035D01*
X128081297Y-117401321D01*
X128172659Y-117326342D01*
X128191455Y-117303439D01*
X128353404Y-117141490D01*
X128376307Y-117122694D01*
X128451286Y-117031332D01*
X128507000Y-116927098D01*
X128541308Y-116813998D01*
X128549234Y-116733530D01*
X128610228Y-116672536D01*
X128703250Y-116533318D01*
X128720421Y-116491863D01*
X128832510Y-116502903D01*
X128861984Y-116500000D01*
X128897918Y-116500000D01*
X128958156Y-116560238D01*
X129097374Y-116653260D01*
X129252064Y-116717335D01*
X129416282Y-116750000D01*
X129583718Y-116750000D01*
X129747936Y-116717335D01*
X129902626Y-116653260D01*
X130041844Y-116560238D01*
X130050000Y-116552082D01*
X130058156Y-116560238D01*
X130197374Y-116653260D01*
X130352064Y-116717335D01*
X130516282Y-116750000D01*
X130683718Y-116750000D01*
X130847936Y-116717335D01*
X131002626Y-116653260D01*
X131141844Y-116560238D01*
X131260238Y-116441844D01*
X131353260Y-116302626D01*
X131417335Y-116147936D01*
X131450000Y-115983718D01*
X131450000Y-115898528D01*
X131453421Y-115895107D01*
X131466996Y-115883967D01*
X131572331Y-115989302D01*
X131711549Y-116082324D01*
X131866239Y-116146399D01*
X132030457Y-116179064D01*
X132197893Y-116179064D01*
X132362111Y-116146399D01*
X132516801Y-116082324D01*
X132596511Y-116029064D01*
X140449115Y-116029064D01*
X140665874Y-116245823D01*
X139568000Y-116245823D01*
X139479785Y-116254511D01*
X139394959Y-116280243D01*
X139316784Y-116322029D01*
X139248263Y-116378263D01*
X139192029Y-116446784D01*
X139150243Y-116524959D01*
X139124511Y-116609785D01*
X139115823Y-116698000D01*
X139115823Y-116879164D01*
X139037279Y-116902990D01*
X138933045Y-116958704D01*
X138841683Y-117033683D01*
X138822891Y-117056581D01*
X138279473Y-117600000D01*
X134229476Y-117600000D01*
X134200000Y-117597097D01*
X134082379Y-117608681D01*
X133979920Y-117639762D01*
X133969279Y-117642990D01*
X133865045Y-117698704D01*
X133773683Y-117773683D01*
X133754894Y-117796578D01*
X132651473Y-118900000D01*
X132502082Y-118900000D01*
X132441844Y-118839762D01*
X132302626Y-118746740D01*
X132147936Y-118682665D01*
X131983718Y-118650000D01*
X131816282Y-118650000D01*
X131652064Y-118682665D01*
X131497374Y-118746740D01*
X131358156Y-118839762D01*
X131239762Y-118958156D01*
X131146740Y-119097374D01*
X131082665Y-119252064D01*
X131050000Y-119416282D01*
X131050000Y-119583718D01*
X131063184Y-119650000D01*
X131016282Y-119650000D01*
X130852064Y-119682665D01*
X130697374Y-119746740D01*
X130558156Y-119839762D01*
X130439762Y-119958156D01*
X130346740Y-120097374D01*
X130282665Y-120252064D01*
X130250000Y-120416282D01*
X130250000Y-120583718D01*
X130282665Y-120747936D01*
X130346740Y-120902626D01*
X130439762Y-121041844D01*
X130558156Y-121160238D01*
X130697374Y-121253260D01*
X130852064Y-121317335D01*
X131016282Y-121350000D01*
X131183718Y-121350000D01*
X131347936Y-121317335D01*
X131502626Y-121253260D01*
X131641844Y-121160238D01*
X131702082Y-121100000D01*
X132304230Y-121100000D01*
X132282665Y-121152062D01*
X132250000Y-121316280D01*
X132250000Y-121401470D01*
X131196578Y-122454893D01*
X131173675Y-122473689D01*
X131098696Y-122565052D01*
X131042982Y-122669286D01*
X131021604Y-122739762D01*
X131008674Y-122782386D01*
X131007926Y-122789984D01*
X130939754Y-122858156D01*
X130846732Y-122997374D01*
X130782657Y-123152064D01*
X130749992Y-123316282D01*
X130749992Y-123483718D01*
X130782657Y-123647936D01*
X130846732Y-123802626D01*
X130939754Y-123941844D01*
X131058148Y-124060238D01*
X131197366Y-124153260D01*
X131352056Y-124217335D01*
X131516274Y-124250000D01*
X131683710Y-124250000D01*
X131847928Y-124217335D01*
X132002618Y-124153260D01*
X132141836Y-124060238D01*
X132260230Y-123941844D01*
X132353252Y-123802626D01*
X132417327Y-123647936D01*
X132449992Y-123483718D01*
X132449992Y-123316282D01*
X132417327Y-123152064D01*
X132353252Y-122997374D01*
X132352411Y-122996115D01*
X133098528Y-122249998D01*
X133183718Y-122249998D01*
X133347936Y-122217333D01*
X133502626Y-122153258D01*
X133641844Y-122060236D01*
X133760238Y-121941842D01*
X133853260Y-121802624D01*
X133863459Y-121778000D01*
X139115823Y-121778000D01*
X139115823Y-123302000D01*
X139124511Y-123390215D01*
X139150243Y-123475041D01*
X139192029Y-123553216D01*
X139248263Y-123621737D01*
X139316784Y-123677971D01*
X139394959Y-123719757D01*
X139479785Y-123745489D01*
X139568000Y-123754177D01*
X141092000Y-123754177D01*
X141180215Y-123745489D01*
X141265041Y-123719757D01*
X141343216Y-123677971D01*
X141411737Y-123621737D01*
X141467971Y-123553216D01*
X141509757Y-123475041D01*
X141535489Y-123390215D01*
X141544177Y-123302000D01*
X141544177Y-121778000D01*
X141535489Y-121689785D01*
X141509757Y-121604959D01*
X141467971Y-121526784D01*
X141411737Y-121458263D01*
X141343216Y-121402029D01*
X141265041Y-121360243D01*
X141180215Y-121334511D01*
X141092000Y-121325823D01*
X139568000Y-121325823D01*
X139479785Y-121334511D01*
X139394959Y-121360243D01*
X139316784Y-121402029D01*
X139248263Y-121458263D01*
X139192029Y-121526784D01*
X139150243Y-121604959D01*
X139124511Y-121689785D01*
X139115823Y-121778000D01*
X133863459Y-121778000D01*
X133917335Y-121647934D01*
X133950000Y-121483716D01*
X133950000Y-121398525D01*
X134748526Y-120600000D01*
X139115823Y-120600000D01*
X139115823Y-120762000D01*
X139124511Y-120850215D01*
X139150243Y-120935041D01*
X139192029Y-121013216D01*
X139248263Y-121081737D01*
X139316784Y-121137971D01*
X139394959Y-121179757D01*
X139479785Y-121205489D01*
X139568000Y-121214177D01*
X141092000Y-121214177D01*
X141180215Y-121205489D01*
X141265041Y-121179757D01*
X141343216Y-121137971D01*
X141411737Y-121081737D01*
X141467971Y-121013216D01*
X141509757Y-120935041D01*
X141535489Y-120850215D01*
X141544177Y-120762000D01*
X141544177Y-119487999D01*
X141639472Y-119487999D01*
X141655823Y-119504350D01*
X141655823Y-120762000D01*
X141664511Y-120850215D01*
X141690243Y-120935041D01*
X141732029Y-121013216D01*
X141788263Y-121081737D01*
X141856784Y-121137971D01*
X141934959Y-121179757D01*
X142019785Y-121205489D01*
X142108000Y-121214177D01*
X143632000Y-121214177D01*
X143720215Y-121205489D01*
X143805041Y-121179757D01*
X143883216Y-121137971D01*
X143951737Y-121081737D01*
X144007971Y-121013216D01*
X144049757Y-120935041D01*
X144075489Y-120850215D01*
X144084177Y-120762000D01*
X144084177Y-119238000D01*
X144075489Y-119149785D01*
X144049757Y-119064959D01*
X144007971Y-118986784D01*
X143951737Y-118918263D01*
X143883216Y-118862029D01*
X143805041Y-118820243D01*
X143720215Y-118794511D01*
X143632000Y-118785823D01*
X142634350Y-118785823D01*
X142522704Y-118674177D01*
X143632000Y-118674177D01*
X143720215Y-118665489D01*
X143805041Y-118639757D01*
X143883216Y-118597971D01*
X143951737Y-118541737D01*
X144007971Y-118473216D01*
X144049757Y-118395041D01*
X144075489Y-118310215D01*
X144084177Y-118222000D01*
X144084177Y-116698000D01*
X144075489Y-116609785D01*
X144049757Y-116524959D01*
X144007971Y-116446784D01*
X143951737Y-116378263D01*
X143883216Y-116322029D01*
X143805041Y-116280243D01*
X143720215Y-116254511D01*
X143632000Y-116245823D01*
X142645773Y-116245823D01*
X141258360Y-114858411D01*
X141236434Y-114831694D01*
X141129845Y-114744219D01*
X141008239Y-114679219D01*
X140876288Y-114639192D01*
X140773454Y-114629064D01*
X140773451Y-114629064D01*
X140739064Y-114625677D01*
X140704677Y-114629064D01*
X132596511Y-114629064D01*
X132516801Y-114575804D01*
X132362111Y-114511729D01*
X132197893Y-114479064D01*
X132030457Y-114479064D01*
X131866239Y-114511729D01*
X131711549Y-114575804D01*
X131650001Y-114616929D01*
X131650001Y-113079474D01*
X131652904Y-113050000D01*
X131641319Y-112932380D01*
X131630616Y-112897097D01*
X131607011Y-112819280D01*
X131551297Y-112715046D01*
X131476318Y-112623684D01*
X131453420Y-112604892D01*
X130748527Y-111900000D01*
X131297918Y-111900000D01*
X131358156Y-111960238D01*
X131497374Y-112053260D01*
X131652064Y-112117335D01*
X131816282Y-112150000D01*
X131983718Y-112150000D01*
X132147936Y-112117335D01*
X132302626Y-112053260D01*
X132441844Y-111960238D01*
X132560238Y-111841844D01*
X132653260Y-111702626D01*
X132717335Y-111547936D01*
X132750000Y-111383718D01*
X132750000Y-111216282D01*
X132722282Y-111076932D01*
X141685823Y-111076932D01*
X141685823Y-112532000D01*
X141694511Y-112620215D01*
X141720243Y-112705041D01*
X141762029Y-112783216D01*
X141818263Y-112851737D01*
X141886784Y-112907971D01*
X141964959Y-112949757D01*
X142049785Y-112975489D01*
X142138000Y-112984177D01*
X143662000Y-112984177D01*
X143750215Y-112975489D01*
X143835041Y-112949757D01*
X143913216Y-112907971D01*
X143981737Y-112851737D01*
X144037971Y-112783216D01*
X144079757Y-112705041D01*
X144105489Y-112620215D01*
X144114177Y-112532000D01*
X144114177Y-111076932D01*
X144528415Y-111076932D01*
X144750010Y-111298528D01*
X144750010Y-111383718D01*
X144782675Y-111547936D01*
X144846750Y-111702626D01*
X144939772Y-111841844D01*
X145058166Y-111960238D01*
X145197384Y-112053260D01*
X145352074Y-112117335D01*
X145516292Y-112150000D01*
X145683728Y-112150000D01*
X145847946Y-112117335D01*
X146002636Y-112053260D01*
X146141854Y-111960238D01*
X146260248Y-111841844D01*
X146353270Y-111702626D01*
X146417345Y-111547936D01*
X146450010Y-111383718D01*
X146450010Y-111216282D01*
X146417345Y-111052064D01*
X146353270Y-110897374D01*
X146260248Y-110758156D01*
X146141854Y-110639762D01*
X146002636Y-110546740D01*
X145847946Y-110482665D01*
X145683728Y-110450000D01*
X145598538Y-110450000D01*
X145222055Y-110073518D01*
X145203259Y-110050615D01*
X145111897Y-109975636D01*
X145007663Y-109919922D01*
X144894563Y-109885614D01*
X144806416Y-109876932D01*
X144776942Y-109874029D01*
X144747468Y-109876932D01*
X144114177Y-109876932D01*
X144114177Y-108468000D01*
X144105489Y-108379785D01*
X144079757Y-108294959D01*
X144037971Y-108216784D01*
X143981737Y-108148263D01*
X143913216Y-108092029D01*
X143835041Y-108050243D01*
X143750215Y-108024511D01*
X143662000Y-108015823D01*
X142138000Y-108015823D01*
X142049785Y-108024511D01*
X141964959Y-108050243D01*
X141886784Y-108092029D01*
X141818263Y-108148263D01*
X141762029Y-108216784D01*
X141720243Y-108294959D01*
X141694511Y-108379785D01*
X141685823Y-108468000D01*
X141685823Y-109876932D01*
X130008455Y-109876932D01*
X129948217Y-109816694D01*
X129808999Y-109723672D01*
X129654309Y-109659597D01*
X129490091Y-109626932D01*
X129322655Y-109626932D01*
X129158437Y-109659597D01*
X129003747Y-109723672D01*
X129002108Y-109724767D01*
X128992566Y-109627891D01*
X128958258Y-109514791D01*
X128902544Y-109410557D01*
X128827565Y-109319195D01*
X128804667Y-109300403D01*
X128500000Y-108995737D01*
X128500000Y-108026870D01*
X128616282Y-108050000D01*
X128701473Y-108050000D01*
X129849004Y-109197532D01*
X129867796Y-109220430D01*
X129959158Y-109295409D01*
X130063392Y-109351123D01*
X130142183Y-109375024D01*
X130176491Y-109385431D01*
X130294112Y-109397016D01*
X130323586Y-109394113D01*
X138594128Y-109394113D01*
X138654366Y-109454351D01*
X138793584Y-109547373D01*
X138948274Y-109611448D01*
X139112492Y-109644113D01*
X139279928Y-109644113D01*
X139444146Y-109611448D01*
X139598836Y-109547373D01*
X139738054Y-109454351D01*
X139856448Y-109335957D01*
X139949470Y-109196739D01*
X140013545Y-109042049D01*
X140046210Y-108877831D01*
X140046210Y-108710395D01*
X140013545Y-108546177D01*
X139949470Y-108391487D01*
X139856448Y-108252269D01*
X139738054Y-108133875D01*
X139598836Y-108040853D01*
X139444146Y-107976778D01*
X139279928Y-107944113D01*
X139112492Y-107944113D01*
X138948274Y-107976778D01*
X138793584Y-108040853D01*
X138654366Y-108133875D01*
X138594128Y-108194113D01*
X130542641Y-108194113D01*
X129550000Y-107201473D01*
X129550000Y-107116282D01*
X129517335Y-106952064D01*
X129453260Y-106797374D01*
X129360238Y-106658156D01*
X129241844Y-106539762D01*
X129102626Y-106446740D01*
X128947936Y-106382665D01*
X128783718Y-106350000D01*
X128616282Y-106350000D01*
X128500000Y-106373130D01*
X128500000Y-105928000D01*
X141685823Y-105928000D01*
X141685823Y-107452000D01*
X141694511Y-107540215D01*
X141720243Y-107625041D01*
X141762029Y-107703216D01*
X141818263Y-107771737D01*
X141886784Y-107827971D01*
X141964959Y-107869757D01*
X142049785Y-107895489D01*
X142138000Y-107904177D01*
X143662000Y-107904177D01*
X143750215Y-107895489D01*
X143835041Y-107869757D01*
X143913216Y-107827971D01*
X143981737Y-107771737D01*
X144037971Y-107703216D01*
X144079757Y-107625041D01*
X144105489Y-107540215D01*
X144114177Y-107452000D01*
X144114177Y-105928000D01*
X144105489Y-105839785D01*
X144079757Y-105754959D01*
X144037971Y-105676784D01*
X143981737Y-105608263D01*
X143913216Y-105552029D01*
X143835041Y-105510243D01*
X143750215Y-105484511D01*
X143662000Y-105475823D01*
X142138000Y-105475823D01*
X142049785Y-105484511D01*
X141964959Y-105510243D01*
X141886784Y-105552029D01*
X141818263Y-105608263D01*
X141762029Y-105676784D01*
X141720243Y-105754959D01*
X141694511Y-105839785D01*
X141685823Y-105928000D01*
X128500000Y-105928000D01*
X128500000Y-104548523D01*
X132698528Y-100349996D01*
X132783718Y-100349996D01*
X132947936Y-100317331D01*
X133102626Y-100253256D01*
X133241844Y-100160234D01*
X133360238Y-100041840D01*
X133453260Y-99902622D01*
X133517335Y-99747932D01*
X133550000Y-99583714D01*
X133550000Y-99416278D01*
X133517335Y-99252060D01*
X133453260Y-99097370D01*
X133360238Y-98958152D01*
X133241844Y-98839758D01*
X133102626Y-98746736D01*
X132947936Y-98682661D01*
X132783718Y-98649996D01*
X132616282Y-98649996D01*
X132452064Y-98682661D01*
X132297374Y-98746736D01*
X132259707Y-98771904D01*
X132246415Y-98752012D01*
X132128021Y-98633618D01*
X131988803Y-98540596D01*
X131834113Y-98476521D01*
X131669895Y-98443856D01*
X131502459Y-98443856D01*
X131338241Y-98476521D01*
X131183551Y-98540596D01*
X131044333Y-98633618D01*
X130925939Y-98752012D01*
X130832917Y-98891230D01*
X130768842Y-99045920D01*
X130736177Y-99210138D01*
X130736177Y-99295328D01*
X126597820Y-103433686D01*
X126574922Y-103452478D01*
X126499943Y-103543840D01*
X126444229Y-103648074D01*
X126409920Y-103761175D01*
X126398335Y-103878795D01*
X126401239Y-103908279D01*
X126401238Y-110019963D01*
X126398940Y-110043290D01*
X123800001Y-107444352D01*
X123800001Y-86326870D01*
X123847936Y-86317335D01*
X124002626Y-86253260D01*
X124141844Y-86160238D01*
X124260238Y-86041844D01*
X124353260Y-85902626D01*
X124417335Y-85747936D01*
X124450000Y-85583718D01*
X124450000Y-85416282D01*
X124417335Y-85252064D01*
X124353260Y-85097374D01*
X124260238Y-84958156D01*
X124141844Y-84839762D01*
X124002626Y-84746740D01*
X123847936Y-84682665D01*
X123683718Y-84650000D01*
X123516282Y-84650000D01*
X123352064Y-84682665D01*
X123200000Y-84745652D01*
X123200000Y-71929476D01*
X123202903Y-71900000D01*
X123191319Y-71782379D01*
X123157010Y-71669279D01*
X123101296Y-71565045D01*
X123026317Y-71473683D01*
X123003419Y-71454891D01*
X116250000Y-64701473D01*
X116250000Y-64616282D01*
X116217335Y-64452064D01*
X116153260Y-64297374D01*
X116060238Y-64158156D01*
X115941844Y-64039762D01*
X115802626Y-63946740D01*
X115647936Y-63882665D01*
X115483718Y-63850000D01*
X115316282Y-63850000D01*
X115152064Y-63882665D01*
X114997374Y-63946740D01*
X114858156Y-64039762D01*
X114739762Y-64158156D01*
X114646740Y-64297374D01*
X114582665Y-64452064D01*
X114550000Y-64616282D01*
X114550000Y-64783718D01*
X114582665Y-64947936D01*
X114646740Y-65102626D01*
X114739762Y-65241844D01*
X114858156Y-65360238D01*
X114997374Y-65453260D01*
X115152064Y-65517335D01*
X115316282Y-65550000D01*
X115401473Y-65550000D01*
X122000001Y-72148529D01*
X122000001Y-74626084D01*
X121933708Y-74612898D01*
X121766272Y-74612898D01*
X121602054Y-74645563D01*
X121447364Y-74709638D01*
X121308146Y-74802660D01*
X121189752Y-74921054D01*
X121096730Y-75060272D01*
X121032655Y-75214962D01*
X120999990Y-75379180D01*
X120999990Y-75546616D01*
X121032655Y-75710834D01*
X121096730Y-75865524D01*
X121189752Y-76004742D01*
X121249990Y-76064980D01*
X121249991Y-107827628D01*
X121247087Y-107857112D01*
X121255808Y-107945653D01*
X114945000Y-101634846D01*
X114945000Y-85514177D01*
X115132000Y-85514177D01*
X115220215Y-85505489D01*
X115305041Y-85479757D01*
X115383216Y-85437971D01*
X115451737Y-85381737D01*
X115507971Y-85313216D01*
X115549757Y-85235041D01*
X115575489Y-85150215D01*
X115584177Y-85062000D01*
X115584177Y-83538000D01*
X115695823Y-83538000D01*
X115695823Y-85062000D01*
X115704511Y-85150215D01*
X115730243Y-85235041D01*
X115772029Y-85313216D01*
X115828263Y-85381737D01*
X115896784Y-85437971D01*
X115974959Y-85479757D01*
X116059785Y-85505489D01*
X116148000Y-85514177D01*
X117672000Y-85514177D01*
X117760215Y-85505489D01*
X117845041Y-85479757D01*
X117923216Y-85437971D01*
X117991737Y-85381737D01*
X118047971Y-85313216D01*
X118089757Y-85235041D01*
X118115489Y-85150215D01*
X118124177Y-85062000D01*
X118124177Y-83538000D01*
X118115489Y-83449785D01*
X118089757Y-83364959D01*
X118047971Y-83286784D01*
X117991737Y-83218263D01*
X117923216Y-83162029D01*
X117845041Y-83120243D01*
X117760215Y-83094511D01*
X117672000Y-83085823D01*
X116148000Y-83085823D01*
X116059785Y-83094511D01*
X115974959Y-83120243D01*
X115896784Y-83162029D01*
X115828263Y-83218263D01*
X115772029Y-83286784D01*
X115730243Y-83364959D01*
X115704511Y-83449785D01*
X115695823Y-83538000D01*
X115584177Y-83538000D01*
X115575489Y-83449785D01*
X115549757Y-83364959D01*
X115507971Y-83286784D01*
X115451737Y-83218263D01*
X115383216Y-83162029D01*
X115305041Y-83120243D01*
X115220215Y-83094511D01*
X115132000Y-83085823D01*
X113608000Y-83085823D01*
X113519785Y-83094511D01*
X113434959Y-83120243D01*
X113356784Y-83162029D01*
X113288263Y-83218263D01*
X113232029Y-83286784D01*
X113190243Y-83364959D01*
X113164511Y-83449785D01*
X113155823Y-83538000D01*
X113155823Y-84812651D01*
X113044177Y-84701005D01*
X113044177Y-83538000D01*
X113035489Y-83449785D01*
X113009757Y-83364959D01*
X112967971Y-83286784D01*
X112911737Y-83218263D01*
X112843216Y-83162029D01*
X112765041Y-83120243D01*
X112680215Y-83094511D01*
X112592000Y-83085823D01*
X111068000Y-83085823D01*
X110979785Y-83094511D01*
X110894959Y-83120243D01*
X110816784Y-83162029D01*
X110748263Y-83218263D01*
X110692029Y-83286784D01*
X110650243Y-83364959D01*
X110624511Y-83449785D01*
X110615823Y-83538000D01*
X110615823Y-85062000D01*
X110624511Y-85150215D01*
X110650243Y-85235041D01*
X110692029Y-85313216D01*
X110748263Y-85381737D01*
X110816784Y-85437971D01*
X110894959Y-85479757D01*
X110979785Y-85505489D01*
X111068000Y-85514177D01*
X112231005Y-85514177D01*
X113125000Y-86408173D01*
X113125001Y-102771781D01*
X113122218Y-102800034D01*
X113133321Y-102912753D01*
X113166199Y-103021141D01*
X113219592Y-103121032D01*
X113265441Y-103176899D01*
X113291447Y-103208588D01*
X113313389Y-103226595D01*
X120312106Y-110225312D01*
X120312106Y-110345858D01*
X120344771Y-110510076D01*
X120408846Y-110664766D01*
X120501868Y-110803984D01*
X120620262Y-110922378D01*
X120759480Y-111015400D01*
X120914170Y-111079475D01*
X121078388Y-111112140D01*
X121245824Y-111112140D01*
X121410042Y-111079475D01*
X121564732Y-111015400D01*
X121703950Y-110922378D01*
X121822344Y-110803984D01*
X121915366Y-110664766D01*
X121979441Y-110510076D01*
X122012106Y-110345858D01*
X122012106Y-110178422D01*
X121979441Y-110014204D01*
X121915366Y-109859514D01*
X121822344Y-109720296D01*
X121716638Y-109614590D01*
X121747963Y-109601615D01*
X121887181Y-109508593D01*
X122005575Y-109390199D01*
X122098597Y-109250981D01*
X122162672Y-109096291D01*
X122175608Y-109031257D01*
X124900000Y-111755650D01*
X124900001Y-113770517D01*
X124897097Y-113800000D01*
X124908682Y-113917620D01*
X124933672Y-114000000D01*
X124942991Y-114030721D01*
X124998705Y-114134955D01*
X125073684Y-114226317D01*
X125096581Y-114245108D01*
X125101484Y-114250011D01*
X122398539Y-114250011D01*
X119345113Y-111196586D01*
X119326317Y-111173683D01*
X119234955Y-111098704D01*
X119130721Y-111042990D01*
X119017621Y-111008682D01*
X118929474Y-111000000D01*
X118900000Y-110997097D01*
X118870526Y-111000000D01*
X117802082Y-111000000D01*
X117741844Y-110939762D01*
X117602626Y-110846740D01*
X117447936Y-110782665D01*
X117283718Y-110750000D01*
X117116282Y-110750000D01*
X116952064Y-110782665D01*
X116797374Y-110846740D01*
X116658156Y-110939762D01*
X116539762Y-111058156D01*
X116446740Y-111197374D01*
X116382665Y-111352064D01*
X116350000Y-111516282D01*
X116350000Y-111683718D01*
X116382665Y-111847936D01*
X116445652Y-112000000D01*
X115650000Y-112000000D01*
X115650000Y-106000000D01*
X115647118Y-105970736D01*
X115638582Y-105942597D01*
X115624720Y-105916664D01*
X115606066Y-105893934D01*
X115583336Y-105875280D01*
X115557403Y-105861418D01*
X115529264Y-105852882D01*
X115500000Y-105850000D01*
X102500000Y-105850000D01*
X102470736Y-105852882D01*
X102442597Y-105861418D01*
X102416664Y-105875280D01*
X102393934Y-105893934D01*
X102375280Y-105916664D01*
X102361418Y-105942597D01*
X102352882Y-105970736D01*
X102350000Y-106000000D01*
X102350000Y-112547823D01*
X101500000Y-112547823D01*
X101411785Y-112556511D01*
X101326959Y-112582243D01*
X101248784Y-112624029D01*
X101180263Y-112680263D01*
X101124029Y-112748784D01*
X101082243Y-112826959D01*
X101056511Y-112911785D01*
X101047823Y-113000000D01*
X100475000Y-113000000D01*
X100475000Y-54342414D01*
X123400000Y-54342414D01*
X123400000Y-54657586D01*
X123461487Y-54966703D01*
X123582098Y-55257884D01*
X123757199Y-55519941D01*
X123980059Y-55742801D01*
X124242116Y-55917902D01*
X124533297Y-56038513D01*
X124842414Y-56100000D01*
X125157586Y-56100000D01*
X125466703Y-56038513D01*
X125757884Y-55917902D01*
X126019941Y-55742801D01*
X126242801Y-55519941D01*
X126417902Y-55257884D01*
X126538513Y-54966703D01*
X126600000Y-54657586D01*
X126600000Y-54342414D01*
X126538513Y-54033297D01*
X126417902Y-53742116D01*
X126242801Y-53480059D01*
X126019941Y-53257199D01*
X125757884Y-53082098D01*
X125466703Y-52961487D01*
X125157586Y-52900000D01*
X124842414Y-52900000D01*
X124533297Y-52961487D01*
X124242116Y-53082098D01*
X123980059Y-53257199D01*
X123757199Y-53480059D01*
X123582098Y-53742116D01*
X123461487Y-54033297D01*
X123400000Y-54342414D01*
X100475000Y-54342414D01*
X100475000Y-50475000D01*
X149525000Y-50475000D01*
X149525001Y-149525000D01*
G36*
X126154891Y-112303419D02*
G01*
X126173683Y-112326317D01*
X126265045Y-112401296D01*
X126369279Y-112457010D01*
X126448070Y-112480911D01*
X126482378Y-112491318D01*
X126599999Y-112502903D01*
X126629473Y-112500000D01*
X129651473Y-112500000D01*
X130450002Y-113298530D01*
X130450002Y-114083524D01*
X130447928Y-114082665D01*
X130283710Y-114050000D01*
X130198520Y-114050000D01*
X129981280Y-113832760D01*
X129962484Y-113809858D01*
X129871122Y-113734879D01*
X129766888Y-113679165D01*
X129653788Y-113644857D01*
X129565641Y-113636175D01*
X129536167Y-113633272D01*
X129506693Y-113636175D01*
X128763328Y-113636175D01*
X128733854Y-113633272D01*
X128704381Y-113636175D01*
X128616234Y-113644857D01*
X128503134Y-113679165D01*
X128464154Y-113700000D01*
X126248528Y-113700000D01*
X126100000Y-113551473D01*
X126100000Y-112248528D01*
X126154891Y-112303419D01*
G37*
X126154891Y-112303419D02*
X126173683Y-112326317D01*
X126265045Y-112401296D01*
X126369279Y-112457010D01*
X126448070Y-112480911D01*
X126482378Y-112491318D01*
X126599999Y-112502903D01*
X126629473Y-112500000D01*
X129651473Y-112500000D01*
X130450002Y-113298530D01*
X130450002Y-114083524D01*
X130447928Y-114082665D01*
X130283710Y-114050000D01*
X130198520Y-114050000D01*
X129981280Y-113832760D01*
X129962484Y-113809858D01*
X129871122Y-113734879D01*
X129766888Y-113679165D01*
X129653788Y-113644857D01*
X129565641Y-113636175D01*
X129536167Y-113633272D01*
X129506693Y-113636175D01*
X128763328Y-113636175D01*
X128733854Y-113633272D01*
X128704381Y-113636175D01*
X128616234Y-113644857D01*
X128503134Y-113679165D01*
X128464154Y-113700000D01*
X126248528Y-113700000D01*
X126100000Y-113551473D01*
X126100000Y-112248528D01*
X126154891Y-112303419D01*
M02*
