G04 #@! TF.GenerationSoftware,KiCad,Pcbnew,(5.99.0-807-g128ec782d)*
G04 #@! TF.CreationDate,2020-02-24T10:18:47+01:00*
G04 #@! TF.ProjectId,SAR-APRS,5341522d-4150-4525-932e-6b696361645f,rev?*
G04 #@! TF.SameCoordinates,Original*
G04 #@! TF.FileFunction,Soldermask,Bot*
G04 #@! TF.FilePolarity,Negative*
%FSLAX46Y46*%
G04 Gerber Fmt 4.6, Leading zero omitted, Abs format (unit mm)*
G04 Created by KiCad (PCBNEW (5.99.0-807-g128ec782d)) date 2020-02-24 10:18:47*
%MOMM*%
%LPD*%
G04 APERTURE LIST*
G04 APERTURE END LIST*
G36*
X112721921Y-143650094D02*
G01*
X112777451Y-143650482D01*
X112795548Y-143654727D01*
X112822766Y-143656439D01*
X112874461Y-143673236D01*
X112919425Y-143683782D01*
X112944381Y-143695954D01*
X112978956Y-143707188D01*
X113017282Y-143731510D01*
X113050494Y-143747709D01*
X113079292Y-143770863D01*
X113117619Y-143795186D01*
X113142505Y-143821687D01*
X113164145Y-143839086D01*
X113192833Y-143875282D01*
X113230040Y-143914903D01*
X113243178Y-143938801D01*
X113254723Y-143953367D01*
X113278714Y-144003440D01*
X113309158Y-144058817D01*
X113313675Y-144076409D01*
X113317734Y-144084881D01*
X113332214Y-144148614D01*
X113350000Y-144217886D01*
X113350000Y-144382114D01*
X113347536Y-144391713D01*
X113347533Y-144391892D01*
X113311487Y-144532283D01*
X113311399Y-144532454D01*
X113309158Y-144541183D01*
X113274709Y-144603846D01*
X113244830Y-144661983D01*
X113238790Y-144669182D01*
X113230040Y-144685097D01*
X113186779Y-144731165D01*
X113151091Y-144773697D01*
X113136289Y-144784932D01*
X113117619Y-144804814D01*
X113071726Y-144833938D01*
X113034941Y-144861860D01*
X113009653Y-144873331D01*
X112978956Y-144892812D01*
X112935784Y-144906839D01*
X112902131Y-144922105D01*
X112865933Y-144929535D01*
X112822766Y-144943561D01*
X112786482Y-144945844D01*
X112759287Y-144951426D01*
X112713121Y-144950459D01*
X112658862Y-144953873D01*
X112632070Y-144948762D01*
X112613487Y-144948373D01*
X112559608Y-144934939D01*
X112497543Y-144923100D01*
X112481112Y-144915368D01*
X112471991Y-144913094D01*
X112413628Y-144883613D01*
X112348945Y-144853175D01*
X112342002Y-144847432D01*
X112341827Y-144847343D01*
X112229468Y-144754391D01*
X112229349Y-144754237D01*
X112222405Y-144748492D01*
X112180373Y-144690641D01*
X112140489Y-144638850D01*
X112136548Y-144630320D01*
X112125874Y-144615629D01*
X112102611Y-144556873D01*
X112079322Y-144506471D01*
X112075458Y-144488295D01*
X112065417Y-144462933D01*
X112058604Y-144409001D01*
X112049003Y-144363833D01*
X112049391Y-144336070D01*
X112044834Y-144300000D01*
X112050523Y-144254966D01*
X112051039Y-144218016D01*
X112059728Y-144182099D01*
X112065417Y-144137067D01*
X112078800Y-144103266D01*
X112085329Y-144076278D01*
X112105864Y-144034911D01*
X112125874Y-143984371D01*
X112141904Y-143962307D01*
X112150169Y-143945658D01*
X112185271Y-143902618D01*
X112222405Y-143851508D01*
X112236393Y-143839936D01*
X112242337Y-143832648D01*
X112293887Y-143792373D01*
X112348945Y-143746825D01*
X112357095Y-143742990D01*
X112357247Y-143742871D01*
X112489202Y-143680778D01*
X112489389Y-143680737D01*
X112497543Y-143676900D01*
X112567773Y-143663503D01*
X112631626Y-143649464D01*
X112641025Y-143649530D01*
X112658862Y-143646127D01*
X112721921Y-143650094D01*
G37*
G36*
X108321921Y-143650094D02*
G01*
X108377451Y-143650482D01*
X108395548Y-143654727D01*
X108422766Y-143656439D01*
X108474461Y-143673236D01*
X108519425Y-143683782D01*
X108544381Y-143695954D01*
X108578956Y-143707188D01*
X108617282Y-143731510D01*
X108650494Y-143747709D01*
X108679292Y-143770863D01*
X108717619Y-143795186D01*
X108742505Y-143821687D01*
X108764145Y-143839086D01*
X108792833Y-143875282D01*
X108830040Y-143914903D01*
X108843178Y-143938801D01*
X108854723Y-143953367D01*
X108878714Y-144003440D01*
X108909158Y-144058817D01*
X108913675Y-144076409D01*
X108917734Y-144084881D01*
X108932214Y-144148614D01*
X108950000Y-144217886D01*
X108950000Y-144382114D01*
X108947536Y-144391713D01*
X108947533Y-144391892D01*
X108911487Y-144532283D01*
X108911399Y-144532454D01*
X108909158Y-144541183D01*
X108874709Y-144603846D01*
X108844830Y-144661983D01*
X108838790Y-144669182D01*
X108830040Y-144685097D01*
X108786779Y-144731165D01*
X108751091Y-144773697D01*
X108736289Y-144784932D01*
X108717619Y-144804814D01*
X108671726Y-144833938D01*
X108634941Y-144861860D01*
X108609653Y-144873331D01*
X108578956Y-144892812D01*
X108535784Y-144906839D01*
X108502131Y-144922105D01*
X108465933Y-144929535D01*
X108422766Y-144943561D01*
X108386482Y-144945844D01*
X108359287Y-144951426D01*
X108313121Y-144950459D01*
X108258862Y-144953873D01*
X108232070Y-144948762D01*
X108213487Y-144948373D01*
X108159608Y-144934939D01*
X108097543Y-144923100D01*
X108081112Y-144915368D01*
X108071991Y-144913094D01*
X108013628Y-144883613D01*
X107948945Y-144853175D01*
X107942002Y-144847432D01*
X107941827Y-144847343D01*
X107829468Y-144754391D01*
X107829349Y-144754237D01*
X107822405Y-144748492D01*
X107780373Y-144690641D01*
X107740489Y-144638850D01*
X107736548Y-144630320D01*
X107725874Y-144615629D01*
X107702611Y-144556873D01*
X107679322Y-144506471D01*
X107675458Y-144488295D01*
X107665417Y-144462933D01*
X107658604Y-144409001D01*
X107649003Y-144363833D01*
X107649391Y-144336070D01*
X107644834Y-144300000D01*
X107650523Y-144254966D01*
X107651039Y-144218016D01*
X107659728Y-144182099D01*
X107665417Y-144137067D01*
X107678800Y-144103266D01*
X107685329Y-144076278D01*
X107705864Y-144034911D01*
X107725874Y-143984371D01*
X107741904Y-143962307D01*
X107750169Y-143945658D01*
X107785271Y-143902618D01*
X107822405Y-143851508D01*
X107836393Y-143839936D01*
X107842337Y-143832648D01*
X107893887Y-143792373D01*
X107948945Y-143746825D01*
X107957095Y-143742990D01*
X107957247Y-143742871D01*
X108089202Y-143680778D01*
X108089389Y-143680737D01*
X108097543Y-143676900D01*
X108167773Y-143663503D01*
X108231626Y-143649464D01*
X108241025Y-143649530D01*
X108258862Y-143646127D01*
X108321921Y-143650094D01*
G37*
G36*
X119557280Y-142604082D02*
G01*
X119562000Y-142604082D01*
X119598854Y-142611413D01*
X119631461Y-142617162D01*
X119633407Y-142618285D01*
X119640036Y-142619604D01*
X119667655Y-142638058D01*
X119692539Y-142652425D01*
X119696856Y-142657570D01*
X119706192Y-142663808D01*
X119722229Y-142687809D01*
X119734232Y-142702114D01*
X119735869Y-142708222D01*
X119750396Y-142729964D01*
X119765918Y-142808000D01*
X119765918Y-142820367D01*
X119767014Y-142824457D01*
X119767014Y-144321064D01*
X119765918Y-144327280D01*
X119765918Y-144332000D01*
X119758587Y-144368854D01*
X119752838Y-144401461D01*
X119751715Y-144403407D01*
X119750396Y-144410036D01*
X119731938Y-144437660D01*
X119717573Y-144462541D01*
X119712429Y-144466857D01*
X119706192Y-144476192D01*
X119682202Y-144492221D01*
X119667889Y-144504232D01*
X119661776Y-144505870D01*
X119640036Y-144520396D01*
X119562000Y-144535918D01*
X119549633Y-144535918D01*
X119545543Y-144537014D01*
X118048936Y-144537014D01*
X118042720Y-144535918D01*
X118038000Y-144535918D01*
X118001146Y-144528587D01*
X117968539Y-144522838D01*
X117966593Y-144521715D01*
X117959964Y-144520396D01*
X117932340Y-144501938D01*
X117907459Y-144487573D01*
X117903143Y-144482429D01*
X117893808Y-144476192D01*
X117877779Y-144452202D01*
X117865768Y-144437889D01*
X117864130Y-144431776D01*
X117849604Y-144410036D01*
X117834082Y-144332000D01*
X117834082Y-144319633D01*
X117832986Y-144315543D01*
X117832986Y-142818936D01*
X117834082Y-142812720D01*
X117834082Y-142808000D01*
X117841413Y-142771146D01*
X117847162Y-142738539D01*
X117848285Y-142736593D01*
X117849604Y-142729964D01*
X117868058Y-142702345D01*
X117882425Y-142677461D01*
X117887570Y-142673144D01*
X117893808Y-142663808D01*
X117917809Y-142647771D01*
X117932114Y-142635768D01*
X117938222Y-142634131D01*
X117959964Y-142619604D01*
X118038000Y-142604082D01*
X118050367Y-142604082D01*
X118054457Y-142602986D01*
X119551064Y-142602986D01*
X119557280Y-142604082D01*
G37*
G36*
X119557280Y-140064082D02*
G01*
X119562000Y-140064082D01*
X119598854Y-140071413D01*
X119631461Y-140077162D01*
X119633407Y-140078285D01*
X119640036Y-140079604D01*
X119667655Y-140098058D01*
X119692539Y-140112425D01*
X119696856Y-140117570D01*
X119706192Y-140123808D01*
X119722229Y-140147809D01*
X119734232Y-140162114D01*
X119735869Y-140168222D01*
X119750396Y-140189964D01*
X119765918Y-140268000D01*
X119765918Y-140280367D01*
X119767014Y-140284457D01*
X119767014Y-141781064D01*
X119765918Y-141787280D01*
X119765918Y-141792000D01*
X119758587Y-141828854D01*
X119752838Y-141861461D01*
X119751715Y-141863407D01*
X119750396Y-141870036D01*
X119731938Y-141897660D01*
X119717573Y-141922541D01*
X119712429Y-141926857D01*
X119706192Y-141936192D01*
X119682202Y-141952221D01*
X119667889Y-141964232D01*
X119661776Y-141965870D01*
X119640036Y-141980396D01*
X119562000Y-141995918D01*
X119549633Y-141995918D01*
X119545543Y-141997014D01*
X118048936Y-141997014D01*
X118042720Y-141995918D01*
X118038000Y-141995918D01*
X118001146Y-141988587D01*
X117968539Y-141982838D01*
X117966593Y-141981715D01*
X117959964Y-141980396D01*
X117932340Y-141961938D01*
X117907459Y-141947573D01*
X117903143Y-141942429D01*
X117893808Y-141936192D01*
X117877779Y-141912202D01*
X117865768Y-141897889D01*
X117864130Y-141891776D01*
X117849604Y-141870036D01*
X117834082Y-141792000D01*
X117834082Y-141779633D01*
X117832986Y-141775543D01*
X117832986Y-140278936D01*
X117834082Y-140272720D01*
X117834082Y-140268000D01*
X117841413Y-140231146D01*
X117847162Y-140198539D01*
X117848285Y-140196593D01*
X117849604Y-140189964D01*
X117868058Y-140162345D01*
X117882425Y-140137461D01*
X117887570Y-140133144D01*
X117893808Y-140123808D01*
X117917809Y-140107771D01*
X117932114Y-140095768D01*
X117938222Y-140094131D01*
X117959964Y-140079604D01*
X118038000Y-140064082D01*
X118050367Y-140064082D01*
X118054457Y-140062986D01*
X119551064Y-140062986D01*
X119557280Y-140064082D01*
G37*
G36*
X103495280Y-112796082D02*
G01*
X103500000Y-112796082D01*
X103536854Y-112803413D01*
X103569461Y-112809162D01*
X103571407Y-112810285D01*
X103578036Y-112811604D01*
X103605655Y-112830058D01*
X103630539Y-112844425D01*
X103634856Y-112849570D01*
X103644192Y-112855808D01*
X103660229Y-112879809D01*
X103672232Y-112894114D01*
X103673869Y-112900222D01*
X103688396Y-112921964D01*
X103703918Y-113000000D01*
X103703918Y-113012367D01*
X103705014Y-113016457D01*
X103705014Y-113989064D01*
X103703918Y-113995280D01*
X103703918Y-114000000D01*
X103696587Y-114036854D01*
X103690838Y-114069461D01*
X103689715Y-114071407D01*
X103688396Y-114078036D01*
X103669942Y-114105655D01*
X103655575Y-114130539D01*
X103650430Y-114134856D01*
X103644192Y-114144192D01*
X103628883Y-114154421D01*
X103592106Y-114209699D01*
X103590989Y-114280123D01*
X103623228Y-114321791D01*
X103616373Y-114327543D01*
X103634855Y-114349569D01*
X103644192Y-114355808D01*
X103660229Y-114379810D01*
X103672232Y-114394114D01*
X103673869Y-114400222D01*
X103688396Y-114421964D01*
X103703918Y-114500000D01*
X103703918Y-114512367D01*
X103705014Y-114516457D01*
X103705014Y-115489064D01*
X103703918Y-115495280D01*
X103703918Y-115500000D01*
X103696587Y-115536854D01*
X103690838Y-115569461D01*
X103689715Y-115571407D01*
X103688396Y-115578036D01*
X103669942Y-115605655D01*
X103655575Y-115630539D01*
X103650430Y-115634856D01*
X103644192Y-115644192D01*
X103628883Y-115654421D01*
X103592106Y-115709699D01*
X103590989Y-115780123D01*
X103623228Y-115821791D01*
X103616373Y-115827543D01*
X103634855Y-115849569D01*
X103644192Y-115855808D01*
X103660229Y-115879810D01*
X103672232Y-115894114D01*
X103673869Y-115900222D01*
X103688396Y-115921964D01*
X103703918Y-116000000D01*
X103703918Y-116012367D01*
X103705014Y-116016457D01*
X103705014Y-116989064D01*
X103703918Y-116995280D01*
X103703918Y-117000000D01*
X103696587Y-117036854D01*
X103690838Y-117069461D01*
X103689715Y-117071407D01*
X103688396Y-117078036D01*
X103669942Y-117105655D01*
X103655575Y-117130539D01*
X103650430Y-117134856D01*
X103644192Y-117144192D01*
X103628883Y-117154421D01*
X103592106Y-117209699D01*
X103590989Y-117280123D01*
X103623228Y-117321791D01*
X103616373Y-117327543D01*
X103634855Y-117349569D01*
X103644192Y-117355808D01*
X103660229Y-117379810D01*
X103672232Y-117394114D01*
X103673869Y-117400222D01*
X103688396Y-117421964D01*
X103703918Y-117500000D01*
X103703918Y-117512367D01*
X103705014Y-117516457D01*
X103705014Y-118489064D01*
X103703918Y-118495280D01*
X103703918Y-118500000D01*
X103696587Y-118536854D01*
X103690838Y-118569461D01*
X103689715Y-118571407D01*
X103688396Y-118578036D01*
X103669942Y-118605655D01*
X103655575Y-118630539D01*
X103650430Y-118634856D01*
X103644192Y-118644192D01*
X103628883Y-118654421D01*
X103592106Y-118709699D01*
X103590989Y-118780123D01*
X103623228Y-118821791D01*
X103616373Y-118827543D01*
X103634855Y-118849569D01*
X103644192Y-118855808D01*
X103660229Y-118879810D01*
X103672232Y-118894114D01*
X103673869Y-118900222D01*
X103688396Y-118921964D01*
X103703918Y-119000000D01*
X103703918Y-119012367D01*
X103705014Y-119016457D01*
X103705014Y-119989064D01*
X103703918Y-119995280D01*
X103703918Y-120000000D01*
X103696587Y-120036854D01*
X103690838Y-120069461D01*
X103689715Y-120071407D01*
X103688396Y-120078036D01*
X103669942Y-120105655D01*
X103655575Y-120130539D01*
X103650430Y-120134856D01*
X103644192Y-120144192D01*
X103628883Y-120154421D01*
X103592106Y-120209699D01*
X103590989Y-120280123D01*
X103623228Y-120321791D01*
X103616373Y-120327543D01*
X103634855Y-120349569D01*
X103644192Y-120355808D01*
X103660229Y-120379810D01*
X103672232Y-120394114D01*
X103673869Y-120400222D01*
X103688396Y-120421964D01*
X103703918Y-120500000D01*
X103703918Y-120512367D01*
X103705014Y-120516457D01*
X103705014Y-121489064D01*
X103703918Y-121495280D01*
X103703918Y-121500000D01*
X103696587Y-121536854D01*
X103690838Y-121569461D01*
X103689715Y-121571407D01*
X103688396Y-121578036D01*
X103669942Y-121605655D01*
X103655575Y-121630539D01*
X103650430Y-121634856D01*
X103644192Y-121644192D01*
X103628883Y-121654421D01*
X103592106Y-121709699D01*
X103590989Y-121780123D01*
X103623228Y-121821791D01*
X103616373Y-121827543D01*
X103634855Y-121849569D01*
X103644192Y-121855808D01*
X103660229Y-121879810D01*
X103672232Y-121894114D01*
X103673869Y-121900222D01*
X103688396Y-121921964D01*
X103703918Y-122000000D01*
X103703918Y-122012367D01*
X103705014Y-122016457D01*
X103705014Y-122989064D01*
X103703918Y-122995280D01*
X103703918Y-123000000D01*
X103696587Y-123036854D01*
X103690838Y-123069461D01*
X103689715Y-123071407D01*
X103688396Y-123078036D01*
X103669942Y-123105655D01*
X103655575Y-123130539D01*
X103650430Y-123134856D01*
X103644192Y-123144192D01*
X103628883Y-123154421D01*
X103592106Y-123209699D01*
X103590989Y-123280123D01*
X103623228Y-123321791D01*
X103616373Y-123327543D01*
X103634855Y-123349569D01*
X103644192Y-123355808D01*
X103660229Y-123379810D01*
X103672232Y-123394114D01*
X103673869Y-123400222D01*
X103688396Y-123421964D01*
X103703918Y-123500000D01*
X103703918Y-123512367D01*
X103705014Y-123516457D01*
X103705014Y-124489064D01*
X103703918Y-124495280D01*
X103703918Y-124500000D01*
X103696587Y-124536854D01*
X103690838Y-124569461D01*
X103689715Y-124571407D01*
X103688396Y-124578036D01*
X103669942Y-124605655D01*
X103655575Y-124630539D01*
X103650430Y-124634856D01*
X103644192Y-124644192D01*
X103628883Y-124654421D01*
X103592106Y-124709699D01*
X103590989Y-124780123D01*
X103623228Y-124821791D01*
X103616373Y-124827543D01*
X103634855Y-124849569D01*
X103644192Y-124855808D01*
X103660229Y-124879810D01*
X103672232Y-124894114D01*
X103673869Y-124900222D01*
X103688396Y-124921964D01*
X103703918Y-125000000D01*
X103703918Y-125012367D01*
X103705014Y-125016457D01*
X103705014Y-125989064D01*
X103703918Y-125995280D01*
X103703918Y-126000000D01*
X103696587Y-126036854D01*
X103690838Y-126069461D01*
X103689715Y-126071407D01*
X103688396Y-126078036D01*
X103669942Y-126105655D01*
X103655575Y-126130539D01*
X103650430Y-126134856D01*
X103644192Y-126144192D01*
X103628883Y-126154421D01*
X103592106Y-126209699D01*
X103590989Y-126280123D01*
X103623228Y-126321791D01*
X103616373Y-126327543D01*
X103634855Y-126349569D01*
X103644192Y-126355808D01*
X103660229Y-126379810D01*
X103672232Y-126394114D01*
X103673869Y-126400222D01*
X103688396Y-126421964D01*
X103703918Y-126500000D01*
X103703918Y-126512367D01*
X103705014Y-126516457D01*
X103705014Y-127489064D01*
X103703918Y-127495280D01*
X103703918Y-127500000D01*
X103696587Y-127536854D01*
X103690838Y-127569461D01*
X103689715Y-127571407D01*
X103688396Y-127578036D01*
X103669942Y-127605655D01*
X103655575Y-127630539D01*
X103650430Y-127634856D01*
X103644192Y-127644192D01*
X103628883Y-127654421D01*
X103592106Y-127709699D01*
X103590989Y-127780123D01*
X103623228Y-127821791D01*
X103616373Y-127827543D01*
X103634855Y-127849569D01*
X103644192Y-127855808D01*
X103660229Y-127879810D01*
X103672232Y-127894114D01*
X103673869Y-127900222D01*
X103688396Y-127921964D01*
X103703918Y-128000000D01*
X103703918Y-128012367D01*
X103705014Y-128016457D01*
X103705014Y-128989064D01*
X103703918Y-128995280D01*
X103703918Y-129000000D01*
X103696587Y-129036854D01*
X103690838Y-129069461D01*
X103689715Y-129071407D01*
X103688396Y-129078036D01*
X103669942Y-129105655D01*
X103655575Y-129130539D01*
X103650430Y-129134856D01*
X103644192Y-129144192D01*
X103628883Y-129154421D01*
X103592106Y-129209699D01*
X103590989Y-129280123D01*
X103623228Y-129321791D01*
X103616373Y-129327543D01*
X103634855Y-129349569D01*
X103644192Y-129355808D01*
X103660229Y-129379810D01*
X103672232Y-129394114D01*
X103673869Y-129400222D01*
X103688396Y-129421964D01*
X103703918Y-129500000D01*
X103703918Y-129512367D01*
X103705014Y-129516457D01*
X103705014Y-130489064D01*
X103703918Y-130495280D01*
X103703918Y-130500000D01*
X103696587Y-130536854D01*
X103690838Y-130569461D01*
X103689715Y-130571407D01*
X103688396Y-130578036D01*
X103669942Y-130605655D01*
X103655575Y-130630539D01*
X103650430Y-130634856D01*
X103644192Y-130644192D01*
X103628883Y-130654421D01*
X103592106Y-130709699D01*
X103590989Y-130780123D01*
X103623228Y-130821791D01*
X103616373Y-130827543D01*
X103634855Y-130849569D01*
X103644192Y-130855808D01*
X103660229Y-130879810D01*
X103672232Y-130894114D01*
X103673869Y-130900222D01*
X103688396Y-130921964D01*
X103703918Y-131000000D01*
X103703918Y-131012367D01*
X103705014Y-131016457D01*
X103705014Y-131989064D01*
X103703918Y-131995280D01*
X103703918Y-132000000D01*
X103696586Y-132036859D01*
X103690838Y-132069460D01*
X103689715Y-132071405D01*
X103688396Y-132078036D01*
X103669935Y-132105665D01*
X103668883Y-132107487D01*
X103652278Y-132175935D01*
X103675314Y-132242493D01*
X103730677Y-132286032D01*
X103777135Y-132294986D01*
X104239064Y-132294986D01*
X104245280Y-132296082D01*
X104250000Y-132296082D01*
X104286854Y-132303413D01*
X104319461Y-132309162D01*
X104321407Y-132310285D01*
X104328036Y-132311604D01*
X104355655Y-132330058D01*
X104380539Y-132344425D01*
X104384856Y-132349570D01*
X104394192Y-132355808D01*
X104404421Y-132371117D01*
X104459699Y-132407894D01*
X104530123Y-132409011D01*
X104571791Y-132376772D01*
X104577543Y-132383627D01*
X104599569Y-132365145D01*
X104605808Y-132355808D01*
X104629810Y-132339771D01*
X104644114Y-132327768D01*
X104650222Y-132326131D01*
X104671964Y-132311604D01*
X104750000Y-132296082D01*
X104762367Y-132296082D01*
X104766457Y-132294986D01*
X105739064Y-132294986D01*
X105745280Y-132296082D01*
X105750000Y-132296082D01*
X105786854Y-132303413D01*
X105819461Y-132309162D01*
X105821407Y-132310285D01*
X105828036Y-132311604D01*
X105855655Y-132330058D01*
X105880539Y-132344425D01*
X105884856Y-132349570D01*
X105894192Y-132355808D01*
X105904421Y-132371117D01*
X105959699Y-132407894D01*
X106030123Y-132409011D01*
X106071791Y-132376772D01*
X106077543Y-132383627D01*
X106099569Y-132365145D01*
X106105808Y-132355808D01*
X106129810Y-132339771D01*
X106144114Y-132327768D01*
X106150222Y-132326131D01*
X106171964Y-132311604D01*
X106250000Y-132296082D01*
X106262367Y-132296082D01*
X106266457Y-132294986D01*
X107239064Y-132294986D01*
X107245280Y-132296082D01*
X107250000Y-132296082D01*
X107286854Y-132303413D01*
X107319461Y-132309162D01*
X107321407Y-132310285D01*
X107328036Y-132311604D01*
X107355655Y-132330058D01*
X107380539Y-132344425D01*
X107384856Y-132349570D01*
X107394192Y-132355808D01*
X107404421Y-132371117D01*
X107459699Y-132407894D01*
X107530123Y-132409011D01*
X107571791Y-132376772D01*
X107577543Y-132383627D01*
X107599569Y-132365145D01*
X107605808Y-132355808D01*
X107629810Y-132339771D01*
X107644114Y-132327768D01*
X107650222Y-132326131D01*
X107671964Y-132311604D01*
X107750000Y-132296082D01*
X107762367Y-132296082D01*
X107766457Y-132294986D01*
X108739064Y-132294986D01*
X108745280Y-132296082D01*
X108750000Y-132296082D01*
X108786854Y-132303413D01*
X108819461Y-132309162D01*
X108821407Y-132310285D01*
X108828036Y-132311604D01*
X108855655Y-132330058D01*
X108880539Y-132344425D01*
X108884856Y-132349570D01*
X108894192Y-132355808D01*
X108904421Y-132371117D01*
X108959699Y-132407894D01*
X109030123Y-132409011D01*
X109071791Y-132376772D01*
X109077543Y-132383627D01*
X109099569Y-132365145D01*
X109105808Y-132355808D01*
X109129810Y-132339771D01*
X109144114Y-132327768D01*
X109150222Y-132326131D01*
X109171964Y-132311604D01*
X109250000Y-132296082D01*
X109262367Y-132296082D01*
X109266457Y-132294986D01*
X110239064Y-132294986D01*
X110245280Y-132296082D01*
X110250000Y-132296082D01*
X110286854Y-132303413D01*
X110319461Y-132309162D01*
X110321407Y-132310285D01*
X110328036Y-132311604D01*
X110355655Y-132330058D01*
X110380539Y-132344425D01*
X110384856Y-132349570D01*
X110394192Y-132355808D01*
X110404421Y-132371117D01*
X110459699Y-132407894D01*
X110530123Y-132409011D01*
X110571791Y-132376772D01*
X110577543Y-132383627D01*
X110599569Y-132365145D01*
X110605808Y-132355808D01*
X110629810Y-132339771D01*
X110644114Y-132327768D01*
X110650222Y-132326131D01*
X110671964Y-132311604D01*
X110750000Y-132296082D01*
X110762367Y-132296082D01*
X110766457Y-132294986D01*
X111739064Y-132294986D01*
X111745280Y-132296082D01*
X111750000Y-132296082D01*
X111786854Y-132303413D01*
X111819461Y-132309162D01*
X111821407Y-132310285D01*
X111828036Y-132311604D01*
X111855655Y-132330058D01*
X111880539Y-132344425D01*
X111884856Y-132349570D01*
X111894192Y-132355808D01*
X111904421Y-132371117D01*
X111959699Y-132407894D01*
X112030123Y-132409011D01*
X112071791Y-132376772D01*
X112077543Y-132383627D01*
X112099569Y-132365145D01*
X112105808Y-132355808D01*
X112129810Y-132339771D01*
X112144114Y-132327768D01*
X112150222Y-132326131D01*
X112171964Y-132311604D01*
X112250000Y-132296082D01*
X112262367Y-132296082D01*
X112266457Y-132294986D01*
X113239064Y-132294986D01*
X113245280Y-132296082D01*
X113250000Y-132296082D01*
X113286854Y-132303413D01*
X113319461Y-132309162D01*
X113321407Y-132310285D01*
X113328036Y-132311604D01*
X113355655Y-132330058D01*
X113380539Y-132344425D01*
X113384856Y-132349570D01*
X113394192Y-132355808D01*
X113404421Y-132371117D01*
X113459699Y-132407894D01*
X113530123Y-132409011D01*
X113571791Y-132376772D01*
X113577543Y-132383627D01*
X113599569Y-132365145D01*
X113605808Y-132355808D01*
X113629810Y-132339771D01*
X113644114Y-132327768D01*
X113650222Y-132326131D01*
X113671964Y-132311604D01*
X113750000Y-132296082D01*
X113762367Y-132296082D01*
X113766457Y-132294986D01*
X114218379Y-132294986D01*
X114285959Y-132275143D01*
X114332082Y-132221913D01*
X114342106Y-132152198D01*
X114333536Y-132133031D01*
X114334940Y-132132655D01*
X114326130Y-132099776D01*
X114311604Y-132078036D01*
X114296082Y-132000000D01*
X114296082Y-131987633D01*
X114294986Y-131983543D01*
X114294986Y-131010936D01*
X114296082Y-131004720D01*
X114296082Y-131000000D01*
X114303413Y-130963146D01*
X114309162Y-130930539D01*
X114310285Y-130928593D01*
X114311604Y-130921964D01*
X114330058Y-130894345D01*
X114344425Y-130869461D01*
X114349570Y-130865144D01*
X114355808Y-130855808D01*
X114371117Y-130845579D01*
X114407894Y-130790301D01*
X114409011Y-130719877D01*
X114376772Y-130678208D01*
X114383626Y-130672457D01*
X114365142Y-130650429D01*
X114355808Y-130644192D01*
X114339779Y-130620203D01*
X114327768Y-130605889D01*
X114326130Y-130599776D01*
X114311604Y-130578036D01*
X114296082Y-130500000D01*
X114296082Y-130487633D01*
X114294986Y-130483543D01*
X114294986Y-129510936D01*
X114296082Y-129504720D01*
X114296082Y-129500000D01*
X114303413Y-129463146D01*
X114309162Y-129430539D01*
X114310285Y-129428593D01*
X114311604Y-129421964D01*
X114330058Y-129394345D01*
X114344425Y-129369461D01*
X114349570Y-129365144D01*
X114355808Y-129355808D01*
X114371117Y-129345579D01*
X114407894Y-129290301D01*
X114409011Y-129219877D01*
X114376772Y-129178208D01*
X114383626Y-129172457D01*
X114365142Y-129150429D01*
X114355808Y-129144192D01*
X114339779Y-129120203D01*
X114327768Y-129105889D01*
X114326130Y-129099776D01*
X114311604Y-129078036D01*
X114296082Y-129000000D01*
X114296082Y-128987633D01*
X114294986Y-128983543D01*
X114294986Y-128010936D01*
X114296082Y-128004720D01*
X114296082Y-128000000D01*
X114303413Y-127963146D01*
X114309162Y-127930539D01*
X114310285Y-127928593D01*
X114311604Y-127921964D01*
X114330058Y-127894345D01*
X114344425Y-127869461D01*
X114349570Y-127865144D01*
X114355808Y-127855808D01*
X114371117Y-127845579D01*
X114407894Y-127790301D01*
X114409011Y-127719877D01*
X114376772Y-127678208D01*
X114383626Y-127672457D01*
X114365142Y-127650429D01*
X114355808Y-127644192D01*
X114339779Y-127620203D01*
X114327768Y-127605889D01*
X114326130Y-127599776D01*
X114311604Y-127578036D01*
X114296082Y-127500000D01*
X114296082Y-127487633D01*
X114294986Y-127483543D01*
X114294986Y-126510936D01*
X114296082Y-126504720D01*
X114296082Y-126500000D01*
X114303413Y-126463146D01*
X114309162Y-126430539D01*
X114310285Y-126428593D01*
X114311604Y-126421964D01*
X114330058Y-126394345D01*
X114344425Y-126369461D01*
X114349570Y-126365144D01*
X114355808Y-126355808D01*
X114371117Y-126345579D01*
X114407894Y-126290301D01*
X114409011Y-126219877D01*
X114376772Y-126178208D01*
X114383626Y-126172457D01*
X114365142Y-126150429D01*
X114355808Y-126144192D01*
X114339779Y-126120203D01*
X114327768Y-126105889D01*
X114326130Y-126099776D01*
X114311604Y-126078036D01*
X114296082Y-126000000D01*
X114296082Y-125987633D01*
X114294986Y-125983543D01*
X114294986Y-125010936D01*
X114296082Y-125004720D01*
X114296082Y-125000000D01*
X114303413Y-124963146D01*
X114309162Y-124930539D01*
X114310285Y-124928593D01*
X114311604Y-124921964D01*
X114330058Y-124894345D01*
X114344425Y-124869461D01*
X114349570Y-124865144D01*
X114355808Y-124855808D01*
X114371117Y-124845579D01*
X114407894Y-124790301D01*
X114409011Y-124719877D01*
X114376772Y-124678208D01*
X114383626Y-124672457D01*
X114365142Y-124650429D01*
X114355808Y-124644192D01*
X114339779Y-124620203D01*
X114327768Y-124605889D01*
X114326130Y-124599776D01*
X114311604Y-124578036D01*
X114296082Y-124500000D01*
X114296082Y-124487633D01*
X114294986Y-124483543D01*
X114294986Y-123510936D01*
X114296082Y-123504720D01*
X114296082Y-123500000D01*
X114303413Y-123463146D01*
X114309162Y-123430539D01*
X114310285Y-123428593D01*
X114311604Y-123421964D01*
X114330058Y-123394345D01*
X114344425Y-123369461D01*
X114349570Y-123365144D01*
X114355808Y-123355808D01*
X114371117Y-123345579D01*
X114407894Y-123290301D01*
X114409011Y-123219877D01*
X114376772Y-123178208D01*
X114383626Y-123172457D01*
X114365142Y-123150429D01*
X114355808Y-123144192D01*
X114339779Y-123120203D01*
X114327768Y-123105889D01*
X114326130Y-123099776D01*
X114311604Y-123078036D01*
X114296082Y-123000000D01*
X114296082Y-122987633D01*
X114294986Y-122983543D01*
X114294986Y-122010936D01*
X114296082Y-122004720D01*
X114296082Y-122000000D01*
X114303413Y-121963146D01*
X114309162Y-121930539D01*
X114310285Y-121928593D01*
X114311604Y-121921964D01*
X114330058Y-121894345D01*
X114344425Y-121869461D01*
X114349570Y-121865144D01*
X114355808Y-121855808D01*
X114371117Y-121845579D01*
X114407894Y-121790301D01*
X114409011Y-121719877D01*
X114376772Y-121678208D01*
X114383626Y-121672457D01*
X114365142Y-121650429D01*
X114355808Y-121644192D01*
X114339779Y-121620203D01*
X114327768Y-121605889D01*
X114326130Y-121599776D01*
X114311604Y-121578036D01*
X114296082Y-121500000D01*
X114296082Y-121487633D01*
X114294986Y-121483543D01*
X114294986Y-120510936D01*
X114296082Y-120504720D01*
X114296082Y-120500000D01*
X114303413Y-120463146D01*
X114309162Y-120430539D01*
X114310285Y-120428593D01*
X114311604Y-120421964D01*
X114330058Y-120394345D01*
X114344425Y-120369461D01*
X114349570Y-120365144D01*
X114355808Y-120355808D01*
X114371117Y-120345579D01*
X114407894Y-120290301D01*
X114409011Y-120219877D01*
X114376772Y-120178208D01*
X114383626Y-120172457D01*
X114365142Y-120150429D01*
X114355808Y-120144192D01*
X114339779Y-120120203D01*
X114327768Y-120105889D01*
X114326130Y-120099776D01*
X114311604Y-120078036D01*
X114296082Y-120000000D01*
X114296082Y-119987633D01*
X114294986Y-119983543D01*
X114294986Y-119010936D01*
X114296082Y-119004720D01*
X114296082Y-119000000D01*
X114303413Y-118963146D01*
X114309162Y-118930539D01*
X114310285Y-118928593D01*
X114311604Y-118921964D01*
X114330058Y-118894345D01*
X114344425Y-118869461D01*
X114349570Y-118865144D01*
X114355808Y-118855808D01*
X114371117Y-118845579D01*
X114407894Y-118790301D01*
X114409011Y-118719877D01*
X114376772Y-118678208D01*
X114383626Y-118672457D01*
X114365142Y-118650429D01*
X114355808Y-118644192D01*
X114339779Y-118620203D01*
X114327768Y-118605889D01*
X114326130Y-118599776D01*
X114311604Y-118578036D01*
X114296082Y-118500000D01*
X114296082Y-118487633D01*
X114294986Y-118483543D01*
X114294986Y-117510936D01*
X114296082Y-117504720D01*
X114296082Y-117500000D01*
X114303413Y-117463146D01*
X114309162Y-117430539D01*
X114310285Y-117428593D01*
X114311604Y-117421964D01*
X114330058Y-117394345D01*
X114344425Y-117369461D01*
X114349570Y-117365144D01*
X114355808Y-117355808D01*
X114371117Y-117345579D01*
X114407894Y-117290301D01*
X114409011Y-117219877D01*
X114376772Y-117178208D01*
X114383626Y-117172457D01*
X114365142Y-117150429D01*
X114355808Y-117144192D01*
X114339779Y-117120203D01*
X114327768Y-117105889D01*
X114326130Y-117099776D01*
X114311604Y-117078036D01*
X114296082Y-117000000D01*
X114296082Y-116987633D01*
X114294986Y-116983543D01*
X114294986Y-116010936D01*
X114296082Y-116004720D01*
X114296082Y-116000000D01*
X114303413Y-115963146D01*
X114309162Y-115930539D01*
X114310285Y-115928593D01*
X114311604Y-115921964D01*
X114330058Y-115894345D01*
X114344425Y-115869461D01*
X114349570Y-115865144D01*
X114355808Y-115855808D01*
X114371117Y-115845579D01*
X114407894Y-115790301D01*
X114409011Y-115719877D01*
X114376772Y-115678208D01*
X114383626Y-115672457D01*
X114365142Y-115650429D01*
X114355808Y-115644192D01*
X114339779Y-115620203D01*
X114327768Y-115605889D01*
X114326130Y-115599776D01*
X114311604Y-115578036D01*
X114296082Y-115500000D01*
X114296082Y-115487633D01*
X114294986Y-115483543D01*
X114294986Y-114510936D01*
X114296082Y-114504720D01*
X114296082Y-114500000D01*
X114303413Y-114463146D01*
X114309162Y-114430539D01*
X114310285Y-114428593D01*
X114311604Y-114421964D01*
X114330058Y-114394345D01*
X114344425Y-114369461D01*
X114349570Y-114365144D01*
X114355808Y-114355808D01*
X114371117Y-114345579D01*
X114407894Y-114290301D01*
X114409011Y-114219877D01*
X114376772Y-114178208D01*
X114383626Y-114172457D01*
X114365142Y-114150429D01*
X114355808Y-114144192D01*
X114339779Y-114120203D01*
X114327768Y-114105889D01*
X114326130Y-114099776D01*
X114311604Y-114078036D01*
X114296082Y-114000000D01*
X114296082Y-113987633D01*
X114294986Y-113983543D01*
X114294986Y-113010936D01*
X114296082Y-113004720D01*
X114296082Y-113000000D01*
X114303413Y-112963146D01*
X114309162Y-112930539D01*
X114310285Y-112928593D01*
X114311604Y-112921964D01*
X114330058Y-112894345D01*
X114344425Y-112869461D01*
X114349570Y-112865144D01*
X114355808Y-112855808D01*
X114379809Y-112839771D01*
X114394114Y-112827768D01*
X114400222Y-112826131D01*
X114421964Y-112811604D01*
X114500000Y-112796082D01*
X114512367Y-112796082D01*
X114516457Y-112794986D01*
X116489064Y-112794986D01*
X116495280Y-112796082D01*
X116500000Y-112796082D01*
X116536854Y-112803413D01*
X116569461Y-112809162D01*
X116571407Y-112810285D01*
X116578036Y-112811604D01*
X116605655Y-112830058D01*
X116630539Y-112844425D01*
X116634856Y-112849570D01*
X116644192Y-112855808D01*
X116660229Y-112879809D01*
X116672232Y-112894114D01*
X116673869Y-112900222D01*
X116688396Y-112921964D01*
X116703918Y-113000000D01*
X116703918Y-113012367D01*
X116705014Y-113016457D01*
X116705014Y-113989064D01*
X116703918Y-113995280D01*
X116703918Y-114000000D01*
X116696587Y-114036854D01*
X116690838Y-114069461D01*
X116689715Y-114071407D01*
X116688396Y-114078036D01*
X116669942Y-114105655D01*
X116655575Y-114130539D01*
X116650430Y-114134856D01*
X116644192Y-114144192D01*
X116628883Y-114154421D01*
X116592106Y-114209699D01*
X116590989Y-114280123D01*
X116623228Y-114321791D01*
X116616373Y-114327543D01*
X116634855Y-114349569D01*
X116644192Y-114355808D01*
X116660229Y-114379810D01*
X116672232Y-114394114D01*
X116673869Y-114400222D01*
X116688396Y-114421964D01*
X116703918Y-114500000D01*
X116703918Y-114512367D01*
X116705014Y-114516457D01*
X116705014Y-115489064D01*
X116703918Y-115495280D01*
X116703918Y-115500000D01*
X116696587Y-115536854D01*
X116690838Y-115569461D01*
X116689715Y-115571407D01*
X116688396Y-115578036D01*
X116669942Y-115605655D01*
X116655575Y-115630539D01*
X116650430Y-115634856D01*
X116644192Y-115644192D01*
X116628883Y-115654421D01*
X116592106Y-115709699D01*
X116590989Y-115780123D01*
X116623228Y-115821791D01*
X116616373Y-115827543D01*
X116634855Y-115849569D01*
X116644192Y-115855808D01*
X116660229Y-115879810D01*
X116672232Y-115894114D01*
X116673869Y-115900222D01*
X116688396Y-115921964D01*
X116703918Y-116000000D01*
X116703918Y-116012367D01*
X116705014Y-116016457D01*
X116705014Y-116989064D01*
X116703918Y-116995280D01*
X116703918Y-117000000D01*
X116696587Y-117036854D01*
X116690838Y-117069461D01*
X116689715Y-117071407D01*
X116688396Y-117078036D01*
X116669942Y-117105655D01*
X116655575Y-117130539D01*
X116650430Y-117134856D01*
X116644192Y-117144192D01*
X116628883Y-117154421D01*
X116592106Y-117209699D01*
X116590989Y-117280123D01*
X116623228Y-117321791D01*
X116616373Y-117327543D01*
X116634855Y-117349569D01*
X116644192Y-117355808D01*
X116660229Y-117379810D01*
X116672232Y-117394114D01*
X116673869Y-117400222D01*
X116688396Y-117421964D01*
X116703918Y-117500000D01*
X116703918Y-117512367D01*
X116705014Y-117516457D01*
X116705014Y-118489064D01*
X116703918Y-118495280D01*
X116703918Y-118500000D01*
X116696587Y-118536854D01*
X116690838Y-118569461D01*
X116689715Y-118571407D01*
X116688396Y-118578036D01*
X116669942Y-118605655D01*
X116655575Y-118630539D01*
X116650430Y-118634856D01*
X116644192Y-118644192D01*
X116628883Y-118654421D01*
X116592106Y-118709699D01*
X116590989Y-118780123D01*
X116623228Y-118821791D01*
X116616373Y-118827543D01*
X116634855Y-118849569D01*
X116644192Y-118855808D01*
X116660229Y-118879810D01*
X116672232Y-118894114D01*
X116673869Y-118900222D01*
X116688396Y-118921964D01*
X116703918Y-119000000D01*
X116703918Y-119012367D01*
X116705014Y-119016457D01*
X116705014Y-119989064D01*
X116703918Y-119995280D01*
X116703918Y-120000000D01*
X116696587Y-120036854D01*
X116690838Y-120069461D01*
X116689715Y-120071407D01*
X116688396Y-120078036D01*
X116669942Y-120105655D01*
X116655575Y-120130539D01*
X116650430Y-120134856D01*
X116644192Y-120144192D01*
X116628883Y-120154421D01*
X116592106Y-120209699D01*
X116590989Y-120280123D01*
X116623228Y-120321791D01*
X116616373Y-120327543D01*
X116634855Y-120349569D01*
X116644192Y-120355808D01*
X116660229Y-120379810D01*
X116672232Y-120394114D01*
X116673869Y-120400222D01*
X116688396Y-120421964D01*
X116703918Y-120500000D01*
X116703918Y-120512367D01*
X116705014Y-120516457D01*
X116705014Y-121489064D01*
X116703918Y-121495280D01*
X116703918Y-121500000D01*
X116696587Y-121536854D01*
X116690838Y-121569461D01*
X116689715Y-121571407D01*
X116688396Y-121578036D01*
X116669942Y-121605655D01*
X116655575Y-121630539D01*
X116650430Y-121634856D01*
X116644192Y-121644192D01*
X116628883Y-121654421D01*
X116592106Y-121709699D01*
X116590989Y-121780123D01*
X116623228Y-121821791D01*
X116616373Y-121827543D01*
X116634855Y-121849569D01*
X116644192Y-121855808D01*
X116660229Y-121879810D01*
X116672232Y-121894114D01*
X116673869Y-121900222D01*
X116688396Y-121921964D01*
X116703918Y-122000000D01*
X116703918Y-122012367D01*
X116705014Y-122016457D01*
X116705014Y-122989064D01*
X116703918Y-122995280D01*
X116703918Y-123000000D01*
X116696587Y-123036854D01*
X116690838Y-123069461D01*
X116689715Y-123071407D01*
X116688396Y-123078036D01*
X116669942Y-123105655D01*
X116655575Y-123130539D01*
X116650430Y-123134856D01*
X116644192Y-123144192D01*
X116628883Y-123154421D01*
X116592106Y-123209699D01*
X116590989Y-123280123D01*
X116623228Y-123321791D01*
X116616373Y-123327543D01*
X116634855Y-123349569D01*
X116644192Y-123355808D01*
X116660229Y-123379810D01*
X116672232Y-123394114D01*
X116673869Y-123400222D01*
X116688396Y-123421964D01*
X116703918Y-123500000D01*
X116703918Y-123512367D01*
X116705014Y-123516457D01*
X116705014Y-124489064D01*
X116703918Y-124495280D01*
X116703918Y-124500000D01*
X116696587Y-124536854D01*
X116690838Y-124569461D01*
X116689715Y-124571407D01*
X116688396Y-124578036D01*
X116669942Y-124605655D01*
X116655575Y-124630539D01*
X116650430Y-124634856D01*
X116644192Y-124644192D01*
X116628883Y-124654421D01*
X116592106Y-124709699D01*
X116590989Y-124780123D01*
X116623228Y-124821791D01*
X116616373Y-124827543D01*
X116634855Y-124849569D01*
X116644192Y-124855808D01*
X116660229Y-124879810D01*
X116672232Y-124894114D01*
X116673869Y-124900222D01*
X116688396Y-124921964D01*
X116703918Y-125000000D01*
X116703918Y-125012367D01*
X116705014Y-125016457D01*
X116705014Y-125989064D01*
X116703918Y-125995280D01*
X116703918Y-126000000D01*
X116696587Y-126036854D01*
X116690838Y-126069461D01*
X116689715Y-126071407D01*
X116688396Y-126078036D01*
X116669942Y-126105655D01*
X116655575Y-126130539D01*
X116650430Y-126134856D01*
X116644192Y-126144192D01*
X116628883Y-126154421D01*
X116592106Y-126209699D01*
X116590989Y-126280123D01*
X116623228Y-126321791D01*
X116616373Y-126327543D01*
X116634855Y-126349569D01*
X116644192Y-126355808D01*
X116660229Y-126379810D01*
X116672232Y-126394114D01*
X116673869Y-126400222D01*
X116688396Y-126421964D01*
X116703918Y-126500000D01*
X116703918Y-126512367D01*
X116705014Y-126516457D01*
X116705014Y-127489064D01*
X116703918Y-127495280D01*
X116703918Y-127500000D01*
X116696587Y-127536854D01*
X116690838Y-127569461D01*
X116689715Y-127571407D01*
X116688396Y-127578036D01*
X116669942Y-127605655D01*
X116655575Y-127630539D01*
X116650430Y-127634856D01*
X116644192Y-127644192D01*
X116628883Y-127654421D01*
X116592106Y-127709699D01*
X116590989Y-127780123D01*
X116623228Y-127821791D01*
X116616373Y-127827543D01*
X116634855Y-127849569D01*
X116644192Y-127855808D01*
X116660229Y-127879810D01*
X116672232Y-127894114D01*
X116673869Y-127900222D01*
X116688396Y-127921964D01*
X116703918Y-128000000D01*
X116703918Y-128012367D01*
X116705014Y-128016457D01*
X116705014Y-128989064D01*
X116703918Y-128995280D01*
X116703918Y-129000000D01*
X116696587Y-129036854D01*
X116690838Y-129069461D01*
X116689715Y-129071407D01*
X116688396Y-129078036D01*
X116669942Y-129105655D01*
X116655575Y-129130539D01*
X116650430Y-129134856D01*
X116644192Y-129144192D01*
X116628883Y-129154421D01*
X116592106Y-129209699D01*
X116590989Y-129280123D01*
X116623228Y-129321791D01*
X116616373Y-129327543D01*
X116634855Y-129349569D01*
X116644192Y-129355808D01*
X116660229Y-129379810D01*
X116672232Y-129394114D01*
X116673869Y-129400222D01*
X116688396Y-129421964D01*
X116703918Y-129500000D01*
X116703918Y-129512367D01*
X116705014Y-129516457D01*
X116705014Y-130489064D01*
X116703918Y-130495280D01*
X116703918Y-130500000D01*
X116696587Y-130536854D01*
X116690838Y-130569461D01*
X116689715Y-130571407D01*
X116688396Y-130578036D01*
X116669942Y-130605655D01*
X116655575Y-130630539D01*
X116650430Y-130634856D01*
X116644192Y-130644192D01*
X116628883Y-130654421D01*
X116592106Y-130709699D01*
X116590989Y-130780123D01*
X116623228Y-130821791D01*
X116616373Y-130827543D01*
X116634855Y-130849569D01*
X116644192Y-130855808D01*
X116660229Y-130879810D01*
X116672232Y-130894114D01*
X116673869Y-130900222D01*
X116688396Y-130921964D01*
X116703918Y-131000000D01*
X116703918Y-131012367D01*
X116705014Y-131016457D01*
X116705014Y-131989064D01*
X116703918Y-131995280D01*
X116703918Y-132000000D01*
X116696587Y-132036854D01*
X116690838Y-132069461D01*
X116689715Y-132071407D01*
X116688396Y-132078036D01*
X116669938Y-132105660D01*
X116655573Y-132130541D01*
X116650429Y-132134857D01*
X116644192Y-132144192D01*
X116620202Y-132160221D01*
X116605889Y-132172232D01*
X116599776Y-132173870D01*
X116578036Y-132188396D01*
X116500000Y-132203918D01*
X116487633Y-132203918D01*
X116483543Y-132205014D01*
X115031620Y-132205014D01*
X114964040Y-132224857D01*
X114917917Y-132278087D01*
X114907893Y-132347802D01*
X114916464Y-132366970D01*
X114915060Y-132367346D01*
X114923869Y-132400223D01*
X114938396Y-132421964D01*
X114953918Y-132500000D01*
X114953918Y-132512367D01*
X114955014Y-132516457D01*
X114955014Y-134489064D01*
X114953918Y-134495280D01*
X114953918Y-134500000D01*
X114946587Y-134536854D01*
X114940838Y-134569461D01*
X114939715Y-134571407D01*
X114938396Y-134578036D01*
X114919938Y-134605660D01*
X114905573Y-134630541D01*
X114900429Y-134634857D01*
X114894192Y-134644192D01*
X114870202Y-134660221D01*
X114855889Y-134672232D01*
X114849776Y-134673870D01*
X114828036Y-134688396D01*
X114750000Y-134703918D01*
X114737633Y-134703918D01*
X114733543Y-134705014D01*
X113760936Y-134705014D01*
X113754720Y-134703918D01*
X113750000Y-134703918D01*
X113713146Y-134696587D01*
X113680539Y-134690838D01*
X113678593Y-134689715D01*
X113671964Y-134688396D01*
X113644345Y-134669942D01*
X113619461Y-134655575D01*
X113615144Y-134650430D01*
X113605808Y-134644192D01*
X113595579Y-134628883D01*
X113540301Y-134592106D01*
X113469877Y-134590989D01*
X113428208Y-134623228D01*
X113422457Y-134616374D01*
X113400429Y-134634858D01*
X113394192Y-134644192D01*
X113370203Y-134660221D01*
X113355889Y-134672232D01*
X113349776Y-134673870D01*
X113328036Y-134688396D01*
X113250000Y-134703918D01*
X113237633Y-134703918D01*
X113233543Y-134705014D01*
X112260936Y-134705014D01*
X112254720Y-134703918D01*
X112250000Y-134703918D01*
X112213146Y-134696587D01*
X112180539Y-134690838D01*
X112178593Y-134689715D01*
X112171964Y-134688396D01*
X112144345Y-134669942D01*
X112119461Y-134655575D01*
X112115144Y-134650430D01*
X112105808Y-134644192D01*
X112095579Y-134628883D01*
X112040301Y-134592106D01*
X111969877Y-134590989D01*
X111928208Y-134623228D01*
X111922457Y-134616374D01*
X111900429Y-134634858D01*
X111894192Y-134644192D01*
X111870203Y-134660221D01*
X111855889Y-134672232D01*
X111849776Y-134673870D01*
X111828036Y-134688396D01*
X111750000Y-134703918D01*
X111737633Y-134703918D01*
X111733543Y-134705014D01*
X110760936Y-134705014D01*
X110754720Y-134703918D01*
X110750000Y-134703918D01*
X110713146Y-134696587D01*
X110680539Y-134690838D01*
X110678593Y-134689715D01*
X110671964Y-134688396D01*
X110644345Y-134669942D01*
X110619461Y-134655575D01*
X110615144Y-134650430D01*
X110605808Y-134644192D01*
X110595579Y-134628883D01*
X110540301Y-134592106D01*
X110469877Y-134590989D01*
X110428208Y-134623228D01*
X110422457Y-134616374D01*
X110400429Y-134634858D01*
X110394192Y-134644192D01*
X110370203Y-134660221D01*
X110355889Y-134672232D01*
X110349776Y-134673870D01*
X110328036Y-134688396D01*
X110250000Y-134703918D01*
X110237633Y-134703918D01*
X110233543Y-134705014D01*
X109260936Y-134705014D01*
X109254720Y-134703918D01*
X109250000Y-134703918D01*
X109213146Y-134696587D01*
X109180539Y-134690838D01*
X109178593Y-134689715D01*
X109171964Y-134688396D01*
X109144345Y-134669942D01*
X109119461Y-134655575D01*
X109115144Y-134650430D01*
X109105808Y-134644192D01*
X109095579Y-134628883D01*
X109040301Y-134592106D01*
X108969877Y-134590989D01*
X108928208Y-134623228D01*
X108922457Y-134616374D01*
X108900429Y-134634858D01*
X108894192Y-134644192D01*
X108870203Y-134660221D01*
X108855889Y-134672232D01*
X108849776Y-134673870D01*
X108828036Y-134688396D01*
X108750000Y-134703918D01*
X108737633Y-134703918D01*
X108733543Y-134705014D01*
X107760936Y-134705014D01*
X107754720Y-134703918D01*
X107750000Y-134703918D01*
X107713146Y-134696587D01*
X107680539Y-134690838D01*
X107678593Y-134689715D01*
X107671964Y-134688396D01*
X107644345Y-134669942D01*
X107619461Y-134655575D01*
X107615144Y-134650430D01*
X107605808Y-134644192D01*
X107595579Y-134628883D01*
X107540301Y-134592106D01*
X107469877Y-134590989D01*
X107428208Y-134623228D01*
X107422457Y-134616374D01*
X107400429Y-134634858D01*
X107394192Y-134644192D01*
X107370203Y-134660221D01*
X107355889Y-134672232D01*
X107349776Y-134673870D01*
X107328036Y-134688396D01*
X107250000Y-134703918D01*
X107237633Y-134703918D01*
X107233543Y-134705014D01*
X106260936Y-134705014D01*
X106254720Y-134703918D01*
X106250000Y-134703918D01*
X106213146Y-134696587D01*
X106180539Y-134690838D01*
X106178593Y-134689715D01*
X106171964Y-134688396D01*
X106144345Y-134669942D01*
X106119461Y-134655575D01*
X106115144Y-134650430D01*
X106105808Y-134644192D01*
X106095579Y-134628883D01*
X106040301Y-134592106D01*
X105969877Y-134590989D01*
X105928208Y-134623228D01*
X105922457Y-134616374D01*
X105900429Y-134634858D01*
X105894192Y-134644192D01*
X105870203Y-134660221D01*
X105855889Y-134672232D01*
X105849776Y-134673870D01*
X105828036Y-134688396D01*
X105750000Y-134703918D01*
X105737633Y-134703918D01*
X105733543Y-134705014D01*
X104760936Y-134705014D01*
X104754720Y-134703918D01*
X104750000Y-134703918D01*
X104713146Y-134696587D01*
X104680539Y-134690838D01*
X104678593Y-134689715D01*
X104671964Y-134688396D01*
X104644345Y-134669942D01*
X104619461Y-134655575D01*
X104615144Y-134650430D01*
X104605808Y-134644192D01*
X104595579Y-134628883D01*
X104540301Y-134592106D01*
X104469877Y-134590989D01*
X104428208Y-134623228D01*
X104422457Y-134616374D01*
X104400429Y-134634858D01*
X104394192Y-134644192D01*
X104370203Y-134660221D01*
X104355889Y-134672232D01*
X104349776Y-134673870D01*
X104328036Y-134688396D01*
X104250000Y-134703918D01*
X104237633Y-134703918D01*
X104233543Y-134705014D01*
X103260936Y-134705014D01*
X103254720Y-134703918D01*
X103250000Y-134703918D01*
X103213146Y-134696587D01*
X103180539Y-134690838D01*
X103178593Y-134689715D01*
X103171964Y-134688396D01*
X103144340Y-134669938D01*
X103119459Y-134655573D01*
X103115143Y-134650429D01*
X103105808Y-134644192D01*
X103089779Y-134620202D01*
X103077768Y-134605889D01*
X103076130Y-134599776D01*
X103061604Y-134578036D01*
X103046082Y-134500000D01*
X103046082Y-134487633D01*
X103044986Y-134483543D01*
X103044986Y-132510936D01*
X103046082Y-132504720D01*
X103046082Y-132500000D01*
X103053414Y-132463141D01*
X103059162Y-132430540D01*
X103060285Y-132428595D01*
X103061604Y-132421964D01*
X103080065Y-132394335D01*
X103081117Y-132392513D01*
X103097722Y-132324065D01*
X103074686Y-132257507D01*
X103019323Y-132213968D01*
X102972865Y-132205014D01*
X101510936Y-132205014D01*
X101504720Y-132203918D01*
X101500000Y-132203918D01*
X101463146Y-132196587D01*
X101430539Y-132190838D01*
X101428593Y-132189715D01*
X101421964Y-132188396D01*
X101394340Y-132169938D01*
X101369459Y-132155573D01*
X101365143Y-132150429D01*
X101355808Y-132144192D01*
X101339779Y-132120202D01*
X101327768Y-132105889D01*
X101326130Y-132099776D01*
X101311604Y-132078036D01*
X101296082Y-132000000D01*
X101296082Y-131987633D01*
X101294986Y-131983543D01*
X101294986Y-131010936D01*
X101296082Y-131004720D01*
X101296082Y-131000000D01*
X101303413Y-130963146D01*
X101309162Y-130930539D01*
X101310285Y-130928593D01*
X101311604Y-130921964D01*
X101330058Y-130894345D01*
X101344425Y-130869461D01*
X101349570Y-130865144D01*
X101355808Y-130855808D01*
X101371117Y-130845579D01*
X101407894Y-130790301D01*
X101409011Y-130719877D01*
X101376772Y-130678208D01*
X101383626Y-130672457D01*
X101365142Y-130650429D01*
X101355808Y-130644192D01*
X101339779Y-130620203D01*
X101327768Y-130605889D01*
X101326130Y-130599776D01*
X101311604Y-130578036D01*
X101296082Y-130500000D01*
X101296082Y-130487633D01*
X101294986Y-130483543D01*
X101294986Y-129510936D01*
X101296082Y-129504720D01*
X101296082Y-129500000D01*
X101303413Y-129463146D01*
X101309162Y-129430539D01*
X101310285Y-129428593D01*
X101311604Y-129421964D01*
X101330058Y-129394345D01*
X101344425Y-129369461D01*
X101349570Y-129365144D01*
X101355808Y-129355808D01*
X101371117Y-129345579D01*
X101407894Y-129290301D01*
X101409011Y-129219877D01*
X101376772Y-129178208D01*
X101383626Y-129172457D01*
X101365142Y-129150429D01*
X101355808Y-129144192D01*
X101339779Y-129120203D01*
X101327768Y-129105889D01*
X101326130Y-129099776D01*
X101311604Y-129078036D01*
X101296082Y-129000000D01*
X101296082Y-128987633D01*
X101294986Y-128983543D01*
X101294986Y-128010936D01*
X101296082Y-128004720D01*
X101296082Y-128000000D01*
X101303413Y-127963146D01*
X101309162Y-127930539D01*
X101310285Y-127928593D01*
X101311604Y-127921964D01*
X101330058Y-127894345D01*
X101344425Y-127869461D01*
X101349570Y-127865144D01*
X101355808Y-127855808D01*
X101371117Y-127845579D01*
X101407894Y-127790301D01*
X101409011Y-127719877D01*
X101376772Y-127678208D01*
X101383626Y-127672457D01*
X101365142Y-127650429D01*
X101355808Y-127644192D01*
X101339779Y-127620203D01*
X101327768Y-127605889D01*
X101326130Y-127599776D01*
X101311604Y-127578036D01*
X101296082Y-127500000D01*
X101296082Y-127487633D01*
X101294986Y-127483543D01*
X101294986Y-126510936D01*
X101296082Y-126504720D01*
X101296082Y-126500000D01*
X101303413Y-126463146D01*
X101309162Y-126430539D01*
X101310285Y-126428593D01*
X101311604Y-126421964D01*
X101330058Y-126394345D01*
X101344425Y-126369461D01*
X101349570Y-126365144D01*
X101355808Y-126355808D01*
X101371117Y-126345579D01*
X101407894Y-126290301D01*
X101409011Y-126219877D01*
X101376772Y-126178208D01*
X101383626Y-126172457D01*
X101365142Y-126150429D01*
X101355808Y-126144192D01*
X101339779Y-126120203D01*
X101327768Y-126105889D01*
X101326130Y-126099776D01*
X101311604Y-126078036D01*
X101296082Y-126000000D01*
X101296082Y-125987633D01*
X101294986Y-125983543D01*
X101294986Y-125010936D01*
X101296082Y-125004720D01*
X101296082Y-125000000D01*
X101303413Y-124963146D01*
X101309162Y-124930539D01*
X101310285Y-124928593D01*
X101311604Y-124921964D01*
X101330058Y-124894345D01*
X101344425Y-124869461D01*
X101349570Y-124865144D01*
X101355808Y-124855808D01*
X101371117Y-124845579D01*
X101407894Y-124790301D01*
X101409011Y-124719877D01*
X101376772Y-124678208D01*
X101383626Y-124672457D01*
X101365142Y-124650429D01*
X101355808Y-124644192D01*
X101339779Y-124620203D01*
X101327768Y-124605889D01*
X101326130Y-124599776D01*
X101311604Y-124578036D01*
X101296082Y-124500000D01*
X101296082Y-124487633D01*
X101294986Y-124483543D01*
X101294986Y-123510936D01*
X101296082Y-123504720D01*
X101296082Y-123500000D01*
X101303413Y-123463146D01*
X101309162Y-123430539D01*
X101310285Y-123428593D01*
X101311604Y-123421964D01*
X101330058Y-123394345D01*
X101344425Y-123369461D01*
X101349570Y-123365144D01*
X101355808Y-123355808D01*
X101371117Y-123345579D01*
X101407894Y-123290301D01*
X101409011Y-123219877D01*
X101376772Y-123178208D01*
X101383626Y-123172457D01*
X101365142Y-123150429D01*
X101355808Y-123144192D01*
X101339779Y-123120203D01*
X101327768Y-123105889D01*
X101326130Y-123099776D01*
X101311604Y-123078036D01*
X101296082Y-123000000D01*
X101296082Y-122987633D01*
X101294986Y-122983543D01*
X101294986Y-122010936D01*
X101296082Y-122004720D01*
X101296082Y-122000000D01*
X101303413Y-121963146D01*
X101309162Y-121930539D01*
X101310285Y-121928593D01*
X101311604Y-121921964D01*
X101330058Y-121894345D01*
X101344425Y-121869461D01*
X101349570Y-121865144D01*
X101355808Y-121855808D01*
X101371117Y-121845579D01*
X101407894Y-121790301D01*
X101409011Y-121719877D01*
X101376772Y-121678208D01*
X101383626Y-121672457D01*
X101365142Y-121650429D01*
X101355808Y-121644192D01*
X101339779Y-121620203D01*
X101327768Y-121605889D01*
X101326130Y-121599776D01*
X101311604Y-121578036D01*
X101296082Y-121500000D01*
X101296082Y-121487633D01*
X101294986Y-121483543D01*
X101294986Y-120510936D01*
X101296082Y-120504720D01*
X101296082Y-120500000D01*
X101303413Y-120463146D01*
X101309162Y-120430539D01*
X101310285Y-120428593D01*
X101311604Y-120421964D01*
X101330058Y-120394345D01*
X101344425Y-120369461D01*
X101349570Y-120365144D01*
X101355808Y-120355808D01*
X101371117Y-120345579D01*
X101407894Y-120290301D01*
X101409011Y-120219877D01*
X101376772Y-120178208D01*
X101383626Y-120172457D01*
X101365142Y-120150429D01*
X101355808Y-120144192D01*
X101339779Y-120120203D01*
X101327768Y-120105889D01*
X101326130Y-120099776D01*
X101311604Y-120078036D01*
X101296082Y-120000000D01*
X101296082Y-119987633D01*
X101294986Y-119983543D01*
X101294986Y-119010936D01*
X101296082Y-119004720D01*
X101296082Y-119000000D01*
X101303413Y-118963146D01*
X101309162Y-118930539D01*
X101310285Y-118928593D01*
X101311604Y-118921964D01*
X101330058Y-118894345D01*
X101344425Y-118869461D01*
X101349570Y-118865144D01*
X101355808Y-118855808D01*
X101371117Y-118845579D01*
X101407894Y-118790301D01*
X101409011Y-118719877D01*
X101376772Y-118678208D01*
X101383626Y-118672457D01*
X101365142Y-118650429D01*
X101355808Y-118644192D01*
X101339779Y-118620203D01*
X101327768Y-118605889D01*
X101326130Y-118599776D01*
X101311604Y-118578036D01*
X101296082Y-118500000D01*
X101296082Y-118487633D01*
X101294986Y-118483543D01*
X101294986Y-117510936D01*
X101296082Y-117504720D01*
X101296082Y-117500000D01*
X101303413Y-117463146D01*
X101309162Y-117430539D01*
X101310285Y-117428593D01*
X101311604Y-117421964D01*
X101330058Y-117394345D01*
X101344425Y-117369461D01*
X101349570Y-117365144D01*
X101355808Y-117355808D01*
X101371117Y-117345579D01*
X101407894Y-117290301D01*
X101409011Y-117219877D01*
X101376772Y-117178208D01*
X101383626Y-117172457D01*
X101365142Y-117150429D01*
X101355808Y-117144192D01*
X101339779Y-117120203D01*
X101327768Y-117105889D01*
X101326130Y-117099776D01*
X101311604Y-117078036D01*
X101296082Y-117000000D01*
X101296082Y-116987633D01*
X101294986Y-116983543D01*
X101294986Y-116010936D01*
X101296082Y-116004720D01*
X101296082Y-116000000D01*
X101303413Y-115963146D01*
X101309162Y-115930539D01*
X101310285Y-115928593D01*
X101311604Y-115921964D01*
X101330058Y-115894345D01*
X101344425Y-115869461D01*
X101349570Y-115865144D01*
X101355808Y-115855808D01*
X101371117Y-115845579D01*
X101407894Y-115790301D01*
X101409011Y-115719877D01*
X101376772Y-115678208D01*
X101383626Y-115672457D01*
X101365142Y-115650429D01*
X101355808Y-115644192D01*
X101339779Y-115620203D01*
X101327768Y-115605889D01*
X101326130Y-115599776D01*
X101311604Y-115578036D01*
X101296082Y-115500000D01*
X101296082Y-115487633D01*
X101294986Y-115483543D01*
X101294986Y-114510936D01*
X101296082Y-114504720D01*
X101296082Y-114500000D01*
X101303413Y-114463146D01*
X101309162Y-114430539D01*
X101310285Y-114428593D01*
X101311604Y-114421964D01*
X101330058Y-114394345D01*
X101344425Y-114369461D01*
X101349570Y-114365144D01*
X101355808Y-114355808D01*
X101371117Y-114345579D01*
X101407894Y-114290301D01*
X101409011Y-114219877D01*
X101376772Y-114178208D01*
X101383626Y-114172457D01*
X101365142Y-114150429D01*
X101355808Y-114144192D01*
X101339779Y-114120203D01*
X101327768Y-114105889D01*
X101326130Y-114099776D01*
X101311604Y-114078036D01*
X101296082Y-114000000D01*
X101296082Y-113987633D01*
X101294986Y-113983543D01*
X101294986Y-113010936D01*
X101296082Y-113004720D01*
X101296082Y-113000000D01*
X101303413Y-112963146D01*
X101309162Y-112930539D01*
X101310285Y-112928593D01*
X101311604Y-112921964D01*
X101330058Y-112894345D01*
X101344425Y-112869461D01*
X101349570Y-112865144D01*
X101355808Y-112855808D01*
X101379809Y-112839771D01*
X101394114Y-112827768D01*
X101400222Y-112826131D01*
X101421964Y-112811604D01*
X101500000Y-112796082D01*
X101512367Y-112796082D01*
X101516457Y-112794986D01*
X103489064Y-112794986D01*
X103495280Y-112796082D01*
G37*
G36*
X143627280Y-121574082D02*
G01*
X143632000Y-121574082D01*
X143668854Y-121581413D01*
X143701461Y-121587162D01*
X143703407Y-121588285D01*
X143710036Y-121589604D01*
X143737655Y-121608058D01*
X143762539Y-121622425D01*
X143766856Y-121627570D01*
X143776192Y-121633808D01*
X143792229Y-121657809D01*
X143804232Y-121672114D01*
X143805869Y-121678222D01*
X143820396Y-121699964D01*
X143835918Y-121778000D01*
X143835918Y-121790367D01*
X143837014Y-121794457D01*
X143837014Y-123291064D01*
X143835918Y-123297280D01*
X143835918Y-123302000D01*
X143828587Y-123338854D01*
X143822838Y-123371461D01*
X143821715Y-123373407D01*
X143820396Y-123380036D01*
X143801938Y-123407660D01*
X143787573Y-123432541D01*
X143782429Y-123436857D01*
X143776192Y-123446192D01*
X143752202Y-123462221D01*
X143737889Y-123474232D01*
X143731776Y-123475870D01*
X143710036Y-123490396D01*
X143632000Y-123505918D01*
X143619633Y-123505918D01*
X143615543Y-123507014D01*
X142118936Y-123507014D01*
X142112720Y-123505918D01*
X142108000Y-123505918D01*
X142071146Y-123498587D01*
X142038539Y-123492838D01*
X142036593Y-123491715D01*
X142029964Y-123490396D01*
X142002340Y-123471938D01*
X141977459Y-123457573D01*
X141973143Y-123452429D01*
X141963808Y-123446192D01*
X141947779Y-123422202D01*
X141935768Y-123407889D01*
X141934130Y-123401776D01*
X141919604Y-123380036D01*
X141904082Y-123302000D01*
X141904082Y-123289633D01*
X141902986Y-123285543D01*
X141902986Y-121788936D01*
X141904082Y-121782720D01*
X141904082Y-121778000D01*
X141911413Y-121741146D01*
X141917162Y-121708539D01*
X141918285Y-121706593D01*
X141919604Y-121699964D01*
X141938058Y-121672345D01*
X141952425Y-121647461D01*
X141957570Y-121643144D01*
X141963808Y-121633808D01*
X141987809Y-121617771D01*
X142002114Y-121605768D01*
X142008222Y-121604131D01*
X142029964Y-121589604D01*
X142108000Y-121574082D01*
X142120367Y-121574082D01*
X142124457Y-121572986D01*
X143621064Y-121572986D01*
X143627280Y-121574082D01*
G37*
G36*
X141087280Y-121574082D02*
G01*
X141092000Y-121574082D01*
X141128854Y-121581413D01*
X141161461Y-121587162D01*
X141163407Y-121588285D01*
X141170036Y-121589604D01*
X141197655Y-121608058D01*
X141222539Y-121622425D01*
X141226856Y-121627570D01*
X141236192Y-121633808D01*
X141252229Y-121657809D01*
X141264232Y-121672114D01*
X141265869Y-121678222D01*
X141280396Y-121699964D01*
X141295918Y-121778000D01*
X141295918Y-121790367D01*
X141297014Y-121794457D01*
X141297014Y-123291064D01*
X141295918Y-123297280D01*
X141295918Y-123302000D01*
X141288587Y-123338854D01*
X141282838Y-123371461D01*
X141281715Y-123373407D01*
X141280396Y-123380036D01*
X141261938Y-123407660D01*
X141247573Y-123432541D01*
X141242429Y-123436857D01*
X141236192Y-123446192D01*
X141212202Y-123462221D01*
X141197889Y-123474232D01*
X141191776Y-123475870D01*
X141170036Y-123490396D01*
X141092000Y-123505918D01*
X141079633Y-123505918D01*
X141075543Y-123507014D01*
X139578936Y-123507014D01*
X139572720Y-123505918D01*
X139568000Y-123505918D01*
X139531146Y-123498587D01*
X139498539Y-123492838D01*
X139496593Y-123491715D01*
X139489964Y-123490396D01*
X139462340Y-123471938D01*
X139437459Y-123457573D01*
X139433143Y-123452429D01*
X139423808Y-123446192D01*
X139407779Y-123422202D01*
X139395768Y-123407889D01*
X139394130Y-123401776D01*
X139379604Y-123380036D01*
X139364082Y-123302000D01*
X139364082Y-123289633D01*
X139362986Y-123285543D01*
X139362986Y-121788936D01*
X139364082Y-121782720D01*
X139364082Y-121778000D01*
X139371413Y-121741146D01*
X139377162Y-121708539D01*
X139378285Y-121706593D01*
X139379604Y-121699964D01*
X139398058Y-121672345D01*
X139412425Y-121647461D01*
X139417570Y-121643144D01*
X139423808Y-121633808D01*
X139447809Y-121617771D01*
X139462114Y-121605768D01*
X139468222Y-121604131D01*
X139489964Y-121589604D01*
X139568000Y-121574082D01*
X139580367Y-121574082D01*
X139584457Y-121572986D01*
X141081064Y-121572986D01*
X141087280Y-121574082D01*
G37*
G36*
X143627280Y-119034082D02*
G01*
X143632000Y-119034082D01*
X143668854Y-119041413D01*
X143701461Y-119047162D01*
X143703407Y-119048285D01*
X143710036Y-119049604D01*
X143737655Y-119068058D01*
X143762539Y-119082425D01*
X143766856Y-119087570D01*
X143776192Y-119093808D01*
X143792229Y-119117809D01*
X143804232Y-119132114D01*
X143805869Y-119138222D01*
X143820396Y-119159964D01*
X143835918Y-119238000D01*
X143835918Y-119250367D01*
X143837014Y-119254457D01*
X143837014Y-120751064D01*
X143835918Y-120757280D01*
X143835918Y-120762000D01*
X143828587Y-120798854D01*
X143822838Y-120831461D01*
X143821715Y-120833407D01*
X143820396Y-120840036D01*
X143801938Y-120867660D01*
X143787573Y-120892541D01*
X143782429Y-120896857D01*
X143776192Y-120906192D01*
X143752202Y-120922221D01*
X143737889Y-120934232D01*
X143731776Y-120935870D01*
X143710036Y-120950396D01*
X143632000Y-120965918D01*
X143619633Y-120965918D01*
X143615543Y-120967014D01*
X142118936Y-120967014D01*
X142112720Y-120965918D01*
X142108000Y-120965918D01*
X142071146Y-120958587D01*
X142038539Y-120952838D01*
X142036593Y-120951715D01*
X142029964Y-120950396D01*
X142002340Y-120931938D01*
X141977459Y-120917573D01*
X141973143Y-120912429D01*
X141963808Y-120906192D01*
X141947779Y-120882202D01*
X141935768Y-120867889D01*
X141934130Y-120861776D01*
X141919604Y-120840036D01*
X141904082Y-120762000D01*
X141904082Y-120749633D01*
X141902986Y-120745543D01*
X141902986Y-119248936D01*
X141904082Y-119242720D01*
X141904082Y-119238000D01*
X141911413Y-119201146D01*
X141917162Y-119168539D01*
X141918285Y-119166593D01*
X141919604Y-119159964D01*
X141938058Y-119132345D01*
X141952425Y-119107461D01*
X141957570Y-119103144D01*
X141963808Y-119093808D01*
X141987809Y-119077771D01*
X142002114Y-119065768D01*
X142008222Y-119064131D01*
X142029964Y-119049604D01*
X142108000Y-119034082D01*
X142120367Y-119034082D01*
X142124457Y-119032986D01*
X143621064Y-119032986D01*
X143627280Y-119034082D01*
G37*
G36*
X141087280Y-119034082D02*
G01*
X141092000Y-119034082D01*
X141128854Y-119041413D01*
X141161461Y-119047162D01*
X141163407Y-119048285D01*
X141170036Y-119049604D01*
X141197655Y-119068058D01*
X141222539Y-119082425D01*
X141226856Y-119087570D01*
X141236192Y-119093808D01*
X141252229Y-119117809D01*
X141264232Y-119132114D01*
X141265869Y-119138222D01*
X141280396Y-119159964D01*
X141295918Y-119238000D01*
X141295918Y-119250367D01*
X141297014Y-119254457D01*
X141297014Y-120751064D01*
X141295918Y-120757280D01*
X141295918Y-120762000D01*
X141288587Y-120798854D01*
X141282838Y-120831461D01*
X141281715Y-120833407D01*
X141280396Y-120840036D01*
X141261938Y-120867660D01*
X141247573Y-120892541D01*
X141242429Y-120896857D01*
X141236192Y-120906192D01*
X141212202Y-120922221D01*
X141197889Y-120934232D01*
X141191776Y-120935870D01*
X141170036Y-120950396D01*
X141092000Y-120965918D01*
X141079633Y-120965918D01*
X141075543Y-120967014D01*
X139578936Y-120967014D01*
X139572720Y-120965918D01*
X139568000Y-120965918D01*
X139531146Y-120958587D01*
X139498539Y-120952838D01*
X139496593Y-120951715D01*
X139489964Y-120950396D01*
X139462340Y-120931938D01*
X139437459Y-120917573D01*
X139433143Y-120912429D01*
X139423808Y-120906192D01*
X139407779Y-120882202D01*
X139395768Y-120867889D01*
X139394130Y-120861776D01*
X139379604Y-120840036D01*
X139364082Y-120762000D01*
X139364082Y-120749633D01*
X139362986Y-120745543D01*
X139362986Y-119248936D01*
X139364082Y-119242720D01*
X139364082Y-119238000D01*
X139371413Y-119201146D01*
X139377162Y-119168539D01*
X139378285Y-119166593D01*
X139379604Y-119159964D01*
X139398058Y-119132345D01*
X139412425Y-119107461D01*
X139417570Y-119103144D01*
X139423808Y-119093808D01*
X139447809Y-119077771D01*
X139462114Y-119065768D01*
X139468222Y-119064131D01*
X139489964Y-119049604D01*
X139568000Y-119034082D01*
X139580367Y-119034082D01*
X139584457Y-119032986D01*
X141081064Y-119032986D01*
X141087280Y-119034082D01*
G37*
G36*
X141087280Y-116494082D02*
G01*
X141092000Y-116494082D01*
X141128854Y-116501413D01*
X141161461Y-116507162D01*
X141163407Y-116508285D01*
X141170036Y-116509604D01*
X141197655Y-116528058D01*
X141222539Y-116542425D01*
X141226856Y-116547570D01*
X141236192Y-116553808D01*
X141252229Y-116577809D01*
X141264232Y-116592114D01*
X141265869Y-116598222D01*
X141280396Y-116619964D01*
X141295918Y-116698000D01*
X141295918Y-116710367D01*
X141297014Y-116714457D01*
X141297014Y-118211064D01*
X141295918Y-118217280D01*
X141295918Y-118222000D01*
X141288587Y-118258854D01*
X141282838Y-118291461D01*
X141281715Y-118293407D01*
X141280396Y-118300036D01*
X141261938Y-118327660D01*
X141247573Y-118352541D01*
X141242429Y-118356857D01*
X141236192Y-118366192D01*
X141212202Y-118382221D01*
X141197889Y-118394232D01*
X141191776Y-118395870D01*
X141170036Y-118410396D01*
X141092000Y-118425918D01*
X141079633Y-118425918D01*
X141075543Y-118427014D01*
X139578936Y-118427014D01*
X139572720Y-118425918D01*
X139568000Y-118425918D01*
X139531146Y-118418587D01*
X139498539Y-118412838D01*
X139496593Y-118411715D01*
X139489964Y-118410396D01*
X139462340Y-118391938D01*
X139437459Y-118377573D01*
X139433143Y-118372429D01*
X139423808Y-118366192D01*
X139407779Y-118342202D01*
X139395768Y-118327889D01*
X139394130Y-118321776D01*
X139379604Y-118300036D01*
X139364082Y-118222000D01*
X139364082Y-118209633D01*
X139362986Y-118205543D01*
X139362986Y-116708936D01*
X139364082Y-116702720D01*
X139364082Y-116698000D01*
X139371413Y-116661146D01*
X139377162Y-116628539D01*
X139378285Y-116626593D01*
X139379604Y-116619964D01*
X139398058Y-116592345D01*
X139412425Y-116567461D01*
X139417570Y-116563144D01*
X139423808Y-116553808D01*
X139447809Y-116537771D01*
X139462114Y-116525768D01*
X139468222Y-116524131D01*
X139489964Y-116509604D01*
X139568000Y-116494082D01*
X139580367Y-116494082D01*
X139584457Y-116492986D01*
X141081064Y-116492986D01*
X141087280Y-116494082D01*
G37*
G36*
X143627280Y-116494082D02*
G01*
X143632000Y-116494082D01*
X143668854Y-116501413D01*
X143701461Y-116507162D01*
X143703407Y-116508285D01*
X143710036Y-116509604D01*
X143737655Y-116528058D01*
X143762539Y-116542425D01*
X143766856Y-116547570D01*
X143776192Y-116553808D01*
X143792229Y-116577809D01*
X143804232Y-116592114D01*
X143805869Y-116598222D01*
X143820396Y-116619964D01*
X143835918Y-116698000D01*
X143835918Y-116710367D01*
X143837014Y-116714457D01*
X143837014Y-118211064D01*
X143835918Y-118217280D01*
X143835918Y-118222000D01*
X143828587Y-118258854D01*
X143822838Y-118291461D01*
X143821715Y-118293407D01*
X143820396Y-118300036D01*
X143801938Y-118327660D01*
X143787573Y-118352541D01*
X143782429Y-118356857D01*
X143776192Y-118366192D01*
X143752202Y-118382221D01*
X143737889Y-118394232D01*
X143731776Y-118395870D01*
X143710036Y-118410396D01*
X143632000Y-118425918D01*
X143619633Y-118425918D01*
X143615543Y-118427014D01*
X142118936Y-118427014D01*
X142112720Y-118425918D01*
X142108000Y-118425918D01*
X142071146Y-118418587D01*
X142038539Y-118412838D01*
X142036593Y-118411715D01*
X142029964Y-118410396D01*
X142002340Y-118391938D01*
X141977459Y-118377573D01*
X141973143Y-118372429D01*
X141963808Y-118366192D01*
X141947779Y-118342202D01*
X141935768Y-118327889D01*
X141934130Y-118321776D01*
X141919604Y-118300036D01*
X141904082Y-118222000D01*
X141904082Y-118209633D01*
X141902986Y-118205543D01*
X141902986Y-116708936D01*
X141904082Y-116702720D01*
X141904082Y-116698000D01*
X141911413Y-116661146D01*
X141917162Y-116628539D01*
X141918285Y-116626593D01*
X141919604Y-116619964D01*
X141938058Y-116592345D01*
X141952425Y-116567461D01*
X141957570Y-116563144D01*
X141963808Y-116553808D01*
X141987809Y-116537771D01*
X142002114Y-116525768D01*
X142008222Y-116524131D01*
X142029964Y-116509604D01*
X142108000Y-116494082D01*
X142120367Y-116494082D01*
X142124457Y-116492986D01*
X143621064Y-116492986D01*
X143627280Y-116494082D01*
G37*
G36*
X143657280Y-113344082D02*
G01*
X143662000Y-113344082D01*
X143698854Y-113351413D01*
X143731461Y-113357162D01*
X143733407Y-113358285D01*
X143740036Y-113359604D01*
X143767655Y-113378058D01*
X143792539Y-113392425D01*
X143796856Y-113397570D01*
X143806192Y-113403808D01*
X143822229Y-113427809D01*
X143834232Y-113442114D01*
X143835869Y-113448222D01*
X143850396Y-113469964D01*
X143865918Y-113548000D01*
X143865918Y-113560367D01*
X143867014Y-113564457D01*
X143867014Y-115061064D01*
X143865918Y-115067280D01*
X143865918Y-115072000D01*
X143858587Y-115108854D01*
X143852838Y-115141461D01*
X143851715Y-115143407D01*
X143850396Y-115150036D01*
X143831938Y-115177660D01*
X143817573Y-115202541D01*
X143812429Y-115206857D01*
X143806192Y-115216192D01*
X143782202Y-115232221D01*
X143767889Y-115244232D01*
X143761776Y-115245870D01*
X143740036Y-115260396D01*
X143662000Y-115275918D01*
X143649633Y-115275918D01*
X143645543Y-115277014D01*
X142148936Y-115277014D01*
X142142720Y-115275918D01*
X142138000Y-115275918D01*
X142101146Y-115268587D01*
X142068539Y-115262838D01*
X142066593Y-115261715D01*
X142059964Y-115260396D01*
X142032340Y-115241938D01*
X142007459Y-115227573D01*
X142003143Y-115222429D01*
X141993808Y-115216192D01*
X141977779Y-115192202D01*
X141965768Y-115177889D01*
X141964130Y-115171776D01*
X141949604Y-115150036D01*
X141934082Y-115072000D01*
X141934082Y-115059633D01*
X141932986Y-115055543D01*
X141932986Y-113558936D01*
X141934082Y-113552720D01*
X141934082Y-113548000D01*
X141941413Y-113511146D01*
X141947162Y-113478539D01*
X141948285Y-113476593D01*
X141949604Y-113469964D01*
X141968058Y-113442345D01*
X141982425Y-113417461D01*
X141987570Y-113413144D01*
X141993808Y-113403808D01*
X142017809Y-113387771D01*
X142032114Y-113375768D01*
X142038222Y-113374131D01*
X142059964Y-113359604D01*
X142138000Y-113344082D01*
X142150367Y-113344082D01*
X142154457Y-113342986D01*
X143651064Y-113342986D01*
X143657280Y-113344082D01*
G37*
G36*
X143657280Y-110804082D02*
G01*
X143662000Y-110804082D01*
X143698854Y-110811413D01*
X143731461Y-110817162D01*
X143733407Y-110818285D01*
X143740036Y-110819604D01*
X143767655Y-110838058D01*
X143792539Y-110852425D01*
X143796856Y-110857570D01*
X143806192Y-110863808D01*
X143822229Y-110887809D01*
X143834232Y-110902114D01*
X143835869Y-110908222D01*
X143850396Y-110929964D01*
X143865918Y-111008000D01*
X143865918Y-111020367D01*
X143867014Y-111024457D01*
X143867014Y-112521064D01*
X143865918Y-112527280D01*
X143865918Y-112532000D01*
X143858587Y-112568854D01*
X143852838Y-112601461D01*
X143851715Y-112603407D01*
X143850396Y-112610036D01*
X143831938Y-112637660D01*
X143817573Y-112662541D01*
X143812429Y-112666857D01*
X143806192Y-112676192D01*
X143782202Y-112692221D01*
X143767889Y-112704232D01*
X143761776Y-112705870D01*
X143740036Y-112720396D01*
X143662000Y-112735918D01*
X143649633Y-112735918D01*
X143645543Y-112737014D01*
X142148936Y-112737014D01*
X142142720Y-112735918D01*
X142138000Y-112735918D01*
X142101146Y-112728587D01*
X142068539Y-112722838D01*
X142066593Y-112721715D01*
X142059964Y-112720396D01*
X142032340Y-112701938D01*
X142007459Y-112687573D01*
X142003143Y-112682429D01*
X141993808Y-112676192D01*
X141977779Y-112652202D01*
X141965768Y-112637889D01*
X141964130Y-112631776D01*
X141949604Y-112610036D01*
X141934082Y-112532000D01*
X141934082Y-112519633D01*
X141932986Y-112515543D01*
X141932986Y-111018936D01*
X141934082Y-111012720D01*
X141934082Y-111008000D01*
X141941413Y-110971146D01*
X141947162Y-110938539D01*
X141948285Y-110936593D01*
X141949604Y-110929964D01*
X141968058Y-110902345D01*
X141982425Y-110877461D01*
X141987570Y-110873144D01*
X141993808Y-110863808D01*
X142017809Y-110847771D01*
X142032114Y-110835768D01*
X142038222Y-110834131D01*
X142059964Y-110819604D01*
X142138000Y-110804082D01*
X142150367Y-110804082D01*
X142154457Y-110802986D01*
X143651064Y-110802986D01*
X143657280Y-110804082D01*
G37*
G36*
X143657280Y-108264082D02*
G01*
X143662000Y-108264082D01*
X143698854Y-108271413D01*
X143731461Y-108277162D01*
X143733407Y-108278285D01*
X143740036Y-108279604D01*
X143767655Y-108298058D01*
X143792539Y-108312425D01*
X143796856Y-108317570D01*
X143806192Y-108323808D01*
X143822229Y-108347809D01*
X143834232Y-108362114D01*
X143835869Y-108368222D01*
X143850396Y-108389964D01*
X143865918Y-108468000D01*
X143865918Y-108480367D01*
X143867014Y-108484457D01*
X143867014Y-109981064D01*
X143865918Y-109987280D01*
X143865918Y-109992000D01*
X143858587Y-110028854D01*
X143852838Y-110061461D01*
X143851715Y-110063407D01*
X143850396Y-110070036D01*
X143831938Y-110097660D01*
X143817573Y-110122541D01*
X143812429Y-110126857D01*
X143806192Y-110136192D01*
X143782202Y-110152221D01*
X143767889Y-110164232D01*
X143761776Y-110165870D01*
X143740036Y-110180396D01*
X143662000Y-110195918D01*
X143649633Y-110195918D01*
X143645543Y-110197014D01*
X142148936Y-110197014D01*
X142142720Y-110195918D01*
X142138000Y-110195918D01*
X142101146Y-110188587D01*
X142068539Y-110182838D01*
X142066593Y-110181715D01*
X142059964Y-110180396D01*
X142032340Y-110161938D01*
X142007459Y-110147573D01*
X142003143Y-110142429D01*
X141993808Y-110136192D01*
X141977779Y-110112202D01*
X141965768Y-110097889D01*
X141964130Y-110091776D01*
X141949604Y-110070036D01*
X141934082Y-109992000D01*
X141934082Y-109979633D01*
X141932986Y-109975543D01*
X141932986Y-108478936D01*
X141934082Y-108472720D01*
X141934082Y-108468000D01*
X141941413Y-108431146D01*
X141947162Y-108398539D01*
X141948285Y-108396593D01*
X141949604Y-108389964D01*
X141968058Y-108362345D01*
X141982425Y-108337461D01*
X141987570Y-108333144D01*
X141993808Y-108323808D01*
X142017809Y-108307771D01*
X142032114Y-108295768D01*
X142038222Y-108294131D01*
X142059964Y-108279604D01*
X142138000Y-108264082D01*
X142150367Y-108264082D01*
X142154457Y-108262986D01*
X143651064Y-108262986D01*
X143657280Y-108264082D01*
G37*
G36*
X143657280Y-105724082D02*
G01*
X143662000Y-105724082D01*
X143698854Y-105731413D01*
X143731461Y-105737162D01*
X143733407Y-105738285D01*
X143740036Y-105739604D01*
X143767655Y-105758058D01*
X143792539Y-105772425D01*
X143796856Y-105777570D01*
X143806192Y-105783808D01*
X143822229Y-105807809D01*
X143834232Y-105822114D01*
X143835869Y-105828222D01*
X143850396Y-105849964D01*
X143865918Y-105928000D01*
X143865918Y-105940367D01*
X143867014Y-105944457D01*
X143867014Y-107441064D01*
X143865918Y-107447280D01*
X143865918Y-107452000D01*
X143858587Y-107488854D01*
X143852838Y-107521461D01*
X143851715Y-107523407D01*
X143850396Y-107530036D01*
X143831938Y-107557660D01*
X143817573Y-107582541D01*
X143812429Y-107586857D01*
X143806192Y-107596192D01*
X143782202Y-107612221D01*
X143767889Y-107624232D01*
X143761776Y-107625870D01*
X143740036Y-107640396D01*
X143662000Y-107655918D01*
X143649633Y-107655918D01*
X143645543Y-107657014D01*
X142148936Y-107657014D01*
X142142720Y-107655918D01*
X142138000Y-107655918D01*
X142101146Y-107648587D01*
X142068539Y-107642838D01*
X142066593Y-107641715D01*
X142059964Y-107640396D01*
X142032340Y-107621938D01*
X142007459Y-107607573D01*
X142003143Y-107602429D01*
X141993808Y-107596192D01*
X141977779Y-107572202D01*
X141965768Y-107557889D01*
X141964130Y-107551776D01*
X141949604Y-107530036D01*
X141934082Y-107452000D01*
X141934082Y-107439633D01*
X141932986Y-107435543D01*
X141932986Y-105938936D01*
X141934082Y-105932720D01*
X141934082Y-105928000D01*
X141941413Y-105891146D01*
X141947162Y-105858539D01*
X141948285Y-105856593D01*
X141949604Y-105849964D01*
X141968058Y-105822345D01*
X141982425Y-105797461D01*
X141987570Y-105793144D01*
X141993808Y-105783808D01*
X142017809Y-105767771D01*
X142032114Y-105755768D01*
X142038222Y-105754131D01*
X142059964Y-105739604D01*
X142138000Y-105724082D01*
X142150367Y-105724082D01*
X142154457Y-105722986D01*
X143651064Y-105722986D01*
X143657280Y-105724082D01*
G37*
G36*
X117667280Y-83334082D02*
G01*
X117672000Y-83334082D01*
X117708854Y-83341413D01*
X117741461Y-83347162D01*
X117743407Y-83348285D01*
X117750036Y-83349604D01*
X117777655Y-83368058D01*
X117802539Y-83382425D01*
X117806856Y-83387570D01*
X117816192Y-83393808D01*
X117832229Y-83417809D01*
X117844232Y-83432114D01*
X117845869Y-83438222D01*
X117860396Y-83459964D01*
X117875918Y-83538000D01*
X117875918Y-83550367D01*
X117877014Y-83554457D01*
X117877014Y-85051064D01*
X117875918Y-85057280D01*
X117875918Y-85062000D01*
X117868587Y-85098854D01*
X117862838Y-85131461D01*
X117861715Y-85133407D01*
X117860396Y-85140036D01*
X117841938Y-85167660D01*
X117827573Y-85192541D01*
X117822429Y-85196857D01*
X117816192Y-85206192D01*
X117792202Y-85222221D01*
X117777889Y-85234232D01*
X117771776Y-85235870D01*
X117750036Y-85250396D01*
X117672000Y-85265918D01*
X117659633Y-85265918D01*
X117655543Y-85267014D01*
X116158936Y-85267014D01*
X116152720Y-85265918D01*
X116148000Y-85265918D01*
X116111146Y-85258587D01*
X116078539Y-85252838D01*
X116076593Y-85251715D01*
X116069964Y-85250396D01*
X116042340Y-85231938D01*
X116017459Y-85217573D01*
X116013143Y-85212429D01*
X116003808Y-85206192D01*
X115987779Y-85182202D01*
X115975768Y-85167889D01*
X115974130Y-85161776D01*
X115959604Y-85140036D01*
X115944082Y-85062000D01*
X115944082Y-85049633D01*
X115942986Y-85045543D01*
X115942986Y-83548936D01*
X115944082Y-83542720D01*
X115944082Y-83538000D01*
X115951413Y-83501146D01*
X115957162Y-83468539D01*
X115958285Y-83466593D01*
X115959604Y-83459964D01*
X115978058Y-83432345D01*
X115992425Y-83407461D01*
X115997570Y-83403144D01*
X116003808Y-83393808D01*
X116027809Y-83377771D01*
X116042114Y-83365768D01*
X116048222Y-83364131D01*
X116069964Y-83349604D01*
X116148000Y-83334082D01*
X116160367Y-83334082D01*
X116164457Y-83332986D01*
X117661064Y-83332986D01*
X117667280Y-83334082D01*
G37*
G36*
X115127280Y-83334082D02*
G01*
X115132000Y-83334082D01*
X115168854Y-83341413D01*
X115201461Y-83347162D01*
X115203407Y-83348285D01*
X115210036Y-83349604D01*
X115237655Y-83368058D01*
X115262539Y-83382425D01*
X115266856Y-83387570D01*
X115276192Y-83393808D01*
X115292229Y-83417809D01*
X115304232Y-83432114D01*
X115305869Y-83438222D01*
X115320396Y-83459964D01*
X115335918Y-83538000D01*
X115335918Y-83550367D01*
X115337014Y-83554457D01*
X115337014Y-85051064D01*
X115335918Y-85057280D01*
X115335918Y-85062000D01*
X115328587Y-85098854D01*
X115322838Y-85131461D01*
X115321715Y-85133407D01*
X115320396Y-85140036D01*
X115301938Y-85167660D01*
X115287573Y-85192541D01*
X115282429Y-85196857D01*
X115276192Y-85206192D01*
X115252202Y-85222221D01*
X115237889Y-85234232D01*
X115231776Y-85235870D01*
X115210036Y-85250396D01*
X115132000Y-85265918D01*
X115119633Y-85265918D01*
X115115543Y-85267014D01*
X113618936Y-85267014D01*
X113612720Y-85265918D01*
X113608000Y-85265918D01*
X113571146Y-85258587D01*
X113538539Y-85252838D01*
X113536593Y-85251715D01*
X113529964Y-85250396D01*
X113502340Y-85231938D01*
X113477459Y-85217573D01*
X113473143Y-85212429D01*
X113463808Y-85206192D01*
X113447779Y-85182202D01*
X113435768Y-85167889D01*
X113434130Y-85161776D01*
X113419604Y-85140036D01*
X113404082Y-85062000D01*
X113404082Y-85049633D01*
X113402986Y-85045543D01*
X113402986Y-83548936D01*
X113404082Y-83542720D01*
X113404082Y-83538000D01*
X113411413Y-83501146D01*
X113417162Y-83468539D01*
X113418285Y-83466593D01*
X113419604Y-83459964D01*
X113438058Y-83432345D01*
X113452425Y-83407461D01*
X113457570Y-83403144D01*
X113463808Y-83393808D01*
X113487809Y-83377771D01*
X113502114Y-83365768D01*
X113508222Y-83364131D01*
X113529964Y-83349604D01*
X113608000Y-83334082D01*
X113620367Y-83334082D01*
X113624457Y-83332986D01*
X115121064Y-83332986D01*
X115127280Y-83334082D01*
G37*
G36*
X112587280Y-83334082D02*
G01*
X112592000Y-83334082D01*
X112628854Y-83341413D01*
X112661461Y-83347162D01*
X112663407Y-83348285D01*
X112670036Y-83349604D01*
X112697655Y-83368058D01*
X112722539Y-83382425D01*
X112726856Y-83387570D01*
X112736192Y-83393808D01*
X112752229Y-83417809D01*
X112764232Y-83432114D01*
X112765869Y-83438222D01*
X112780396Y-83459964D01*
X112795918Y-83538000D01*
X112795918Y-83550367D01*
X112797014Y-83554457D01*
X112797014Y-85051064D01*
X112795918Y-85057280D01*
X112795918Y-85062000D01*
X112788587Y-85098854D01*
X112782838Y-85131461D01*
X112781715Y-85133407D01*
X112780396Y-85140036D01*
X112761938Y-85167660D01*
X112747573Y-85192541D01*
X112742429Y-85196857D01*
X112736192Y-85206192D01*
X112712202Y-85222221D01*
X112697889Y-85234232D01*
X112691776Y-85235870D01*
X112670036Y-85250396D01*
X112592000Y-85265918D01*
X112579633Y-85265918D01*
X112575543Y-85267014D01*
X111078936Y-85267014D01*
X111072720Y-85265918D01*
X111068000Y-85265918D01*
X111031146Y-85258587D01*
X110998539Y-85252838D01*
X110996593Y-85251715D01*
X110989964Y-85250396D01*
X110962340Y-85231938D01*
X110937459Y-85217573D01*
X110933143Y-85212429D01*
X110923808Y-85206192D01*
X110907779Y-85182202D01*
X110895768Y-85167889D01*
X110894130Y-85161776D01*
X110879604Y-85140036D01*
X110864082Y-85062000D01*
X110864082Y-85049633D01*
X110862986Y-85045543D01*
X110862986Y-83548936D01*
X110864082Y-83542720D01*
X110864082Y-83538000D01*
X110871413Y-83501146D01*
X110877162Y-83468539D01*
X110878285Y-83466593D01*
X110879604Y-83459964D01*
X110898058Y-83432345D01*
X110912425Y-83407461D01*
X110917570Y-83403144D01*
X110923808Y-83393808D01*
X110947809Y-83377771D01*
X110962114Y-83365768D01*
X110968222Y-83364131D01*
X110989964Y-83349604D01*
X111068000Y-83334082D01*
X111080367Y-83334082D01*
X111084457Y-83332986D01*
X112581064Y-83332986D01*
X112587280Y-83334082D01*
G37*
G36*
X110047280Y-83334082D02*
G01*
X110052000Y-83334082D01*
X110088854Y-83341413D01*
X110121461Y-83347162D01*
X110123407Y-83348285D01*
X110130036Y-83349604D01*
X110157655Y-83368058D01*
X110182539Y-83382425D01*
X110186856Y-83387570D01*
X110196192Y-83393808D01*
X110212229Y-83417809D01*
X110224232Y-83432114D01*
X110225869Y-83438222D01*
X110240396Y-83459964D01*
X110255918Y-83538000D01*
X110255918Y-83550367D01*
X110257014Y-83554457D01*
X110257014Y-85051064D01*
X110255918Y-85057280D01*
X110255918Y-85062000D01*
X110248587Y-85098854D01*
X110242838Y-85131461D01*
X110241715Y-85133407D01*
X110240396Y-85140036D01*
X110221938Y-85167660D01*
X110207573Y-85192541D01*
X110202429Y-85196857D01*
X110196192Y-85206192D01*
X110172202Y-85222221D01*
X110157889Y-85234232D01*
X110151776Y-85235870D01*
X110130036Y-85250396D01*
X110052000Y-85265918D01*
X110039633Y-85265918D01*
X110035543Y-85267014D01*
X108538936Y-85267014D01*
X108532720Y-85265918D01*
X108528000Y-85265918D01*
X108491146Y-85258587D01*
X108458539Y-85252838D01*
X108456593Y-85251715D01*
X108449964Y-85250396D01*
X108422340Y-85231938D01*
X108397459Y-85217573D01*
X108393143Y-85212429D01*
X108383808Y-85206192D01*
X108367779Y-85182202D01*
X108355768Y-85167889D01*
X108354130Y-85161776D01*
X108339604Y-85140036D01*
X108324082Y-85062000D01*
X108324082Y-85049633D01*
X108322986Y-85045543D01*
X108322986Y-83548936D01*
X108324082Y-83542720D01*
X108324082Y-83538000D01*
X108331413Y-83501146D01*
X108337162Y-83468539D01*
X108338285Y-83466593D01*
X108339604Y-83459964D01*
X108358058Y-83432345D01*
X108372425Y-83407461D01*
X108377570Y-83403144D01*
X108383808Y-83393808D01*
X108407809Y-83377771D01*
X108422114Y-83365768D01*
X108428222Y-83364131D01*
X108449964Y-83349604D01*
X108528000Y-83334082D01*
X108540367Y-83334082D01*
X108544457Y-83332986D01*
X110041064Y-83332986D01*
X110047280Y-83334082D01*
G37*
G36*
X127583445Y-55587566D02*
G01*
X127605994Y-55586779D01*
X127697782Y-55598374D01*
X127795153Y-55607578D01*
X127817609Y-55613511D01*
X127837485Y-55616022D01*
X127928520Y-55642815D01*
X128025679Y-55668486D01*
X128044538Y-55676962D01*
X128061324Y-55681902D01*
X128148970Y-55723895D01*
X128243161Y-55766226D01*
X128258262Y-55776259D01*
X128271749Y-55782721D01*
X128353371Y-55839450D01*
X128441759Y-55898175D01*
X128453153Y-55908800D01*
X128463354Y-55915890D01*
X128536384Y-55986414D01*
X128616140Y-56060788D01*
X128624089Y-56071110D01*
X128631202Y-56077979D01*
X128693162Y-56160803D01*
X128761621Y-56249698D01*
X128766572Y-56258932D01*
X128770971Y-56264812D01*
X128819556Y-56357747D01*
X128874294Y-56459832D01*
X128876849Y-56467337D01*
X128879076Y-56471597D01*
X128912321Y-56571535D01*
X128951134Y-56685548D01*
X128952012Y-56690852D01*
X128952728Y-56693004D01*
X128968977Y-56793331D01*
X128990077Y-56920782D01*
X128989851Y-56930025D01*
X128987153Y-57187658D01*
X128983002Y-57210276D01*
X128982522Y-57229912D01*
X128961855Y-57325501D01*
X128945152Y-57416509D01*
X128937581Y-57437771D01*
X128932134Y-57462963D01*
X128897114Y-57551414D01*
X128866879Y-57636322D01*
X128854790Y-57658312D01*
X128844360Y-57684655D01*
X128796722Y-57763938D01*
X128754471Y-57840792D01*
X128737461Y-57862564D01*
X128721556Y-57889034D01*
X128663307Y-57957477D01*
X128610813Y-58024666D01*
X128588689Y-58045153D01*
X128567021Y-58070613D01*
X128500371Y-58126937D01*
X128439609Y-58183203D01*
X128412386Y-58201290D01*
X128384905Y-58224513D01*
X128312186Y-58267862D01*
X128245265Y-58312324D01*
X128213200Y-58326869D01*
X128180098Y-58346602D01*
X128103678Y-58376551D01*
X128032768Y-58408717D01*
X127996356Y-58418610D01*
X127958101Y-58433602D01*
X127880343Y-58450130D01*
X127807596Y-58469895D01*
X127767560Y-58474103D01*
X127724875Y-58483176D01*
X127648043Y-58486665D01*
X127575543Y-58494285D01*
X127532828Y-58491897D01*
X127486685Y-58493992D01*
X127412862Y-58485189D01*
X127342573Y-58481259D01*
X127298332Y-58471532D01*
X127249926Y-58465760D01*
X127180999Y-58445735D01*
X127114680Y-58431154D01*
X127070218Y-58413551D01*
X127020957Y-58399239D01*
X126958550Y-58369339D01*
X126897734Y-58345260D01*
X126854488Y-58319480D01*
X126805928Y-58296214D01*
X126751343Y-58257993D01*
X126697310Y-58225783D01*
X126656818Y-58191806D01*
X126610613Y-58159453D01*
X126564828Y-58114617D01*
X126518562Y-58075795D01*
X126482380Y-58033878D01*
X126440257Y-57992628D01*
X126403929Y-57942992D01*
X126366101Y-57899168D01*
X126335766Y-57849859D01*
X126299435Y-57800219D01*
X126272852Y-57747594D01*
X126243835Y-57700427D01*
X126220817Y-57644582D01*
X126191930Y-57587395D01*
X126175066Y-57533582D01*
X126154918Y-57484700D01*
X126140552Y-57423448D01*
X126120627Y-57359869D01*
X126113134Y-57306549D01*
X126101638Y-57257537D01*
X126097075Y-57192284D01*
X126087444Y-57123754D01*
X126088697Y-57072475D01*
X126085361Y-57024766D01*
X126091516Y-56957138D01*
X126093269Y-56885389D01*
X126102403Y-56837508D01*
X126106509Y-56792390D01*
X126124019Y-56724193D01*
X126137948Y-56651176D01*
X126153896Y-56607830D01*
X126164537Y-56566387D01*
X126193725Y-56499577D01*
X126220279Y-56427406D01*
X126241829Y-56389471D01*
X126257949Y-56352574D01*
X126298795Y-56289194D01*
X126338053Y-56220087D01*
X126363905Y-56188162D01*
X126384350Y-56156438D01*
X126436464Y-56098560D01*
X126488105Y-56034788D01*
X126516916Y-56009209D01*
X126540478Y-55983040D01*
X126603097Y-55932693D01*
X126666407Y-55876484D01*
X126696858Y-55857308D01*
X126722330Y-55836828D01*
X126794331Y-55795926D01*
X126868170Y-55749427D01*
X126898991Y-55736471D01*
X126925211Y-55721576D01*
X127005129Y-55691854D01*
X127087975Y-55657029D01*
X127118011Y-55649873D01*
X127143909Y-55640242D01*
X127229954Y-55623205D01*
X127319920Y-55601772D01*
X127348179Y-55599796D01*
X127372795Y-55594922D01*
X127462856Y-55591777D01*
X127557775Y-55585140D01*
X127583445Y-55587566D01*
G37*
G36*
X122503445Y-55587566D02*
G01*
X122525994Y-55586779D01*
X122617782Y-55598374D01*
X122715153Y-55607578D01*
X122737609Y-55613511D01*
X122757485Y-55616022D01*
X122848520Y-55642815D01*
X122945679Y-55668486D01*
X122964538Y-55676962D01*
X122981324Y-55681902D01*
X123068970Y-55723895D01*
X123163161Y-55766226D01*
X123178262Y-55776259D01*
X123191749Y-55782721D01*
X123273371Y-55839450D01*
X123361759Y-55898175D01*
X123373153Y-55908800D01*
X123383354Y-55915890D01*
X123456384Y-55986414D01*
X123536140Y-56060788D01*
X123544089Y-56071110D01*
X123551202Y-56077979D01*
X123613162Y-56160803D01*
X123681621Y-56249698D01*
X123686572Y-56258932D01*
X123690971Y-56264812D01*
X123739556Y-56357747D01*
X123794294Y-56459832D01*
X123796849Y-56467337D01*
X123799076Y-56471597D01*
X123832321Y-56571535D01*
X123871134Y-56685548D01*
X123872012Y-56690852D01*
X123872728Y-56693004D01*
X123888977Y-56793331D01*
X123910077Y-56920782D01*
X123909851Y-56930025D01*
X123907153Y-57187658D01*
X123903002Y-57210276D01*
X123902522Y-57229912D01*
X123881855Y-57325501D01*
X123865152Y-57416509D01*
X123857581Y-57437771D01*
X123852134Y-57462963D01*
X123817114Y-57551414D01*
X123786879Y-57636322D01*
X123774790Y-57658312D01*
X123764360Y-57684655D01*
X123716722Y-57763938D01*
X123674471Y-57840792D01*
X123657461Y-57862564D01*
X123641556Y-57889034D01*
X123583307Y-57957477D01*
X123530813Y-58024666D01*
X123508689Y-58045153D01*
X123487021Y-58070613D01*
X123420371Y-58126937D01*
X123359609Y-58183203D01*
X123332386Y-58201290D01*
X123304905Y-58224513D01*
X123232186Y-58267862D01*
X123165265Y-58312324D01*
X123133200Y-58326869D01*
X123100098Y-58346602D01*
X123023678Y-58376551D01*
X122952768Y-58408717D01*
X122916356Y-58418610D01*
X122878101Y-58433602D01*
X122800343Y-58450130D01*
X122727596Y-58469895D01*
X122687560Y-58474103D01*
X122644875Y-58483176D01*
X122568043Y-58486665D01*
X122495543Y-58494285D01*
X122452828Y-58491897D01*
X122406685Y-58493992D01*
X122332862Y-58485189D01*
X122262573Y-58481259D01*
X122218332Y-58471532D01*
X122169926Y-58465760D01*
X122100999Y-58445735D01*
X122034680Y-58431154D01*
X121990218Y-58413551D01*
X121940957Y-58399239D01*
X121878550Y-58369339D01*
X121817734Y-58345260D01*
X121774488Y-58319480D01*
X121725928Y-58296214D01*
X121671343Y-58257993D01*
X121617310Y-58225783D01*
X121576818Y-58191806D01*
X121530613Y-58159453D01*
X121484828Y-58114617D01*
X121438562Y-58075795D01*
X121402380Y-58033878D01*
X121360257Y-57992628D01*
X121323929Y-57942992D01*
X121286101Y-57899168D01*
X121255766Y-57849859D01*
X121219435Y-57800219D01*
X121192852Y-57747594D01*
X121163835Y-57700427D01*
X121140817Y-57644582D01*
X121111930Y-57587395D01*
X121095066Y-57533582D01*
X121074918Y-57484700D01*
X121060552Y-57423448D01*
X121040627Y-57359869D01*
X121033134Y-57306549D01*
X121021638Y-57257537D01*
X121017075Y-57192284D01*
X121007444Y-57123754D01*
X121008697Y-57072475D01*
X121005361Y-57024766D01*
X121011516Y-56957138D01*
X121013269Y-56885389D01*
X121022403Y-56837508D01*
X121026509Y-56792390D01*
X121044019Y-56724193D01*
X121057948Y-56651176D01*
X121073896Y-56607830D01*
X121084537Y-56566387D01*
X121113725Y-56499577D01*
X121140279Y-56427406D01*
X121161829Y-56389471D01*
X121177949Y-56352574D01*
X121218795Y-56289194D01*
X121258053Y-56220087D01*
X121283905Y-56188162D01*
X121304350Y-56156438D01*
X121356464Y-56098560D01*
X121408105Y-56034788D01*
X121436916Y-56009209D01*
X121460478Y-55983040D01*
X121523097Y-55932693D01*
X121586407Y-55876484D01*
X121616858Y-55857308D01*
X121642330Y-55836828D01*
X121714331Y-55795926D01*
X121788170Y-55749427D01*
X121818991Y-55736471D01*
X121845211Y-55721576D01*
X121925129Y-55691854D01*
X122007975Y-55657029D01*
X122038011Y-55649873D01*
X122063909Y-55640242D01*
X122149954Y-55623205D01*
X122239920Y-55601772D01*
X122268179Y-55599796D01*
X122292795Y-55594922D01*
X122382856Y-55591777D01*
X122477775Y-55585140D01*
X122503445Y-55587566D01*
G37*
G36*
X125064511Y-53150001D02*
G01*
X125118110Y-53150001D01*
X125180054Y-53160923D01*
X125237555Y-53166359D01*
X125291074Y-53180499D01*
X125350740Y-53191020D01*
X125403303Y-53210151D01*
X125452187Y-53223067D01*
X125509261Y-53248717D01*
X125572714Y-53271812D01*
X125615094Y-53296280D01*
X125654670Y-53314066D01*
X125712830Y-53352707D01*
X125777286Y-53389921D01*
X125809404Y-53416872D01*
X125839572Y-53436915D01*
X125895990Y-53489526D01*
X125958240Y-53541760D01*
X125980673Y-53568494D01*
X126001930Y-53588317D01*
X126053544Y-53655339D01*
X126110079Y-53722714D01*
X126124001Y-53746828D01*
X126137378Y-53764198D01*
X126181001Y-53845555D01*
X126228188Y-53927286D01*
X126235297Y-53946817D01*
X126242280Y-53959841D01*
X126274714Y-54055114D01*
X126308980Y-54149260D01*
X126311362Y-54162766D01*
X126313820Y-54169988D01*
X126332018Y-54279913D01*
X126349999Y-54381890D01*
X126349999Y-54618110D01*
X126343256Y-54656352D01*
X126342719Y-54678322D01*
X126324629Y-54761992D01*
X126308980Y-54850740D01*
X126300261Y-54874694D01*
X126296132Y-54893793D01*
X126261173Y-54982089D01*
X126228188Y-55072714D01*
X126218970Y-55088680D01*
X126214409Y-55100200D01*
X126160992Y-55189101D01*
X126110079Y-55277286D01*
X126102778Y-55285987D01*
X126100074Y-55290487D01*
X126023818Y-55380088D01*
X125958240Y-55458240D01*
X125886788Y-55518196D01*
X125786637Y-55602830D01*
X125784178Y-55604296D01*
X125777286Y-55610079D01*
X125688059Y-55661594D01*
X125595956Y-55716498D01*
X125586634Y-55720151D01*
X125572714Y-55728188D01*
X125480277Y-55761832D01*
X125389272Y-55797497D01*
X125372487Y-55801065D01*
X125350740Y-55808980D01*
X125259835Y-55825009D01*
X125172120Y-55843653D01*
X125147849Y-55844755D01*
X125118110Y-55849999D01*
X125032386Y-55849999D01*
X124950365Y-55853724D01*
X124919127Y-55849999D01*
X124881890Y-55849999D01*
X124804102Y-55836283D01*
X124729928Y-55827438D01*
X124692851Y-55816666D01*
X124649260Y-55808980D01*
X124581482Y-55784311D01*
X124516748Y-55765504D01*
X124475460Y-55745722D01*
X124427286Y-55728188D01*
X124370809Y-55695581D01*
X124316549Y-55669584D01*
X124273167Y-55639208D01*
X124222714Y-55610079D01*
X124178089Y-55572634D01*
X124134703Y-55542255D01*
X124091711Y-55500154D01*
X124041760Y-55458240D01*
X124008806Y-55418967D01*
X123976096Y-55386935D01*
X123936288Y-55332544D01*
X123889921Y-55277286D01*
X123867786Y-55238947D01*
X123844985Y-55207793D01*
X123811307Y-55141122D01*
X123771812Y-55072714D01*
X123759075Y-55037720D01*
X123744895Y-55009648D01*
X123720344Y-54931306D01*
X123691020Y-54850740D01*
X123685777Y-54821006D01*
X123678509Y-54797814D01*
X123666026Y-54708990D01*
X123650001Y-54618110D01*
X123650001Y-54594969D01*
X123647613Y-54577977D01*
X123650001Y-54480270D01*
X123650001Y-54381890D01*
X123652792Y-54366059D01*
X123653037Y-54356050D01*
X123673131Y-54250716D01*
X123691020Y-54149260D01*
X123694097Y-54140806D01*
X123694634Y-54137991D01*
X123739977Y-54014751D01*
X123771812Y-53927286D01*
X123822835Y-53838911D01*
X123880939Y-53736630D01*
X123884240Y-53732553D01*
X123889921Y-53722714D01*
X123955380Y-53644703D01*
X124020645Y-53564108D01*
X124029910Y-53555882D01*
X124041760Y-53541760D01*
X124115647Y-53479761D01*
X124186652Y-53416720D01*
X124203181Y-53406311D01*
X124222714Y-53389921D01*
X124300774Y-53344854D01*
X124374499Y-53298426D01*
X124399103Y-53288083D01*
X124427286Y-53271812D01*
X124505740Y-53243257D01*
X124579148Y-53212399D01*
X124612070Y-53204556D01*
X124649260Y-53191020D01*
X124724804Y-53177700D01*
X124795100Y-53160953D01*
X124835998Y-53158093D01*
X124881890Y-53150001D01*
X124951712Y-53150001D01*
X125016548Y-53145467D01*
X125064511Y-53150001D01*
G37*
G36*
X127583445Y-50507566D02*
G01*
X127605994Y-50506779D01*
X127697782Y-50518374D01*
X127795153Y-50527578D01*
X127817609Y-50533511D01*
X127837485Y-50536022D01*
X127928520Y-50562815D01*
X128025679Y-50588486D01*
X128044538Y-50596962D01*
X128061324Y-50601902D01*
X128148970Y-50643895D01*
X128243161Y-50686226D01*
X128258262Y-50696259D01*
X128271749Y-50702721D01*
X128353371Y-50759450D01*
X128441759Y-50818175D01*
X128453153Y-50828800D01*
X128463354Y-50835890D01*
X128536384Y-50906414D01*
X128616140Y-50980788D01*
X128624089Y-50991110D01*
X128631202Y-50997979D01*
X128693162Y-51080803D01*
X128761621Y-51169698D01*
X128766572Y-51178932D01*
X128770971Y-51184812D01*
X128819556Y-51277747D01*
X128874294Y-51379832D01*
X128876849Y-51387337D01*
X128879076Y-51391597D01*
X128912321Y-51491535D01*
X128951134Y-51605548D01*
X128952012Y-51610852D01*
X128952728Y-51613004D01*
X128968977Y-51713331D01*
X128990077Y-51840782D01*
X128989851Y-51850025D01*
X128987153Y-52107658D01*
X128983002Y-52130276D01*
X128982522Y-52149912D01*
X128961855Y-52245501D01*
X128945152Y-52336509D01*
X128937581Y-52357771D01*
X128932134Y-52382963D01*
X128897114Y-52471414D01*
X128866879Y-52556322D01*
X128854790Y-52578312D01*
X128844360Y-52604655D01*
X128796722Y-52683938D01*
X128754471Y-52760792D01*
X128737461Y-52782564D01*
X128721556Y-52809034D01*
X128663307Y-52877477D01*
X128610813Y-52944666D01*
X128588689Y-52965153D01*
X128567021Y-52990613D01*
X128500371Y-53046937D01*
X128439609Y-53103203D01*
X128412386Y-53121290D01*
X128384905Y-53144513D01*
X128312186Y-53187862D01*
X128245265Y-53232324D01*
X128213200Y-53246869D01*
X128180098Y-53266602D01*
X128103678Y-53296551D01*
X128032768Y-53328717D01*
X127996356Y-53338610D01*
X127958101Y-53353602D01*
X127880343Y-53370130D01*
X127807596Y-53389895D01*
X127767560Y-53394103D01*
X127724875Y-53403176D01*
X127648043Y-53406665D01*
X127575543Y-53414285D01*
X127532828Y-53411897D01*
X127486685Y-53413992D01*
X127412862Y-53405189D01*
X127342573Y-53401259D01*
X127298332Y-53391532D01*
X127249926Y-53385760D01*
X127180999Y-53365735D01*
X127114680Y-53351154D01*
X127070218Y-53333551D01*
X127020957Y-53319239D01*
X126958550Y-53289339D01*
X126897734Y-53265260D01*
X126854488Y-53239480D01*
X126805928Y-53216214D01*
X126751343Y-53177993D01*
X126697310Y-53145783D01*
X126656818Y-53111806D01*
X126610613Y-53079453D01*
X126564828Y-53034617D01*
X126518562Y-52995795D01*
X126482380Y-52953878D01*
X126440257Y-52912628D01*
X126403929Y-52862992D01*
X126366101Y-52819168D01*
X126335766Y-52769859D01*
X126299435Y-52720219D01*
X126272852Y-52667594D01*
X126243835Y-52620427D01*
X126220817Y-52564582D01*
X126191930Y-52507395D01*
X126175066Y-52453582D01*
X126154918Y-52404700D01*
X126140552Y-52343448D01*
X126120627Y-52279869D01*
X126113134Y-52226549D01*
X126101638Y-52177537D01*
X126097075Y-52112284D01*
X126087444Y-52043754D01*
X126088697Y-51992475D01*
X126085361Y-51944766D01*
X126091516Y-51877138D01*
X126093269Y-51805389D01*
X126102403Y-51757508D01*
X126106509Y-51712390D01*
X126124019Y-51644193D01*
X126137948Y-51571176D01*
X126153896Y-51527830D01*
X126164537Y-51486387D01*
X126193725Y-51419577D01*
X126220279Y-51347406D01*
X126241829Y-51309471D01*
X126257949Y-51272574D01*
X126298795Y-51209194D01*
X126338053Y-51140087D01*
X126363905Y-51108162D01*
X126384350Y-51076438D01*
X126436464Y-51018560D01*
X126488105Y-50954788D01*
X126516916Y-50929209D01*
X126540478Y-50903040D01*
X126603097Y-50852693D01*
X126666407Y-50796484D01*
X126696858Y-50777308D01*
X126722330Y-50756828D01*
X126794331Y-50715926D01*
X126868170Y-50669427D01*
X126898991Y-50656471D01*
X126925211Y-50641576D01*
X127005129Y-50611854D01*
X127087975Y-50577029D01*
X127118011Y-50569873D01*
X127143909Y-50560242D01*
X127229954Y-50543205D01*
X127319920Y-50521772D01*
X127348179Y-50519796D01*
X127372795Y-50514922D01*
X127462856Y-50511777D01*
X127557775Y-50505140D01*
X127583445Y-50507566D01*
G37*
G36*
X122503445Y-50507566D02*
G01*
X122525994Y-50506779D01*
X122617782Y-50518374D01*
X122715153Y-50527578D01*
X122737609Y-50533511D01*
X122757485Y-50536022D01*
X122848520Y-50562815D01*
X122945679Y-50588486D01*
X122964538Y-50596962D01*
X122981324Y-50601902D01*
X123068970Y-50643895D01*
X123163161Y-50686226D01*
X123178262Y-50696259D01*
X123191749Y-50702721D01*
X123273371Y-50759450D01*
X123361759Y-50818175D01*
X123373153Y-50828800D01*
X123383354Y-50835890D01*
X123456384Y-50906414D01*
X123536140Y-50980788D01*
X123544089Y-50991110D01*
X123551202Y-50997979D01*
X123613162Y-51080803D01*
X123681621Y-51169698D01*
X123686572Y-51178932D01*
X123690971Y-51184812D01*
X123739556Y-51277747D01*
X123794294Y-51379832D01*
X123796849Y-51387337D01*
X123799076Y-51391597D01*
X123832321Y-51491535D01*
X123871134Y-51605548D01*
X123872012Y-51610852D01*
X123872728Y-51613004D01*
X123888977Y-51713331D01*
X123910077Y-51840782D01*
X123909851Y-51850025D01*
X123907153Y-52107658D01*
X123903002Y-52130276D01*
X123902522Y-52149912D01*
X123881855Y-52245501D01*
X123865152Y-52336509D01*
X123857581Y-52357771D01*
X123852134Y-52382963D01*
X123817114Y-52471414D01*
X123786879Y-52556322D01*
X123774790Y-52578312D01*
X123764360Y-52604655D01*
X123716722Y-52683938D01*
X123674471Y-52760792D01*
X123657461Y-52782564D01*
X123641556Y-52809034D01*
X123583307Y-52877477D01*
X123530813Y-52944666D01*
X123508689Y-52965153D01*
X123487021Y-52990613D01*
X123420371Y-53046937D01*
X123359609Y-53103203D01*
X123332386Y-53121290D01*
X123304905Y-53144513D01*
X123232186Y-53187862D01*
X123165265Y-53232324D01*
X123133200Y-53246869D01*
X123100098Y-53266602D01*
X123023678Y-53296551D01*
X122952768Y-53328717D01*
X122916356Y-53338610D01*
X122878101Y-53353602D01*
X122800343Y-53370130D01*
X122727596Y-53389895D01*
X122687560Y-53394103D01*
X122644875Y-53403176D01*
X122568043Y-53406665D01*
X122495543Y-53414285D01*
X122452828Y-53411897D01*
X122406685Y-53413992D01*
X122332862Y-53405189D01*
X122262573Y-53401259D01*
X122218332Y-53391532D01*
X122169926Y-53385760D01*
X122100999Y-53365735D01*
X122034680Y-53351154D01*
X121990218Y-53333551D01*
X121940957Y-53319239D01*
X121878550Y-53289339D01*
X121817734Y-53265260D01*
X121774488Y-53239480D01*
X121725928Y-53216214D01*
X121671343Y-53177993D01*
X121617310Y-53145783D01*
X121576818Y-53111806D01*
X121530613Y-53079453D01*
X121484828Y-53034617D01*
X121438562Y-52995795D01*
X121402380Y-52953878D01*
X121360257Y-52912628D01*
X121323929Y-52862992D01*
X121286101Y-52819168D01*
X121255766Y-52769859D01*
X121219435Y-52720219D01*
X121192852Y-52667594D01*
X121163835Y-52620427D01*
X121140817Y-52564582D01*
X121111930Y-52507395D01*
X121095066Y-52453582D01*
X121074918Y-52404700D01*
X121060552Y-52343448D01*
X121040627Y-52279869D01*
X121033134Y-52226549D01*
X121021638Y-52177537D01*
X121017075Y-52112284D01*
X121007444Y-52043754D01*
X121008697Y-51992475D01*
X121005361Y-51944766D01*
X121011516Y-51877138D01*
X121013269Y-51805389D01*
X121022403Y-51757508D01*
X121026509Y-51712390D01*
X121044019Y-51644193D01*
X121057948Y-51571176D01*
X121073896Y-51527830D01*
X121084537Y-51486387D01*
X121113725Y-51419577D01*
X121140279Y-51347406D01*
X121161829Y-51309471D01*
X121177949Y-51272574D01*
X121218795Y-51209194D01*
X121258053Y-51140087D01*
X121283905Y-51108162D01*
X121304350Y-51076438D01*
X121356464Y-51018560D01*
X121408105Y-50954788D01*
X121436916Y-50929209D01*
X121460478Y-50903040D01*
X121523097Y-50852693D01*
X121586407Y-50796484D01*
X121616858Y-50777308D01*
X121642330Y-50756828D01*
X121714331Y-50715926D01*
X121788170Y-50669427D01*
X121818991Y-50656471D01*
X121845211Y-50641576D01*
X121925129Y-50611854D01*
X122007975Y-50577029D01*
X122038011Y-50569873D01*
X122063909Y-50560242D01*
X122149954Y-50543205D01*
X122239920Y-50521772D01*
X122268179Y-50519796D01*
X122292795Y-50514922D01*
X122382856Y-50511777D01*
X122477775Y-50505140D01*
X122503445Y-50507566D01*
G37*
M02*
