M48
; DRILL file {KiCad (5.99.0-807-g128ec782d)} date 24. 2. 2020 10:18:51
; FORMAT={-:-/ absolute / inch / decimal}
; #@! TF.CreationDate,2020-02-24T10:18:51+01:00
; #@! TF.GenerationSoftware,Kicad,Pcbnew,(5.99.0-807-g128ec782d)
; #@! TF.FileFunction,Plated,1,2,PTH
FMAT,2
INCH
T1C0.0157
T2C0.0350
T3C0.0531
T4C0.0571
%
G90
G05
T1
X3.9764Y-2.0079
X3.9764Y-2.3622
X3.9764Y-2.7559
X3.9764Y-3.1496
X3.9764Y-3.5433
X3.9764Y-3.937
X3.9764Y-4.3307
X3.9764Y-5.5118
X3.9764Y-5.8661
X4.0118Y-5.2283
X4.0551Y-3.1614
X4.0551Y-3.252
X4.0551Y-3.2874
X4.0787Y-2.5551
X4.0787Y-2.9094
X4.1024Y-4.4685
X4.1142Y-4.563
X4.1142Y-4.6575
X4.1339Y-4.8031
X4.1654Y-2.5551
X4.1732Y-4.8031
X4.2795Y-5.4606
X4.2795Y-5.5
X4.2874Y-4.4685
X4.3189Y-2.3189
X4.3189Y-2.3543
X4.3307Y-2.0079
X4.3307Y-2.7559
X4.3307Y-3.5433
X4.3307Y-4.4685
X4.3307Y-5.8661
X4.3386Y-3.8976
X4.3583Y-5.0748
X4.3701Y-2.5551
X4.3701Y-3.9764
X4.378Y-4.6614
X4.4016Y-3.8976
X4.4134Y-5.5079
X4.4331Y-4.937
X4.4331Y-4.9803
X4.5433Y-2.5472
X4.5709Y-5.2323
X4.5709Y-5.2756
X4.6142Y-4.3937
X4.6299Y-2.9094
X4.6319Y-4.3012
X4.6378Y-5.2126
X4.6417Y-5.3307
X4.6496Y-4.752
X4.6496Y-4.8976
X4.6614Y-3.1496
X4.6614Y-3.2087
X4.6969Y-4.122
X4.7047Y-4.8228
X4.7087Y-3.0472
X4.7087Y-3.0827
X4.7244Y-2.0079
X4.7244Y-3.5433
X4.7244Y-5.8661
X4.7362Y-4.6299
X4.7441Y-3.3858
X4.7441Y-3.4449
X4.7702Y-4.341
X4.7774Y-4.2854
X4.7953Y-4.7008
X4.7972Y-2.971
X4.8307Y-4.3425
X4.8563Y-3.3839
X4.8701Y-5.0591
X4.8701Y-5.1142
X4.8898Y-3.8976
X4.9213Y-3.9764
X4.9252Y-3.0157
X4.9291Y-4.2756
X4.9291Y-4.6929
X4.9291Y-4.8799
X4.9528Y-3.8976
X4.9803Y-4.4705
X4.9918Y-4.435
X4.998Y-4.5726
X5.0158Y-4.3484
X5.0236Y-4.8799
X5.0374Y-4.5721
X5.0394Y-4.9921
X5.0552Y-4.3484
X5.0669Y-4.2205
X5.0669Y-5.4685
X5.0669Y-5.5118
X5.0824Y-4.527
X5.0827Y-5.685
X5.0947Y-4.3495
X5.0984Y-4.563
X5.1083Y-4.7835
X5.1102Y-2.2736
X5.1102Y-4.7008
X5.1102Y-5.5118
X5.1181Y-2.0079
X5.1181Y-5.8661
X5.126Y-4.5236
X5.128Y-4.1575
X5.1417Y-2.2736
X5.1417Y-4.563
X5.1496Y-3.6654
X5.1535Y-4.9921
X5.1575Y-2.5591
X5.1575Y-2.7559
X5.1575Y-2.9528
X5.1575Y-3.1496
X5.1575Y-3.3465
X5.1575Y-3.5433
X5.1614Y-4.7441
X5.1806Y-3.9092
X5.1811Y-4.8583
X5.189Y-4.4449
X5.1929Y-4.3819
X5.1929Y-4.7047
X5.2013Y-4.5405
X5.2165Y-3.6654
X5.2244Y-3.9173
X5.2402Y-4.7795
X5.2559Y-4.8937
X5.2795Y-3.6654
X5.2953Y-2.3307
X5.3071Y-4.7756
X5.315Y-2.9528
X5.315Y-3.1496
X5.315Y-3.3465
X5.315Y-3.5433
X5.3425Y-2.2756
X5.3465Y-2.3307
X5.374Y-2.2756
X5.3858Y-5.0669
X5.3976Y-4.6102
X5.4173Y-4.7638
X5.4213Y-5.0669
X5.4409Y-3.8976
X5.4724Y-2.3307
X5.4724Y-3.9764
X5.4802Y-4.2832
X5.4921Y-3.6654
X5.5039Y-3.8976
X5.5118Y-2.0079
X5.5118Y-2.9528
X5.5118Y-3.1496
X5.5118Y-3.3465
X5.5118Y-3.5433
X5.5118Y-5.8661
X5.5276Y-2.3307
X5.5394Y-4.2913
X5.5413Y-4.4016
X5.5433Y-4.4843
X5.5709Y-2.2126
X5.5787Y-3.6654
X5.5827Y-5.3543
X5.5827Y-5.5709
X5.5945Y-5.0591
X5.6024Y-2.2126
X5.6654Y-3.6654
X5.6693Y-2.5591
X5.6693Y-2.7559
X5.6693Y-2.9528
X5.6693Y-3.1496
X5.6693Y-3.3465
X5.6693Y-3.5433
X5.6772Y-2.2677
X5.6929Y-5.0354
X5.6969Y-2.2913
X5.7087Y-3.9921
X5.7165Y-4.3504
X5.7441Y-3.9921
X5.7638Y-5.0354
X5.8661Y-2.0079
X5.8661Y-2.7559
X5.8661Y-3.1496
X5.8661Y-3.5433
X5.8661Y-4.7244
X5.8661Y-5.8661
T2
X4.6772Y-5.5524
X4.6772Y-5.6524
X5.626Y-4.2004
X5.626Y-4.3004
X5.626Y-4.4004
X5.626Y-4.5004
X5.5248Y-4.6244
X5.5248Y-4.7244
X5.5248Y-4.8244
X5.6248Y-4.6244
X5.6248Y-4.7244
X5.6248Y-4.8244
X4.3028Y-3.3189
X4.4028Y-3.3189
X4.5028Y-3.3189
X4.6028Y-3.3189
T3
X4.9213Y-2.1457
T4
X4.8213Y-2.0457
X4.8213Y-2.2457
X5.0213Y-2.0457
X5.0213Y-2.2457
T0
M30
