G04 #@! TF.GenerationSoftware,KiCad,Pcbnew,(5.1.5)-3*
G04 #@! TF.CreationDate,2020-05-20T20:16:18+02:00*
G04 #@! TF.ProjectId,SAR-APRS,5341522d-4150-4525-932e-6b696361645f,rev?*
G04 #@! TF.SameCoordinates,Original*
G04 #@! TF.FileFunction,Paste,Top*
G04 #@! TF.FilePolarity,Positive*
%FSLAX46Y46*%
G04 Gerber Fmt 4.6, Leading zero omitted, Abs format (unit mm)*
G04 Created by KiCad (PCBNEW (5.1.5)-3) date 2020-05-20 20:16:18*
%MOMM*%
%LPD*%
G04 APERTURE LIST*
%ADD10R,1.000000X2.500000*%
%ADD11R,1.000000X1.250000*%
%ADD12R,0.800000X0.750000*%
%ADD13R,0.700000X0.300000*%
%ADD14R,0.950000X2.100000*%
%ADD15R,0.900000X0.950000*%
%ADD16R,0.800000X0.900000*%
%ADD17R,2.200000X2.000000*%
%ADD18R,2.000000X2.200000*%
%ADD19R,7.000000X2.200000*%
%ADD20R,8.400000X2.200000*%
%ADD21R,6.600000X6.500000*%
%ADD22R,1.550000X0.600000*%
%ADD23R,0.550000X1.600000*%
%ADD24R,1.600000X0.550000*%
%ADD25R,1.250000X1.000000*%
%ADD26C,1.000000*%
%ADD27R,0.700000X1.300000*%
%ADD28R,1.000760X0.500000*%
%ADD29R,1.000760X0.501040*%
%ADD30R,3.200000X1.000000*%
%ADD31R,2.000000X2.500000*%
%ADD32R,0.500000X2.300000*%
%ADD33R,1.300000X0.700000*%
%ADD34R,0.800000X1.800000*%
%ADD35R,1.500000X2.400000*%
%ADD36R,1.450000X0.450000*%
%ADD37R,2.750000X1.000000*%
%ADD38R,1.200000X1.200000*%
G04 APERTURE END LIST*
D10*
X123500000Y-66500000D03*
X120500000Y-66500000D03*
D11*
X123500000Y-61000000D03*
X125500000Y-61000000D03*
D12*
X121850000Y-64200000D03*
X123350000Y-64200000D03*
X121850000Y-62800000D03*
X123350000Y-62800000D03*
D13*
X143300000Y-135900000D03*
X143300000Y-136400000D03*
X141800000Y-135900000D03*
X143300000Y-135400000D03*
X141800000Y-136400000D03*
X141800000Y-135400000D03*
D10*
X143350000Y-133150000D03*
X146350000Y-133150000D03*
X140300000Y-137000000D03*
X137300000Y-137000000D03*
D14*
X103225000Y-54100000D03*
X106175000Y-54100000D03*
D15*
X104700000Y-55625000D03*
D16*
X124100000Y-73500000D03*
X125050000Y-75500000D03*
X123150000Y-75500000D03*
X130100000Y-147600000D03*
X129150000Y-145600000D03*
X131050000Y-145600000D03*
X126200000Y-147600000D03*
X125250000Y-145600000D03*
X127150000Y-145600000D03*
D17*
X128800000Y-64650000D03*
X128800000Y-69100000D03*
X128800000Y-73550000D03*
X128800000Y-78000000D03*
X128800000Y-82450000D03*
X128800000Y-86900000D03*
X128800000Y-91350000D03*
X146200000Y-64650000D03*
X146200000Y-69100000D03*
X146200000Y-73550000D03*
X146200000Y-78000000D03*
X146200000Y-82450000D03*
X146200000Y-86900000D03*
X146200000Y-91350000D03*
D18*
X130600000Y-61000000D03*
X135200000Y-61000000D03*
X139800000Y-61000000D03*
X144400000Y-61000000D03*
D19*
X131200000Y-95000000D03*
D20*
X143100000Y-95000000D03*
D21*
X137500000Y-66900000D03*
D22*
X129500000Y-122995000D03*
X129500000Y-124265000D03*
X129500000Y-125535000D03*
X129500000Y-126805000D03*
X134900000Y-126805000D03*
X134900000Y-125535000D03*
X134900000Y-124265000D03*
X134900000Y-122995000D03*
D23*
X126300000Y-109050000D03*
X127100000Y-109050000D03*
X127900000Y-109050000D03*
X128700000Y-109050000D03*
X129500000Y-109050000D03*
X130300000Y-109050000D03*
X131100000Y-109050000D03*
X131900000Y-109050000D03*
D24*
X133350000Y-110500000D03*
X133350000Y-111300000D03*
X133350000Y-112100000D03*
X133350000Y-112900000D03*
X133350000Y-113700000D03*
X133350000Y-114500000D03*
X133350000Y-115300000D03*
X133350000Y-116100000D03*
D23*
X131900000Y-117550000D03*
X131100000Y-117550000D03*
X130300000Y-117550000D03*
X129500000Y-117550000D03*
X128700000Y-117550000D03*
X127900000Y-117550000D03*
X127100000Y-117550000D03*
X126300000Y-117550000D03*
D24*
X124850000Y-116100000D03*
X124850000Y-115300000D03*
X124850000Y-114500000D03*
X124850000Y-113700000D03*
X124850000Y-112900000D03*
X124850000Y-112100000D03*
X124850000Y-111300000D03*
X124850000Y-110500000D03*
D25*
X130200000Y-56600000D03*
X130200000Y-54600000D03*
X136100000Y-56600000D03*
X136100000Y-54600000D03*
X141900000Y-55100000D03*
X141900000Y-53100000D03*
D26*
G36*
X145104505Y-56311612D02*
G01*
X145988388Y-57195495D01*
X145281281Y-57902602D01*
X144397398Y-57018719D01*
X145104505Y-56311612D01*
G37*
G36*
X146518719Y-54897398D02*
G01*
X147402602Y-55781281D01*
X146695495Y-56488388D01*
X145811612Y-55604505D01*
X146518719Y-54897398D01*
G37*
D27*
X134150000Y-54500000D03*
X132250000Y-54500000D03*
D26*
G36*
X139883883Y-53835356D02*
G01*
X138964644Y-52916117D01*
X139459619Y-52421142D01*
X140378858Y-53340381D01*
X139883883Y-53835356D01*
G37*
G36*
X138540381Y-55178858D02*
G01*
X137621142Y-54259619D01*
X138116117Y-53764644D01*
X139035356Y-54683883D01*
X138540381Y-55178858D01*
G37*
G36*
X144764644Y-54583883D02*
G01*
X145683883Y-53664644D01*
X146178858Y-54159619D01*
X145259619Y-55078858D01*
X144764644Y-54583883D01*
G37*
G36*
X143421142Y-53240381D02*
G01*
X144340381Y-52321142D01*
X144835356Y-52816117D01*
X143916117Y-53735356D01*
X143421142Y-53240381D01*
G37*
G36*
X106714703Y-128055722D02*
G01*
X106729264Y-128057882D01*
X106743543Y-128061459D01*
X106757403Y-128066418D01*
X106770710Y-128072712D01*
X106783336Y-128080280D01*
X106795159Y-128089048D01*
X106806066Y-128098934D01*
X106815952Y-128109841D01*
X106824720Y-128121664D01*
X106832288Y-128134290D01*
X106838582Y-128147597D01*
X106843541Y-128161457D01*
X106847118Y-128175736D01*
X106849278Y-128190297D01*
X106850000Y-128205000D01*
X106850000Y-128505000D01*
X106849278Y-128519703D01*
X106847118Y-128534264D01*
X106843541Y-128548543D01*
X106838582Y-128562403D01*
X106832288Y-128575710D01*
X106824720Y-128588336D01*
X106815952Y-128600159D01*
X106806066Y-128611066D01*
X106795159Y-128620952D01*
X106783336Y-128629720D01*
X106770710Y-128637288D01*
X106757403Y-128643582D01*
X106743543Y-128648541D01*
X106729264Y-128652118D01*
X106714703Y-128654278D01*
X106700000Y-128655000D01*
X105400000Y-128655000D01*
X105385297Y-128654278D01*
X105370736Y-128652118D01*
X105356457Y-128648541D01*
X105342597Y-128643582D01*
X105329290Y-128637288D01*
X105316664Y-128629720D01*
X105304841Y-128620952D01*
X105293934Y-128611066D01*
X105284048Y-128600159D01*
X105275280Y-128588336D01*
X105267712Y-128575710D01*
X105261418Y-128562403D01*
X105256459Y-128548543D01*
X105252882Y-128534264D01*
X105250722Y-128519703D01*
X105250000Y-128505000D01*
X105250000Y-128205000D01*
X105250722Y-128190297D01*
X105252882Y-128175736D01*
X105256459Y-128161457D01*
X105261418Y-128147597D01*
X105267712Y-128134290D01*
X105275280Y-128121664D01*
X105284048Y-128109841D01*
X105293934Y-128098934D01*
X105304841Y-128089048D01*
X105316664Y-128080280D01*
X105329290Y-128072712D01*
X105342597Y-128066418D01*
X105356457Y-128061459D01*
X105370736Y-128057882D01*
X105385297Y-128055722D01*
X105400000Y-128055000D01*
X106700000Y-128055000D01*
X106714703Y-128055722D01*
G37*
G36*
X106714703Y-129325722D02*
G01*
X106729264Y-129327882D01*
X106743543Y-129331459D01*
X106757403Y-129336418D01*
X106770710Y-129342712D01*
X106783336Y-129350280D01*
X106795159Y-129359048D01*
X106806066Y-129368934D01*
X106815952Y-129379841D01*
X106824720Y-129391664D01*
X106832288Y-129404290D01*
X106838582Y-129417597D01*
X106843541Y-129431457D01*
X106847118Y-129445736D01*
X106849278Y-129460297D01*
X106850000Y-129475000D01*
X106850000Y-129775000D01*
X106849278Y-129789703D01*
X106847118Y-129804264D01*
X106843541Y-129818543D01*
X106838582Y-129832403D01*
X106832288Y-129845710D01*
X106824720Y-129858336D01*
X106815952Y-129870159D01*
X106806066Y-129881066D01*
X106795159Y-129890952D01*
X106783336Y-129899720D01*
X106770710Y-129907288D01*
X106757403Y-129913582D01*
X106743543Y-129918541D01*
X106729264Y-129922118D01*
X106714703Y-129924278D01*
X106700000Y-129925000D01*
X105400000Y-129925000D01*
X105385297Y-129924278D01*
X105370736Y-129922118D01*
X105356457Y-129918541D01*
X105342597Y-129913582D01*
X105329290Y-129907288D01*
X105316664Y-129899720D01*
X105304841Y-129890952D01*
X105293934Y-129881066D01*
X105284048Y-129870159D01*
X105275280Y-129858336D01*
X105267712Y-129845710D01*
X105261418Y-129832403D01*
X105256459Y-129818543D01*
X105252882Y-129804264D01*
X105250722Y-129789703D01*
X105250000Y-129775000D01*
X105250000Y-129475000D01*
X105250722Y-129460297D01*
X105252882Y-129445736D01*
X105256459Y-129431457D01*
X105261418Y-129417597D01*
X105267712Y-129404290D01*
X105275280Y-129391664D01*
X105284048Y-129379841D01*
X105293934Y-129368934D01*
X105304841Y-129359048D01*
X105316664Y-129350280D01*
X105329290Y-129342712D01*
X105342597Y-129336418D01*
X105356457Y-129331459D01*
X105370736Y-129327882D01*
X105385297Y-129325722D01*
X105400000Y-129325000D01*
X106700000Y-129325000D01*
X106714703Y-129325722D01*
G37*
G36*
X106714703Y-130595722D02*
G01*
X106729264Y-130597882D01*
X106743543Y-130601459D01*
X106757403Y-130606418D01*
X106770710Y-130612712D01*
X106783336Y-130620280D01*
X106795159Y-130629048D01*
X106806066Y-130638934D01*
X106815952Y-130649841D01*
X106824720Y-130661664D01*
X106832288Y-130674290D01*
X106838582Y-130687597D01*
X106843541Y-130701457D01*
X106847118Y-130715736D01*
X106849278Y-130730297D01*
X106850000Y-130745000D01*
X106850000Y-131045000D01*
X106849278Y-131059703D01*
X106847118Y-131074264D01*
X106843541Y-131088543D01*
X106838582Y-131102403D01*
X106832288Y-131115710D01*
X106824720Y-131128336D01*
X106815952Y-131140159D01*
X106806066Y-131151066D01*
X106795159Y-131160952D01*
X106783336Y-131169720D01*
X106770710Y-131177288D01*
X106757403Y-131183582D01*
X106743543Y-131188541D01*
X106729264Y-131192118D01*
X106714703Y-131194278D01*
X106700000Y-131195000D01*
X105400000Y-131195000D01*
X105385297Y-131194278D01*
X105370736Y-131192118D01*
X105356457Y-131188541D01*
X105342597Y-131183582D01*
X105329290Y-131177288D01*
X105316664Y-131169720D01*
X105304841Y-131160952D01*
X105293934Y-131151066D01*
X105284048Y-131140159D01*
X105275280Y-131128336D01*
X105267712Y-131115710D01*
X105261418Y-131102403D01*
X105256459Y-131088543D01*
X105252882Y-131074264D01*
X105250722Y-131059703D01*
X105250000Y-131045000D01*
X105250000Y-130745000D01*
X105250722Y-130730297D01*
X105252882Y-130715736D01*
X105256459Y-130701457D01*
X105261418Y-130687597D01*
X105267712Y-130674290D01*
X105275280Y-130661664D01*
X105284048Y-130649841D01*
X105293934Y-130638934D01*
X105304841Y-130629048D01*
X105316664Y-130620280D01*
X105329290Y-130612712D01*
X105342597Y-130606418D01*
X105356457Y-130601459D01*
X105370736Y-130597882D01*
X105385297Y-130595722D01*
X105400000Y-130595000D01*
X106700000Y-130595000D01*
X106714703Y-130595722D01*
G37*
G36*
X106714703Y-131865722D02*
G01*
X106729264Y-131867882D01*
X106743543Y-131871459D01*
X106757403Y-131876418D01*
X106770710Y-131882712D01*
X106783336Y-131890280D01*
X106795159Y-131899048D01*
X106806066Y-131908934D01*
X106815952Y-131919841D01*
X106824720Y-131931664D01*
X106832288Y-131944290D01*
X106838582Y-131957597D01*
X106843541Y-131971457D01*
X106847118Y-131985736D01*
X106849278Y-132000297D01*
X106850000Y-132015000D01*
X106850000Y-132315000D01*
X106849278Y-132329703D01*
X106847118Y-132344264D01*
X106843541Y-132358543D01*
X106838582Y-132372403D01*
X106832288Y-132385710D01*
X106824720Y-132398336D01*
X106815952Y-132410159D01*
X106806066Y-132421066D01*
X106795159Y-132430952D01*
X106783336Y-132439720D01*
X106770710Y-132447288D01*
X106757403Y-132453582D01*
X106743543Y-132458541D01*
X106729264Y-132462118D01*
X106714703Y-132464278D01*
X106700000Y-132465000D01*
X105400000Y-132465000D01*
X105385297Y-132464278D01*
X105370736Y-132462118D01*
X105356457Y-132458541D01*
X105342597Y-132453582D01*
X105329290Y-132447288D01*
X105316664Y-132439720D01*
X105304841Y-132430952D01*
X105293934Y-132421066D01*
X105284048Y-132410159D01*
X105275280Y-132398336D01*
X105267712Y-132385710D01*
X105261418Y-132372403D01*
X105256459Y-132358543D01*
X105252882Y-132344264D01*
X105250722Y-132329703D01*
X105250000Y-132315000D01*
X105250000Y-132015000D01*
X105250722Y-132000297D01*
X105252882Y-131985736D01*
X105256459Y-131971457D01*
X105261418Y-131957597D01*
X105267712Y-131944290D01*
X105275280Y-131931664D01*
X105284048Y-131919841D01*
X105293934Y-131908934D01*
X105304841Y-131899048D01*
X105316664Y-131890280D01*
X105329290Y-131882712D01*
X105342597Y-131876418D01*
X105356457Y-131871459D01*
X105370736Y-131867882D01*
X105385297Y-131865722D01*
X105400000Y-131865000D01*
X106700000Y-131865000D01*
X106714703Y-131865722D01*
G37*
G36*
X106714703Y-133135722D02*
G01*
X106729264Y-133137882D01*
X106743543Y-133141459D01*
X106757403Y-133146418D01*
X106770710Y-133152712D01*
X106783336Y-133160280D01*
X106795159Y-133169048D01*
X106806066Y-133178934D01*
X106815952Y-133189841D01*
X106824720Y-133201664D01*
X106832288Y-133214290D01*
X106838582Y-133227597D01*
X106843541Y-133241457D01*
X106847118Y-133255736D01*
X106849278Y-133270297D01*
X106850000Y-133285000D01*
X106850000Y-133585000D01*
X106849278Y-133599703D01*
X106847118Y-133614264D01*
X106843541Y-133628543D01*
X106838582Y-133642403D01*
X106832288Y-133655710D01*
X106824720Y-133668336D01*
X106815952Y-133680159D01*
X106806066Y-133691066D01*
X106795159Y-133700952D01*
X106783336Y-133709720D01*
X106770710Y-133717288D01*
X106757403Y-133723582D01*
X106743543Y-133728541D01*
X106729264Y-133732118D01*
X106714703Y-133734278D01*
X106700000Y-133735000D01*
X105400000Y-133735000D01*
X105385297Y-133734278D01*
X105370736Y-133732118D01*
X105356457Y-133728541D01*
X105342597Y-133723582D01*
X105329290Y-133717288D01*
X105316664Y-133709720D01*
X105304841Y-133700952D01*
X105293934Y-133691066D01*
X105284048Y-133680159D01*
X105275280Y-133668336D01*
X105267712Y-133655710D01*
X105261418Y-133642403D01*
X105256459Y-133628543D01*
X105252882Y-133614264D01*
X105250722Y-133599703D01*
X105250000Y-133585000D01*
X105250000Y-133285000D01*
X105250722Y-133270297D01*
X105252882Y-133255736D01*
X105256459Y-133241457D01*
X105261418Y-133227597D01*
X105267712Y-133214290D01*
X105275280Y-133201664D01*
X105284048Y-133189841D01*
X105293934Y-133178934D01*
X105304841Y-133169048D01*
X105316664Y-133160280D01*
X105329290Y-133152712D01*
X105342597Y-133146418D01*
X105356457Y-133141459D01*
X105370736Y-133137882D01*
X105385297Y-133135722D01*
X105400000Y-133135000D01*
X106700000Y-133135000D01*
X106714703Y-133135722D01*
G37*
G36*
X106714703Y-134405722D02*
G01*
X106729264Y-134407882D01*
X106743543Y-134411459D01*
X106757403Y-134416418D01*
X106770710Y-134422712D01*
X106783336Y-134430280D01*
X106795159Y-134439048D01*
X106806066Y-134448934D01*
X106815952Y-134459841D01*
X106824720Y-134471664D01*
X106832288Y-134484290D01*
X106838582Y-134497597D01*
X106843541Y-134511457D01*
X106847118Y-134525736D01*
X106849278Y-134540297D01*
X106850000Y-134555000D01*
X106850000Y-134855000D01*
X106849278Y-134869703D01*
X106847118Y-134884264D01*
X106843541Y-134898543D01*
X106838582Y-134912403D01*
X106832288Y-134925710D01*
X106824720Y-134938336D01*
X106815952Y-134950159D01*
X106806066Y-134961066D01*
X106795159Y-134970952D01*
X106783336Y-134979720D01*
X106770710Y-134987288D01*
X106757403Y-134993582D01*
X106743543Y-134998541D01*
X106729264Y-135002118D01*
X106714703Y-135004278D01*
X106700000Y-135005000D01*
X105400000Y-135005000D01*
X105385297Y-135004278D01*
X105370736Y-135002118D01*
X105356457Y-134998541D01*
X105342597Y-134993582D01*
X105329290Y-134987288D01*
X105316664Y-134979720D01*
X105304841Y-134970952D01*
X105293934Y-134961066D01*
X105284048Y-134950159D01*
X105275280Y-134938336D01*
X105267712Y-134925710D01*
X105261418Y-134912403D01*
X105256459Y-134898543D01*
X105252882Y-134884264D01*
X105250722Y-134869703D01*
X105250000Y-134855000D01*
X105250000Y-134555000D01*
X105250722Y-134540297D01*
X105252882Y-134525736D01*
X105256459Y-134511457D01*
X105261418Y-134497597D01*
X105267712Y-134484290D01*
X105275280Y-134471664D01*
X105284048Y-134459841D01*
X105293934Y-134448934D01*
X105304841Y-134439048D01*
X105316664Y-134430280D01*
X105329290Y-134422712D01*
X105342597Y-134416418D01*
X105356457Y-134411459D01*
X105370736Y-134407882D01*
X105385297Y-134405722D01*
X105400000Y-134405000D01*
X106700000Y-134405000D01*
X106714703Y-134405722D01*
G37*
G36*
X106714703Y-135675722D02*
G01*
X106729264Y-135677882D01*
X106743543Y-135681459D01*
X106757403Y-135686418D01*
X106770710Y-135692712D01*
X106783336Y-135700280D01*
X106795159Y-135709048D01*
X106806066Y-135718934D01*
X106815952Y-135729841D01*
X106824720Y-135741664D01*
X106832288Y-135754290D01*
X106838582Y-135767597D01*
X106843541Y-135781457D01*
X106847118Y-135795736D01*
X106849278Y-135810297D01*
X106850000Y-135825000D01*
X106850000Y-136125000D01*
X106849278Y-136139703D01*
X106847118Y-136154264D01*
X106843541Y-136168543D01*
X106838582Y-136182403D01*
X106832288Y-136195710D01*
X106824720Y-136208336D01*
X106815952Y-136220159D01*
X106806066Y-136231066D01*
X106795159Y-136240952D01*
X106783336Y-136249720D01*
X106770710Y-136257288D01*
X106757403Y-136263582D01*
X106743543Y-136268541D01*
X106729264Y-136272118D01*
X106714703Y-136274278D01*
X106700000Y-136275000D01*
X105400000Y-136275000D01*
X105385297Y-136274278D01*
X105370736Y-136272118D01*
X105356457Y-136268541D01*
X105342597Y-136263582D01*
X105329290Y-136257288D01*
X105316664Y-136249720D01*
X105304841Y-136240952D01*
X105293934Y-136231066D01*
X105284048Y-136220159D01*
X105275280Y-136208336D01*
X105267712Y-136195710D01*
X105261418Y-136182403D01*
X105256459Y-136168543D01*
X105252882Y-136154264D01*
X105250722Y-136139703D01*
X105250000Y-136125000D01*
X105250000Y-135825000D01*
X105250722Y-135810297D01*
X105252882Y-135795736D01*
X105256459Y-135781457D01*
X105261418Y-135767597D01*
X105267712Y-135754290D01*
X105275280Y-135741664D01*
X105284048Y-135729841D01*
X105293934Y-135718934D01*
X105304841Y-135709048D01*
X105316664Y-135700280D01*
X105329290Y-135692712D01*
X105342597Y-135686418D01*
X105356457Y-135681459D01*
X105370736Y-135677882D01*
X105385297Y-135675722D01*
X105400000Y-135675000D01*
X106700000Y-135675000D01*
X106714703Y-135675722D01*
G37*
G36*
X106714703Y-136945722D02*
G01*
X106729264Y-136947882D01*
X106743543Y-136951459D01*
X106757403Y-136956418D01*
X106770710Y-136962712D01*
X106783336Y-136970280D01*
X106795159Y-136979048D01*
X106806066Y-136988934D01*
X106815952Y-136999841D01*
X106824720Y-137011664D01*
X106832288Y-137024290D01*
X106838582Y-137037597D01*
X106843541Y-137051457D01*
X106847118Y-137065736D01*
X106849278Y-137080297D01*
X106850000Y-137095000D01*
X106850000Y-137395000D01*
X106849278Y-137409703D01*
X106847118Y-137424264D01*
X106843541Y-137438543D01*
X106838582Y-137452403D01*
X106832288Y-137465710D01*
X106824720Y-137478336D01*
X106815952Y-137490159D01*
X106806066Y-137501066D01*
X106795159Y-137510952D01*
X106783336Y-137519720D01*
X106770710Y-137527288D01*
X106757403Y-137533582D01*
X106743543Y-137538541D01*
X106729264Y-137542118D01*
X106714703Y-137544278D01*
X106700000Y-137545000D01*
X105400000Y-137545000D01*
X105385297Y-137544278D01*
X105370736Y-137542118D01*
X105356457Y-137538541D01*
X105342597Y-137533582D01*
X105329290Y-137527288D01*
X105316664Y-137519720D01*
X105304841Y-137510952D01*
X105293934Y-137501066D01*
X105284048Y-137490159D01*
X105275280Y-137478336D01*
X105267712Y-137465710D01*
X105261418Y-137452403D01*
X105256459Y-137438543D01*
X105252882Y-137424264D01*
X105250722Y-137409703D01*
X105250000Y-137395000D01*
X105250000Y-137095000D01*
X105250722Y-137080297D01*
X105252882Y-137065736D01*
X105256459Y-137051457D01*
X105261418Y-137037597D01*
X105267712Y-137024290D01*
X105275280Y-137011664D01*
X105284048Y-136999841D01*
X105293934Y-136988934D01*
X105304841Y-136979048D01*
X105316664Y-136970280D01*
X105329290Y-136962712D01*
X105342597Y-136956418D01*
X105356457Y-136951459D01*
X105370736Y-136947882D01*
X105385297Y-136945722D01*
X105400000Y-136945000D01*
X106700000Y-136945000D01*
X106714703Y-136945722D01*
G37*
G36*
X113214703Y-136945722D02*
G01*
X113229264Y-136947882D01*
X113243543Y-136951459D01*
X113257403Y-136956418D01*
X113270710Y-136962712D01*
X113283336Y-136970280D01*
X113295159Y-136979048D01*
X113306066Y-136988934D01*
X113315952Y-136999841D01*
X113324720Y-137011664D01*
X113332288Y-137024290D01*
X113338582Y-137037597D01*
X113343541Y-137051457D01*
X113347118Y-137065736D01*
X113349278Y-137080297D01*
X113350000Y-137095000D01*
X113350000Y-137395000D01*
X113349278Y-137409703D01*
X113347118Y-137424264D01*
X113343541Y-137438543D01*
X113338582Y-137452403D01*
X113332288Y-137465710D01*
X113324720Y-137478336D01*
X113315952Y-137490159D01*
X113306066Y-137501066D01*
X113295159Y-137510952D01*
X113283336Y-137519720D01*
X113270710Y-137527288D01*
X113257403Y-137533582D01*
X113243543Y-137538541D01*
X113229264Y-137542118D01*
X113214703Y-137544278D01*
X113200000Y-137545000D01*
X111900000Y-137545000D01*
X111885297Y-137544278D01*
X111870736Y-137542118D01*
X111856457Y-137538541D01*
X111842597Y-137533582D01*
X111829290Y-137527288D01*
X111816664Y-137519720D01*
X111804841Y-137510952D01*
X111793934Y-137501066D01*
X111784048Y-137490159D01*
X111775280Y-137478336D01*
X111767712Y-137465710D01*
X111761418Y-137452403D01*
X111756459Y-137438543D01*
X111752882Y-137424264D01*
X111750722Y-137409703D01*
X111750000Y-137395000D01*
X111750000Y-137095000D01*
X111750722Y-137080297D01*
X111752882Y-137065736D01*
X111756459Y-137051457D01*
X111761418Y-137037597D01*
X111767712Y-137024290D01*
X111775280Y-137011664D01*
X111784048Y-136999841D01*
X111793934Y-136988934D01*
X111804841Y-136979048D01*
X111816664Y-136970280D01*
X111829290Y-136962712D01*
X111842597Y-136956418D01*
X111856457Y-136951459D01*
X111870736Y-136947882D01*
X111885297Y-136945722D01*
X111900000Y-136945000D01*
X113200000Y-136945000D01*
X113214703Y-136945722D01*
G37*
G36*
X113214703Y-135675722D02*
G01*
X113229264Y-135677882D01*
X113243543Y-135681459D01*
X113257403Y-135686418D01*
X113270710Y-135692712D01*
X113283336Y-135700280D01*
X113295159Y-135709048D01*
X113306066Y-135718934D01*
X113315952Y-135729841D01*
X113324720Y-135741664D01*
X113332288Y-135754290D01*
X113338582Y-135767597D01*
X113343541Y-135781457D01*
X113347118Y-135795736D01*
X113349278Y-135810297D01*
X113350000Y-135825000D01*
X113350000Y-136125000D01*
X113349278Y-136139703D01*
X113347118Y-136154264D01*
X113343541Y-136168543D01*
X113338582Y-136182403D01*
X113332288Y-136195710D01*
X113324720Y-136208336D01*
X113315952Y-136220159D01*
X113306066Y-136231066D01*
X113295159Y-136240952D01*
X113283336Y-136249720D01*
X113270710Y-136257288D01*
X113257403Y-136263582D01*
X113243543Y-136268541D01*
X113229264Y-136272118D01*
X113214703Y-136274278D01*
X113200000Y-136275000D01*
X111900000Y-136275000D01*
X111885297Y-136274278D01*
X111870736Y-136272118D01*
X111856457Y-136268541D01*
X111842597Y-136263582D01*
X111829290Y-136257288D01*
X111816664Y-136249720D01*
X111804841Y-136240952D01*
X111793934Y-136231066D01*
X111784048Y-136220159D01*
X111775280Y-136208336D01*
X111767712Y-136195710D01*
X111761418Y-136182403D01*
X111756459Y-136168543D01*
X111752882Y-136154264D01*
X111750722Y-136139703D01*
X111750000Y-136125000D01*
X111750000Y-135825000D01*
X111750722Y-135810297D01*
X111752882Y-135795736D01*
X111756459Y-135781457D01*
X111761418Y-135767597D01*
X111767712Y-135754290D01*
X111775280Y-135741664D01*
X111784048Y-135729841D01*
X111793934Y-135718934D01*
X111804841Y-135709048D01*
X111816664Y-135700280D01*
X111829290Y-135692712D01*
X111842597Y-135686418D01*
X111856457Y-135681459D01*
X111870736Y-135677882D01*
X111885297Y-135675722D01*
X111900000Y-135675000D01*
X113200000Y-135675000D01*
X113214703Y-135675722D01*
G37*
G36*
X113214703Y-134405722D02*
G01*
X113229264Y-134407882D01*
X113243543Y-134411459D01*
X113257403Y-134416418D01*
X113270710Y-134422712D01*
X113283336Y-134430280D01*
X113295159Y-134439048D01*
X113306066Y-134448934D01*
X113315952Y-134459841D01*
X113324720Y-134471664D01*
X113332288Y-134484290D01*
X113338582Y-134497597D01*
X113343541Y-134511457D01*
X113347118Y-134525736D01*
X113349278Y-134540297D01*
X113350000Y-134555000D01*
X113350000Y-134855000D01*
X113349278Y-134869703D01*
X113347118Y-134884264D01*
X113343541Y-134898543D01*
X113338582Y-134912403D01*
X113332288Y-134925710D01*
X113324720Y-134938336D01*
X113315952Y-134950159D01*
X113306066Y-134961066D01*
X113295159Y-134970952D01*
X113283336Y-134979720D01*
X113270710Y-134987288D01*
X113257403Y-134993582D01*
X113243543Y-134998541D01*
X113229264Y-135002118D01*
X113214703Y-135004278D01*
X113200000Y-135005000D01*
X111900000Y-135005000D01*
X111885297Y-135004278D01*
X111870736Y-135002118D01*
X111856457Y-134998541D01*
X111842597Y-134993582D01*
X111829290Y-134987288D01*
X111816664Y-134979720D01*
X111804841Y-134970952D01*
X111793934Y-134961066D01*
X111784048Y-134950159D01*
X111775280Y-134938336D01*
X111767712Y-134925710D01*
X111761418Y-134912403D01*
X111756459Y-134898543D01*
X111752882Y-134884264D01*
X111750722Y-134869703D01*
X111750000Y-134855000D01*
X111750000Y-134555000D01*
X111750722Y-134540297D01*
X111752882Y-134525736D01*
X111756459Y-134511457D01*
X111761418Y-134497597D01*
X111767712Y-134484290D01*
X111775280Y-134471664D01*
X111784048Y-134459841D01*
X111793934Y-134448934D01*
X111804841Y-134439048D01*
X111816664Y-134430280D01*
X111829290Y-134422712D01*
X111842597Y-134416418D01*
X111856457Y-134411459D01*
X111870736Y-134407882D01*
X111885297Y-134405722D01*
X111900000Y-134405000D01*
X113200000Y-134405000D01*
X113214703Y-134405722D01*
G37*
G36*
X113214703Y-133135722D02*
G01*
X113229264Y-133137882D01*
X113243543Y-133141459D01*
X113257403Y-133146418D01*
X113270710Y-133152712D01*
X113283336Y-133160280D01*
X113295159Y-133169048D01*
X113306066Y-133178934D01*
X113315952Y-133189841D01*
X113324720Y-133201664D01*
X113332288Y-133214290D01*
X113338582Y-133227597D01*
X113343541Y-133241457D01*
X113347118Y-133255736D01*
X113349278Y-133270297D01*
X113350000Y-133285000D01*
X113350000Y-133585000D01*
X113349278Y-133599703D01*
X113347118Y-133614264D01*
X113343541Y-133628543D01*
X113338582Y-133642403D01*
X113332288Y-133655710D01*
X113324720Y-133668336D01*
X113315952Y-133680159D01*
X113306066Y-133691066D01*
X113295159Y-133700952D01*
X113283336Y-133709720D01*
X113270710Y-133717288D01*
X113257403Y-133723582D01*
X113243543Y-133728541D01*
X113229264Y-133732118D01*
X113214703Y-133734278D01*
X113200000Y-133735000D01*
X111900000Y-133735000D01*
X111885297Y-133734278D01*
X111870736Y-133732118D01*
X111856457Y-133728541D01*
X111842597Y-133723582D01*
X111829290Y-133717288D01*
X111816664Y-133709720D01*
X111804841Y-133700952D01*
X111793934Y-133691066D01*
X111784048Y-133680159D01*
X111775280Y-133668336D01*
X111767712Y-133655710D01*
X111761418Y-133642403D01*
X111756459Y-133628543D01*
X111752882Y-133614264D01*
X111750722Y-133599703D01*
X111750000Y-133585000D01*
X111750000Y-133285000D01*
X111750722Y-133270297D01*
X111752882Y-133255736D01*
X111756459Y-133241457D01*
X111761418Y-133227597D01*
X111767712Y-133214290D01*
X111775280Y-133201664D01*
X111784048Y-133189841D01*
X111793934Y-133178934D01*
X111804841Y-133169048D01*
X111816664Y-133160280D01*
X111829290Y-133152712D01*
X111842597Y-133146418D01*
X111856457Y-133141459D01*
X111870736Y-133137882D01*
X111885297Y-133135722D01*
X111900000Y-133135000D01*
X113200000Y-133135000D01*
X113214703Y-133135722D01*
G37*
G36*
X113214703Y-131865722D02*
G01*
X113229264Y-131867882D01*
X113243543Y-131871459D01*
X113257403Y-131876418D01*
X113270710Y-131882712D01*
X113283336Y-131890280D01*
X113295159Y-131899048D01*
X113306066Y-131908934D01*
X113315952Y-131919841D01*
X113324720Y-131931664D01*
X113332288Y-131944290D01*
X113338582Y-131957597D01*
X113343541Y-131971457D01*
X113347118Y-131985736D01*
X113349278Y-132000297D01*
X113350000Y-132015000D01*
X113350000Y-132315000D01*
X113349278Y-132329703D01*
X113347118Y-132344264D01*
X113343541Y-132358543D01*
X113338582Y-132372403D01*
X113332288Y-132385710D01*
X113324720Y-132398336D01*
X113315952Y-132410159D01*
X113306066Y-132421066D01*
X113295159Y-132430952D01*
X113283336Y-132439720D01*
X113270710Y-132447288D01*
X113257403Y-132453582D01*
X113243543Y-132458541D01*
X113229264Y-132462118D01*
X113214703Y-132464278D01*
X113200000Y-132465000D01*
X111900000Y-132465000D01*
X111885297Y-132464278D01*
X111870736Y-132462118D01*
X111856457Y-132458541D01*
X111842597Y-132453582D01*
X111829290Y-132447288D01*
X111816664Y-132439720D01*
X111804841Y-132430952D01*
X111793934Y-132421066D01*
X111784048Y-132410159D01*
X111775280Y-132398336D01*
X111767712Y-132385710D01*
X111761418Y-132372403D01*
X111756459Y-132358543D01*
X111752882Y-132344264D01*
X111750722Y-132329703D01*
X111750000Y-132315000D01*
X111750000Y-132015000D01*
X111750722Y-132000297D01*
X111752882Y-131985736D01*
X111756459Y-131971457D01*
X111761418Y-131957597D01*
X111767712Y-131944290D01*
X111775280Y-131931664D01*
X111784048Y-131919841D01*
X111793934Y-131908934D01*
X111804841Y-131899048D01*
X111816664Y-131890280D01*
X111829290Y-131882712D01*
X111842597Y-131876418D01*
X111856457Y-131871459D01*
X111870736Y-131867882D01*
X111885297Y-131865722D01*
X111900000Y-131865000D01*
X113200000Y-131865000D01*
X113214703Y-131865722D01*
G37*
G36*
X113214703Y-130595722D02*
G01*
X113229264Y-130597882D01*
X113243543Y-130601459D01*
X113257403Y-130606418D01*
X113270710Y-130612712D01*
X113283336Y-130620280D01*
X113295159Y-130629048D01*
X113306066Y-130638934D01*
X113315952Y-130649841D01*
X113324720Y-130661664D01*
X113332288Y-130674290D01*
X113338582Y-130687597D01*
X113343541Y-130701457D01*
X113347118Y-130715736D01*
X113349278Y-130730297D01*
X113350000Y-130745000D01*
X113350000Y-131045000D01*
X113349278Y-131059703D01*
X113347118Y-131074264D01*
X113343541Y-131088543D01*
X113338582Y-131102403D01*
X113332288Y-131115710D01*
X113324720Y-131128336D01*
X113315952Y-131140159D01*
X113306066Y-131151066D01*
X113295159Y-131160952D01*
X113283336Y-131169720D01*
X113270710Y-131177288D01*
X113257403Y-131183582D01*
X113243543Y-131188541D01*
X113229264Y-131192118D01*
X113214703Y-131194278D01*
X113200000Y-131195000D01*
X111900000Y-131195000D01*
X111885297Y-131194278D01*
X111870736Y-131192118D01*
X111856457Y-131188541D01*
X111842597Y-131183582D01*
X111829290Y-131177288D01*
X111816664Y-131169720D01*
X111804841Y-131160952D01*
X111793934Y-131151066D01*
X111784048Y-131140159D01*
X111775280Y-131128336D01*
X111767712Y-131115710D01*
X111761418Y-131102403D01*
X111756459Y-131088543D01*
X111752882Y-131074264D01*
X111750722Y-131059703D01*
X111750000Y-131045000D01*
X111750000Y-130745000D01*
X111750722Y-130730297D01*
X111752882Y-130715736D01*
X111756459Y-130701457D01*
X111761418Y-130687597D01*
X111767712Y-130674290D01*
X111775280Y-130661664D01*
X111784048Y-130649841D01*
X111793934Y-130638934D01*
X111804841Y-130629048D01*
X111816664Y-130620280D01*
X111829290Y-130612712D01*
X111842597Y-130606418D01*
X111856457Y-130601459D01*
X111870736Y-130597882D01*
X111885297Y-130595722D01*
X111900000Y-130595000D01*
X113200000Y-130595000D01*
X113214703Y-130595722D01*
G37*
G36*
X113214703Y-129325722D02*
G01*
X113229264Y-129327882D01*
X113243543Y-129331459D01*
X113257403Y-129336418D01*
X113270710Y-129342712D01*
X113283336Y-129350280D01*
X113295159Y-129359048D01*
X113306066Y-129368934D01*
X113315952Y-129379841D01*
X113324720Y-129391664D01*
X113332288Y-129404290D01*
X113338582Y-129417597D01*
X113343541Y-129431457D01*
X113347118Y-129445736D01*
X113349278Y-129460297D01*
X113350000Y-129475000D01*
X113350000Y-129775000D01*
X113349278Y-129789703D01*
X113347118Y-129804264D01*
X113343541Y-129818543D01*
X113338582Y-129832403D01*
X113332288Y-129845710D01*
X113324720Y-129858336D01*
X113315952Y-129870159D01*
X113306066Y-129881066D01*
X113295159Y-129890952D01*
X113283336Y-129899720D01*
X113270710Y-129907288D01*
X113257403Y-129913582D01*
X113243543Y-129918541D01*
X113229264Y-129922118D01*
X113214703Y-129924278D01*
X113200000Y-129925000D01*
X111900000Y-129925000D01*
X111885297Y-129924278D01*
X111870736Y-129922118D01*
X111856457Y-129918541D01*
X111842597Y-129913582D01*
X111829290Y-129907288D01*
X111816664Y-129899720D01*
X111804841Y-129890952D01*
X111793934Y-129881066D01*
X111784048Y-129870159D01*
X111775280Y-129858336D01*
X111767712Y-129845710D01*
X111761418Y-129832403D01*
X111756459Y-129818543D01*
X111752882Y-129804264D01*
X111750722Y-129789703D01*
X111750000Y-129775000D01*
X111750000Y-129475000D01*
X111750722Y-129460297D01*
X111752882Y-129445736D01*
X111756459Y-129431457D01*
X111761418Y-129417597D01*
X111767712Y-129404290D01*
X111775280Y-129391664D01*
X111784048Y-129379841D01*
X111793934Y-129368934D01*
X111804841Y-129359048D01*
X111816664Y-129350280D01*
X111829290Y-129342712D01*
X111842597Y-129336418D01*
X111856457Y-129331459D01*
X111870736Y-129327882D01*
X111885297Y-129325722D01*
X111900000Y-129325000D01*
X113200000Y-129325000D01*
X113214703Y-129325722D01*
G37*
G36*
X113214703Y-128055722D02*
G01*
X113229264Y-128057882D01*
X113243543Y-128061459D01*
X113257403Y-128066418D01*
X113270710Y-128072712D01*
X113283336Y-128080280D01*
X113295159Y-128089048D01*
X113306066Y-128098934D01*
X113315952Y-128109841D01*
X113324720Y-128121664D01*
X113332288Y-128134290D01*
X113338582Y-128147597D01*
X113343541Y-128161457D01*
X113347118Y-128175736D01*
X113349278Y-128190297D01*
X113350000Y-128205000D01*
X113350000Y-128505000D01*
X113349278Y-128519703D01*
X113347118Y-128534264D01*
X113343541Y-128548543D01*
X113338582Y-128562403D01*
X113332288Y-128575710D01*
X113324720Y-128588336D01*
X113315952Y-128600159D01*
X113306066Y-128611066D01*
X113295159Y-128620952D01*
X113283336Y-128629720D01*
X113270710Y-128637288D01*
X113257403Y-128643582D01*
X113243543Y-128648541D01*
X113229264Y-128652118D01*
X113214703Y-128654278D01*
X113200000Y-128655000D01*
X111900000Y-128655000D01*
X111885297Y-128654278D01*
X111870736Y-128652118D01*
X111856457Y-128648541D01*
X111842597Y-128643582D01*
X111829290Y-128637288D01*
X111816664Y-128629720D01*
X111804841Y-128620952D01*
X111793934Y-128611066D01*
X111784048Y-128600159D01*
X111775280Y-128588336D01*
X111767712Y-128575710D01*
X111761418Y-128562403D01*
X111756459Y-128548543D01*
X111752882Y-128534264D01*
X111750722Y-128519703D01*
X111750000Y-128505000D01*
X111750000Y-128205000D01*
X111750722Y-128190297D01*
X111752882Y-128175736D01*
X111756459Y-128161457D01*
X111761418Y-128147597D01*
X111767712Y-128134290D01*
X111775280Y-128121664D01*
X111784048Y-128109841D01*
X111793934Y-128098934D01*
X111804841Y-128089048D01*
X111816664Y-128080280D01*
X111829290Y-128072712D01*
X111842597Y-128066418D01*
X111856457Y-128061459D01*
X111870736Y-128057882D01*
X111885297Y-128055722D01*
X111900000Y-128055000D01*
X113200000Y-128055000D01*
X113214703Y-128055722D01*
G37*
G36*
X122564703Y-132295722D02*
G01*
X122579264Y-132297882D01*
X122593543Y-132301459D01*
X122607403Y-132306418D01*
X122620710Y-132312712D01*
X122633336Y-132320280D01*
X122645159Y-132329048D01*
X122656066Y-132338934D01*
X122665952Y-132349841D01*
X122674720Y-132361664D01*
X122682288Y-132374290D01*
X122688582Y-132387597D01*
X122693541Y-132401457D01*
X122697118Y-132415736D01*
X122699278Y-132430297D01*
X122700000Y-132445000D01*
X122700000Y-132745000D01*
X122699278Y-132759703D01*
X122697118Y-132774264D01*
X122693541Y-132788543D01*
X122688582Y-132802403D01*
X122682288Y-132815710D01*
X122674720Y-132828336D01*
X122665952Y-132840159D01*
X122656066Y-132851066D01*
X122645159Y-132860952D01*
X122633336Y-132869720D01*
X122620710Y-132877288D01*
X122607403Y-132883582D01*
X122593543Y-132888541D01*
X122579264Y-132892118D01*
X122564703Y-132894278D01*
X122550000Y-132895000D01*
X121100000Y-132895000D01*
X121085297Y-132894278D01*
X121070736Y-132892118D01*
X121056457Y-132888541D01*
X121042597Y-132883582D01*
X121029290Y-132877288D01*
X121016664Y-132869720D01*
X121004841Y-132860952D01*
X120993934Y-132851066D01*
X120984048Y-132840159D01*
X120975280Y-132828336D01*
X120967712Y-132815710D01*
X120961418Y-132802403D01*
X120956459Y-132788543D01*
X120952882Y-132774264D01*
X120950722Y-132759703D01*
X120950000Y-132745000D01*
X120950000Y-132445000D01*
X120950722Y-132430297D01*
X120952882Y-132415736D01*
X120956459Y-132401457D01*
X120961418Y-132387597D01*
X120967712Y-132374290D01*
X120975280Y-132361664D01*
X120984048Y-132349841D01*
X120993934Y-132338934D01*
X121004841Y-132329048D01*
X121016664Y-132320280D01*
X121029290Y-132312712D01*
X121042597Y-132306418D01*
X121056457Y-132301459D01*
X121070736Y-132297882D01*
X121085297Y-132295722D01*
X121100000Y-132295000D01*
X122550000Y-132295000D01*
X122564703Y-132295722D01*
G37*
G36*
X122564703Y-133565722D02*
G01*
X122579264Y-133567882D01*
X122593543Y-133571459D01*
X122607403Y-133576418D01*
X122620710Y-133582712D01*
X122633336Y-133590280D01*
X122645159Y-133599048D01*
X122656066Y-133608934D01*
X122665952Y-133619841D01*
X122674720Y-133631664D01*
X122682288Y-133644290D01*
X122688582Y-133657597D01*
X122693541Y-133671457D01*
X122697118Y-133685736D01*
X122699278Y-133700297D01*
X122700000Y-133715000D01*
X122700000Y-134015000D01*
X122699278Y-134029703D01*
X122697118Y-134044264D01*
X122693541Y-134058543D01*
X122688582Y-134072403D01*
X122682288Y-134085710D01*
X122674720Y-134098336D01*
X122665952Y-134110159D01*
X122656066Y-134121066D01*
X122645159Y-134130952D01*
X122633336Y-134139720D01*
X122620710Y-134147288D01*
X122607403Y-134153582D01*
X122593543Y-134158541D01*
X122579264Y-134162118D01*
X122564703Y-134164278D01*
X122550000Y-134165000D01*
X121100000Y-134165000D01*
X121085297Y-134164278D01*
X121070736Y-134162118D01*
X121056457Y-134158541D01*
X121042597Y-134153582D01*
X121029290Y-134147288D01*
X121016664Y-134139720D01*
X121004841Y-134130952D01*
X120993934Y-134121066D01*
X120984048Y-134110159D01*
X120975280Y-134098336D01*
X120967712Y-134085710D01*
X120961418Y-134072403D01*
X120956459Y-134058543D01*
X120952882Y-134044264D01*
X120950722Y-134029703D01*
X120950000Y-134015000D01*
X120950000Y-133715000D01*
X120950722Y-133700297D01*
X120952882Y-133685736D01*
X120956459Y-133671457D01*
X120961418Y-133657597D01*
X120967712Y-133644290D01*
X120975280Y-133631664D01*
X120984048Y-133619841D01*
X120993934Y-133608934D01*
X121004841Y-133599048D01*
X121016664Y-133590280D01*
X121029290Y-133582712D01*
X121042597Y-133576418D01*
X121056457Y-133571459D01*
X121070736Y-133567882D01*
X121085297Y-133565722D01*
X121100000Y-133565000D01*
X122550000Y-133565000D01*
X122564703Y-133565722D01*
G37*
G36*
X122564703Y-134835722D02*
G01*
X122579264Y-134837882D01*
X122593543Y-134841459D01*
X122607403Y-134846418D01*
X122620710Y-134852712D01*
X122633336Y-134860280D01*
X122645159Y-134869048D01*
X122656066Y-134878934D01*
X122665952Y-134889841D01*
X122674720Y-134901664D01*
X122682288Y-134914290D01*
X122688582Y-134927597D01*
X122693541Y-134941457D01*
X122697118Y-134955736D01*
X122699278Y-134970297D01*
X122700000Y-134985000D01*
X122700000Y-135285000D01*
X122699278Y-135299703D01*
X122697118Y-135314264D01*
X122693541Y-135328543D01*
X122688582Y-135342403D01*
X122682288Y-135355710D01*
X122674720Y-135368336D01*
X122665952Y-135380159D01*
X122656066Y-135391066D01*
X122645159Y-135400952D01*
X122633336Y-135409720D01*
X122620710Y-135417288D01*
X122607403Y-135423582D01*
X122593543Y-135428541D01*
X122579264Y-135432118D01*
X122564703Y-135434278D01*
X122550000Y-135435000D01*
X121100000Y-135435000D01*
X121085297Y-135434278D01*
X121070736Y-135432118D01*
X121056457Y-135428541D01*
X121042597Y-135423582D01*
X121029290Y-135417288D01*
X121016664Y-135409720D01*
X121004841Y-135400952D01*
X120993934Y-135391066D01*
X120984048Y-135380159D01*
X120975280Y-135368336D01*
X120967712Y-135355710D01*
X120961418Y-135342403D01*
X120956459Y-135328543D01*
X120952882Y-135314264D01*
X120950722Y-135299703D01*
X120950000Y-135285000D01*
X120950000Y-134985000D01*
X120950722Y-134970297D01*
X120952882Y-134955736D01*
X120956459Y-134941457D01*
X120961418Y-134927597D01*
X120967712Y-134914290D01*
X120975280Y-134901664D01*
X120984048Y-134889841D01*
X120993934Y-134878934D01*
X121004841Y-134869048D01*
X121016664Y-134860280D01*
X121029290Y-134852712D01*
X121042597Y-134846418D01*
X121056457Y-134841459D01*
X121070736Y-134837882D01*
X121085297Y-134835722D01*
X121100000Y-134835000D01*
X122550000Y-134835000D01*
X122564703Y-134835722D01*
G37*
G36*
X122564703Y-136105722D02*
G01*
X122579264Y-136107882D01*
X122593543Y-136111459D01*
X122607403Y-136116418D01*
X122620710Y-136122712D01*
X122633336Y-136130280D01*
X122645159Y-136139048D01*
X122656066Y-136148934D01*
X122665952Y-136159841D01*
X122674720Y-136171664D01*
X122682288Y-136184290D01*
X122688582Y-136197597D01*
X122693541Y-136211457D01*
X122697118Y-136225736D01*
X122699278Y-136240297D01*
X122700000Y-136255000D01*
X122700000Y-136555000D01*
X122699278Y-136569703D01*
X122697118Y-136584264D01*
X122693541Y-136598543D01*
X122688582Y-136612403D01*
X122682288Y-136625710D01*
X122674720Y-136638336D01*
X122665952Y-136650159D01*
X122656066Y-136661066D01*
X122645159Y-136670952D01*
X122633336Y-136679720D01*
X122620710Y-136687288D01*
X122607403Y-136693582D01*
X122593543Y-136698541D01*
X122579264Y-136702118D01*
X122564703Y-136704278D01*
X122550000Y-136705000D01*
X121100000Y-136705000D01*
X121085297Y-136704278D01*
X121070736Y-136702118D01*
X121056457Y-136698541D01*
X121042597Y-136693582D01*
X121029290Y-136687288D01*
X121016664Y-136679720D01*
X121004841Y-136670952D01*
X120993934Y-136661066D01*
X120984048Y-136650159D01*
X120975280Y-136638336D01*
X120967712Y-136625710D01*
X120961418Y-136612403D01*
X120956459Y-136598543D01*
X120952882Y-136584264D01*
X120950722Y-136569703D01*
X120950000Y-136555000D01*
X120950000Y-136255000D01*
X120950722Y-136240297D01*
X120952882Y-136225736D01*
X120956459Y-136211457D01*
X120961418Y-136197597D01*
X120967712Y-136184290D01*
X120975280Y-136171664D01*
X120984048Y-136159841D01*
X120993934Y-136148934D01*
X121004841Y-136139048D01*
X121016664Y-136130280D01*
X121029290Y-136122712D01*
X121042597Y-136116418D01*
X121056457Y-136111459D01*
X121070736Y-136107882D01*
X121085297Y-136105722D01*
X121100000Y-136105000D01*
X122550000Y-136105000D01*
X122564703Y-136105722D01*
G37*
G36*
X127714703Y-136105722D02*
G01*
X127729264Y-136107882D01*
X127743543Y-136111459D01*
X127757403Y-136116418D01*
X127770710Y-136122712D01*
X127783336Y-136130280D01*
X127795159Y-136139048D01*
X127806066Y-136148934D01*
X127815952Y-136159841D01*
X127824720Y-136171664D01*
X127832288Y-136184290D01*
X127838582Y-136197597D01*
X127843541Y-136211457D01*
X127847118Y-136225736D01*
X127849278Y-136240297D01*
X127850000Y-136255000D01*
X127850000Y-136555000D01*
X127849278Y-136569703D01*
X127847118Y-136584264D01*
X127843541Y-136598543D01*
X127838582Y-136612403D01*
X127832288Y-136625710D01*
X127824720Y-136638336D01*
X127815952Y-136650159D01*
X127806066Y-136661066D01*
X127795159Y-136670952D01*
X127783336Y-136679720D01*
X127770710Y-136687288D01*
X127757403Y-136693582D01*
X127743543Y-136698541D01*
X127729264Y-136702118D01*
X127714703Y-136704278D01*
X127700000Y-136705000D01*
X126250000Y-136705000D01*
X126235297Y-136704278D01*
X126220736Y-136702118D01*
X126206457Y-136698541D01*
X126192597Y-136693582D01*
X126179290Y-136687288D01*
X126166664Y-136679720D01*
X126154841Y-136670952D01*
X126143934Y-136661066D01*
X126134048Y-136650159D01*
X126125280Y-136638336D01*
X126117712Y-136625710D01*
X126111418Y-136612403D01*
X126106459Y-136598543D01*
X126102882Y-136584264D01*
X126100722Y-136569703D01*
X126100000Y-136555000D01*
X126100000Y-136255000D01*
X126100722Y-136240297D01*
X126102882Y-136225736D01*
X126106459Y-136211457D01*
X126111418Y-136197597D01*
X126117712Y-136184290D01*
X126125280Y-136171664D01*
X126134048Y-136159841D01*
X126143934Y-136148934D01*
X126154841Y-136139048D01*
X126166664Y-136130280D01*
X126179290Y-136122712D01*
X126192597Y-136116418D01*
X126206457Y-136111459D01*
X126220736Y-136107882D01*
X126235297Y-136105722D01*
X126250000Y-136105000D01*
X127700000Y-136105000D01*
X127714703Y-136105722D01*
G37*
G36*
X127714703Y-134835722D02*
G01*
X127729264Y-134837882D01*
X127743543Y-134841459D01*
X127757403Y-134846418D01*
X127770710Y-134852712D01*
X127783336Y-134860280D01*
X127795159Y-134869048D01*
X127806066Y-134878934D01*
X127815952Y-134889841D01*
X127824720Y-134901664D01*
X127832288Y-134914290D01*
X127838582Y-134927597D01*
X127843541Y-134941457D01*
X127847118Y-134955736D01*
X127849278Y-134970297D01*
X127850000Y-134985000D01*
X127850000Y-135285000D01*
X127849278Y-135299703D01*
X127847118Y-135314264D01*
X127843541Y-135328543D01*
X127838582Y-135342403D01*
X127832288Y-135355710D01*
X127824720Y-135368336D01*
X127815952Y-135380159D01*
X127806066Y-135391066D01*
X127795159Y-135400952D01*
X127783336Y-135409720D01*
X127770710Y-135417288D01*
X127757403Y-135423582D01*
X127743543Y-135428541D01*
X127729264Y-135432118D01*
X127714703Y-135434278D01*
X127700000Y-135435000D01*
X126250000Y-135435000D01*
X126235297Y-135434278D01*
X126220736Y-135432118D01*
X126206457Y-135428541D01*
X126192597Y-135423582D01*
X126179290Y-135417288D01*
X126166664Y-135409720D01*
X126154841Y-135400952D01*
X126143934Y-135391066D01*
X126134048Y-135380159D01*
X126125280Y-135368336D01*
X126117712Y-135355710D01*
X126111418Y-135342403D01*
X126106459Y-135328543D01*
X126102882Y-135314264D01*
X126100722Y-135299703D01*
X126100000Y-135285000D01*
X126100000Y-134985000D01*
X126100722Y-134970297D01*
X126102882Y-134955736D01*
X126106459Y-134941457D01*
X126111418Y-134927597D01*
X126117712Y-134914290D01*
X126125280Y-134901664D01*
X126134048Y-134889841D01*
X126143934Y-134878934D01*
X126154841Y-134869048D01*
X126166664Y-134860280D01*
X126179290Y-134852712D01*
X126192597Y-134846418D01*
X126206457Y-134841459D01*
X126220736Y-134837882D01*
X126235297Y-134835722D01*
X126250000Y-134835000D01*
X127700000Y-134835000D01*
X127714703Y-134835722D01*
G37*
G36*
X127714703Y-133565722D02*
G01*
X127729264Y-133567882D01*
X127743543Y-133571459D01*
X127757403Y-133576418D01*
X127770710Y-133582712D01*
X127783336Y-133590280D01*
X127795159Y-133599048D01*
X127806066Y-133608934D01*
X127815952Y-133619841D01*
X127824720Y-133631664D01*
X127832288Y-133644290D01*
X127838582Y-133657597D01*
X127843541Y-133671457D01*
X127847118Y-133685736D01*
X127849278Y-133700297D01*
X127850000Y-133715000D01*
X127850000Y-134015000D01*
X127849278Y-134029703D01*
X127847118Y-134044264D01*
X127843541Y-134058543D01*
X127838582Y-134072403D01*
X127832288Y-134085710D01*
X127824720Y-134098336D01*
X127815952Y-134110159D01*
X127806066Y-134121066D01*
X127795159Y-134130952D01*
X127783336Y-134139720D01*
X127770710Y-134147288D01*
X127757403Y-134153582D01*
X127743543Y-134158541D01*
X127729264Y-134162118D01*
X127714703Y-134164278D01*
X127700000Y-134165000D01*
X126250000Y-134165000D01*
X126235297Y-134164278D01*
X126220736Y-134162118D01*
X126206457Y-134158541D01*
X126192597Y-134153582D01*
X126179290Y-134147288D01*
X126166664Y-134139720D01*
X126154841Y-134130952D01*
X126143934Y-134121066D01*
X126134048Y-134110159D01*
X126125280Y-134098336D01*
X126117712Y-134085710D01*
X126111418Y-134072403D01*
X126106459Y-134058543D01*
X126102882Y-134044264D01*
X126100722Y-134029703D01*
X126100000Y-134015000D01*
X126100000Y-133715000D01*
X126100722Y-133700297D01*
X126102882Y-133685736D01*
X126106459Y-133671457D01*
X126111418Y-133657597D01*
X126117712Y-133644290D01*
X126125280Y-133631664D01*
X126134048Y-133619841D01*
X126143934Y-133608934D01*
X126154841Y-133599048D01*
X126166664Y-133590280D01*
X126179290Y-133582712D01*
X126192597Y-133576418D01*
X126206457Y-133571459D01*
X126220736Y-133567882D01*
X126235297Y-133565722D01*
X126250000Y-133565000D01*
X127700000Y-133565000D01*
X127714703Y-133565722D01*
G37*
G36*
X127714703Y-132295722D02*
G01*
X127729264Y-132297882D01*
X127743543Y-132301459D01*
X127757403Y-132306418D01*
X127770710Y-132312712D01*
X127783336Y-132320280D01*
X127795159Y-132329048D01*
X127806066Y-132338934D01*
X127815952Y-132349841D01*
X127824720Y-132361664D01*
X127832288Y-132374290D01*
X127838582Y-132387597D01*
X127843541Y-132401457D01*
X127847118Y-132415736D01*
X127849278Y-132430297D01*
X127850000Y-132445000D01*
X127850000Y-132745000D01*
X127849278Y-132759703D01*
X127847118Y-132774264D01*
X127843541Y-132788543D01*
X127838582Y-132802403D01*
X127832288Y-132815710D01*
X127824720Y-132828336D01*
X127815952Y-132840159D01*
X127806066Y-132851066D01*
X127795159Y-132860952D01*
X127783336Y-132869720D01*
X127770710Y-132877288D01*
X127757403Y-132883582D01*
X127743543Y-132888541D01*
X127729264Y-132892118D01*
X127714703Y-132894278D01*
X127700000Y-132895000D01*
X126250000Y-132895000D01*
X126235297Y-132894278D01*
X126220736Y-132892118D01*
X126206457Y-132888541D01*
X126192597Y-132883582D01*
X126179290Y-132877288D01*
X126166664Y-132869720D01*
X126154841Y-132860952D01*
X126143934Y-132851066D01*
X126134048Y-132840159D01*
X126125280Y-132828336D01*
X126117712Y-132815710D01*
X126111418Y-132802403D01*
X126106459Y-132788543D01*
X126102882Y-132774264D01*
X126100722Y-132759703D01*
X126100000Y-132745000D01*
X126100000Y-132445000D01*
X126100722Y-132430297D01*
X126102882Y-132415736D01*
X126106459Y-132401457D01*
X126111418Y-132387597D01*
X126117712Y-132374290D01*
X126125280Y-132361664D01*
X126134048Y-132349841D01*
X126143934Y-132338934D01*
X126154841Y-132329048D01*
X126166664Y-132320280D01*
X126179290Y-132312712D01*
X126192597Y-132306418D01*
X126206457Y-132301459D01*
X126220736Y-132297882D01*
X126235297Y-132295722D01*
X126250000Y-132295000D01*
X127700000Y-132295000D01*
X127714703Y-132295722D01*
G37*
D28*
X124630000Y-143952500D03*
X124630000Y-143000000D03*
D29*
X124630000Y-142047500D03*
D28*
X127170000Y-142047500D03*
X127170000Y-143000000D03*
X127170000Y-143952500D03*
D27*
X106650000Y-57800000D03*
X104750000Y-57800000D03*
D30*
X116100000Y-131200000D03*
X116100000Y-137400000D03*
D31*
X114950000Y-147300000D03*
X114950000Y-141800000D03*
X106050000Y-147300000D03*
X106050000Y-141800000D03*
D32*
X112100000Y-141700000D03*
X111300000Y-141700000D03*
X110500000Y-141700000D03*
X109700000Y-141700000D03*
X108900000Y-141700000D03*
D11*
X112600000Y-124000000D03*
X110600000Y-124000000D03*
X116500000Y-77900000D03*
X118500000Y-77900000D03*
X106200000Y-83100000D03*
X104200000Y-83100000D03*
X116900000Y-86800000D03*
X118900000Y-86800000D03*
D25*
X103600000Y-130100000D03*
X103600000Y-132100000D03*
D27*
X147550000Y-108200000D03*
X145650000Y-108200000D03*
D33*
X125400000Y-62750000D03*
X125400000Y-64650000D03*
D27*
X124050000Y-80600000D03*
X122150000Y-80600000D03*
X125450000Y-84400000D03*
X123550000Y-84400000D03*
X125150000Y-71500000D03*
X123250000Y-71500000D03*
D33*
X119250000Y-131850001D03*
X119250000Y-133750001D03*
D27*
X131200000Y-135600000D03*
X129300000Y-135600000D03*
X131200000Y-133350000D03*
X129300000Y-133350000D03*
D33*
X122250000Y-139650000D03*
X122250000Y-141550000D03*
X129300000Y-143000000D03*
X129300000Y-141100000D03*
X141550000Y-132100000D03*
X141550000Y-134000000D03*
X139600000Y-134000000D03*
X139600000Y-132100000D03*
D27*
X127450000Y-105500000D03*
X125550000Y-105500000D03*
X135650000Y-109100000D03*
X137550000Y-109100000D03*
X137500000Y-111200000D03*
X135600000Y-111200000D03*
X136150000Y-105400000D03*
X138050000Y-105400000D03*
X131050000Y-103000000D03*
X132950000Y-103000000D03*
D33*
X145400000Y-117450000D03*
X145400000Y-119350000D03*
D27*
X117050000Y-103000000D03*
X118950000Y-103000000D03*
X105850000Y-113500000D03*
X107750000Y-113500000D03*
X105850000Y-115900000D03*
X107750000Y-115900000D03*
X107750000Y-118300000D03*
X105850000Y-118300000D03*
D33*
X106900000Y-61449999D03*
X106900000Y-59549999D03*
D34*
X117600000Y-63399999D03*
X116500000Y-63399999D03*
X115400000Y-63399999D03*
X114300000Y-63399999D03*
X113200000Y-63399999D03*
X112100000Y-63399999D03*
X111000000Y-63399999D03*
X108000000Y-63399999D03*
X106900000Y-63399999D03*
X105800000Y-63399999D03*
X104700000Y-63399999D03*
X103600000Y-63399999D03*
X103600000Y-75399999D03*
X104700000Y-75399999D03*
X105800000Y-75399999D03*
X106900000Y-75399999D03*
X108000000Y-75399999D03*
X111000000Y-75399999D03*
X112100000Y-75399999D03*
X113200000Y-75399999D03*
X114300000Y-75399999D03*
X115400000Y-75399999D03*
X117600000Y-75399999D03*
X116500000Y-75399999D03*
D10*
X122300000Y-129300000D03*
X119300000Y-129300000D03*
X127400000Y-139600000D03*
X124400000Y-139600000D03*
X146350000Y-130000000D03*
X143350000Y-130000000D03*
D35*
X142350000Y-142200000D03*
X136850000Y-142200000D03*
D10*
X119500000Y-80800000D03*
X116500000Y-80800000D03*
D36*
X110350000Y-80975000D03*
X110350000Y-80325000D03*
X110350000Y-79675000D03*
X110350000Y-79025000D03*
X104450000Y-79025000D03*
X104450000Y-79675000D03*
X104450000Y-80325000D03*
X104450000Y-80975000D03*
D37*
X141880000Y-103000000D03*
X136120000Y-103000000D03*
X136120000Y-99000000D03*
X141880000Y-99000000D03*
X127880000Y-103000000D03*
X122120000Y-103000000D03*
X122120000Y-99000000D03*
X127880000Y-99000000D03*
X113880000Y-103000000D03*
X108120000Y-103000000D03*
X108120000Y-99000000D03*
X113880000Y-99000000D03*
D11*
X147600000Y-106200000D03*
X145600000Y-106200000D03*
X145600000Y-110200000D03*
X147600000Y-110200000D03*
X125600000Y-82500000D03*
X123600000Y-82500000D03*
D25*
X119250000Y-135350000D03*
X119250000Y-137350000D03*
X122250000Y-145100000D03*
X122250000Y-143100000D03*
X137200000Y-127500000D03*
X137200000Y-125500000D03*
D11*
X120400000Y-114300000D03*
X122400000Y-114300000D03*
X122400000Y-112300000D03*
X120400000Y-112300000D03*
X135600000Y-115400000D03*
X137600000Y-115400000D03*
D25*
X115900000Y-117400000D03*
X115900000Y-119400000D03*
D11*
X137600000Y-113400000D03*
X135600000Y-113400000D03*
D25*
X114900000Y-126300000D03*
X114900000Y-128300000D03*
X123900000Y-122600000D03*
X123900000Y-120600000D03*
X109700000Y-118400000D03*
X109700000Y-116400000D03*
D33*
X115400000Y-61250000D03*
X115400000Y-59350000D03*
D38*
X133150000Y-135600000D03*
X135350000Y-135600000D03*
X133149999Y-133350000D03*
X135349999Y-133350000D03*
X121400000Y-105500000D03*
X123600000Y-105500000D03*
X105500000Y-120500000D03*
X107700000Y-120500000D03*
X111000000Y-59400000D03*
X113200000Y-59400000D03*
D35*
X118050000Y-117460000D03*
X118050000Y-122540000D03*
X121750000Y-122540000D03*
X121750000Y-117460000D03*
M02*
